<svg width="68" height="28" viewBox="0 0 68 28" fill="none" xmlns="http://www.w3.org/2000/svg">
<path d="M57.7362 24.9961C57.7394 24.993 57.7425 24.9898 57.7457 24.9867L67.5474 15.1978C67.6248 15.12 67.6935 15.0341 67.7524 14.9415L67.9061 14.6597L67.9702 14.4675L67.9702 14.3265C68.0099 14.1106 68.0099 13.8891 67.9702 13.6731L67.9702 13.545L67.9702 13.3912L67.8549 13.1734C67.789 13.052 67.7071 12.9399 67.6115 12.8402L57.7457 3.01295C57.0929 2.35488 56.0301 2.35062 55.372 3.00346C55.3689 3.00659 55.3657 3.00977 55.3626 3.01295C54.7296 3.67631 54.7296 4.7199 55.3626 5.38332L61.2051 11.2387C61.4528 11.4913 61.4489 11.8969 61.1962 12.1446C61.0786 12.2599 60.9213 12.3255 60.7567 12.3277L1.67862 12.3277C0.751602 12.3277 7.48565e-05 13.0791 1.47566e-05 14.0061C-4.53434e-05 14.9331 0.751358 15.6846 1.67837 15.6847L60.7567 15.6847C61.1104 15.6897 61.3932 15.9805 61.3883 16.3343C61.3859 16.4988 61.3204 16.6562 61.2051 16.7738L55.3626 22.6036C54.7215 23.2686 54.7215 24.3217 55.3626 24.9867C56.0154 25.6448 57.0781 25.649 57.7362 24.9961Z" fill="white"/>
</svg>
