<svg width="65" height="64" viewBox="0 0 65 64" fill="none" xmlns="http://www.w3.org/2000/svg">
<path d="M38.5 48C38.7652 48 39.0196 47.8946 39.2071 47.7071C39.3946 47.5196 39.5 47.2652 39.5 47C39.5 46.7348 39.3946 46.4804 39.2071 46.2929C39.0196 46.1054 38.7652 46 38.5 46H26.5C26.2348 46 25.9804 46.1054 25.7929 46.2929C25.6054 46.4804 25.5 46.7348 25.5 47C25.5 47.2652 25.6054 47.5196 25.7929 47.7071C25.9804 47.8946 26.2348 48 26.5 48H38.5Z" fill="#16222E"/>
<path d="M43.5 50H31.5C31.2348 50 30.9804 50.1054 30.7929 50.2929C30.6054 50.4804 30.5 50.7348 30.5 51C30.5 51.2652 30.6054 51.5196 30.7929 51.7071C30.9804 51.8946 31.2348 52 31.5 52H43.5C43.7652 52 44.0196 51.8946 44.2071 51.7071C44.3946 51.5196 44.5 51.2652 44.5 51C44.5 50.7348 44.3946 50.4804 44.2071 50.2929C44.0196 50.1054 43.7652 50 43.5 50Z" fill="#16222E"/>
<path d="M32.5 31H29.5V35H32.5C33.0304 35 33.5391 34.7893 33.9142 34.4142C34.2893 34.0391 34.5 33.5304 34.5 33C34.5 32.4696 34.2893 31.9609 33.9142 31.5858C33.5391 31.2107 33.0304 31 32.5 31Z" fill="#16222E"/>
<path d="M43.5 54H31.5C31.2348 54 30.9804 54.1054 30.7929 54.2929C30.6054 54.4804 30.5 54.7348 30.5 55C30.5 55.2652 30.6054 55.5196 30.7929 55.7071C30.9804 55.8946 31.2348 56 31.5 56H43.5C43.7652 56 44.0196 55.8946 44.2071 55.7071C44.3946 55.5196 44.5 55.2652 44.5 55C44.5 54.7348 44.3946 54.4804 44.2071 54.2929C44.0196 54.1054 43.7652 54 43.5 54Z" fill="#16222E"/>
<path d="M23.5 56C23.7652 56 24.0196 55.8946 24.2071 55.7071C24.3946 55.5196 24.5 55.2652 24.5 55C24.5 54.7348 24.3946 54.4804 24.2071 54.2929C24.0196 54.1054 23.7652 54 23.5 54H11.5C11.2348 54 10.9804 54.1054 10.7929 54.2929C10.6054 54.4804 10.5 54.7348 10.5 55C10.5 55.2652 10.6054 55.5196 10.7929 55.7071C10.9804 55.8946 11.2348 56 11.5 56H23.5Z" fill="#16222E"/>
<path d="M32.5 25H29.5V29H32.5C33.0304 29 33.5391 28.7893 33.9142 28.4142C34.2893 28.0391 34.5 27.5304 34.5 27C34.5 26.4696 34.2893 25.9609 33.9142 25.5858C33.5391 25.2107 33.0304 25 32.5 25Z" fill="#16222E"/>
<path d="M47.5 46C47.2348 46 46.9804 46.1054 46.7929 46.2929C46.6054 46.4804 46.5 46.7348 46.5 47C46.5 47.2652 46.6054 47.5196 46.7929 47.7071C46.9804 47.8946 47.2348 48 47.5 48H59.5C59.7652 48 60.0196 47.8946 60.2071 47.7071C60.3946 47.5196 60.5 47.2652 60.5 47C60.5 46.7348 60.3946 46.4804 60.2071 46.2929C60.0196 46.1054 59.7652 46 59.5 46H47.5Z" fill="#16222E"/>
<path d="M27.5 58H15.5C15.2348 58 14.9804 58.1054 14.7929 58.2929C14.6054 58.4804 14.5 58.7348 14.5 59C14.5 59.2652 14.6054 59.5196 14.7929 59.7071C14.9804 59.8946 15.2348 60 15.5 60H27.5C27.7652 60 28.0196 59.8946 28.2071 59.7071C28.3946 59.5196 28.5 59.2652 28.5 59C28.5 58.7348 28.3946 58.4804 28.2071 58.2929C28.0196 58.1054 27.7652 58 27.5 58Z" fill="#16222E"/>
<path d="M43.5 58H31.5C31.2348 58 30.9804 58.1054 30.7929 58.2929C30.6054 58.4804 30.5 58.7348 30.5 59C30.5 59.2652 30.6054 59.5196 30.7929 59.7071C30.9804 59.8946 31.2348 60 31.5 60H43.5C43.7652 60 44.0196 59.8946 44.2071 59.7071C44.3946 59.5196 44.5 59.2652 44.5 59C44.5 58.7348 44.3946 58.4804 44.2071 58.2929C44.0196 58.1054 43.7652 58 43.5 58Z" fill="#16222E"/>
<path d="M59.5 50H47.5C47.2348 50 46.9804 50.1054 46.7929 50.2929C46.6054 50.4804 46.5 50.7348 46.5 51C46.5 51.2652 46.6054 51.5196 46.7929 51.7071C46.9804 51.8946 47.2348 52 47.5 52H59.5C59.7652 52 60.0196 51.8946 60.2071 51.7071C60.3946 51.5196 60.5 51.2652 60.5 51C60.5 50.7348 60.3946 50.4804 60.2071 50.2929C60.0196 50.1054 59.7652 50 59.5 50Z" fill="#16222E"/>
<path d="M59.5 58H47.5C47.2348 58 46.9804 58.1054 46.7929 58.2929C46.6054 58.4804 46.5 58.7348 46.5 59C46.5 59.2652 46.6054 59.5196 46.7929 59.7071C46.9804 59.8946 47.2348 60 47.5 60H59.5C59.7652 60 60.0196 59.8946 60.2071 59.7071C60.3946 59.5196 60.5 59.2652 60.5 59C60.5 58.7348 60.3946 58.4804 60.2071 58.2929C60.0196 58.1054 59.7652 58 59.5 58Z" fill="#16222E"/>
<path d="M59.5 54H47.5C47.2348 54 46.9804 54.1054 46.7929 54.2929C46.6054 54.4804 46.5 54.7348 46.5 55C46.5 55.2652 46.6054 55.5196 46.7929 55.7071C46.9804 55.8946 47.2348 56 47.5 56H59.5C59.7652 56 60.0196 55.8946 60.2071 55.7071C60.3946 55.5196 60.5 55.2652 60.5 55C60.5 54.7348 60.3946 54.4804 60.2071 54.2929C60.0196 54.1054 59.7652 54 59.5 54Z" fill="#16222E"/>
<path d="M44.7125 45.8942C44.0116 45.7031 43.4039 45.264 43.0023 44.6587C42.6006 44.0533 42.4322 43.3228 42.5284 42.6027C42.6246 41.8826 42.9789 41.2219 43.5254 40.7432C44.0719 40.2646 44.7735 40.0005 45.5 40H54.5073C55.8302 36.8324 56.5076 33.4327 56.5 30C56.5 15.6636 44.8364 4 30.5 4C16.1636 4 4.50001 15.6636 4.50001 30C4.49689 34.395 5.60934 38.7189 7.73314 42.5667C9.85694 46.4144 12.9226 49.6602 16.643 52H23.5C23.98 51.9998 24.453 52.1149 24.8793 52.3355C25.3056 52.5561 25.6727 52.8758 25.9498 53.2677C26.2269 53.6596 26.4059 54.1123 26.4717 54.5878C26.5375 55.0632 26.4882 55.5475 26.328 56H27.5C27.9478 55.9995 28.3899 56.0998 28.7936 56.2936C28.5378 55.7594 28.4462 55.1614 28.5304 54.5751C28.6145 53.9888 28.8707 53.4407 29.2664 53C28.9067 52.5996 28.6617 52.1096 28.5571 51.5817C28.4525 51.0537 28.4922 50.5073 28.672 50H26.5C25.7044 50 24.9413 49.6839 24.3787 49.1213C23.8161 48.5587 23.5 47.7957 23.5 47C23.5 46.2043 23.8161 45.4413 24.3787 44.8787C24.9413 44.3161 25.7044 44 26.5 44H38.5C38.98 43.9998 39.453 44.1149 39.8793 44.3355C40.3056 44.5561 40.6727 44.8758 40.9498 45.2677C41.2269 45.6596 41.4059 46.1123 41.4717 46.5878C41.5375 47.0632 41.4882 47.5475 41.328 48H43.5C43.9478 47.9995 44.3899 48.0998 44.7936 48.2936C44.6151 47.921 44.5158 47.5154 44.5017 47.1025C44.4877 46.6895 44.5593 46.2781 44.7121 45.8942H44.7125ZM43.935 17.9791L42.5209 16.565L43.935 15.1508L45.3493 16.565L43.935 17.9791ZM45.5885 20.134L47.3205 19.134L48.3205 20.866L46.5885 21.866L45.5885 20.134ZM49.5598 23.8576L50.0774 25.7895L48.1455 26.3072L47.6278 24.375L49.5598 23.8576ZM49.5598 36.1424L47.6278 35.625L48.1455 33.6931L50.0774 34.2109L49.5598 36.1424ZM50.5 31H48.5V29H50.5V31ZM21.366 47.8205L19.634 46.8205L20.634 45.0885L22.366 46.0885L21.366 47.8205ZM22.5 31H20.5V29H22.5V31ZM19.634 13.1795L21.366 12.1795L22.366 13.9115L20.634 14.9115L19.634 13.1795ZM24.3576 10.9403L26.2895 10.4226L26.8073 12.3545L24.875 12.8722L24.3576 10.9403ZM36.5 33C36.4989 33.8865 36.2038 34.7477 35.6609 35.4486C35.1181 36.1495 34.3581 36.6506 33.5 36.8734V39H31.5V37H29.5V39H27.5V37H25.5V35H27.5V31H25.5V29H27.5V25H25.5V23H27.5V21H29.5V23H31.5V21H33.5V23.1266C34.2038 23.3079 34.8448 23.6777 35.3542 24.1961C35.8635 24.7146 36.2219 25.3621 36.3907 26.069C36.5595 26.7759 36.5324 27.5154 36.3123 28.2081C36.0922 28.9007 35.6874 29.5202 35.1415 30C35.5684 30.3746 35.9104 30.836 36.1447 31.3533C36.379 31.8707 36.5001 32.4321 36.5 33ZM29.5 12V10H31.5V12H29.5ZM36.125 12.8722L34.1931 12.3545L34.7109 10.4226L36.6428 10.9403L36.125 12.8722ZM40.5 31H38.5V29H40.5V31ZM40.366 14.9115L38.634 13.9115L39.634 12.1795L41.366 13.1795L40.366 14.9115ZM30.5 8C18.3691 8 8.50001 17.8691 8.50001 30C8.50001 33.9556 9.56611 37.8381 11.5861 41.2391C13.6062 44.64 16.5055 47.4337 19.979 49.3261L19.021 51.0819C15.232 49.0174 12.0695 45.9699 9.86611 42.26C7.66271 38.5501 6.4999 34.3149 6.50001 30C6.50001 16.7664 17.2664 6 30.5 6C43.7336 6 54.5 16.7664 54.5 30C54.5039 32.8493 53.9986 35.6763 53.008 38.3479L51.133 37.6521C52.0408 35.2032 52.5038 32.6118 52.5 30C52.5 17.8691 42.6309 8 30.5 8ZM17.065 17.9791L15.6508 16.565L17.065 15.1508L18.4791 16.565L17.065 17.9791ZM18.4791 43.435L17.065 44.8493L15.6508 43.435L17.065 42.0209L18.4791 43.435ZM12.5 29V31H10.5V29H12.5ZM10.9226 25.7895L11.4403 23.8576L13.3723 24.375L12.8545 26.3069L10.9226 25.7895ZM12.8545 33.6927L13.3723 35.625L11.4403 36.1427L10.9226 34.2109L12.8545 33.6927ZM14.4115 38.134L15.4115 39.866L13.6795 40.866L12.6795 39.134L14.4115 38.134ZM14.4115 21.866L12.6795 20.866L13.6795 19.134L15.4115 20.134L14.4115 21.866Z" fill="#16222E"/>
<path d="M57.5 44C57.7652 44 58.0196 43.8946 58.2071 43.7071C58.3946 43.5196 58.5 43.2652 58.5 43C58.5 42.7348 58.3946 42.4804 58.2071 42.2929C58.0196 42.1054 57.7652 42 57.5 42H45.5C45.2348 42 44.9804 42.1054 44.7929 42.2929C44.6054 42.4804 44.5 42.7348 44.5 43C44.5 43.2652 44.6054 43.5196 44.7929 43.7071C44.9804 43.8946 45.2348 44 45.5 44H57.5Z" fill="#16222E"/>
</svg>
