<svg width="81" height="80" viewBox="0 0 81 80" fill="none" xmlns="http://www.w3.org/2000/svg">
<path d="M64.7197 42.8125C66.273 42.8125 67.5322 41.5533 67.5322 40C67.5322 38.4467 66.273 37.1875 64.7197 37.1875C63.1664 37.1875 61.9072 38.4467 61.9072 40C61.9072 41.5533 63.1664 42.8125 64.7197 42.8125Z" fill="#FF150A"/>
<path d="M74.2502 31.5376H60.2158C55.5503 31.5376 51.7539 35.334 51.7539 40.0001C51.7539 44.6663 55.5503 48.4626 60.2158 48.4626H74.2502C76.146 48.4626 77.6877 46.9203 77.6877 45.0251V34.9751C77.6877 33.08 76.146 31.5376 74.2502 31.5376ZM64.7202 44.6876C62.136 44.6876 60.0327 42.585 60.0327 40.0001C60.0327 37.4153 62.136 35.3126 64.7202 35.3126C67.3044 35.3126 69.4077 37.4153 69.4077 40.0001C69.4077 42.585 67.3044 44.6876 64.7202 44.6876Z" fill="#FF150A"/>
<path d="M49.8787 39.9999C49.8787 34.2998 54.5161 29.6624 60.2156 29.6624H72.0063V17.2893C72.0063 14.0154 69.3428 11.3518 66.0688 11.3518H9.25C5.97608 11.3518 3.3125 14.0154 3.3125 17.2893V30.3124H10.6343L13.0647 24.6062C13.2124 24.2607 13.5518 24.0361 13.9277 24.0361H20.1964C20.6424 21.9124 22.5284 20.3124 24.7822 20.3124C27.3664 20.3124 29.4697 22.4151 29.4697 24.9999C29.4697 27.5847 27.3664 29.6874 24.7822 29.6874C22.51 29.6874 20.6126 28.0608 20.1869 25.9111H14.5479L12.1174 31.6173C11.9697 31.9628 11.6304 32.1874 11.2544 32.1874H3.3125V39.0624H20.1896C20.6252 36.9253 22.519 35.3124 24.7822 35.3124C27.3664 35.3124 29.4697 37.415 29.4697 39.9999C29.4697 42.5847 27.3664 44.6874 24.7822 44.6874C22.519 44.6874 20.6252 43.0745 20.1896 40.9374H3.3125V47.8124H11.2544C11.6304 47.8124 11.9697 48.037 12.1174 48.3824L14.5479 54.0886H20.1869C20.6126 51.939 22.51 50.3124 24.7822 50.3124C27.3665 50.3124 29.4697 52.415 29.4697 54.9999C29.4697 57.5847 27.3665 59.6874 24.7822 59.6874C22.5284 59.6874 20.6424 58.0873 20.1964 55.9636H13.9277C13.5518 55.9636 13.2124 55.739 13.0647 55.3936L10.6343 49.6874H3.3125V62.7105C3.3125 65.9844 5.97608 68.648 9.25 68.648H66.0688C69.3428 68.648 72.0063 65.9844 72.0063 62.7105V50.3374H60.2156C54.5161 50.3374 49.8787 45.7 49.8787 39.9999Z" fill="#FF150A"/>
<path d="M24.7822 57.8125C26.3355 57.8125 27.5947 56.5533 27.5947 55C27.5947 53.4467 26.3355 52.1875 24.7822 52.1875C23.2289 52.1875 21.9697 53.4467 21.9697 55C21.9697 56.5533 23.2289 57.8125 24.7822 57.8125Z" fill="#FF150A"/>
<path d="M24.7822 27.8125C26.3355 27.8125 27.5947 26.5533 27.5947 25C27.5947 23.4467 26.3355 22.1875 24.7822 22.1875C23.2289 22.1875 21.9697 23.4467 21.9697 25C21.9697 26.5533 23.2289 27.8125 24.7822 27.8125Z" fill="#FF150A"/>
<path d="M24.7822 42.8125C26.3355 42.8125 27.5947 41.5533 27.5947 40C27.5947 38.4467 26.3355 37.1875 24.7822 37.1875C23.2289 37.1875 21.9697 38.4467 21.9697 40C21.9697 41.5533 23.2289 42.8125 24.7822 42.8125Z" fill="#FF150A"/>
</svg>
