<svg width="24" height="24" viewBox="0 0 24 24" fill="none" xmlns="http://www.w3.org/2000/svg">
<path d="M22.41 10.7325C22.3064 11.0238 22.1154 11.276 21.863 11.4546C21.6106 11.6331 21.3092 11.7293 21 11.73H20.25V21C20.2382 21.4085 20.0651 21.7957 19.7685 22.0768C19.4719 22.3579 19.076 22.5101 18.6675 22.5H15.33C14.9215 22.5101 14.5256 22.3579 14.229 22.0768C13.9324 21.7957 13.7593 21.4085 13.7475 21V17.25H10.2375V21C10.2257 21.4085 10.0526 21.7957 9.75601 22.0768C9.45942 22.3579 9.06354 22.5101 8.65501 22.5H5.33251C4.92398 22.5101 4.5281 22.3579 4.23151 22.0768C3.93492 21.7957 3.76179 21.4085 3.75001 21V11.73H3.00001C2.69191 11.7263 2.39241 11.6279 2.14223 11.448C1.89205 11.2682 1.70333 11.0156 1.60172 10.7247C1.50012 10.4339 1.49056 10.1187 1.57434 9.82222C1.65813 9.52571 1.83119 9.26219 2.07001 9.0675L11.07 1.8C11.3361 1.58699 11.6667 1.47094 12.0075 1.47094C12.3483 1.47094 12.679 1.58699 12.945 1.8L21.945 9.0675C22.1848 9.26315 22.3582 9.52819 22.4415 9.82628C22.5247 10.1244 22.5137 10.4409 22.41 10.7325Z" fill="white"/>
</svg>
