<svg width="16" height="16" viewBox="0 0 16 16" fill="none" xmlns="http://www.w3.org/2000/svg">
<path fill-rule="evenodd" clip-rule="evenodd" d="M14.4646 10.5553C14.4646 11.9064 13.3655 13.0038 12.0161 13.0038H3.98309C2.63369 13.0038 1.53459 11.9064 1.53459 10.5553V5.444C1.53459 4.99306 1.65806 4.56953 1.87238 4.20603L5.792 8.12566C6.37841 8.71378 7.16369 9.03784 8.00044 9.03784C8.83547 9.03784 9.62075 8.71378 10.2072 8.12566L14.1268 4.20603C14.3411 4.56953 14.4646 4.99303 14.4646 5.444V10.5553H14.4646ZM12.0161 2.99553H3.98309C3.42584 2.99553 2.91144 3.18413 2.49994 3.49791L6.459 7.45869C6.86881 7.86675 7.41575 8.09309 8.00044 8.09309C8.58341 8.09309 9.13038 7.86675 9.54016 7.45869L13.4992 3.49791C13.0878 3.18413 12.5734 2.99553 12.0161 2.99553ZM12.0161 2.05078H3.98309C2.11244 2.05078 0.589844 3.57338 0.589844 5.44403V10.5553C0.589844 12.4277 2.11244 13.9486 3.98309 13.9486H12.0161C13.8868 13.9486 15.4093 12.4277 15.4093 10.5553V5.444C15.4093 3.57334 13.8868 2.05078 12.0161 2.05078Z" fill="white"/>
</svg>
