<svg width="78" height="76" viewBox="0 0 78 76" fill="none" xmlns="http://www.w3.org/2000/svg">
<path d="M27.8716 72.8274C47.6978 77.7693 67.7773 65.7079 72.7202 45.886C76.7358 29.7741 69.5181 13.493 56.0298 5.30811C71.8081 12.5477 80.7085 30.2056 76.3579 47.6637C71.4399 67.3897 51.46 79.3927 31.7319 74.4747C29.0942 73.8169 26.5947 72.8896 24.2554 71.7295C25.4292 72.1519 26.6353 72.5191 27.8716 72.8274Z" fill="#FF150A"/>
<path d="M73.6438 36.8219C73.6438 16.4857 57.1581 -4.96934e-05 36.8219 -4.88045e-05C16.4857 -4.79156e-05 -2.49846e-06 16.4857 -1.60954e-06 36.8219C-7.20613e-07 57.1581 16.4857 73.6438 36.8219 73.6438C57.1581 73.6438 73.6438 57.1581 73.6438 36.8219Z" fill="#FF150A"/>
<path fill-rule="evenodd" clip-rule="evenodd" d="M26.3593 51.4863H19.2133C17.7113 51.4863 16.9702 51.4863 16.5172 51.1973C16.0292 50.8803 15.7302 50.3563 15.6942 49.7773C15.6672 49.2433 16.0382 48.5923 16.7802 47.2903L34.4243 16.1903C35.1753 14.8693 35.5553 14.2093 36.0343 13.9653C36.5503 13.7033 37.1653 13.7033 37.6803 13.9653C38.1593 14.2093 38.5393 14.8703 39.2903 16.1903L42.9173 22.5223L42.9353 22.5543C43.7463 23.9713 44.1573 24.6893 44.3373 25.4433C44.5363 26.2663 44.5363 27.1343 44.3373 27.9583C44.1563 28.7183 43.7493 29.4413 42.9263 30.8803L33.6583 47.2633L33.6342 47.3053C32.8182 48.7333 32.4043 49.4573 31.8313 50.0043C31.2073 50.6013 30.4563 51.0353 29.6333 51.2803C28.8833 51.4863 28.0423 51.4863 26.3593 51.4863Z" fill="#16222E"/>
<path fill-rule="evenodd" clip-rule="evenodd" d="M44.4055 51.4863H54.6446C56.1556 51.4863 56.9156 51.4863 57.3676 51.1883C57.8556 50.8713 58.1636 50.3373 58.1906 49.7593C58.2166 49.2433 57.8535 48.6173 57.1425 47.3903C57.1175 47.3483 57.0936 47.3063 57.0686 47.2623L51.9396 38.4883L51.8816 38.3893C51.1606 37.1703 50.7966 36.5553 50.3296 36.3173C49.8146 36.0553 49.2076 36.0553 48.6926 36.3173C48.2226 36.5613 47.8426 37.2033 47.0916 38.4973L41.9806 47.2713L41.9625 47.3013C41.2145 48.5923 40.8406 49.2383 40.8676 49.7673C40.9036 50.3463 41.2026 50.8793 41.6906 51.1963C42.1356 51.4863 42.8955 51.4863 44.4055 51.4863Z" fill="#16222E"/>
</svg>
