<svg width="78" height="76" viewBox="0 0 78 76" fill="none" xmlns="http://www.w3.org/2000/svg">
<path d="M28.1401 73.0298C47.9663 77.9717 68.0459 65.9103 72.9888 46.0884C77.0044 29.9765 69.7866 13.6953 56.2983 5.5105C72.0767 12.7501 80.9771 30.4079 76.6265 47.8661C71.7085 67.5921 51.7285 79.5951 32.0005 74.6771C29.3628 74.0193 26.8633 73.092 24.5239 71.9319C25.6978 72.3543 26.9038 72.7215 28.1401 73.0298Z" fill="#FF150A"/>
<path d="M36.821 0C57.157 0 73.642 16.485 73.642 36.821C73.642 57.157 57.157 73.642 36.821 73.642C16.485 73.642 0 57.157 0 36.821C0 16.485 16.485 0 36.821 0Z" fill="#FF150A"/>
<path d="M27.293 32.8649L32.868 27.3089L34.044 26.1329L36.83 23.347L46.317 32.8649L51.84 27.3089L36.83 12.2729L21.77 27.3089L27.293 32.8649Z" fill="#16222E"/>
<path d="M36.8358 31.2628L31.29 36.8086L36.8358 42.3544L42.3816 36.8086L36.8358 31.2628Z" fill="#16222E"/>
<path d="M46.317 40.7881L36.827 50.2791L33.494 46.9461L32.881 46.3331L27.293 40.7881L21.77 46.3111L36.83 61.3461L51.84 46.3111L46.317 40.7881Z" fill="#16222E"/>
<path d="M17.8178 31.2779L12.272 36.8237L17.8178 42.3695L23.3635 36.8237L17.8178 31.2779Z" fill="#16222E"/>
<path d="M55.8222 31.2772L50.2764 36.823L55.8222 42.3688L61.3679 36.823L55.8222 31.2772Z" fill="#16222E"/>
</svg>
