<svg width="78" height="76" viewBox="0 0 78 76" fill="none" xmlns="http://www.w3.org/2000/svg">
<path d="M28.1406 73.193C47.9668 78.1349 68.0464 66.0735 72.9893 46.2516C77.0049 30.1397 69.7871 13.8586 56.2988 5.67371C72.0771 12.9133 80.9775 30.5712 76.627 48.0293C71.709 67.7553 51.729 79.7583 32.001 74.8403C29.3633 74.1825 26.8638 73.2552 24.5244 72.0951C25.6982 72.5175 26.9043 72.8847 28.1406 73.193Z" fill="#FF150A"/>
<path d="M72.5324 46.1068C67.6144 65.8328 47.6344 77.8358 27.9064 72.9178C8.18744 67.9998 -3.81656 48.0198 1.10244 28.2958C6.01844 8.56783 25.9964 -3.43817 45.7184 1.47983C65.4454 6.39783 77.4484 26.3798 72.5304 46.1068H72.5324Z" fill="#FF150A"/>
<path d="M53.0515 31.9538C53.7835 27.0548 50.0535 24.4208 44.9525 22.6638L46.6075 16.0268L42.5665 15.0198L40.9555 21.4818C39.8945 21.2168 38.8035 20.9678 37.7195 20.7198L39.3415 14.2148L35.3035 13.2078L33.6475 19.8428C32.7685 19.6428 31.9055 19.4448 31.0675 19.2368L31.0725 19.2158L25.5015 17.8248L24.4265 22.1398C24.4265 22.1398 27.4235 22.8268 27.3605 22.8688C28.9965 23.2768 29.2935 24.3598 29.2425 25.2188L27.3525 32.8088L24.7095 43.4008C24.5095 43.8978 24.0015 44.6438 22.8585 44.3608C22.8985 44.4198 19.9225 43.6278 19.9225 43.6278L17.9165 48.2538L23.1745 49.5648C24.1525 49.8098 25.1105 50.0668 26.0535 50.3078L24.3815 57.0218L28.4165 58.0288L30.0735 51.3878C31.1745 51.6868 32.2445 51.9628 33.2915 52.2228L31.6415 58.8328L35.6815 59.8398L37.3535 53.1398C44.2425 54.4438 49.4235 53.9178 51.6015 47.6878C53.3585 42.6708 51.5155 39.7768 47.8905 37.8888C50.5305 37.2778 52.5185 35.5418 53.0485 31.9548L53.0515 31.9538ZM43.8205 44.8978C42.5705 49.9148 34.1255 47.2038 31.3855 46.5228L33.6035 37.6298C36.3425 38.3138 45.1225 39.6668 43.8215 44.8988L43.8205 44.8978ZM45.0685 31.8818C43.9295 36.4458 36.8985 34.1268 34.6175 33.5588L36.6285 25.4928C38.9105 26.0598 46.2565 27.1208 45.0685 31.8818Z" fill="#16222E"/>
</svg>
