<svg width="79" height="76" viewBox="0 0 79 76" fill="none" xmlns="http://www.w3.org/2000/svg">
<path d="M28.4966 73.0307C48.3228 77.9727 68.4023 65.9113 73.3452 46.0894C77.3608 29.9775 70.1431 13.6963 56.6548 5.51147C72.4331 12.7511 81.3335 30.4089 76.9829 47.8671C72.0649 67.5931 52.085 79.5961 32.3569 74.6781C29.7192 74.0203 27.2197 73.093 24.8804 71.9329C26.0542 72.3552 27.2603 72.7225 28.4966 73.0307Z" fill="#FF150A"/>
<path d="M36.821 73.642C57.1567 73.642 73.642 57.1567 73.642 36.821C73.642 16.4853 57.1567 0 36.821 0C16.4853 0 0 16.4853 0 36.821C0 57.1567 16.4853 73.642 36.821 73.642Z" fill="#FF150A"/>
<path d="M36.1171 10.476C37.3671 9.82399 38.8931 11.336 38.2291 12.586C37.8431 13.604 36.3801 13.875 35.6331 13.099C34.8421 12.353 35.1001 10.881 36.1171 10.476ZM22.6701 11.925C23.4301 11.612 24.3911 12.308 24.3131 13.136C24.3941 14.035 23.2951 14.696 22.5211 14.269C21.4951 13.872 21.6121 12.207 22.6701 11.925ZM50.2121 14.295C49.0251 14.152 48.8371 12.285 49.9801 11.91C50.8661 11.478 51.6791 12.288 51.8091 13.128C51.6231 13.845 51.0231 14.502 50.2121 14.295ZM25.7291 17.649C26.9991 16.846 28.8111 18.042 28.6151 19.517C28.5491 21.006 26.5711 21.869 25.4551 20.862C24.3771 20.071 24.5401 18.257 25.7291 17.649ZM45.1131 18.501C45.6791 17.041 47.9751 16.997 48.6201 18.418C49.2571 19.524 48.4731 20.894 47.3381 21.27C45.8341 21.551 44.4051 19.925 45.1131 18.501ZM34.4981 21.187C34.4861 19.932 35.6291 18.997 36.8211 18.912C37.6121 19.071 38.4741 19.408 38.8141 20.206C39.4461 21.307 38.8851 22.823 37.7421 23.329C37.2191 23.622 36.6011 23.512 36.0321 23.478C35.1621 23.05 34.4301 22.212 34.4981 21.187ZM14.4991 23.015C15.6591 22.302 17.2241 23.603 16.7851 24.863C16.5431 25.953 15.0781 26.396 14.2411 25.701C13.3461 25.049 13.4881 23.482 14.4991 23.015ZM57.4441 23.013C58.4281 22.249 60.0521 23.125 59.9351 24.368C60.0011 25.501 58.5971 26.355 57.6201 25.772C56.5441 25.288 56.4341 23.633 57.4441 23.013ZM40.1221 25.269C41.7461 24.686 43.6751 25.384 44.6011 26.832C45.8221 28.602 45.1721 31.298 43.2771 32.313C41.3141 33.514 38.4471 32.496 37.7221 30.304C36.8991 28.341 38.0981 25.884 40.1221 25.269ZM30.5941 25.462C32.3941 24.612 34.8161 25.325 35.6861 27.166C36.7091 28.958 35.9181 31.454 34.0891 32.379C32.2581 33.419 29.6741 32.631 28.7881 30.707C27.7931 28.846 28.6751 26.319 30.5941 25.462ZM21.0531 28.724C21.1901 27.564 22.2841 26.81 23.3881 26.732C24.5771 26.875 25.5271 27.799 25.6561 29.003C25.5781 30.194 24.6571 31.359 23.3951 31.352C22.0051 31.471 20.7881 30.089 21.0531 28.724ZM49.2331 26.984C50.6591 26.154 52.6391 27.362 52.5761 29.001C52.6741 30.737 50.4821 31.96 49.0621 30.942C47.5871 30.093 47.7021 27.706 49.2331 26.984ZM26.7161 33.102C28.3841 32.643 30.2911 33.429 31.1091 34.962C32.0051 36.505 31.6391 38.649 30.2471 39.781C28.4621 41.441 25.1701 40.775 24.2201 38.509C23.1291 36.432 24.4551 33.648 26.7161 33.102ZM44.7891 33.093C46.4101 32.629 48.3151 33.254 49.1871 34.731C50.3391 36.42 49.7891 38.94 48.0741 40.029C46.2771 41.293 43.4931 40.63 42.5041 38.652C41.3041 36.607 42.5111 33.717 44.7891 33.093ZM15.9881 35.021C17.4291 34.476 19.0261 36.066 18.4421 37.494C18.0851 38.795 16.2511 39.276 15.3041 38.317C14.1961 37.416 14.6071 35.411 15.9881 35.021ZM55.0401 37.094C54.9981 35.9 55.8721 34.843 57.0961 34.777C58.0831 34.933 59.0421 35.729 58.9641 36.803C59.0541 38.222 57.3451 39.186 56.1361 38.52C55.5691 38.231 55.2791 37.65 55.0401 37.094ZM8.90408 35.721C9.77108 35.343 10.8431 36.094 10.6451 37.057C10.5991 38.147 8.98908 38.566 8.39808 37.655C7.87608 37.023 8.18908 36.047 8.90408 35.721ZM63.5571 35.7C64.1671 35.265 65.1471 35.578 65.3881 36.291C65.7981 37.07 65.0461 38.137 64.1701 38.005C62.9401 38.116 62.5411 36.241 63.5571 35.7ZM31.4241 40.931C33.7051 40.338 36.1571 42.24 36.1711 44.588C36.3201 46.961 33.9051 49.066 31.5701 48.518C29.7651 48.227 28.3491 46.489 28.4081 44.665C28.4031 42.922 29.7191 41.3 31.4241 40.931ZM40.4571 40.927C42.7721 40.28 45.2971 42.216 45.2601 44.619C45.3821 46.948 43.0431 48.982 40.7571 48.52C38.6061 48.242 37.0191 45.878 37.6191 43.791C37.9221 42.399 39.0841 41.268 40.4571 40.927ZM23.0411 42.372C24.6431 42.099 26.1451 43.886 25.4951 45.407C25.0211 47.028 22.6621 47.468 21.6191 46.143C20.3961 44.872 21.3091 42.548 23.0411 42.372ZM49.5311 42.444C50.9591 41.846 52.7131 43.081 52.6031 44.632C52.6601 46.338 50.4961 47.515 49.0991 46.519C47.5161 45.624 47.8041 42.992 49.5311 42.444ZM56.9351 49.87C56.3761 48.827 57.3921 47.446 58.5491 47.639C59.1251 47.629 59.5281 48.083 59.8971 48.464C59.9731 49.082 60.1001 49.819 59.5871 50.295C58.8911 51.176 57.3131 50.925 56.9351 49.87ZM14.4941 47.929C15.5761 47.209 17.1331 48.283 16.8901 49.548C16.7611 50.667 15.3521 51.306 14.4231 50.671C13.4271 50.095 13.4641 48.454 14.4941 47.929ZM35.8681 50.271C37.2841 49.646 39.0891 50.879 38.9551 52.439C39.0601 54.163 36.8281 55.357 35.4431 54.322C33.9051 53.432 34.1621 50.817 35.8681 50.271ZM25.9691 52.58C27.1751 51.945 28.7941 53.041 28.6841 54.392C28.7211 55.501 27.6391 56.445 26.5451 56.282C25.6391 56.262 25.0481 55.45 24.7571 54.678C24.7721 53.835 25.1191 52.898 25.9691 52.58ZM46.0221 52.599C47.2631 51.832 49.0261 52.933 48.9081 54.377C48.9401 55.886 46.9471 56.853 45.7921 55.861C44.6741 55.085 44.8101 53.217 46.0221 52.599ZM49.5091 61.221C48.9571 60.386 49.6071 59.38 50.5031 59.19C51.2241 59.337 51.9851 59.878 51.8341 60.714C51.7291 61.843 50.0761 62.19 49.5091 61.221ZM21.8271 60.495C22.0471 59.833 22.5791 59.176 23.3581 59.348C24.4941 59.429 24.8311 61.14 23.8371 61.668C22.9431 62.27 21.9061 61.445 21.8271 60.495ZM35.1821 61.255C35.3991 60.276 36.6671 59.8 37.5021 60.32C38.0541 60.557 38.2151 61.175 38.3571 61.699C38.2811 61.972 38.2131 62.246 38.1471 62.519C37.8051 62.925 37.3661 63.33 36.7971 63.315C35.7391 63.439 34.7851 62.244 35.1821 61.255Z" fill="#16222E"/>
</svg>
