<svg width="78" height="76" viewBox="0 0 78 76" fill="none" xmlns="http://www.w3.org/2000/svg">
<path d="M28.1431 73.0266C47.9692 77.9685 68.0488 65.9072 72.9917 46.0853C77.0073 29.9734 69.7896 13.6922 56.3013 5.50732C72.0796 12.7469 80.98 30.4048 76.6294 47.8629C71.7114 67.5889 51.7314 79.592 32.0034 74.674C29.3657 74.0161 26.8662 73.0889 24.5269 71.9287C25.7007 72.3511 26.9067 72.7183 28.1431 73.0266Z" fill="#FF150A"/>
<path d="M73.6413 36.8207C73.6413 16.4852 57.1561 3.71988e-05 36.8206 3.80877e-05C16.4852 3.89766e-05 -2.49838e-06 16.4852 -1.60948e-06 36.8207C-7.20591e-07 57.1561 16.4852 73.6414 36.8206 73.6414C57.1561 73.6414 73.6413 57.1561 73.6413 36.8207Z" fill="#FF150A"/>
<path d="M36.3828 16.9048H24.9378V34.6338H20.2378V38.9768H24.9388V56.7048H38.2738C38.2738 56.7048 57.0238 58.2758 57.0238 37.1378C57.0228 16.3428 39.0898 16.9048 36.3828 16.9048ZM37.9678 49.3478H32.4488V38.9768H40.7258V34.6338H32.4488V24.2618H37.7098C39.6778 24.2618 49.5768 25.0538 49.5928 37.2808C49.6088 49.5078 39.3858 49.3478 37.9678 49.3478Z" fill="#16222E"/>
</svg>
