<svg width="79" height="76" viewBox="0 0 79 76" fill="none" xmlns="http://www.w3.org/2000/svg">
<path d="M73.763 37.1977C73.763 16.8616 57.2774 0.375978 36.9413 0.375979C16.6053 0.37598 0.119626 16.8616 0.119627 37.1977C0.119628 57.5337 16.6053 74.0193 36.9413 74.0193C57.2774 74.0193 73.763 57.5337 73.763 37.1977Z" fill="#FF150A"/>
<path d="M38.082 9.5838V29.9968L55.335 37.7058L38.082 9.5838Z" fill="white" fill-opacity="0.602"/>
<path d="M38.0822 9.5838L20.8271 37.7058L38.0822 29.9968V9.5838Z" fill="#16222E"/>
<path d="M38.082 50.9338V64.8038L55.346 40.9188L38.082 50.9338Z" fill="white" fill-opacity="0.602"/>
<path d="M38.0822 64.8038V50.9318L20.8271 40.9178L38.0822 64.8038Z" fill="#16222E"/>
<path d="M38.082 47.7228L55.335 37.7048L38.082 29.9998V47.7228Z" fill="white" fill-opacity="0.2"/>
<path d="M20.8271 37.7058L38.0822 47.7238V30.0008L20.8271 37.7058Z" fill="white" fill-opacity="0.602"/>
<path d="M28.6162 73.1929C48.4424 78.1348 68.522 66.0734 73.4648 46.2515C77.4805 30.1396 70.2627 13.8584 56.7744 5.67358C72.5527 12.9132 81.4531 30.571 77.1025 48.0292C72.1846 67.7552 52.2046 79.7582 32.4766 74.8402C29.8389 74.1824 27.3394 73.2551 25 72.095C26.1738 72.5173 27.3799 72.8846 28.6162 73.1929Z" fill="#FF150A"/>
</svg>
