<svg width="78" height="76" viewBox="0 0 78 76" fill="none" xmlns="http://www.w3.org/2000/svg">
<path d="M28.272 73.0239C48.0981 77.9658 68.1777 65.9045 73.1206 46.0826C77.1362 29.9707 69.9185 13.6895 56.4302 5.50464C72.2085 12.7442 81.1089 30.4021 76.7583 47.8602C71.8403 67.5863 51.8604 79.5893 32.1323 74.6713C29.4946 74.0134 26.9951 73.0862 24.6558 71.926C25.8296 72.3484 27.0356 72.7156 28.272 73.0239Z" fill="#FF150A"/>
<path d="M73.6401 36.8201C73.6401 16.485 57.1552 4.99191e-05 36.82 5.0808e-05C16.4849 5.16969e-05 -2.49833e-06 16.485 -1.60946e-06 36.8201C-7.20578e-07 57.1552 16.4849 73.6401 36.82 73.6401C57.1552 73.6401 73.6401 57.1552 73.6401 36.8201Z" fill="#FF150A"/>
<path d="M36.8354 19.7533C42.6902 19.7533 47.4364 16.9932 47.4364 13.5883C47.4364 10.1835 42.6902 7.42334 36.8354 7.42334C30.9806 7.42334 26.2344 10.1835 26.2344 13.5883C26.2344 16.9932 30.9806 19.7533 36.8354 19.7533Z" fill="#16222E"/>
<path d="M36.8354 66.2065C42.6902 66.2065 47.4364 63.4463 47.4364 60.0415C47.4364 56.6366 42.6902 53.8765 36.8354 53.8765C30.9806 53.8765 26.2344 56.6366 26.2344 60.0415C26.2344 63.4463 30.9806 66.2065 36.8354 66.2065Z" fill="#16222E"/>
<path d="M11.3785 22.1183C14.3055 17.0483 19.0705 14.3193 22.0215 16.0233C24.9725 17.7273 24.9915 23.2183 22.0635 28.2883C19.1365 33.3583 14.3715 36.0873 11.4205 34.3833C8.4695 32.6793 8.45051 27.1883 11.3785 22.1183Z" fill="#16222E"/>
<path d="M51.6117 45.3463C54.5387 40.2763 59.3027 37.5463 62.2507 39.2483C65.1997 40.9503 65.2167 46.4413 62.2897 51.5113C59.3627 56.5813 54.5987 59.3113 51.6507 57.6083C48.7017 55.9063 48.6837 50.4163 51.6117 45.3463Z" fill="#16222E"/>
<path d="M11.4225 39.2474C14.3735 37.5434 19.1385 40.2725 22.0655 45.3425C24.9925 50.4125 24.9734 55.9035 22.0234 57.6075C19.0724 59.3115 14.3075 56.5824 11.3805 51.5124C8.45247 46.4424 8.47146 40.9514 11.4225 39.2474Z" fill="#16222E"/>
<path d="M51.6527 16.0243C54.6017 14.3223 59.3647 17.0513 62.2917 22.1213C65.2187 27.1913 65.2017 32.6813 62.2527 34.3843C59.3037 36.0863 54.5408 33.3573 51.6138 28.2873C48.6868 23.2163 48.7037 17.7263 51.6527 16.0243Z" fill="#16222E"/>
</svg>
