<svg width="78" height="76" viewBox="0 0 78 76" fill="none" xmlns="http://www.w3.org/2000/svg">
<path d="M28.3779 73.0307C48.2041 77.9727 68.2837 65.9113 73.2266 46.0894C77.2422 29.9775 70.0244 13.6963 56.5361 5.51147C72.3145 12.7511 81.2148 30.4089 76.8643 47.8671C71.9463 67.5931 51.9663 79.5961 32.2383 74.6781C29.6006 74.0203 27.1011 73.093 24.7617 71.9329C25.9355 72.3552 27.1416 72.7225 28.3779 73.0307Z" fill="#FF150A"/>
<path d="M36.821 73.642C57.1567 73.642 73.642 57.1567 73.642 36.821C73.642 16.4853 57.1567 0 36.821 0C16.4853 0 0 16.4853 0 36.821C0 57.1567 16.4853 73.642 36.821 73.642Z" fill="#FF150A"/>
<path d="M51.2458 38.657C51.2198 38.795 50.8138 39.21 50.4068 39.513C49.2138 40.386 47.0788 41.199 44.9088 41.588C43.6728 41.813 42.4368 41.847 42.0648 41.666C41.8228 41.545 41.7878 41.45 41.8748 41.139C42.0568 40.491 42.6438 39.782 43.5608 39.116C44.0278 38.779 45.9208 37.629 46.8028 37.145C48.2548 36.35 49.4309 35.874 50.2259 35.762C50.4769 35.727 50.7788 35.719 50.8738 35.762C51.0298 35.822 51.2018 36.281 51.2718 36.834C51.3058 37.127 51.2888 38.424 51.2458 38.657Z" fill="#FF150A"/>
<path d="M30.878 41.5191C30.826 41.6231 30.567 41.735 30.273 41.778C29.979 41.821 29.08 41.795 28.57 41.735C26.737 41.493 24.7919 40.931 23.3739 40.239C22.5789 39.85 22.0079 39.461 21.5839 39.037L21.342 38.7861L21.316 38.4581C21.273 37.8871 21.281 36.9881 21.351 36.6681C21.394 36.4001 21.4889 36.1411 21.6189 35.9071C21.6879 35.8211 21.6879 35.821 21.9989 35.821C22.3789 35.821 22.6989 35.8821 23.2179 36.0461C24.2809 36.3751 25.8629 37.1701 27.7909 38.3281C29.3819 39.2791 29.978 39.7461 30.436 40.3851C30.748 40.7841 30.956 41.3461 30.878 41.5191Z" fill="#FF150A"/>
<path d="M43.119 54.5521C43.119 54.5781 43.015 54.9931 42.886 55.4861C42.756 55.9791 42.6531 56.3771 42.6531 56.3941C42.5581 56.4031 42.4711 56.4111 42.3771 56.4031H42.1L41.72 57.3021C41.513 57.7951 41.322 58.2531 41.296 58.3221L41.244 58.4431L41.062 58.1491L40.88 57.8551V55.4601L40.811 55.4771C40.664 55.5121 39.618 55.6501 39.16 55.6931C37.267 55.8831 35.365 55.8401 33.48 55.5721C33.177 55.5291 32.918 55.4941 32.91 55.5031C32.901 55.5121 32.91 56.0651 32.927 56.7481L32.953 57.9761L32.806 58.2011C32.728 58.3221 32.65 58.4261 32.65 58.4341C32.624 58.4601 32.538 58.3221 32.339 57.9241C32.123 57.5091 31.967 57.0681 31.855 56.6101L31.795 56.3591L31.527 56.3761L31.259 56.4021L31.1901 56.0821C31.1551 55.9091 31.112 55.6411 31.095 55.4941L31.069 55.2171L30.844 55.0181C30.714 54.9061 30.585 54.7931 30.559 54.7761C30.516 54.7411 30.498 54.6811 30.498 54.6291V54.5251L31.579 54.5341L32.66 54.5431L32.694 54.6551L32.729 54.7671L33.1011 54.7841C33.3081 54.7931 33.966 54.8101 34.553 54.8271L35.634 54.8531L35.911 54.4211L36.196 53.9891H36.559L36.55 53.0901L36.541 52.1911L36.066 51.9831C34.536 51.3091 33.637 50.5391 33.3 49.6061C33.231 49.4161 33.231 49.3471 33.214 48.4821C33.205 47.6261 33.205 47.5481 33.266 47.3581C33.387 46.9261 33.724 46.5891 34.157 46.4761C34.304 46.4331 34.693 46.4331 36.733 46.4331L39.136 46.4421L39.4041 46.5721C39.7241 46.7281 39.871 46.8401 40.052 47.0821C40.26 47.3591 40.3201 47.5751 40.3201 48.1021C40.3201 48.8541 40.2681 49.5031 40.1901 49.7621C40.0781 50.1161 39.905 50.4541 39.689 50.7561C39.257 51.3091 38.4701 51.8631 37.7531 52.1131L37.545 52.1911L37.5541 53.0991L37.563 54.0071L37.7531 54.0241L37.943 54.0411L38.202 54.4301L38.453 54.8191H39.611C40.251 54.8191 40.813 54.8281 40.865 54.8361C40.951 54.8531 40.9691 54.8451 41.0551 54.6981L41.1591 54.5421H42.1531C42.8951 54.5091 43.119 54.5261 43.119 54.5521Z" fill="#FF150A"/>
<path d="M38.5546 57.0341C38.3906 57.1291 38.2776 57.1721 38.2526 57.1551C38.2266 57.1461 38.1056 57.0431 37.9756 56.9481L37.7426 56.7581L37.5005 57.0171C36.9735 57.5881 36.9555 57.6131 36.8005 57.6221C36.5585 57.6481 36.5065 57.6051 36.2125 57.1641C36.0565 56.9391 35.9355 56.7491 35.9355 56.7491C35.9355 56.7491 35.8235 56.7321 35.6935 56.7231L35.4515 56.6971L35.3395 56.9301L35.2275 57.1631L35.0286 57.1031C34.8726 57.0511 34.7176 56.9911 34.5706 56.9211L34.3115 56.7911V56.2981L36.6116 56.3071L38.9115 56.3161L38.9205 56.5491C38.9265 56.8261 38.9346 56.8181 38.5546 57.0341Z" fill="#FF150A"/>
<path d="M60.1668 46.4869C60.1578 46.4519 60.1578 46.3919 60.1498 46.2969C58.0748 46.0719 52.1528 45.9339 46.6548 50.4729C46.6548 50.4729 44.8828 42.3469 36.5838 42.3469C28.2848 42.3469 25.2068 50.4729 25.2068 50.4729C20.5558 45.4669 14.3318 45.8309 12.0838 46.1589C12.0838 46.2109 12.0749 46.2709 12.0749 46.3229C12.0059 47.5759 12.0398 48.1729 12.2478 48.9599C12.8958 51.4239 14.8929 54.1379 18.0229 56.8009C23.1489 61.1579 30.0998 64.3049 35.3648 64.6679C40.8548 65.0399 48.9548 61.8319 54.3488 57.1469C55.1958 56.3949 55.9918 55.5999 56.7348 54.7519C57.2708 54.1299 58.0658 53.0579 58.0058 53.0579C57.9888 53.0579 58.0058 53.0409 58.0408 53.0229C58.0668 53.0059 58.0928 52.9799 58.0758 52.9619C58.0668 52.9529 58.0848 52.9269 58.1108 52.9189C58.1368 52.9099 58.1538 52.8929 58.1458 52.8759C58.1368 52.8589 58.1458 52.8409 58.1808 52.8329C58.2068 52.8239 58.2158 52.7979 58.2068 52.7809C58.1978 52.7639 58.2068 52.7459 58.2238 52.7459C58.2408 52.7459 58.2588 52.7199 58.2588 52.7029C58.2588 52.6859 58.2758 52.6599 58.2928 52.6599C58.3098 52.6599 58.3278 52.6429 58.3278 52.6249C58.3538 52.5559 58.3969 52.4869 58.4399 52.4259C58.5699 52.2269 59.0878 51.3019 59.1568 51.1459C59.6498 50.0309 59.9608 49.0369 60.1078 48.0429C60.1588 47.5669 60.2018 46.6939 60.1668 46.4869ZM38.5548 57.0339C38.3908 57.1289 38.2778 57.1719 38.2528 57.1549C38.2268 57.1459 38.1059 57.0429 37.9759 56.9479L37.7428 56.7579L37.5008 57.0169C36.9738 57.5879 36.9558 57.6129 36.8008 57.6219C36.5588 57.6479 36.5068 57.6049 36.2128 57.1639C36.0568 56.9389 35.9358 56.7489 35.9358 56.7489C35.9358 56.7489 35.8238 56.7319 35.6938 56.7229L35.4518 56.6969L35.3398 56.9299L35.2278 57.1629L35.0288 57.1029C34.8728 57.0509 34.7178 56.9909 34.5708 56.9209L34.3118 56.7909V56.2979L36.6119 56.3069L38.9118 56.3159L38.9208 56.549C38.9268 56.826 38.9348 56.8179 38.5548 57.0339ZM42.8769 55.4779C42.7469 55.9709 42.6429 56.3679 42.6429 56.3859C42.5479 56.3949 42.4608 56.4029 42.3658 56.3949H42.0888L41.7168 57.3029C41.5098 57.7959 41.3188 58.2539 41.2928 58.3229L41.2408 58.4439L41.0588 58.1499L40.8769 57.8559V55.4609L40.8078 55.4779C40.6608 55.5129 39.6148 55.6509 39.1568 55.6939C37.2638 55.8839 35.3618 55.8409 33.4768 55.5729C33.1738 55.5299 32.9148 55.4949 32.9068 55.5039C32.8978 55.5129 32.9069 56.0659 32.9239 56.7489L32.9499 57.9769L32.8028 58.2019C32.7248 58.3229 32.6468 58.4269 32.6468 58.4349C32.6208 58.4609 32.5348 58.3229 32.3358 57.9249C32.1198 57.5099 31.9638 57.0689 31.8518 56.6109L31.7918 56.3599L31.5238 56.3769L31.2558 56.4029L31.1868 56.0829C31.1518 55.9099 31.1088 55.6419 31.0918 55.4949L31.0658 55.2179L30.8409 55.019C30.7109 54.907 30.5818 54.7939 30.5558 54.7769C30.5128 54.7419 30.4948 54.6819 30.4948 54.6299V54.5259L31.5758 54.5349L32.6568 54.5439L32.6908 54.6559L32.7259 54.7679L33.0978 54.7849C33.3048 54.7939 33.9628 54.8109 34.5498 54.8279L35.6308 54.8539L35.9077 54.4219L36.1928 53.9899H36.5558L36.5468 53.0909L36.5378 52.1919L36.0628 51.9839C34.5328 51.3099 33.6338 50.5399 33.2968 49.6069C33.2278 49.4169 33.2278 49.3479 33.2108 48.4829C33.2018 47.6269 33.2019 47.5489 33.2629 47.3589C33.3839 46.9269 33.7208 46.5899 34.1538 46.4769C34.3008 46.4339 34.6898 46.4339 36.7298 46.4339L39.1328 46.4429L39.4008 46.5729C39.7208 46.7289 39.8679 46.8409 40.0489 47.0829C40.2569 47.3599 40.3168 47.5759 40.3168 48.1029C40.3168 48.8549 40.2648 49.5039 40.1868 49.7629C40.0748 50.1169 39.9018 50.4549 39.6858 50.7569C39.2538 51.3099 38.4668 51.8639 37.7498 52.1139L37.5418 52.1919L37.5508 53.0999L37.5598 54.0079L37.7498 54.0249L37.9399 54.0419L38.1988 54.4309L38.4499 54.8199H39.6078C40.2478 54.8199 40.8099 54.8289 40.8619 54.8369C40.9479 54.8539 40.9658 54.8459 41.0518 54.6989L41.1558 54.5429H42.1498C42.9188 54.5429 43.1438 54.5519 43.1438 54.5779C43.1188 54.5699 43.0069 54.9929 42.8769 55.4779Z" fill="#16222E"/>
<path d="M60.0979 44.6051C60.0809 44.2161 60.0459 43.671 60.0199 43.403C59.6479 39.478 58.6449 36.271 56.7439 32.873C56.6659 32.743 56.597 32.6141 56.554 32.5101C56.537 32.4841 56.5279 32.4581 56.5189 32.4411C56.7869 31.6371 57.8849 28.274 58.7579 24.427C59.9419 19.205 60.6949 13.1021 58.3949 11.2691C58.3949 11.2691 54.4179 10.975 49.0929 16.197C47.6489 17.641 46.3269 19.206 45.1509 20.874L44.7789 20.753C42.6349 20.053 40.413 19.62 38.174 19.474C37.5 19.422 34.9838 19.422 34.1628 19.474C31.6818 19.638 29.7799 20.01 27.6189 20.762C27.5329 20.797 27.455 20.823 27.377 20.848C26.158 19.188 24.8009 17.632 23.3049 16.206C17.7639 10.959 13.6399 11.261 13.6399 11.261C11.2019 13.154 12.0319 19.534 13.2939 24.929C14.1239 28.499 15.1439 31.637 15.5239 32.77C15.4979 32.831 15.463 32.9 15.429 32.96C13.415 37.041 12.3249 40.974 12.0659 45.158C14.3219 44.829 20.5379 44.458 25.1979 49.472C25.1979 49.472 28.276 41.3461 36.575 41.3461C44.874 41.3461 46.6469 49.472 46.6469 49.472C52.1449 44.933 58.0668 45.08 60.1418 45.296C60.1328 45.124 60.1149 44.8641 60.0979 44.6051ZM17.1578 29.511C17.1578 29.511 13.9249 21.428 14.7549 16.811C14.8929 16.033 15.1528 15.35 15.5588 14.831C15.5588 14.831 19.2249 15.1941 25.1379 21.7641C25.1379 21.7641 24.0139 22.3091 22.5099 23.4671C22.5099 23.4671 22.5009 23.476 22.4929 23.476C20.8589 24.73 18.7658 26.718 17.1578 29.511ZM30.8779 41.5191C30.8259 41.6231 30.5669 41.735 30.2729 41.778C29.9789 41.821 29.0799 41.795 28.5699 41.735C26.7369 41.493 24.7919 40.931 23.3739 40.239C22.5789 39.85 22.0079 39.461 21.5839 39.037L21.3419 38.7861L21.3159 38.4581C21.2729 37.8871 21.281 36.988 21.351 36.668C21.394 36.4 21.4889 36.1411 21.6189 35.9071C21.6879 35.8211 21.6879 35.821 21.9989 35.821C22.3789 35.821 22.6989 35.882 23.2179 36.046C24.2809 36.375 25.8629 37.17 27.7909 38.328C29.3819 39.279 29.9779 39.7461 30.4359 40.3851C30.7479 40.7841 30.9559 41.3461 30.8779 41.5191ZM51.2458 38.6571C51.2198 38.7951 50.8139 39.21 50.4069 39.513C49.2139 40.386 47.0789 41.1991 44.9089 41.5881C43.6729 41.8131 42.4369 41.847 42.0649 41.666C41.8229 41.545 41.7879 41.4501 41.8749 41.1391C42.0569 40.4911 42.6439 39.782 43.5609 39.116C44.0279 38.779 45.9209 37.629 46.8029 37.145C48.2549 36.35 49.431 35.874 50.226 35.762C50.477 35.727 50.7789 35.719 50.8739 35.762C51.0299 35.822 51.2019 36.281 51.2719 36.834C51.3059 37.127 51.2888 38.4241 51.2458 38.6571ZM49.8109 23.468L49.7939 23.459C48.3419 22.3 47.252 21.7561 47.252 21.7561C52.966 15.1861 56.502 14.823 56.502 14.823C56.891 15.35 57.1419 16.0251 57.2799 16.8031C58.0839 21.4191 54.9629 29.511 54.9629 29.511C53.6579 27.185 51.9029 25.128 49.8109 23.468Z" fill="#16222E"/>
<path d="M57.2889 16.802C56.6149 16.716 53.4249 16.698 49.8109 23.467L49.7939 23.458C48.3419 22.299 47.252 21.755 47.252 21.755C52.966 15.185 56.502 14.822 56.502 14.822C56.9 15.35 57.1499 16.024 57.2889 16.802Z" fill="#FF150A"/>
<path d="M54.972 30.5109C53.658 28.1769 51.912 26.1279 49.811 24.4679C53.425 17.6989 56.6061 17.716 57.2891 17.803C58.0931 22.428 54.972 30.5109 54.972 30.5109Z" fill="#16222E"/>
<path d="M57.4181 17.828C57.3751 17.819 57.3311 17.811 57.2881 17.802L57.4181 17.828Z" fill="#FF8300"/>
<path d="M25.1376 21.756C25.1376 21.756 24.0135 22.301 22.5095 23.459C22.5095 23.459 22.5006 23.468 22.4926 23.468C18.7496 16.69 15.4556 16.716 14.7466 16.803C14.8846 16.025 15.1445 15.342 15.5505 14.823C15.5585 14.823 19.2246 15.186 25.1376 21.756Z" fill="#FF150A"/>
<path d="M22.5004 24.4679C20.8574 25.7299 18.7654 27.7099 17.1574 30.5109C17.1574 30.5109 13.9244 22.428 14.7544 17.803C15.4544 17.716 18.7574 17.6989 22.5004 24.4679Z" fill="#16222E"/>
<path d="M14.7546 17.802C14.7116 17.811 14.6597 17.819 14.6167 17.828L14.7546 17.802Z" fill="#FF8300"/>
<path d="M46.2228 34.9971C46.2228 34.9971 43.4568 35.17 43.8018 33.009C44.1478 30.848 46.3088 30.588 46.9138 30.675C47.5188 30.762 49.9398 31.6261 49.5078 33.4411C49.0758 35.2561 48.4708 34.9111 48.1248 34.9971C47.7788 35.0841 46.2228 34.9971 46.2228 34.9971Z" fill="#16222E"/>
<path d="M25.8209 34.9971C25.8209 34.9971 23.0549 35.17 23.3999 33.009C23.7459 30.848 25.9068 30.588 26.5118 30.675C27.1168 30.762 29.5378 31.6261 29.1058 33.4411C28.6738 35.2561 28.0689 34.9111 27.7229 34.9971C27.3769 35.0841 25.8209 34.9971 25.8209 34.9971Z" fill="#16222E"/>
</svg>
