<svg width="78" height="76" viewBox="0 0 78 76" fill="none" xmlns="http://www.w3.org/2000/svg">
<path d="M28.3799 72.8152C48.2061 77.7571 68.2856 65.6957 73.2285 45.8738C77.2441 29.7619 70.0264 13.4807 56.5381 5.2959C72.3164 12.5355 81.2168 30.1933 76.8662 47.6515C71.9482 67.3775 51.9683 79.3805 32.2402 74.4625C29.6025 73.8047 27.103 72.8774 24.7637 71.7173C25.9375 72.1397 27.1436 72.5069 28.3799 72.8152Z" fill="#FF150A"/>
<path d="M36.821 73.642C57.1567 73.642 73.642 57.1567 73.642 36.821C73.642 16.4853 57.1567 0 36.821 0C16.4853 0 0 16.4853 0 36.821C0 57.1567 16.4853 73.642 36.821 73.642Z" fill="#FF150A"/>
<path d="M19.3808 47.4798C19.6928 47.1678 20.1208 46.9858 20.5758 46.9858H61.8068C62.5598 46.9858 62.9368 47.8948 62.4048 48.4278L54.2598 56.5728C53.9478 56.8848 53.5198 57.0668 53.0648 57.0668H11.8338C11.0808 57.0668 10.7038 56.1578 11.2358 55.6248L19.3808 47.4798Z" fill="#16222E"/>
<path d="M19.3808 17.0699C19.7058 16.7579 20.1338 16.5759 20.5758 16.5759H61.8068C62.5598 16.5759 62.9368 17.4849 62.4048 18.0179L54.2598 26.1629C53.9478 26.4749 53.5198 26.6569 53.0648 26.6569H11.8338C11.0808 26.6569 10.7038 25.7479 11.2358 25.2149L19.3808 17.0699Z" fill="#16222E"/>
<path d="M54.2598 32.1778C53.9478 31.8658 53.5198 31.6838 53.0648 31.6838H11.8338C11.0808 31.6838 10.7038 32.5928 11.2358 33.1258L19.3808 41.2708C19.6928 41.5828 20.1208 41.7648 20.5758 41.7648H61.8068C62.5598 41.7648 62.9368 40.8558 62.4048 40.3228L54.2598 32.1778Z" fill="#16222E"/>
</svg>
