<svg width="85" height="85" viewBox="0 0 85 85" fill="none" xmlns="http://www.w3.org/2000/svg">
<path d="M33.3633 78.193C53.1895 83.1349 73.269 71.0735 78.2119 51.2516C82.2275 35.1397 75.0098 18.8586 61.5215 10.6737C77.2998 17.9133 86.2002 35.5712 81.8496 53.0293C76.9316 72.7553 56.9517 84.7583 37.2236 79.8403C34.5859 79.1825 32.0864 78.2552 29.7471 77.0951C30.9209 77.5175 32.127 77.8847 33.3633 78.193Z" fill="#FF150A"/>
<path d="M78.5466 48.022C81.7677 27.9425 68.1014 9.05359 48.022 5.83242C27.9425 2.61125 9.05362 16.2776 5.83244 36.3571C2.61127 56.4365 16.2776 75.3254 36.3571 78.5466C56.4365 81.7677 75.3254 68.1014 78.5466 48.022Z" fill="#FF150A"/>
<path d="M60.3951 20.8589H67.8441L52.3421 36.2099C46.7251 41.7669 37.6251 41.7669 32.0081 36.2099L16.4961 20.8589H23.9551L35.7332 32.5159C39.3072 36.0389 45.0342 36.0389 48.6082 32.5159L60.3951 20.8589Z" fill="#16222E"/>
<path d="M23.855 63.5399H16.396L31.999 48.0979C37.616 42.5409 46.716 42.5409 52.333 48.0979L67.936 63.5399H60.487L48.609 51.7829C45.035 48.2599 39.308 48.2599 35.734 51.7829L23.855 63.5399Z" fill="#16222E"/>
</svg>
