<svg width="78" height="76" viewBox="0 0 78 76" fill="none" xmlns="http://www.w3.org/2000/svg">
<path d="M27.8994 73.0307C47.7256 77.9727 67.8052 65.9113 72.748 46.0894C76.7637 29.9775 69.5459 13.6963 56.0576 5.51147C71.8359 12.7511 80.7363 30.4089 76.3857 47.8671C71.4678 67.5931 51.4878 79.5961 31.7598 74.6781C29.1221 74.0203 26.6226 73.093 24.2832 71.9329C25.457 72.3552 26.6631 72.7225 27.8994 73.0307Z" fill="#FF150A"/>
<path fill-rule="evenodd" clip-rule="evenodd" d="M30.4467 16.425L24.6727 38.0231L20.0977 39.8221L18.4487 45.972L23.0977 44.397L20.0237 57.1461L53.3197 57.22L55.3437 49.0461H35.0957L37.7207 39.2211L43.1957 36.8961L44.7697 30.897L39.4457 32.696L43.6457 16.6481L30.4467 16.425Z" fill="#B8B9BB"/>
<path fill-rule="evenodd" clip-rule="evenodd" d="M36.821 0.00500488C57.15 0.0170049 73.627 16.493 73.642 36.821C73.63 57.152 57.152 73.63 36.821 73.642C16.49 73.63 0.012 57.152 0 36.821C0.074 16.499 16.499 0 36.821 0V0.00500488Z" fill="#FF150A"/>
<path fill-rule="evenodd" clip-rule="evenodd" d="M30.4472 16.425L24.6732 38.0231L20.0982 39.8221L18.4492 45.972L23.0982 44.397L20.0242 57.1461L53.3202 57.22L55.3442 49.0461H35.0962L37.7212 39.2211L43.1962 36.8961L44.7702 30.897L39.4462 32.696L43.6462 16.6481L30.4472 16.425Z" fill="#16222E"/>
</svg>
