<svg width="78" height="76" viewBox="0 0 78 76" fill="none" xmlns="http://www.w3.org/2000/svg">
<path d="M28.0239 73.0264C47.8501 77.9683 67.9297 65.9069 72.8726 46.085C76.8882 29.9731 69.6704 13.6919 56.1821 5.50708C71.9604 12.7467 80.8608 30.4045 76.5103 47.8627C71.5923 67.5887 51.6123 79.5917 31.8843 74.6737C29.2466 74.0159 26.7471 73.0886 24.4077 71.9285C25.5815 72.3508 26.7876 72.7181 28.0239 73.0264Z" fill="#FF150A"/>
<path d="M73.6413 36.8206C73.6413 16.4851 57.1561 -2.38369e-05 36.8206 -2.2948e-05C16.4852 -2.20591e-05 -2.49837e-06 16.4851 -1.60948e-06 36.8206C-7.20589e-07 57.1561 16.4852 73.6412 36.8206 73.6412C57.1561 73.6412 73.6413 57.1561 73.6413 36.8206Z" fill="#FF150A"/>
<path d="M29.6641 16.4517C33.9761 14.8387 38.829 14.8347 43.221 16.1607C48.939 17.9357 53.7661 22.2507 56.2891 27.6677C56.9851 29.2107 57.651 30.8197 57.718 32.5357C54.503 30.6727 50.98 29.4647 47.449 28.3637C41.801 26.3277 35.887 24.9137 30.541 22.1147C29.296 21.3707 27.709 20.6087 27.371 19.0587C27.234 17.7177 28.6521 16.9707 29.6641 16.4517Z" fill="#16222E"/>
<path d="M16.648 29.4866C17.896 26.0986 19.943 22.9547 22.723 20.6237C23.43 26.4377 25.904 32.0567 29.992 36.2837C34.893 41.3757 41.874 44.5027 48.977 44.3847C51.797 44.4727 54.555 43.8217 57.306 43.2947C54.6 53.0747 43.881 59.5657 33.95 58.0047C27.956 57.2387 22.421 53.6897 19.082 48.6777C15.315 43.1397 14.365 35.7856 16.648 29.4866Z" fill="#16222E"/>
<path d="M47.4492 28.3627C50.9802 29.4637 54.5042 30.6717 57.7182 32.5347L57.9352 32.6487C58.2332 34.8907 58.4512 37.1777 58.0532 39.4237C56.4362 38.7387 55.1262 37.5347 53.7562 36.4707C51.1202 34.2767 48.4282 31.7657 47.4492 28.3627Z" fill="#16222E"/>
</svg>
