<svg width="78" height="76" viewBox="0 0 78 76" fill="none" xmlns="http://www.w3.org/2000/svg">
<path d="M28.2598 72.8152C48.0859 77.7571 68.1655 65.6957 73.1084 45.8738C77.124 29.7619 69.9062 13.4807 56.418 5.2959C72.1963 12.5355 81.0967 30.1933 76.7461 47.6515C71.8281 67.3775 51.8481 79.3805 32.1201 74.4625C29.4824 73.8047 26.9829 72.8774 24.6436 71.7173C25.8174 72.1397 27.0234 72.5069 28.2598 72.8152Z" fill="#FF150A"/>
<path d="M36.821 0C57.156 0 73.642 16.486 73.642 36.821C73.642 57.156 57.155 73.642 36.821 73.642C16.487 73.642 0 57.16 0 36.821C0 16.482 16.484 0 36.821 0Z" fill="#FF150A"/>
<path d="M41.3651 31.9151V26.4371H53.8911V18.0911H19.7831V26.4371H32.3101V31.9101C22.1291 32.3781 14.4741 34.3941 14.4741 36.8091C14.4741 39.2241 22.1331 41.2411 32.3101 41.7111V59.2561H41.3681V41.7091C51.5311 41.2401 59.1701 39.2251 59.1701 36.8121C59.1701 34.3991 51.5301 32.3841 41.3681 31.9151M41.3681 40.2251V40.2201C41.1131 40.2361 39.7991 40.3151 36.8761 40.3151C34.5391 40.3151 32.8941 40.2491 32.3151 40.2191V40.2261C23.3201 39.8281 16.6071 38.2611 16.6071 36.3871C16.6071 34.5131 23.3221 32.9491 32.3151 32.5491V38.6651C32.9041 38.7051 34.5891 38.8051 36.9151 38.8051C39.7081 38.8051 41.1121 38.6891 41.3701 38.6651V32.5501C50.3471 32.9501 57.0451 34.5181 57.0451 36.3851C57.0451 38.2531 50.3441 39.8211 41.3701 40.2211" fill="#16222E"/>
</svg>
