<svg width="68" height="65" viewBox="0 0 68 65" fill="none" xmlns="http://www.w3.org/2000/svg">
<path d="M43.1351 64.4631C27.3801 65.0449 9.63191 52.5246 3.53701 36.4886C2.41235 33.5142 1.7572 30.6309 1.55246 27.8838C1.09709 22.0014 2.67853 16.8257 5.92825 13.0013L10.4692 7.65552C7.21951 11.4799 5.63738 16.6556 6.09557 22.5479C6.30878 25.2829 6.95405 28.1684 8.08083 31.1526C14.1757 47.188 31.9217 59.699 47.6867 59.1152C54.3295 58.8603 59.5779 56.3561 62.9907 52.3425L58.4497 57.6883C55.0355 61.7012 49.7878 64.2061 43.1351 64.4631Z" fill="#3033F2" stroke="#6C8EFF" stroke-miterlimit="10" stroke-linecap="round" stroke-linejoin="round"/>
<path d="M6.09487 22.5479L1.55176 27.8838" stroke="#6C8EFF" stroke-miterlimit="10" stroke-linecap="round" stroke-linejoin="round"/>
<path d="M22.0058 49.6746L17.4316 54.9929" stroke="#6C8EFF" stroke-miterlimit="10" stroke-linecap="round" stroke-linejoin="round"/>
<path d="M11.4617 37.9302L6.79785 43.0713" stroke="#6C8EFF" stroke-miterlimit="10" stroke-linecap="round" stroke-linejoin="round"/>
<path d="M36.7484 58.2241L32.4199 62.9946" stroke="#6C8EFF" stroke-miterlimit="10" stroke-linecap="round" stroke-linejoin="round"/>
<path d="M49.4353 58.9922L44.5215 64.374" stroke="#6C8EFF" stroke-miterlimit="10" stroke-linecap="round" stroke-linejoin="round"/>
<path d="M47.6823 59.1087C31.9208 59.6975 14.1805 47.1815 8.08203 31.1447C6.95314 28.1696 6.30502 25.2814 6.08969 22.5442C5.16341 10.5006 12.7614 1.41931 25.6572 0.898984C41.521 0.272762 59.267 12.7838 65.3775 28.8926C66.5014 31.862 67.1495 34.739 67.3599 37.4705C68.2904 49.5311 60.6642 58.6279 47.6823 59.1087Z" fill="#3033F2" stroke="#6C8EFF" stroke-miterlimit="10" stroke-linecap="round" stroke-linejoin="round"/>
<path d="M45.8955 54.3778C32.7046 54.8663 17.8412 44.385 12.7432 30.9576C11.7979 28.464 11.2521 26.0439 11.0756 23.7522C10.2983 13.6656 16.6622 6.06828 27.4548 5.63762C40.7347 5.11165 55.6045 15.5887 60.7145 29.0712C61.6577 31.5563 62.202 33.9701 62.3785 36.2561C63.1551 46.3498 56.7644 53.9704 45.8955 54.3778Z" stroke="#6C8EFF" stroke-miterlimit="10" stroke-linecap="round" stroke-linejoin="round"/>
<path d="M28.7723 44.1564L16.4307 22.8168L24.2757 20.5428C25.1095 20.3014 26.0047 20.2936 26.9593 20.5195C27.9145 20.7462 28.8443 21.1309 29.7494 21.676C30.6545 22.221 31.5094 22.8973 32.3143 23.705C33.1184 24.5134 33.7813 25.3676 34.3031 26.2692C35.0218 27.5117 35.4743 28.7317 35.6607 29.9291C35.8478 31.1265 35.7532 32.1777 35.3769 33.0821L43.5234 39.8802L38.2291 41.415L31.4318 35.7345L29.6752 36.2436L33.4643 42.7959L28.7723 44.1564ZM26.7206 31.1342L29.6809 30.2765C29.9696 30.1924 30.1221 29.915 30.1391 29.4412C30.156 28.9689 29.9562 28.3717 29.539 27.6501C29.1104 26.9088 28.6381 26.3843 28.1234 26.0779C27.6088 25.7707 27.2071 25.6592 26.9183 25.7432L24.0788 26.5664L26.7206 31.1342Z" fill="#6C8EFF"/>
<path d="M47.5123 21.9484C46.9969 21.7705 46.4611 21.6215 45.9055 21.5015C45.4247 21.3836 44.9093 21.2933 44.3579 21.2304C43.8065 21.1683 43.277 21.1521 42.7701 21.1817L44.3346 23.8871C44.5026 23.8857 44.6862 23.8963 44.8874 23.9196C45.0879 23.9436 45.294 23.9598 45.5058 23.9683C46.4653 24.041 47.3669 24.166 48.2091 24.3425C49.0514 24.519 49.8393 24.7887 50.5721 25.1487C51.3049 25.5095 51.9947 26.0058 52.6414 26.637C53.2881 27.2688 53.9002 28.0857 54.4798 29.0868C55.1639 30.2694 55.5812 31.3241 55.7337 32.2504C55.8855 33.1774 55.8466 33.9843 55.6165 34.6706C55.3856 35.3575 55.0037 35.9357 54.4706 36.4066C53.9369 36.8775 53.3184 37.2496 52.616 37.5235L54.7191 41.1601L52.7939 41.7186L50.6561 38.0219C49.4792 38.2231 48.2239 38.2704 46.8896 38.1659C45.5553 38.0615 44.2696 37.8151 43.0327 37.4239L42.0817 31.6983C42.7122 31.9136 43.3624 32.0986 44.0338 32.2553C44.6015 32.3951 45.2348 32.5102 45.933 32.5998C46.6319 32.6902 47.2984 32.7015 47.9338 32.6337L46.4039 29.9891C45.8137 29.9735 45.2065 29.9269 44.5817 29.8507C43.642 29.749 42.7927 29.5916 42.0323 29.3791C41.2727 29.1666 40.5801 28.8764 39.9546 28.5072C39.329 28.1386 38.7586 27.6783 38.2425 27.1255C37.7264 26.5734 37.2421 25.9063 36.7903 25.1247C36.1648 24.0424 35.756 23.0441 35.5632 22.1292C35.3712 21.2142 35.35 20.3839 35.4997 19.6384C35.6494 18.8928 35.953 18.244 36.4097 17.6898C36.8665 17.1363 37.4433 16.7007 38.1401 16.3816L36.3843 13.3458L38.3096 12.7881L40.0824 15.8535C40.6577 15.7801 41.2409 15.7519 41.8311 15.7681C42.4213 15.7843 43.0059 15.8309 43.5848 15.9093C44.1637 15.987 44.7208 16.0837 45.2545 16.1973C45.7889 16.3117 46.2824 16.4204 46.735 16.5228L47.5123 21.9484ZM41.0955 22.7561C41.2691 23.0568 41.4915 23.2792 41.7619 23.4226C42.0323 23.5666 42.374 23.6725 42.7877 23.7388L41.4668 21.4549C40.883 21.7416 40.7594 22.1751 41.0955 22.7561ZM49.7567 31.1243C49.5943 30.844 49.3564 30.6259 49.0422 30.472C48.728 30.3173 48.3644 30.2065 47.9507 30.1394L49.2371 32.3633C49.5992 32.2115 49.8139 32.0329 49.8816 31.8254C49.948 31.6185 49.907 31.3855 49.7567 31.1243Z" fill="#6C8EFF"/>
</svg>
