<svg width="92" height="47" viewBox="0 0 92 47" fill="none" xmlns="http://www.w3.org/2000/svg">
<path d="M76.2939 1.11433C60.4047 -1.1138 32.9307 4.76788 14.9679 14.2615C11.6419 16.0229 8.86948 17.7816 6.66041 19.507C1.91397 23.1994 0.393241 26.6059 0.978515 29.4242L4.39414 39.4233C3.80816 36.605 5.93111 33.123 10.6867 29.4242C12.8951 27.7072 15.6598 25.9458 18.9942 24.1786C36.957 14.6851 64.4211 8.80973 80.3195 11.04C87.0124 11.9853 90.6257 14.1986 91.2427 17.1568L87.2249 7.23394C86.6092 4.2758 82.9952 2.06249 76.2939 1.11433Z" fill="#6C8EFF"/>
<path d="M87.2242 7.23324L90.6483 15.6812C89.907 14.4867 88.5719 13.4573 86.6304 12.6454L85.8948 10.8218C85.277 7.86229 81.6651 5.65039 74.9645 4.70364C59.0745 2.47409 31.6013 8.35719 13.635 17.8522C10.3111 19.6115 7.54006 21.3702 5.32817 23.0942C3.27512 24.6947 1.82217 26.2416 0.886719 27.7065C1.11052 25.2652 2.84022 22.4828 6.65756 19.5056C8.86946 17.7823 11.6405 16.0229 14.97 14.2643C32.9306 4.7693 60.4039 -1.1138 76.2939 1.11575C82.9945 2.06179 86.6064 4.27369 87.2242 7.23324Z" fill="#3033F2"/>
<path d="M91.2419 17.1574L90.6475 15.6812C90.9362 16.1457 91.136 16.6399 91.2419 17.1574Z" fill="#3033F2"/>
<path d="M76.2939 1.11433C60.4047 -1.1138 32.9307 4.76788 14.9679 14.2615C11.6419 16.0229 8.86948 17.7816 6.66041 19.507C1.91397 23.1994 0.393241 26.6059 0.978515 29.4242L4.39414 39.4233C3.80816 36.605 5.93111 33.123 10.6867 29.4242C12.8951 27.7072 15.6598 25.9458 18.9942 24.1786C36.957 14.6851 64.4211 8.80973 80.3195 11.04C87.0124 11.9853 90.6257 14.1986 91.2427 17.1568L87.2249 7.23394C86.6092 4.2758 82.9952 2.06249 76.2939 1.11433Z" stroke="#B3B5CC" stroke-miterlimit="10" stroke-linecap="round" stroke-linejoin="round"/>
<path d="M10.6873 29.4243L7.6875 19.8982" stroke="#B3B5CC" stroke-miterlimit="10" stroke-linecap="round" stroke-linejoin="round"/>
<path d="M46.8723 14.0249L43.8252 4.49951" stroke="#B3B5CC" stroke-miterlimit="10" stroke-linecap="round" stroke-linejoin="round"/>
<path d="M27.4221 20.2602L24.1533 10.8401" stroke="#B3B5CC" stroke-miterlimit="10" stroke-linecap="round" stroke-linejoin="round"/>
<path d="M68.3493 10.3178L65.1631 1.18433" stroke="#B3B5CC" stroke-miterlimit="10" stroke-linecap="round" stroke-linejoin="round"/>
<path d="M82.0432 11.3245L78.6953 1.7356" stroke="#B3B5CC" stroke-miterlimit="10" stroke-linecap="round" stroke-linejoin="round"/>
<path d="M80.8665 10.8947C65.5082 8.51896 38.1684 14.3653 19.8166 23.962C16.4144 25.7425 13.5614 27.528 11.2571 29.2704C1.14008 36.9397 1.82984 43.7738 14.3663 45.7421C29.798 48.1545 57.1407 42.3124 75.5595 32.6705C78.9526 30.8928 81.7978 29.1151 84.0923 27.3755C94.2262 19.6964 93.5188 12.8496 80.8665 10.8947Z" fill="#6C8EFF"/>
<path d="M80.8665 10.8947C65.5082 8.51896 38.1684 14.3653 19.8166 23.962C16.4144 25.7425 13.5614 27.528 11.2571 29.2704C1.14008 36.9397 1.82984 43.7738 14.3663 45.7421C29.798 48.1545 57.1407 42.3124 75.5595 32.6705C78.9526 30.8928 81.7978 29.1151 84.0923 27.3755C94.2262 19.6964 93.5188 12.8496 80.8665 10.8947Z" stroke="#B3B5CC" stroke-miterlimit="10" stroke-linecap="round" stroke-linejoin="round"/>
<path d="M77.6894 26.1561C75.7034 27.4269 73.2578 28.752 70.3674 30.0998C54.6921 37.4125 31.8954 42.6172 19.3773 41.741C9.20593 41.0273 9.03649 36.5004 17.798 30.8962C19.7882 29.6225 22.2401 28.2938 25.1396 26.9411C40.7606 19.6581 63.5552 14.4506 76.0147 15.3027C86.2786 16.0073 86.4565 20.5476 77.6894 26.1561Z" stroke="#3033F2" stroke-miterlimit="10" stroke-linecap="round" stroke-linejoin="round"/>
<path d="M69.1108 28.7084L45.26 36.7625L39.7963 34.6416C39.2152 34.4164 38.9201 34.127 38.9095 33.7733C38.8996 33.4196 39.1051 33.0447 39.5252 32.6472C39.9459 32.2497 40.5538 31.8438 41.3495 31.4286C42.1451 31.0142 43.0467 30.6365 44.0541 30.2962C45.4428 29.8274 46.8873 29.449 48.3869 29.1617C49.8864 28.8743 51.2857 28.7056 52.5833 28.6569L58.8371 24.7202L62.5245 26.1513L57.2959 29.437L58.5194 29.9121L65.8427 27.439L69.1108 28.7084ZM52.8085 31.8409L50.747 31.041C50.5458 30.9627 50.1349 30.9655 49.5136 31.0502C48.8931 31.1342 48.1793 31.3121 47.3723 31.5847C46.5442 31.8642 46.0119 32.117 45.7761 32.3429C45.541 32.5681 45.5233 32.7199 45.7245 32.7983L47.7021 33.5657L52.8085 31.8409Z" fill="#3033F2"/>
<path d="M34.2158 26.8183C34.148 27.0195 34.1254 27.2222 34.1466 27.4255C34.1466 27.6041 34.1932 27.7891 34.2878 27.9797C34.3831 28.171 34.5307 28.3461 34.7312 28.505L37.7543 27.4841C37.6992 27.4297 37.654 27.3676 37.6208 27.2977C37.5877 27.2278 37.5432 27.1579 37.4874 27.0873C37.2763 26.7612 37.1513 26.4449 37.1125 26.137C37.0744 25.8299 37.1732 25.5221 37.409 25.2157C37.6455 24.9093 38.0713 24.5909 38.6869 24.2612C39.3039 23.9315 40.1716 23.5778 41.2913 23.1994C42.613 22.7532 43.8527 22.4178 45.0112 22.1926C46.1698 21.9674 47.233 21.8276 48.201 21.7726C49.1689 21.7175 50.0436 21.7323 50.8266 21.8163C51.6095 21.9003 52.2915 22.0317 52.8725 22.2082L56.937 20.8357L58.2777 21.356L54.1455 22.7511C54.7823 23.0956 55.2454 23.4945 55.5342 23.9485C55.8243 24.4024 55.9126 24.867 55.7989 25.3435L48.6471 26.7371C48.7262 26.4915 48.7608 26.2451 48.7495 25.9966C48.7502 25.7855 48.698 25.5581 48.5921 25.3139C48.4869 25.0696 48.2885 24.8507 47.9983 24.6566L45.0423 25.6549C45.2096 25.8497 45.3438 26.0559 45.4433 26.2733C45.6106 26.5981 45.677 26.9045 45.6417 27.1918C45.6078 27.4792 45.4504 27.7594 45.1694 28.0327C44.8891 28.3059 44.4711 28.5784 43.9169 28.8509C43.3627 29.1234 42.6483 29.4072 41.7749 29.7016C40.5656 30.1097 39.3957 30.4316 38.2654 30.6675C37.1351 30.9033 36.0606 31.0678 35.0425 31.1595C34.0245 31.252 33.082 31.276 32.215 31.2323C31.3487 31.1885 30.5968 31.0833 29.9593 30.9174L26.5663 32.0632L25.2256 31.5429L28.6518 30.3858C28.3729 30.2121 28.1498 30.0278 27.9825 29.833C27.8159 29.6381 27.6902 29.439 27.6069 29.2357C27.5236 29.0324 27.4714 28.8333 27.4495 28.6377C27.4283 28.4421 27.4121 28.2614 27.4008 28.0948L34.2158 26.8183ZM37.3137 28.7521C37.6498 28.6384 37.8686 28.524 37.9689 28.409C38.0706 28.2939 38.0988 28.1626 38.0543 28.015L35.5014 28.877C36.0606 29.0133 36.6642 28.9716 37.3137 28.7521ZM45.4483 24.3509C45.1348 24.4568 44.9272 24.5754 44.8263 24.7067C44.7253 24.838 44.6971 24.9771 44.7408 25.1246L47.2267 24.2852C46.9139 24.1963 46.6124 24.1602 46.3209 24.1772C46.0307 24.1948 45.7398 24.2527 45.4483 24.3509Z" fill="#3033F2"/>
</svg>
