<svg width="88" height="99" viewBox="0 0 88 99" fill="none" xmlns="http://www.w3.org/2000/svg">
<path d="M48.2382 96.3025C69.5898 89.1395 87.0004 63.4601 87.0654 38.9549C87.0696 34.4132 86.4921 30.2287 85.3816 26.4544C83.0257 18.3623 78.3025 12.242 72.0318 8.76844L63.2682 3.91187C69.5389 7.38539 74.2621 13.5057 76.6201 21.612C77.7137 25.375 78.3053 29.5566 78.3032 34.1131C78.239 58.6177 60.8262 84.2836 39.4605 91.4488C30.4534 94.4564 22.1762 93.7539 15.5928 90.1095L24.3563 94.9654C30.9398 98.6098 39.2169 99.3129 48.2382 96.3025Z" fill="#6C8EFF"/>
<path d="M48.2382 96.3025C69.5898 89.1395 87.0004 63.4601 87.0654 38.9549C87.0696 34.4132 86.4921 30.2287 85.3816 26.4544C83.0257 18.3623 78.3025 12.242 72.0318 8.76844L63.2682 3.91187C69.5389 7.38539 74.2621 13.5057 76.6201 21.612C77.7137 25.375 78.3053 29.5566 78.3032 34.1131C78.239 58.6177 60.8262 84.2836 39.4605 91.4488C30.4534 94.4564 22.1762 93.7539 15.5928 90.1095L24.3563 94.9654C30.9398 98.6098 39.2169 99.3129 48.2382 96.3025Z" stroke="#B3B5CC" stroke-miterlimit="10" stroke-linecap="round" stroke-linejoin="round"/>
<path d="M76.6201 21.6128L85.3816 26.4545" stroke="#B3B5CC" stroke-miterlimit="10" stroke-linecap="round" stroke-linejoin="round"/>
<path d="M69.0254 65.8882L77.82 70.6911" stroke="#B3B5CC" stroke-miterlimit="10" stroke-linecap="round" stroke-linejoin="round"/>
<path d="M77.1992 44.8774L86.0242 49.398" stroke="#B3B5CC" stroke-miterlimit="10" stroke-linecap="round" stroke-linejoin="round"/>
<path d="M53.6299 84.7461L61.8188 88.9411" stroke="#B3B5CC" stroke-miterlimit="10" stroke-linecap="round" stroke-linejoin="round"/>
<path d="M37.0596 92.1667L46.3399 96.8835" stroke="#B3B5CC" stroke-miterlimit="10" stroke-linecap="round" stroke-linejoin="round"/>
<path d="M39.4615 91.4386C60.825 84.2812 78.228 58.6124 78.2964 34.1044C78.3056 29.5584 77.7168 25.3718 76.6246 21.6053C71.7928 5.04187 57.0607 -3.26775 39.5617 2.53628C18.0429 9.69512 0.63008 35.3603 0.582072 59.9708C0.576424 64.5061 1.15958 68.6786 2.25529 72.4345C7.08998 89.0234 21.868 97.338 39.4615 91.4386Z" fill="#6C8EFF"/>
<path d="M76.6285 21.6028C77.7143 25.3771 78.3017 29.5566 78.2925 34.1053C78.2332 55.1787 65.3544 77.1078 48.1675 87.3864C62.1562 76.0107 72.0134 56.9091 72.0536 38.4712C72.0663 33.9331 71.4754 29.743 70.3896 25.9687C65.5542 9.40523 50.8221 1.09561 33.326 6.90952C30.2845 7.92404 27.3215 9.30638 24.4883 11.0015C29.1189 7.23003 34.2141 4.3079 39.5607 2.53302C57.061 -3.27101 71.7931 5.03932 76.6285 21.6028Z" fill="#3033F2"/>
<path d="M39.4615 91.4386C60.825 84.2812 78.228 58.6124 78.2964 34.1044C78.3056 29.5584 77.7168 25.3718 76.6246 21.6053C71.7928 5.04187 57.0607 -3.26775 39.5617 2.53628C18.0429 9.69512 0.63008 35.3603 0.582072 59.9708C0.576424 64.5061 1.15958 68.6786 2.25529 72.4345C7.08998 89.0234 21.868 97.338 39.4615 91.4386Z" stroke="#B3B5CC" stroke-miterlimit="10" stroke-linecap="round" stroke-linejoin="round"/>
<path d="M8.30256 68.3019C7.38617 65.1567 6.89691 61.657 6.90538 57.8595C6.93927 37.264 21.5344 15.767 39.5487 9.77664C54.1904 4.9123 66.5257 11.8593 70.5703 25.7322C71.4889 28.8838 71.9802 32.394 71.9732 36.2036C71.9266 56.72 57.3434 78.2205 39.4661 84.2151C24.7326 89.148 12.3494 82.1847 8.30256 68.3019Z" stroke="#3033F2" stroke-miterlimit="10" stroke-linecap="round" stroke-linejoin="round"/>
<path d="M43.558 75.0695L17.8398 66.6046L21.9671 54.0653C22.4056 52.7324 23.0706 51.5873 23.9609 50.6292C24.8518 49.6719 25.8459 48.9263 26.9451 48.3926C28.0437 47.8589 29.2071 47.5384 30.4335 47.4303C31.6598 47.323 32.8162 47.4473 33.9028 47.8052C35.4002 48.298 36.6809 49.1036 37.7448 50.2204C38.8087 51.338 39.5493 52.6477 39.9645 54.1486L51.3177 51.4905L48.5325 59.9527L39.0537 62.1617L38.1296 64.9695L46.0262 67.5683L43.558 75.0695ZM31.9726 62.944L33.53 58.2131C33.6818 57.7513 33.5822 57.243 33.2292 56.686C32.8776 56.1297 32.2662 55.7082 31.3972 55.4223C30.5041 55.1286 29.7458 55.1342 29.1224 55.4413C28.4997 55.7477 28.1129 56.1318 27.9604 56.5935L26.4665 61.1324L31.9726 62.944Z" fill="#3033F2"/>
<path d="M40.4736 26.138C39.9498 26.5913 39.433 27.1031 38.9239 27.6743C38.4728 28.1515 38.0167 28.7043 37.555 29.3341C37.0933 29.9646 36.6845 30.6183 36.3273 31.2961L39.5876 32.3692C39.7125 32.1546 39.8587 31.9329 40.0274 31.7041C40.1962 31.4761 40.3635 31.2325 40.5287 30.9741C41.3046 29.8375 42.0762 28.8335 42.8444 27.9637C43.6125 27.094 44.4103 26.3978 45.2384 25.874C46.0665 25.3516 46.9667 25.036 47.9382 24.9294C48.9103 24.8228 49.9997 24.9682 51.2069 25.3657C52.6323 25.8345 53.7591 26.4974 54.588 27.3524C55.4168 28.208 56.0106 29.171 56.3678 30.2399C56.725 31.3102 56.8846 32.4497 56.8479 33.659C56.8112 34.8691 56.634 36.0757 56.3191 37.2787L60.7019 38.7211L59.6895 41.7985L55.234 40.3322C54.5068 42.0541 53.6024 43.7033 52.5215 45.2798C51.4406 46.857 50.2863 48.2104 49.0572 49.3407L43.9267 44.0711C44.5656 43.5141 45.196 42.8978 45.8202 42.2214C46.3539 41.658 46.9166 40.9838 47.5096 40.1987C48.1034 39.4137 48.6117 38.5792 49.036 37.696L45.8484 36.6468C45.3937 37.3783 44.9023 38.0977 44.3757 38.8051C43.5927 39.8838 42.8345 40.7847 42.1002 41.5091C41.3667 42.2341 40.6233 42.7855 39.87 43.1625C39.1174 43.5402 38.3337 43.7443 37.5204 43.7746C36.7071 43.8057 35.8303 43.6659 34.8885 43.356C33.5845 42.9267 32.5078 42.3167 31.6571 41.5246C30.8071 40.7332 30.1505 39.821 29.6873 38.7874C29.2242 37.7546 28.951 36.6341 28.8663 35.4262C28.7822 34.2196 28.8783 32.9933 29.1536 31.7479L25.4951 30.5435L26.5075 27.4667L30.202 28.6825C30.5776 27.8684 30.992 27.0954 31.4467 26.364C31.9021 25.6332 32.3758 24.9435 32.87 24.2954C33.3642 23.648 33.8556 23.05 34.3441 22.5C34.8327 21.9507 35.2866 21.446 35.7053 20.9871L40.4736 26.138ZM36.2849 35.2038C36.6471 35.3231 36.9853 35.2927 37.2987 35.1113C37.6129 34.9313 37.9504 34.6157 38.3125 34.166L35.5599 33.2602C35.3431 34.3255 35.5853 34.9736 36.2849 35.2038ZM49.2358 33.6689C48.8976 33.5574 48.551 33.6139 48.1965 33.8384C47.8414 34.0629 47.4835 34.3996 47.1213 34.8487L49.802 35.7312C49.9566 35.1 49.9792 34.6249 49.8705 34.3043C49.761 33.9845 49.5499 33.772 49.2358 33.6689Z" fill="#3033F2"/>
</svg>
