<svg width="124" height="123" viewBox="0 0 124 123" fill="none" xmlns="http://www.w3.org/2000/svg">
<g style="mix-blend-mode:exclusion">
<path d="M122.01 60.5041C122.587 93.5721 96.1993 120.995 63.0533 121.653C29.7973 122.305 2.35135 95.9571 1.68335 62.7251C1.01435 29.4131 27.3943 1.97513 60.6903 1.33014C93.9153 0.686135 121.418 27.0961 122.01 60.5041Z" fill="#FFC399"/>
<path d="M122.008 60.5031C122.586 93.4171 96.4502 120.741 63.5162 121.644C94.0952 118.312 117.654 92.0901 117.105 60.8331C116.505 27.4301 89.0052 1.01406 55.7832 1.66506C55.6162 1.66606 55.4492 1.66706 55.2832 1.67806C57.0552 1.48606 58.8632 1.37406 60.6862 1.33506C93.9192 0.683056 121.419 27.1001 122.008 60.5031Z" fill="#0891D5"/>
<path d="M122.01 60.5041C122.587 93.5721 96.1993 120.995 63.0533 121.653C29.7973 122.305 2.35135 95.9571 1.68335 62.7251C1.01435 29.4131 27.3943 1.97513 60.6903 1.33014C93.9153 0.686135 121.418 27.0961 122.01 60.5041Z" stroke="#FFC399" stroke-width="2.5" stroke-miterlimit="10" stroke-linecap="round" stroke-linejoin="round"/>
<path d="M62.8299 110.438C35.7669 110.973 13.4369 89.5343 12.8949 62.4953C12.3509 35.3893 33.8129 13.0673 60.9079 12.5423C87.9359 12.0183 110.317 33.5083 110.796 60.6913C111.27 87.5963 89.7939 109.906 62.8299 110.438Z" stroke="#0891D5" stroke-width="2.5" stroke-miterlimit="10" stroke-linecap="round" stroke-linejoin="round"/>
<path d="M62.7262 29.479C63.3142 29.467 63.8942 29.455 64.4782 29.443C65.4352 29.423 66.2282 30.178 66.2512 31.135C66.2932 32.938 66.3532 35.654 66.3512 37.02C66.3502 37.778 66.6242 37.953 67.3602 38.047C71.2482 38.545 75.2962 38.774 78.4012 41.736C80.6092 43.842 81.6752 46.887 81.5392 49.935C81.4882 51.078 81.4102 52.233 81.2042 53.359C80.7272 55.966 79.1702 57.795 76.9002 59.066C76.3672 59.364 75.8212 59.641 75.1772 59.982C76.0432 60.325 76.8212 60.591 77.5642 60.934C81.8422 62.909 84.0252 66.297 84.2602 70.971C84.3672 73.11 84.2502 75.231 83.5152 77.269C82.5082 80.06 80.6742 82.059 77.9732 83.366C74.9302 84.839 71.7002 85.336 68.3942 85.535C67.6152 85.582 67.3282 85.764 67.3642 86.602C67.4502 88.604 67.4092 90.61 67.4542 92.614C67.4652 93.111 67.3332 93.391 66.8182 93.403C65.9152 93.424 65.0122 93.442 64.0732 93.461C63.1162 93.48 62.3192 92.721 62.2972 91.764C62.2592 90.075 62.2072 87.655 62.2022 86.524C62.2002 85.943 62.0392 85.683 61.4102 85.723C60.4342 85.784 59.4542 85.774 58.3742 85.796C58.4162 87.831 58.4562 89.797 58.4972 91.777C58.5172 92.736 57.7552 93.532 56.7962 93.551C56.2072 93.563 55.6222 93.575 55.0332 93.587C54.0742 93.607 53.2802 92.844 53.2612 91.885C53.2322 90.48 53.2032 89.08 53.1742 87.655C53.1542 86.696 52.3542 85.928 51.3952 85.948C48.2102 86.014 45.0692 86.078 41.9092 86.143C40.9502 86.163 40.1542 85.395 40.1342 84.436C40.0982 82.659 40.0622 80.91 40.0252 79.137C40.0052 78.178 40.7672 77.379 41.7262 77.359C41.8442 77.357 41.9632 77.354 42.0822 77.352C43.0412 77.332 43.8042 76.535 43.7852 75.576C43.6022 66.663 43.4202 57.827 43.2372 48.929C43.2172 47.97 42.4252 47.205 41.4662 47.225C41.3572 47.227 41.2492 47.229 41.1392 47.232C40.1802 47.252 39.3852 46.486 39.3652 45.527C39.3292 43.77 39.2932 42.03 39.2572 40.262C39.2372 39.303 39.9962 38.503 40.9552 38.483C44.0702 38.419 47.1982 38.355 50.3802 38.289C51.3392 38.269 52.1082 37.469 52.0882 36.51C52.0532 34.808 52.0192 33.133 51.9842 31.45C51.9642 30.491 52.7272 29.695 53.6862 29.675C54.2592 29.663 54.8292 29.651 55.4052 29.64C56.3642 29.62 57.1592 30.38 57.1792 31.339C57.2132 32.974 57.2462 34.618 57.2812 36.286C57.3012 37.245 58.0952 38.012 59.0552 37.992C59.1782 37.989 59.3012 37.987 59.4242 37.984C60.3832 37.964 61.1452 37.17 61.1252 36.211C61.0912 34.569 61.0582 32.927 61.0232 31.258C61.0032 30.299 61.7672 29.499 62.7262 29.479ZM61.0132 64.967C60.1502 64.985 59.2882 65.028 58.4262 65.011C57.8592 65 57.6802 65.223 57.6942 65.776C57.7822 69.256 57.8612 72.737 57.9062 76.219C57.9142 76.893 58.1862 77.05 58.7962 77.025C60.3042 76.963 61.8152 76.97 63.3232 76.909C66.3522 76.787 68.3892 74.954 68.8602 71.963C69.5102 67.838 66.9252 64.854 62.7692 64.93C62.1842 64.942 61.5992 64.955 61.0132 64.967ZM57.4212 52.245C57.4522 53.725 57.4952 55.204 57.5052 56.683C57.5082 57.179 57.6632 57.424 58.1982 57.398C59.7672 57.321 61.3432 57.331 62.9062 57.185C64.6142 57.027 65.8392 55.91 66.1192 54.221C66.2942 53.17 66.3602 52.063 66.2412 51.008C65.9552 48.466 64.1272 46.949 61.5692 46.982C60.3982 46.997 59.2262 47.055 58.0552 47.044C57.4832 47.038 57.3022 47.256 57.3222 47.807C57.3752 49.285 57.3912 50.766 57.4212 52.245Z" fill="#0891D5"/>
</g>
</svg>
