<svg width="66" height="48" viewBox="0 0 66 48" fill="none" xmlns="http://www.w3.org/2000/svg">
<path d="M14.3409 46.8136C26.0689 44.9025 45.0632 34.6429 56.7362 23.8983C58.8965 21.9059 60.6601 20.0379 62.022 18.3181C64.9505 14.6327 66.018 11.6767 65.2244 9.79169L61.023 3.58667C61.8166 5.47169 60.7484 8.42771 57.8149 12.1194C56.4524 13.8328 54.6958 15.7016 52.5291 17.6996C40.8561 28.4435 21.8683 38.6975 10.1331 40.6086C5.19183 41.4085 2.29934 40.6234 1.46484 38.6459L5.66626 44.851C6.50076 46.8285 9.39323 47.6135 14.3409 46.8136Z" fill="#3033F2" stroke="#6C8EFF" stroke-miterlimit="10" stroke-linecap="round" stroke-linejoin="round"/>
<path d="M14.3409 46.8136C26.0689 44.9025 45.0632 34.6429 56.7362 23.8983C58.8965 21.9059 60.6601 20.0379 62.022 18.3181C64.9505 14.6327 66.018 11.6767 65.2244 9.79169L61.023 3.58667C61.8166 5.47169 60.7484 8.42771 57.8149 12.1194C56.4524 13.8328 54.6958 15.7016 52.5291 17.6996C40.8561 28.4435 21.8683 38.6975 10.1331 40.6086C5.19183 41.4085 2.29934 40.6234 1.46484 38.6459L5.66626 44.851C6.50076 46.8285 9.39323 47.6135 14.3409 46.8136Z" stroke="#6C8EFF" stroke-miterlimit="10" stroke-linecap="round" stroke-linejoin="round"/>
<path d="M57.8154 12.1194L61.2318 18.2651" stroke="#6C8EFF" stroke-miterlimit="10" stroke-linecap="round" stroke-linejoin="round"/>
<path d="M33.8086 31.1016L37.2588 37.2367" stroke="#6C8EFF" stroke-miterlimit="10" stroke-linecap="round" stroke-linejoin="round"/>
<path d="M46.9824 22.3572L50.5781 28.3688" stroke="#6C8EFF" stroke-miterlimit="10" stroke-linecap="round" stroke-linejoin="round"/>
<path d="M18.8428 38.4856L22.3417 44.3101" stroke="#6C8EFF" stroke-miterlimit="10" stroke-linecap="round" stroke-linejoin="round"/>
<path d="M8.85547 40.7852L12.5302 46.8991" stroke="#6C8EFF" stroke-miterlimit="10" stroke-linecap="round" stroke-linejoin="round"/>
<path d="M9.76008 40.8332C21.1253 39.1451 40.0284 28.9392 51.9676 18.0357C54.1809 16.013 55.9981 14.1083 57.4264 12.3553C63.6943 4.64432 62.2956 -0.0872955 53.0146 1.27034C41.5908 2.9485 22.6862 13.1516 10.7047 24.1024C8.49776 26.1208 6.68546 28.0186 5.26357 29.7673C-1.01559 37.4888 0.397106 42.2254 9.76008 40.8332Z" fill="#3033F2" stroke="#6C8EFF" stroke-miterlimit="10" stroke-linecap="round" stroke-linejoin="round"/>
<path d="M10.0321 29.2266C11.2938 27.881 12.878 26.3949 14.7807 24.7944C25.0954 16.1127 40.8138 7.36746 49.9374 5.23393C57.3511 3.5014 58.0705 6.69887 52.5058 12.6356C51.2414 13.9841 49.6529 15.4745 47.7445 17.0806C37.4652 25.7291 21.7489 34.4757 12.6705 36.6135C5.1911 38.3729 4.46392 35.1669 10.0321 29.2266Z" stroke="#6C8EFF" stroke-miterlimit="10" stroke-linecap="round" stroke-linejoin="round"/>
<path d="M17.7105 33.3101L14.3584 28.0412L22.4449 22.8966C23.3048 22.3494 24.1323 21.8976 24.9279 21.541C25.7229 21.1845 26.4352 20.9261 27.065 20.7651C27.6948 20.6042 28.2285 20.5392 28.6662 20.5703C29.1039 20.6013 29.3934 20.7277 29.5353 20.9501C29.7301 21.2572 29.6892 21.6843 29.411 22.2336C29.1329 22.7822 28.6507 23.3936 27.9637 24.0664L32.917 23.6364L27.4596 27.1078L23.3295 27.463L21.5186 28.6151L22.548 30.2333L17.7105 33.3101ZM20.7159 27.3535L23.7673 25.4127C24.0652 25.2235 24.3102 24.9976 24.5036 24.7357C24.6971 24.4738 24.7373 24.2535 24.6236 24.0756C24.5072 23.8927 24.2692 23.8475 23.9106 23.9407C23.5512 24.0339 23.2236 24.1744 22.9257 24.3643L19.9986 26.2267L20.7159 27.3535Z" fill="#6C8EFF"/>
<path d="M43.3342 12.0248C42.9261 12.1872 42.4884 12.375 42.021 12.5896C41.6221 12.7668 41.1809 12.9765 40.6966 13.2187C40.2115 13.4615 39.73 13.7171 39.2514 13.9868L39.6764 14.6547C39.8317 14.57 39.9969 14.4838 40.1734 14.3956C40.3492 14.308 40.5335 14.2134 40.7248 14.1125C41.5819 13.6712 42.3656 13.2872 43.0758 12.961C43.7853 12.6348 44.4108 12.3849 44.9509 12.2112C45.491 12.0382 45.94 11.9592 46.2987 11.974C46.6566 11.9895 46.915 12.1209 47.0717 12.368C47.2574 12.6595 47.2461 13.0168 47.0379 13.4375C46.8296 13.8583 46.49 14.3109 46.0198 14.7945C45.5489 15.2781 44.9792 15.7793 44.3113 16.2983C43.6427 16.8179 42.9325 17.3262 42.1813 17.8253L42.7524 18.7234L40.7679 19.9857L40.1875 19.0728C39.0276 19.769 37.8521 20.4234 36.6618 21.0348C35.4707 21.6469 34.3793 22.1573 33.3852 22.5668L34.6617 19.9723C35.1615 19.7725 35.6917 19.5466 36.2516 19.2945C36.7225 19.0855 37.2626 18.83 37.8726 18.5292C38.4825 18.2285 39.0932 17.9009 39.7039 17.5465L39.2881 16.8934C38.7501 17.1801 38.2079 17.4596 37.6608 17.7307C36.8333 18.1466 36.109 18.4869 35.4884 18.753C34.8678 19.0192 34.3383 19.2098 33.9013 19.3249C33.4636 19.44 33.1106 19.4788 32.8423 19.4407C32.574 19.4025 32.3785 19.2875 32.2556 19.0947C32.0855 18.8279 32.0841 18.4967 32.2514 18.1021C32.4187 17.7074 32.711 17.2732 33.1289 16.7981C33.5469 16.3237 34.0708 15.8231 34.7005 15.2979C35.3303 14.7726 36.0257 14.2502 36.7874 13.7305L36.3102 12.9808L38.2948 11.7184L38.7762 12.4753C39.3347 12.1477 39.8825 11.8413 40.4205 11.5546C40.9585 11.268 41.4795 11.0011 41.9836 10.7526C42.4877 10.5048 42.9649 10.2782 43.4147 10.0713C43.8644 9.86519 44.2788 9.67668 44.6572 9.50513L43.3342 12.0248ZM37.1157 15.6685C37.163 15.7426 37.2838 15.7511 37.4793 15.6925C37.6742 15.6346 37.9495 15.5202 38.306 15.3487L37.9474 14.7846C37.3014 15.2308 37.0247 15.5252 37.1157 15.6685ZM41.9525 15.8231C41.9088 15.7539 41.7704 15.756 41.5395 15.8309C41.308 15.905 41.0143 16.0279 40.6584 16.1987L41.0079 16.748C41.3983 16.4854 41.6638 16.282 41.8043 16.1373C41.9434 15.9919 41.9935 15.8874 41.9525 15.8231Z" fill="#6C8EFF"/>
</svg>
