<svg width="90" height="90" viewBox="0 0 90 90" fill="none" xmlns="http://www.w3.org/2000/svg">
<path d="M82.7382 45.6347C82.87 24.7088 66.0135 7.63817 45.088 7.50634C24.1625 7.37451 7.09222 24.2314 6.96038 45.1573C6.82855 66.0831 23.6851 83.1537 44.6106 83.2856C65.536 83.4174 82.6063 66.5605 82.7382 45.6347Z" fill="#6C8EFF"/>
<path d="M75.8824 67.1427C79.1943 61.3938 81.0412 54.7023 80.9148 47.5759C80.5427 26.6473 63.2803 9.9871 42.3608 10.3592C29.7623 10.583 18.7112 16.9207 11.9873 26.5018C18.4197 15.3555 30.3701 7.76037 44.1724 7.51539C65.0919 7.14333 82.3543 23.8035 82.7264 44.723C82.8739 53.0524 80.3217 60.8099 75.8824 67.1427Z" fill="#3033F2"/>
<path d="M64.2827 70.5635C78.1855 59.8309 80.7553 39.8599 70.0227 25.9572C59.29 12.0544 39.3191 9.48453 25.4163 20.2172C11.5136 30.9499 8.9437 50.9208 19.6764 64.8236C30.409 78.7263 50.38 81.2962 64.2827 70.5635Z" stroke="#3033F2" stroke-miterlimit="10" stroke-linecap="round" stroke-linejoin="round"/>
<path d="M82.7382 45.6347C82.87 24.7088 66.0135 7.63817 45.088 7.50634C24.1625 7.37451 7.09222 24.2314 6.96038 45.1573C6.82855 66.0831 23.6851 83.1537 44.6106 83.2856C65.536 83.4174 82.6063 66.5605 82.7382 45.6347Z" stroke="#B3B5CC" stroke-miterlimit="10" stroke-linecap="round" stroke-linejoin="round"/>
<path d="M27.6676 64.7776L19.3799 40.5724L30.4937 36.7671C31.6749 36.3625 32.8497 36.2333 34.0174 36.3795C35.1844 36.5263 36.2603 36.868 37.2452 37.4074C38.2294 37.9461 39.0999 38.6514 39.8553 39.5226C40.6107 40.3945 41.1635 41.3412 41.5137 42.3635C41.9966 43.7727 42.1392 45.1903 41.9415 46.6165C41.7446 48.0426 41.2327 49.3289 40.406 50.4748L48.5666 57.6216L41.0668 60.1893L34.261 54.2166L31.7723 55.0687L34.3174 62.5008L27.6676 64.7776ZM29.7863 49.2738L33.98 47.8378C34.3894 47.6973 34.6916 47.3408 34.8886 46.7647C35.0855 46.19 35.0439 45.4932 34.7636 44.675C34.4756 43.8341 34.0513 43.2623 33.4907 42.9587C32.9301 42.6558 32.4451 42.5739 32.0356 42.7144L28.0128 44.0918L29.7863 49.2738Z" fill="#3033F2"/>
<path d="M60.4072 35.3614C59.7979 35.2146 59.1512 35.1059 58.4671 35.0353C57.8811 34.9569 57.2393 34.9167 56.5404 34.9138C55.8408 34.9124 55.1538 34.964 54.4789 35.067L55.5294 38.1353C55.7497 38.1113 55.9869 38.1 56.2418 38.1014C56.4959 38.1035 56.76 38.0951 57.0339 38.0781C58.2637 38.0379 59.3976 38.0682 60.4361 38.1699C61.4739 38.2716 62.4066 38.4918 63.2333 38.8307C64.06 39.1703 64.7808 39.6786 65.3936 40.3571C66.0072 41.0363 66.5084 41.9435 66.8974 43.0801C67.3563 44.4215 67.5145 45.6436 67.3719 46.7457C67.2285 47.8485 66.8798 48.8319 66.3249 49.6939C65.7692 50.5574 65.0555 51.3093 64.1836 51.9503C63.311 52.5921 62.3635 53.1258 61.3419 53.5515L62.7546 57.6767L60.0274 58.6107L58.5913 54.4171C56.9767 54.8181 55.3141 55.044 53.6056 55.0956C51.8963 55.1478 50.3043 55.0207 48.8274 54.7129L49.695 47.9028C50.4413 48.0793 51.2242 48.217 52.046 48.3165C52.7379 48.4097 53.5251 48.4641 54.4062 48.4796C55.288 48.4959 56.1571 48.4196 57.0141 48.253L55.9869 45.2532C55.2202 45.3132 54.4415 45.3386 53.6515 45.3295C52.4583 45.3323 51.4036 45.2553 50.4872 45.0986C49.5708 44.9433 48.7702 44.6835 48.0882 44.3206C47.4055 43.9584 46.828 43.4762 46.3556 42.8761C45.8833 42.276 45.4958 41.5326 45.1922 40.6466C44.7721 39.4195 44.6048 38.2638 44.6909 37.1808C44.777 36.0978 45.0552 35.0946 45.5268 34.1711C45.9977 33.2484 46.6352 32.421 47.438 31.6888C48.2407 30.9567 49.1571 30.3517 50.1864 29.8716L49.0074 26.4284L51.7347 25.4944L52.925 28.9714C53.7058 28.8055 54.4803 28.6933 55.247 28.6333C56.0137 28.5747 56.7621 28.5528 57.4914 28.5697C58.2207 28.5867 58.914 28.629 59.572 28.6954C60.2293 28.7625 60.8364 28.8281 61.3913 28.8917L60.4072 35.3614ZM51.7043 37.1984C51.8208 37.5394 52.0298 37.7795 52.3312 37.9172C52.632 38.0555 53.0408 38.1381 53.5583 38.1636L52.6708 35.5725C51.801 35.9975 51.4791 36.5398 51.7043 37.1984ZM59.9596 46.1795C59.8508 45.8611 59.6186 45.6295 59.2641 45.4841C58.9097 45.3386 58.4741 45.2532 57.9574 45.2271L58.8208 47.7496C59.351 47.5173 59.6983 47.2717 59.8635 47.0119C60.028 46.7528 60.0605 46.4753 59.9596 46.1795Z" fill="#3033F2"/>
</svg>
