<svg width="1472" height="617" viewBox="0 0 1472 617" fill="none" xmlns="http://www.w3.org/2000/svg">
<g clip-path="url(#clip0_114_172)">
<g clip-path="url(#clip1_114_172)">
<mask id="mask0_114_172" style="mask-type:luminance" maskUnits="userSpaceOnUse" x="-182" y="-882" width="1848" height="1848">
<path d="M557.5 965.5L1666 -143L927 -882L-181.499 226.5L557.5 965.5Z" fill="white"/>
</mask>
<g mask="url(#mask0_114_172)">
<path d="M1407.87 -238.349L1444.42 -274.902L1493.54 -271.124L1584.03 -180.633L1652.48 -179.414L1652.43 -176.8L1582.93 -178.038L1492.37 -268.593L1445.42 -272.205L1410.53 -237.315L1411.76 -210.221L1303.35 -101.81L1303.35 -42.0802L1292.36 -31.0968L1290.51 -32.9443L1300.73 -43.161L1300.73 -102.891L1409.1 -211.256L1407.87 -238.349Z" fill="#FC524A"/>
<path d="M1395.38 -237.259L1442.37 -284.25L1442.91 -284.25L1493.8 -284.722L1587.55 -190.97L1627.64 -191.875L1627.69 -189.271L1586.49 -188.328L1492.72 -282.098L1443.46 -281.645L1398.08 -236.262L1399.92 -210.397L1284.9 -95.3714L1285.64 -77.5061L1283.03 -77.3952L1282.24 -96.406L1397.23 -211.394L1395.38 -237.259Z" fill="#FC524A"/>
<path d="M1268.87 -136.617L1434.98 -302.725L1500.72 -303.658L1593.52 -210.859L1610.94 -212.198L1611.14 -209.593L1592.53 -208.161L1499.65 -301.035L1436.07 -300.12L1271.48 -135.527L1271.48 -78.2543L1261.73 -68.5087L1259.88 -70.3562L1268.87 -79.3443L1268.87 -136.617Z" fill="#FC524A"/>
<path d="M1250.63 -384.875L1259.93 -394.177L1276.26 -394.177L1324.21 -346.225L1371.71 -393.724L1429.07 -393.253L1429.05 -390.648L1372.78 -391.101L1324.21 -342.53L1275.17 -391.572L1261.02 -391.572L1253.23 -383.785L1253.23 -372.164L1299.76 -325.634L1299.77 -316.591L1289.94 -306.762L1279.79 -306.753L1235.53 -351.01L1227.75 -351.01L1220.39 -343.648L1220.4 -331.519L1260.71 -291.206L1260.72 -269.47L1196.82 -205.565L1196.82 -43.6137L1120.46 32.7434L1054.98 32.7527L1054.98 30.1292L1119.37 30.1385L1194.2 -44.6945L1194.21 -206.656L1258.11 -270.551L1258.11 -290.116L1217.79 -330.438L1217.79 -344.738L1226.67 -353.624L1236.62 -353.615L1280.87 -309.367L1288.85 -309.367L1297.16 -317.672L1297.16 -324.544L1250.62 -371.083L1250.63 -384.875Z" fill="#FC524A"/>
<path d="M1055.17 27.5147C1053.01 27.5147 1051.24 29.2791 1051.24 31.4407C1051.24 33.6022 1053.01 35.3666 1055.17 35.3666C1057.33 35.3666 1059.1 33.6022 1059.1 31.4407C1059.1 29.2791 1057.33 27.5147 1055.17 27.5147Z" fill="#FC524A"/>
<path d="M1197.51 -347.148L1258.7 -408.338L1286.42 -408.347L1317.99 -376.782L1328.91 -376.782L1360.93 -408.809L1361.48 -408.8L1412.28 -408.504L1412.27 -405.89L1362.01 -406.195L1329.99 -374.168L1316.9 -374.177L1285.34 -405.733L1259.79 -405.733L1200.13 -346.068L1200.13 -323.362L1232.96 -290.532L1232.95 -264.085L1178.69 -209.833L1178.7 -50.0891L1143.88 -15.2637L1117.83 -15.2637L1101.29 1.27137L1073.91 1.27138L1073.91 -1.3336L1100.21 -1.34283L1116.75 -17.878L1142.8 -17.8779L1176.09 -51.1699L1176.09 -210.923L1230.34 -265.175L1230.34 -289.451L1197.51 -322.281L1197.51 -347.148Z" fill="#FC524A"/>
<path d="M1074.11 -3.96628C1071.95 -3.96628 1070.18 -2.20192 1070.18 -0.0403442C1070.18 2.12123 1071.95 3.88559 1074.11 3.88559C1076.27 3.88559 1078.03 2.12123 1078.03 -0.0403442C1078.03 -2.20192 1076.27 -3.96628 1074.11 -3.96628Z" fill="#FC524A"/>
<path d="M1135.84 -681.084L1138.47 -681.084L1138.46 -516.573L1049.55 -427.663L1049.55 -322.124L1006.71 -279.281L1006.71 -174.786L979.978 -148.053L979.978 -89.5056L1003.79 -65.6913L1003.79 -7.12557L989.327 7.34035L987.479 5.49285L1001.19 -8.21562L1001.19 -64.6013L977.364 -88.4248L977.373 -149.143L1004.1 -175.867L1004.11 -280.371L1046.94 -323.205L1046.94 -428.753L1135.85 -517.663L1135.84 -681.084Z" fill="#FC524A"/>
<path d="M985.76 3.49752C984.225 5.03314 984.224 7.52286 985.76 9.05848C987.296 10.5941 989.785 10.5941 991.321 9.05848C992.857 7.52286 992.857 5.03314 991.321 3.49752C989.785 1.9619 987.296 1.9619 985.76 3.49752Z" fill="#FC524A"/>
<path d="M1104.43 -711.568L1107.06 -711.568L1107.05 -586.778L1018.6 -498.329L1018.6 -399.728L950.122 -331.251L950.132 -297.802L967.849 -280.084L967.858 -184.947L941.153 -158.242L941.153 -103.353L966.824 -77.6815L966.833 -13.1391L945.67 8.02401L943.822 6.17651L964.219 -14.2199L964.219 -76.5915L938.539 -102.272L938.548 -159.332L965.244 -186.028L965.244 -278.994L947.517 -296.721L947.517 -332.341L1015.99 -400.809L1015.99 -499.419L1104.44 -587.868L1104.43 -711.568Z" fill="#FC524A"/>
<path d="M942.104 4.18111C940.571 5.71454 940.571 8.20868 942.104 9.7421C943.638 11.2755 946.132 11.2755 947.665 9.74208C949.199 8.20865 949.199 5.71457 947.665 4.18114C946.132 2.64772 943.638 2.64769 942.104 4.18111Z" fill="#FC524A"/>
<path d="M977.89 -633.594L1038.9 -694.608L1040.75 -692.76L980.495 -632.504V-484.242L911.445 -415.192L911.454 -342.908L892.166 -323.621V-245.453L878.596 -231.883L878.596 -225.14L853.332 -199.875L853.341 -168.791L792.836 -108.285L764.042 -108.276L735.027 -79.2611L696.137 -79.261L445.386 171.491L358.045 171.5L285.789 243.756H254.086L254.086 241.151L284.699 241.151L356.964 168.886L444.296 168.886L695.057 -81.8752L733.937 -81.866L762.961 -110.89L791.746 -110.89L850.727 -169.872V-200.965L875.982 -226.22L875.992 -232.973L889.552 -246.534L889.561 -324.711L908.84 -343.989L908.84 -416.282L977.89 -485.332V-633.594Z" fill="#FC524A"/>
<path d="M254.29 238.527C252.128 238.527 250.364 240.292 250.364 242.453C250.364 244.615 252.128 246.379 254.29 246.379C256.451 246.379 258.216 244.615 258.216 242.453C258.216 240.292 256.451 238.527 254.29 238.527Z" fill="#FC524A"/>
<path d="M289.309 167.684C293.549 163.444 300.459 163.444 304.699 167.684C308.939 171.924 308.939 178.834 304.699 183.074C300.459 187.314 293.549 187.314 289.309 183.074C285.069 178.834 285.069 171.924 289.309 167.684ZM302.86 181.236C306.084 178.012 306.084 172.765 302.861 169.541C299.637 166.317 294.39 166.317 291.166 169.541C287.942 172.765 287.942 178.012 291.166 181.236C294.39 184.46 299.637 184.46 302.86 181.236Z" fill="#FC524A"/>
<path d="M222.18 107.336C226.42 103.096 233.33 103.096 237.57 107.336C241.81 111.576 241.81 118.485 237.57 122.725C233.33 126.965 226.42 126.965 222.18 122.725C217.94 118.485 217.94 111.576 222.18 107.336ZM235.732 120.887C238.955 117.663 238.955 112.416 235.732 109.193C232.508 105.969 227.261 105.969 224.037 109.193C220.813 112.416 220.813 117.663 224.037 120.887C227.261 124.111 232.508 124.111 235.732 120.887Z" fill="#FC524A"/>
<path d="M171.679 165.227C175.919 160.987 182.828 160.987 187.068 165.227C191.308 169.467 191.308 176.377 187.068 180.617C182.828 184.857 175.919 184.857 171.679 180.617C167.438 176.377 167.438 169.467 171.679 165.227ZM185.23 178.779C188.454 175.555 188.454 170.308 185.23 167.084C182.006 163.86 176.759 163.86 173.535 167.084C170.311 170.308 170.311 175.555 173.535 178.779C176.759 182.003 182.006 182.003 185.23 178.779Z" fill="#FC524A"/>
<path d="M198.163 259.44C202.403 255.2 209.312 255.2 213.552 259.44C217.792 263.68 217.792 270.59 213.552 274.83C209.312 279.07 202.403 279.07 198.163 274.83C193.923 270.59 193.923 263.68 198.163 259.44ZM211.714 272.992C214.938 269.768 214.938 264.521 211.714 261.297C208.49 258.073 203.243 258.073 200.019 261.297C196.795 264.521 196.795 269.768 200.019 272.992C203.243 276.216 208.49 276.216 211.714 272.992Z" fill="#FC524A"/>
<path d="M230.189 291.467C234.429 287.227 241.338 287.227 245.578 291.467C249.818 295.707 249.818 302.617 245.578 306.857C241.338 311.097 234.429 311.097 230.189 306.857C225.949 302.617 225.949 295.707 230.189 291.467ZM243.74 305.018C246.964 301.794 246.964 296.548 243.74 293.324C240.516 290.1 235.269 290.1 232.045 293.324C228.822 296.548 228.822 301.794 232.046 305.018C235.269 308.242 240.516 308.242 243.74 305.018Z" fill="#FC524A"/>
<path d="M182.763 374.604C187.003 370.364 193.913 370.364 198.153 374.604C202.393 378.844 202.393 385.754 198.153 389.994C193.913 394.234 187.003 394.234 182.763 389.994C178.523 385.754 178.523 378.844 182.763 374.604ZM196.315 388.156C199.538 384.932 199.538 379.685 196.315 376.461C193.091 373.237 187.844 373.237 184.62 376.461C181.396 379.685 181.396 384.932 184.62 388.156C187.844 391.38 193.091 391.38 196.315 388.156Z" fill="#FC524A"/>
<path d="M142.737 334.578C146.977 330.338 153.886 330.338 158.126 334.578C162.367 338.818 162.367 345.728 158.126 349.968C153.886 354.208 146.977 354.208 142.737 349.968C138.497 345.728 138.497 338.818 142.737 334.578ZM156.288 348.13C159.512 344.906 159.512 339.659 156.288 336.435C153.064 333.211 147.817 333.211 144.594 336.435C141.37 339.659 141.37 344.906 144.594 348.13C147.818 351.354 153.064 351.354 156.288 348.13Z" fill="#FC524A"/>
<path d="M118.101 309.942C122.341 305.702 129.251 305.702 133.491 309.942C137.731 314.182 137.731 321.092 133.491 325.332C129.251 329.572 122.341 329.572 118.101 325.332C113.861 321.092 113.861 314.182 118.101 309.942ZM131.653 323.493C134.876 320.269 134.876 315.023 131.652 311.799C128.429 308.575 123.182 308.575 119.958 311.799C116.734 315.023 116.734 320.269 119.958 323.493C123.182 326.717 128.429 326.717 131.653 323.493Z" fill="#FC524A"/>
<path d="M71.9134 356.129C76.1534 351.889 83.0629 351.889 87.303 356.129C91.543 360.369 91.543 367.279 87.303 371.519C83.063 375.759 76.1534 375.759 71.9134 371.519C67.6734 367.279 67.6734 360.369 71.9134 356.129ZM85.4648 369.681C88.6886 366.457 88.6886 361.21 85.4647 357.986C82.2408 354.762 76.994 354.762 73.7701 357.986C70.5462 361.21 70.5462 366.457 73.7701 369.681C76.994 372.905 82.2409 372.905 85.4648 369.681Z" fill="#FC524A"/>
<path d="M100.245 384.461C104.485 380.221 111.395 380.221 115.635 384.461C119.875 388.701 119.875 395.61 115.635 399.85C111.395 404.09 104.485 404.09 100.245 399.85C96.005 395.61 96.0049 388.701 100.245 384.461ZM113.796 398.012C117.02 394.788 117.02 389.541 113.796 386.318C110.572 383.094 105.326 383.094 102.102 386.318C98.8778 389.541 98.8778 394.788 102.102 398.012C105.326 401.236 110.572 401.236 113.796 398.012Z" fill="#FC524A"/>
<path d="M134.119 418.335C138.359 414.095 145.268 414.095 149.508 418.335C153.748 422.575 153.748 429.484 149.508 433.724C145.268 437.964 138.359 437.964 134.119 433.724C129.879 429.484 129.879 422.575 134.119 418.335ZM147.661 431.877C150.885 428.653 150.885 423.406 147.661 420.182C144.437 416.958 139.19 416.958 135.966 420.182C132.742 423.406 132.742 428.653 135.966 431.877C139.19 435.101 144.437 435.101 147.661 431.877Z" fill="#FC524A"/>
<path d="M161.832 446.047C166.072 441.807 172.981 441.807 177.221 446.047C181.461 450.287 181.461 457.197 177.221 461.437C172.981 465.677 166.072 465.677 161.832 461.437C157.592 457.197 157.592 450.287 161.832 446.047ZM175.374 459.589C178.598 456.365 178.598 451.119 175.374 447.895C172.15 444.671 166.903 444.671 163.679 447.895C160.455 451.119 160.455 456.365 163.679 459.589C166.903 462.813 172.15 462.813 175.374 459.589Z" fill="#FC524A"/>
<path d="M163.06 481.769C167.3 477.529 174.209 477.529 178.449 481.769C182.689 486.009 182.689 492.918 178.449 497.158C174.209 501.398 167.3 501.398 163.06 497.158C158.82 492.918 158.82 486.009 163.06 481.769ZM176.602 495.311C179.826 492.087 179.826 486.84 176.602 483.616C173.378 480.392 168.131 480.392 164.907 483.616C161.683 486.84 161.683 492.087 164.907 495.311C168.131 498.535 173.378 498.535 176.602 495.311Z" fill="#FC524A"/>
<path d="M113.796 457.132C118.036 452.892 124.946 452.892 129.186 457.132C133.426 461.372 133.426 468.282 129.186 472.522C124.946 476.762 118.036 476.762 113.796 472.522C109.556 468.282 109.556 461.372 113.796 457.132ZM127.338 470.674C130.562 467.45 130.562 462.204 127.338 458.98C124.114 455.756 118.868 455.756 115.644 458.98C112.42 462.204 112.42 467.45 115.644 470.674C118.868 473.898 124.114 473.898 127.338 470.674Z" fill="#FC524A"/>
<path d="M63.9136 403.555C68.1536 399.315 75.0632 399.315 79.3032 403.555C83.5432 407.795 83.5433 414.704 79.3033 418.944C75.0632 423.184 68.1536 423.184 63.9136 418.944C59.6736 414.704 59.6735 407.795 63.9136 403.555ZM77.4558 417.097C80.6796 413.873 80.6796 408.626 77.4557 405.402C74.2318 402.178 68.9849 402.178 65.7611 405.402C62.5372 408.626 62.5372 413.873 65.7611 417.097C68.985 420.321 74.2319 420.321 77.4558 417.097Z" fill="#FC524A"/>
<path d="M254.207 267.449C258.447 263.209 265.356 263.209 269.596 267.449C273.836 271.689 273.836 278.599 269.596 282.839C265.356 287.079 258.447 287.079 254.207 282.839C249.967 278.599 249.967 271.689 254.207 267.449ZM267.758 281.001C270.982 277.777 270.982 272.53 267.758 269.306C264.534 266.082 259.287 266.082 256.063 269.306C252.839 272.53 252.839 277.777 256.063 281.001C259.287 284.225 264.534 284.225 267.758 281.001Z" fill="#FC524A"/>
<path d="M373.056 189.245C377.296 185.005 384.206 185.005 388.446 189.245C392.686 193.485 392.686 200.395 388.446 204.635C384.206 208.875 377.296 208.875 373.056 204.635C368.816 200.395 368.816 193.485 373.056 189.245ZM386.608 202.796C389.831 199.572 389.831 194.326 386.608 191.102C383.384 187.878 378.137 187.878 374.913 191.102C371.689 194.326 371.689 199.572 374.913 202.796C378.137 206.02 383.384 206.02 386.608 202.796Z" fill="#FC524A"/>
<path d="M406.93 210.796C411.17 206.556 418.08 206.556 422.32 210.796C426.56 215.036 426.56 221.945 422.32 226.185C418.08 230.425 411.17 230.425 406.93 226.185C402.69 221.945 402.69 215.036 406.93 210.796ZM420.482 224.347C423.705 221.123 423.705 215.876 420.482 212.652C417.258 209.429 412.011 209.429 408.787 212.653C405.563 215.876 405.563 221.123 408.787 224.347C412.011 227.571 417.258 227.571 420.482 224.347Z" fill="#FC524A"/>
<path d="M456.193 197.245C460.433 193.005 467.343 193.005 471.583 197.245C475.823 201.485 475.823 208.394 471.582 212.634C467.342 216.874 460.433 216.874 456.193 212.634C451.953 208.394 451.953 201.485 456.193 197.245ZM469.744 210.796C472.968 207.572 472.968 202.325 469.744 199.101C466.52 195.877 461.273 195.877 458.05 199.101C454.826 202.325 454.826 207.572 458.05 210.796C461.273 214.02 466.52 214.02 469.744 210.796Z" fill="#FC524A"/>
<path d="M486.992 192.016C491.232 187.776 498.141 187.776 502.381 192.016C506.621 196.256 506.621 203.166 502.381 207.406C498.141 211.646 491.232 211.646 486.992 207.406C482.752 203.166 482.752 196.256 486.992 192.016ZM500.534 205.558C503.758 202.334 503.758 197.087 500.534 193.864C497.31 190.64 492.063 190.64 488.839 193.864C485.615 197.087 485.615 202.334 488.839 205.558C492.063 208.782 497.31 208.782 500.534 205.558Z" fill="#FC524A"/>
<path d="M460.202 167.999C464.442 163.759 471.352 163.759 475.592 167.999C479.832 172.239 479.832 179.148 475.592 183.388C471.352 187.628 464.442 187.628 460.202 183.388C455.962 179.148 455.962 172.239 460.202 167.999ZM473.745 181.541C476.968 178.317 476.968 173.07 473.745 169.846C470.521 166.622 465.274 166.622 462.05 169.846C458.826 173.07 458.826 178.317 462.05 181.541C465.274 184.765 470.521 184.765 473.745 181.541Z" fill="#FC524A"/>
<path d="M433.875 179.545C438.115 175.305 445.025 175.305 449.265 179.545C453.505 183.785 453.505 190.695 449.265 194.935C445.025 199.175 438.115 199.175 433.875 194.935C429.635 190.695 429.635 183.785 433.875 179.545ZM447.418 193.087C450.641 189.864 450.642 184.617 447.418 181.393C444.194 178.169 438.947 178.169 435.723 181.393C432.499 184.617 432.499 189.864 435.723 193.088C438.947 196.311 444.194 196.311 447.418 193.087Z" fill="#FC524A"/>
<path d="M134.58 203.563C138.82 199.323 145.73 199.323 149.97 203.563C154.21 207.803 154.21 214.712 149.97 218.952C145.73 223.192 138.821 223.192 134.581 218.952C130.341 214.712 130.34 207.803 134.58 203.563ZM148.123 217.105C151.347 213.881 151.347 208.634 148.123 205.41C144.899 202.186 139.652 202.186 136.428 205.41C133.204 208.634 133.204 213.881 136.428 217.105C139.652 220.329 144.899 220.329 148.123 217.105Z" fill="#FC524A"/>
<path d="M165.988 233.123C170.228 228.883 177.137 228.883 181.377 233.123C185.617 237.363 185.617 244.273 181.377 248.513C177.137 252.753 170.228 252.753 165.988 248.513C161.748 244.273 161.748 237.363 165.988 233.123ZM179.53 246.665C182.754 243.441 182.754 238.194 179.53 234.97C176.306 231.746 171.059 231.746 167.835 234.97C164.611 238.194 164.611 243.441 167.835 246.665C171.059 249.889 176.306 249.889 179.53 246.665Z" fill="#FC524A"/>
<path d="M486.373 56.216C490.613 51.976 497.522 51.9759 501.762 56.2159C506.002 60.4559 506.002 67.3656 501.762 71.6056C497.522 75.8456 490.613 75.8456 486.373 71.6056C482.133 67.3655 482.133 60.456 486.373 56.216ZM499.924 69.7674C503.148 66.5435 503.148 61.2965 499.924 58.0727C496.7 54.8488 491.453 54.8488 488.229 58.0727C485.005 61.2966 485.005 66.5434 488.229 69.7673C491.453 72.9912 496.7 72.9912 499.924 69.7674Z" fill="#FC524A"/>
<path d="M415.706 12.3378C419.946 8.09779 426.855 8.09773 431.095 12.3377C435.335 16.5778 435.335 23.4874 431.095 27.7274C426.855 31.9675 419.946 31.9674 415.706 27.7274C411.466 23.4874 411.466 16.5778 415.706 12.3378ZM429.257 25.8892C432.481 22.6653 432.481 17.4184 429.257 14.1945C426.033 10.9706 420.786 10.9707 417.562 14.1945C414.338 17.4184 414.338 22.6652 417.562 25.8891C420.786 29.113 426.033 29.1131 429.257 25.8892Z" fill="#FC524A"/>
<path d="M395.226 32.817C399.466 28.577 406.376 28.577 410.616 32.817C414.856 37.057 414.856 43.9667 410.616 48.2067C406.376 52.4467 399.466 52.4467 395.226 48.2067C390.986 43.9667 390.986 37.0571 395.226 32.817ZM408.777 46.3684C412.001 43.1446 412.001 37.8976 408.777 34.6737C405.554 31.4498 400.307 31.4499 397.083 34.6738C393.859 37.8977 393.859 43.1446 397.083 46.3684C400.307 49.5923 405.554 49.5923 408.777 46.3684Z" fill="#FC524A"/>
<path d="M254.668 10.4992C258.908 6.25923 265.818 6.25923 270.058 10.4992C274.298 14.7393 274.298 21.6489 270.058 25.8889C265.818 30.129 258.908 30.129 254.668 25.8889C250.428 21.6489 250.428 14.7392 254.668 10.4992ZM268.211 24.0414C271.434 20.8176 271.434 15.5706 268.211 12.3467C264.987 9.12285 259.74 9.12285 256.516 12.3467C253.292 15.5706 253.292 20.8176 256.516 24.0414C259.74 27.2653 264.987 27.2653 268.211 24.0414Z" fill="#FC524A"/>
<path d="M96.707 -6.12839C100.947 -10.3684 107.857 -10.3684 112.097 -6.12838C116.337 -1.88837 116.337 5.02131 112.097 9.26132C107.857 13.5013 100.947 13.5013 96.707 9.26132C92.4669 5.0213 92.4669 -1.88837 96.707 -6.12839ZM110.249 7.41382C113.473 4.18993 113.473 -1.057 110.249 -4.28088C107.025 -7.50477 101.778 -7.50477 98.5545 -4.28089C95.3306 -1.057 95.3306 4.18993 98.5545 7.41382C101.778 10.6377 107.025 10.6377 110.249 7.41382Z" fill="#FC524A"/>
<path d="M99.4782 103.798C103.718 99.5579 110.628 99.5579 114.868 103.798C119.108 108.038 119.108 114.948 114.868 119.188C110.628 123.428 103.718 123.428 99.4782 119.188C95.2382 114.948 95.2382 108.038 99.4782 103.798ZM113.02 117.34C116.244 114.116 116.244 108.869 113.02 105.645C109.797 102.422 104.55 102.422 101.326 105.645C98.1018 108.869 98.1018 114.116 101.326 117.34C104.55 120.564 109.797 120.564 113.02 117.34Z" fill="#FC524A"/>
<path d="M66.2231 137.053C70.4631 132.813 77.3728 132.813 81.6128 137.053C85.8528 141.293 85.8528 148.203 81.6128 152.443C77.3728 156.683 70.4631 156.683 66.2231 152.443C61.9831 148.203 61.9831 141.293 66.2231 137.053ZM79.7653 150.595C82.9892 147.371 82.9892 142.124 79.7653 138.9C76.5414 135.677 71.2945 135.677 68.0706 138.9C64.8467 142.124 64.8467 147.371 68.0706 150.595C71.2945 153.819 76.5414 153.819 79.7653 150.595Z" fill="#FC524A"/>
<path d="M25.8829 217.114C30.1229 212.874 37.0327 212.874 41.2727 217.114C45.5127 221.354 45.5126 228.264 41.2726 232.504C37.0326 236.744 30.123 236.744 25.883 232.504C21.643 228.264 21.6429 221.354 25.8829 217.114ZM39.4251 230.656C42.649 227.433 42.6491 222.186 39.4252 218.962C36.2013 215.738 30.9543 215.738 27.7304 218.962C24.5065 222.186 24.5066 227.433 27.7305 230.656C30.9544 233.88 36.2012 233.88 39.4251 230.656Z" fill="#FC524A"/>
<path d="M-2.75331 361.219C1.4867 356.979 8.39644 356.979 12.6364 361.219C16.8765 365.459 16.8764 372.369 12.6364 376.609C8.39638 380.849 1.48676 380.849 -2.75325 376.609C-6.99326 372.369 -6.99332 365.459 -2.75331 361.219ZM10.7889 374.761C14.0128 371.537 14.0128 366.291 10.7889 363.067C7.56506 359.843 2.31808 359.843 -0.90581 363.067C-4.1297 366.291 -4.12964 371.537 -0.905753 374.761C2.31813 377.985 7.56501 377.985 10.7889 374.761Z" fill="#FC524A"/>
<path d="M20.9592 145.367C25.1992 141.127 32.1088 141.127 36.3489 145.367C40.5889 149.607 40.5889 156.516 36.3489 160.756C32.1089 164.996 25.1993 164.996 20.9593 160.756C16.7193 156.516 16.7192 149.607 20.9592 145.367ZM34.5014 158.909C37.7253 155.685 37.7252 150.438 34.5014 147.214C31.2775 143.99 26.0306 143.99 22.8067 147.214C19.5828 150.438 19.5829 155.685 22.8068 158.909C26.0306 162.133 31.2775 162.133 34.5014 158.909Z" fill="#FC524A"/>
<path d="M517.161 25.4273C521.401 21.1873 528.31 21.1873 532.55 25.4273C536.79 29.6673 536.79 36.577 532.55 40.817C528.31 45.057 521.401 45.057 517.161 40.817C512.921 36.577 512.921 29.6673 517.161 25.4273ZM530.712 38.9787C533.936 35.7548 533.936 30.5079 530.712 27.284C527.488 24.0601 522.241 24.0602 519.017 27.2841C515.793 30.508 515.793 35.7548 519.017 38.9787C522.241 42.2026 527.488 42.2026 530.712 38.9787Z" fill="#FC524A"/>
<path d="M870.652 -16.4463C874.892 -20.6863 881.801 -20.6863 886.041 -16.4463C890.281 -12.2062 890.282 -5.29659 886.042 -1.05658C881.801 3.18343 874.892 3.1834 870.652 -1.05661C866.412 -5.29662 866.412 -12.2062 870.652 -16.4463ZM884.203 -2.89484C887.427 -6.11872 887.427 -11.3656 884.203 -14.5895C880.979 -17.8134 875.732 -17.8134 872.509 -14.5895C869.285 -11.3656 869.285 -6.11875 872.509 -2.89486C875.732 0.329023 880.979 0.329051 884.203 -2.89484Z" fill="#FC524A"/>
<path d="M913.145 24.8084C917.385 20.5684 924.295 20.5684 928.535 24.8084C932.775 29.0484 932.775 35.958 928.535 40.1981C924.295 44.4381 917.385 44.4381 913.145 40.1981C908.905 35.9581 908.905 29.0484 913.145 24.8084ZM926.696 38.3598C929.92 35.1359 929.92 29.889 926.696 26.6652C923.473 23.4413 918.226 23.4412 915.002 26.6651C911.778 29.889 911.778 35.1359 915.002 38.3598C918.226 41.5837 923.473 41.5837 926.696 38.3598Z" fill="#FC524A"/>
<path d="M933.467 45.1309C937.707 40.8909 944.617 40.8909 948.857 45.1309C953.097 49.3709 953.097 56.2806 948.857 60.5206C944.617 64.7606 937.707 64.7606 933.467 60.5206C929.227 56.2806 929.227 49.3709 933.467 45.1309ZM947.019 58.6823C950.243 55.4584 950.243 50.2116 947.019 46.9877C943.795 43.7638 938.548 43.7638 935.324 46.9876C932.1 50.2115 932.1 55.4585 935.324 58.6823C938.548 61.9062 943.795 61.9062 947.019 58.6823Z" fill="#FC524A"/>
<path d="M954.399 24.1987C958.639 19.9587 965.549 19.9587 969.789 24.1987C974.029 28.4387 974.029 35.3483 969.789 39.5883C965.549 43.8284 958.639 43.8284 954.399 39.5883C950.159 35.3483 950.159 28.4387 954.399 24.1987ZM967.95 37.7501C971.174 34.5262 971.174 29.2793 967.95 26.0554C964.726 22.8315 959.48 22.8315 956.256 26.0554C953.032 29.2793 953.032 34.5262 956.256 37.7501C959.48 40.974 964.726 40.974 967.95 37.7501Z" fill="#FC524A"/>
<path d="M975.34 45.1402C979.58 40.9002 986.49 40.9002 990.73 45.1402C994.97 49.3802 994.97 56.2899 990.73 60.5299C986.49 64.7699 979.58 64.7699 975.34 60.5298C971.1 56.2898 971.1 49.3802 975.34 45.1402ZM988.892 58.6916C992.116 55.4677 992.116 50.2208 988.892 46.9969C985.668 43.773 980.421 43.7731 977.197 46.9969C973.973 50.2208 973.973 55.4677 977.197 58.6916C980.421 61.9155 985.668 61.9155 988.892 58.6916Z" fill="#FC524A"/>
<path d="M996.282 66.0816C1000.52 61.8416 1007.43 61.8416 1011.67 66.0816C1015.91 70.3216 1015.91 77.2313 1011.67 81.4713C1007.43 85.7113 1000.52 85.7113 996.282 81.4713C992.042 77.2313 992.042 70.3216 996.282 66.0816ZM1009.82 79.6238C1013.05 76.3999 1013.05 71.153 1009.82 67.9291C1006.6 64.7052 1001.35 64.7052 998.129 67.9291C994.905 71.153 994.905 76.3999 998.129 79.6238C1001.35 82.8477 1006.6 82.8477 1009.82 79.6238Z" fill="#FC524A"/>
<path d="M1017.83 87.6326C1022.07 83.3926 1028.98 83.3926 1033.22 87.6326C1037.46 91.8726 1037.46 98.7823 1033.22 103.022C1028.98 107.262 1022.07 107.262 1017.83 103.022C1013.59 98.7823 1013.59 91.8726 1017.83 87.6326ZM1031.38 101.184C1034.61 97.9602 1034.61 92.7132 1031.38 89.4893C1028.16 86.2655 1022.91 86.2655 1019.69 89.4894C1016.47 92.7132 1016.47 97.9601 1019.69 101.184C1022.91 104.408 1028.16 104.408 1031.38 101.184Z" fill="#FC524A"/>
<path d="M1039.39 66.0723C1043.63 61.8323 1050.54 61.8323 1054.78 66.0723C1059.02 70.3123 1059.02 77.222 1054.78 81.462C1050.54 85.702 1043.63 85.702 1039.39 81.462C1035.15 77.222 1035.15 70.3123 1039.39 66.0723ZM1052.94 79.6237C1056.17 76.3998 1056.17 71.1529 1052.94 67.929C1049.72 64.7052 1044.47 64.7051 1041.25 67.929C1038.03 71.1529 1038.03 76.3998 1041.25 79.6237C1044.47 82.8476 1049.72 82.8476 1052.94 79.6237Z" fill="#FC524A"/>
<path d="M1165.02 43.9024C1169.26 39.6624 1176.17 39.6624 1180.41 43.9024C1184.65 48.1424 1184.65 55.052 1180.41 59.2921C1176.17 63.5321 1169.26 63.5321 1165.02 59.2921C1160.78 55.0521 1160.78 48.1424 1165.02 43.9024ZM1178.57 57.4538C1181.8 54.2299 1181.8 48.983 1178.57 45.7591C1175.35 42.5352 1170.1 42.5352 1166.88 45.7591C1163.66 48.983 1163.66 54.2299 1166.88 57.4538C1170.1 60.6777 1175.35 60.6777 1178.57 57.4538Z" fill="#FC524A"/>
<path d="M1129.3 59.911C1133.54 55.671 1140.45 55.671 1144.69 59.911C1148.93 64.151 1148.93 71.0606 1144.69 75.3007C1140.45 79.5407 1133.54 79.5407 1129.3 75.3007C1125.06 71.0607 1125.06 64.151 1129.3 59.911ZM1142.85 73.4624C1146.08 70.2385 1146.08 64.9916 1142.85 61.7677C1139.63 58.5438 1134.38 58.5438 1131.16 61.7677C1127.94 64.9916 1127.94 70.2385 1131.16 73.4624C1134.38 76.6863 1139.63 76.6863 1142.85 73.4624Z" fill="#FC524A"/>
<path d="M1081.89 65.4627C1086.13 61.2227 1093.04 61.2227 1097.28 65.4627C1101.52 69.7027 1101.52 76.6123 1097.28 80.8524C1093.04 85.0924 1086.13 85.0923 1081.89 80.8523C1077.65 76.6123 1077.65 69.7027 1081.89 65.4627ZM1095.43 79.0049C1098.65 75.781 1098.65 70.5341 1095.43 67.3102C1092.2 64.0863 1086.96 64.0863 1083.73 67.3102C1080.51 70.5341 1080.51 75.781 1083.73 79.0048C1086.96 82.2287 1092.2 82.2287 1095.43 79.0049Z" fill="#FC524A"/>
<path d="M1060.33 87.0137C1064.57 82.7737 1071.48 82.7737 1075.72 87.0137C1079.96 91.2537 1079.96 98.1634 1075.72 102.403C1071.48 106.643 1064.57 106.643 1060.33 102.403C1056.09 98.1634 1056.09 91.2537 1060.33 87.0137ZM1073.88 100.556C1077.1 97.332 1077.1 92.0851 1073.88 88.8612C1070.65 85.6373 1065.41 85.6373 1062.18 88.8612C1058.96 92.0851 1058.96 97.332 1062.18 100.556C1065.41 103.78 1070.65 103.78 1073.88 100.556Z" fill="#FC524A"/>
<path d="M1081.89 108.565C1086.13 104.325 1093.04 104.325 1097.28 108.565C1101.52 112.805 1101.52 119.714 1097.28 123.954C1093.04 128.194 1086.13 128.194 1081.89 123.954C1077.65 119.714 1077.65 112.805 1081.89 108.565ZM1095.44 122.116C1098.66 118.892 1098.66 113.645 1095.44 110.422C1092.21 107.198 1086.97 107.198 1083.74 110.422C1080.52 113.645 1080.52 118.892 1083.74 122.116C1086.97 125.34 1092.21 125.34 1095.44 122.116Z" fill="#FC524A"/>
<path d="M1104.67 85.7852C1108.91 81.5452 1115.82 81.5452 1120.06 85.7852C1124.3 90.0252 1124.3 96.9349 1120.06 101.175C1115.82 105.415 1108.91 105.415 1104.67 101.175C1100.43 96.9349 1100.43 90.0252 1104.67 85.7852ZM1118.22 99.3366C1121.44 96.1127 1121.44 90.8658 1118.22 87.6419C1114.99 84.4181 1109.75 84.4181 1106.52 87.642C1103.3 90.8658 1103.3 96.1127 1106.52 99.3366C1109.75 102.56 1114.99 102.561 1118.22 99.3366Z" fill="#FC524A"/>
<path d="M1126.22 107.336C1130.46 103.096 1137.37 103.096 1141.61 107.336C1145.85 111.576 1145.85 118.486 1141.61 122.726C1137.37 126.966 1130.46 126.966 1126.22 122.726C1121.98 118.486 1121.98 111.576 1126.22 107.336ZM1139.77 120.888C1142.99 117.664 1142.99 112.417 1139.77 109.193C1136.54 105.969 1131.3 105.969 1128.07 109.193C1124.85 112.417 1124.85 117.664 1128.07 120.888C1131.3 124.112 1136.54 124.112 1139.77 120.888Z" fill="#FC524A"/>
<path d="M1253.24 68.6958C1257.48 64.4558 1264.39 64.4558 1268.63 68.6958C1272.87 72.9359 1272.87 79.8455 1268.63 84.0855C1264.39 88.3255 1257.48 88.3255 1253.24 84.0855C1249 79.8455 1249 72.9358 1253.24 68.6958ZM1266.78 82.238C1270.01 79.0141 1270.01 73.7672 1266.78 70.5433C1263.56 67.3195 1258.31 67.3194 1255.09 70.5433C1251.87 73.7672 1251.87 79.0141 1255.09 82.238C1258.31 85.4619 1263.56 85.4619 1266.78 82.238Z" fill="#FC524A"/>
<path d="M1275.87 46.064C1280.11 41.824 1287.02 41.824 1291.26 46.064C1295.5 50.304 1295.5 57.2137 1291.26 61.4537C1287.02 65.6937 1280.11 65.6937 1275.87 61.4537C1271.63 57.2136 1271.63 50.304 1275.87 46.064ZM1289.42 59.6062C1292.64 56.3823 1292.64 51.1354 1289.42 47.9115C1286.19 44.6876 1280.94 44.6876 1277.72 47.9115C1274.5 51.1354 1274.5 56.3823 1277.72 59.6062C1280.94 62.83 1286.19 62.8301 1289.42 59.6062Z" fill="#FC524A"/>
<path d="M1221.83 23.432C1226.07 19.192 1232.98 19.192 1237.22 23.4321C1241.46 27.6721 1241.46 34.5817 1237.22 38.8217C1232.98 43.0617 1226.07 43.0617 1221.83 38.8217C1217.59 34.5817 1217.59 27.6721 1221.83 23.432ZM1235.38 36.9742C1238.6 33.7503 1238.6 28.5034 1235.38 25.2796C1232.15 22.0557 1226.9 22.0557 1223.68 25.2795C1220.46 28.5034 1220.46 33.7503 1223.68 36.9742C1226.9 40.1981 1232.15 40.1981 1235.38 36.9742Z" fill="#FC524A"/>
<path d="M1439.22 10.1948C1443.46 5.95474 1450.37 5.95474 1454.61 10.1948C1458.85 14.4348 1458.85 21.3444 1454.61 25.5844C1450.37 29.8244 1443.46 29.8244 1439.22 25.5844C1434.98 21.3444 1434.98 14.4348 1439.22 10.1948ZM1452.76 23.7369C1455.99 20.513 1455.99 15.2661 1452.76 12.0423C1449.54 8.81837 1444.29 8.81837 1441.07 12.0423C1437.84 15.2661 1437.84 20.513 1441.07 23.7369C1444.29 26.9608 1449.54 26.9608 1452.76 23.7369Z" fill="#FC524A"/>
<path d="M1149.01 84.5473C1153.25 80.3073 1160.15 80.3073 1164.4 84.5474C1168.64 88.7874 1168.64 95.697 1164.4 99.937C1160.16 104.177 1153.25 104.177 1149.01 99.937C1144.77 95.697 1144.77 88.7873 1149.01 84.5473ZM1162.56 98.0987C1165.78 94.8749 1165.78 89.628 1162.56 86.4041C1159.33 83.1802 1154.09 83.1802 1150.86 86.4041C1147.64 89.628 1147.64 94.8748 1150.86 98.0987C1154.09 101.323 1159.33 101.323 1162.56 98.0987Z" fill="#FC524A"/>
<path d="M253.283 203.711C257.523 199.471 264.432 199.471 268.672 203.711C272.912 207.951 272.912 214.86 268.672 219.1C264.432 223.341 257.523 223.34 253.283 219.1C249.043 214.86 249.043 207.951 253.283 203.711ZM266.834 217.262C270.058 214.038 270.058 208.791 266.834 205.568C263.61 202.344 258.363 202.344 255.139 205.568C251.916 208.791 251.916 214.038 255.139 217.262C258.363 220.486 263.61 220.486 266.834 217.262Z" fill="#FC524A"/>
<path d="M225.57 231.423C229.81 227.183 236.72 227.183 240.96 231.423C245.2 235.663 245.2 242.573 240.96 246.813C236.72 251.053 229.81 251.053 225.57 246.813C221.33 242.573 221.33 235.663 225.57 231.423ZM239.121 244.975C242.345 241.751 242.345 236.504 239.121 233.28C235.898 230.056 230.651 230.056 227.427 233.28C224.203 236.504 224.203 241.751 227.427 244.975C230.651 248.198 235.898 248.198 239.121 244.975Z" fill="#FC524A"/>
<path d="M317.871 -16.9912L368.049 -67.1693H409.784L480.497 3.54376L478.65 5.39126L408.694 -64.5643H369.139L320.476 -15.9012V14.5826L249.347 85.7113V130.051L205.007 174.391V205.337L199.649 210.695L197.802 208.847L202.402 204.247V173.301L246.742 128.961V84.6212L317.871 13.4925V-16.9912Z" fill="#FC524A"/>
<path d="M476.655 1.54836C475.119 3.08398 475.119 5.57373 476.655 7.10935C478.19 8.64497 480.68 8.64497 482.216 7.10935C483.751 5.57373 483.751 3.08398 482.216 1.54836C480.68 0.0127414 478.19 0.0127409 476.655 1.54836Z" fill="#FC524A"/>
<path d="M196.084 206.852C194.548 208.387 194.548 210.877 196.084 212.413C197.62 213.948 200.109 213.948 201.645 212.413C203.181 210.877 203.181 208.387 201.645 206.852C200.109 205.316 197.62 205.316 196.084 206.852Z" fill="#FC524A"/>
<path d="M328.033 -15.1429L366.664 -53.774L383.8 -53.7833V-51.1599L367.754 -51.1691L330.638 -14.0528V15.9691L260.664 85.9431L260.673 141.599L228.453 173.819V181.653L225.839 181.662L225.848 172.729L258.059 140.518V84.853L328.033 14.879V-15.1429Z" fill="#FC524A"/>
<path d="M223.215 181.459C223.215 183.62 224.98 185.385 227.141 185.385C229.303 185.385 231.067 183.62 231.067 181.459C231.067 179.297 229.303 177.533 227.141 177.533C224.98 177.533 223.215 179.297 223.215 181.459Z" fill="#FC524A"/>
<path d="M255.981 -138.926L266.899 -149.845H280.922L308.634 -122.132L334.841 -122.142V-119.518L307.544 -119.527L279.832 -147.24H267.989L258.586 -137.836V-35.7618L251.888 -29.0646V3.95019L193.572 62.2665L193.581 117.571L121.464 189.689L121.473 234.278L202.708 315.512L200.86 317.36L118.859 235.359V188.598L190.967 116.491V61.1764L249.274 2.86936L249.283 -30.1547L255.981 -36.8519V-138.926Z" fill="#FC524A"/>
<path d="M198.865 319.078C200.398 320.611 202.892 320.611 204.426 319.078C205.959 317.545 205.959 315.051 204.426 313.517C202.892 311.984 200.398 311.984 198.865 313.517C197.331 315.051 197.331 317.545 198.865 319.078Z" fill="#FC524A"/>
<path d="M208.36 -111.981L224.11 -111.971L247.269 -88.8131L247.269 -66.2551L217.127 -36.1132L217.136 -16.3727L193.747 7.0167L193.756 36.2903L173.286 56.7606L173.286 100.491L81.0678 192.709L81.0678 304.021L209.312 432.265L209.321 512.326L227.944 530.949L227.953 596.545L203.169 621.329L201.321 619.481L225.339 595.464L225.339 532.039L206.707 513.407L206.707 433.355L78.4536 305.101L78.4627 191.619L170.671 99.4102L170.681 55.6705L191.142 35.2095L191.142 5.92662L214.522 -17.4535L214.522 -37.2033L244.655 -67.336L244.664 -87.7231L223.02 -109.367L208.36 -109.357L208.36 -111.981Z" fill="#FC524A"/>
<path d="M195.937 -43.7803L218.31 -66.1535L220.157 -64.306L198.542 -42.6902L198.551 -21.1392L177.305 0.107054L177.295 27.5147L152.206 52.6038L152.206 92.1772L63.6003 180.783V308.482L195.115 439.997L195.114 519.716L216.222 540.824L216.231 592.231L185.757 622.705L183.909 620.858L213.617 591.15L213.617 541.914L192.5 520.797L192.51 441.087L60.9861 309.563L60.9952 179.693L149.592 91.0964L149.592 51.523L174.69 26.4247L174.69 -0.973718L195.937 -22.22L195.937 -43.7803Z" fill="#FC524A"/>
<path d="M285.17 220.468L352.502 153.136L433.173 153.145L557.731 28.5866L557.731 6.06555L560.346 6.07479L560.346 29.6673L434.263 155.75L353.583 155.75L287.017 222.315L285.17 220.468Z" fill="#FC524A"/>
<path d="M283.452 218.472C281.916 220.008 281.916 222.498 283.452 224.033C284.987 225.569 287.477 225.569 289.013 224.033C290.548 222.498 290.548 220.008 289.013 218.472C287.477 216.937 284.987 216.937 283.452 218.472Z" fill="#FC524A"/>
<path d="M562.969 6.25952C562.969 4.09795 561.205 2.33358 559.043 2.33358C556.881 2.33358 555.117 4.09795 555.117 6.25952C555.117 8.4211 556.881 10.1855 559.043 10.1855C561.205 10.1855 562.969 8.4211 562.969 6.25952Z" fill="#FC524A"/>
<path d="M362.155 16.6333L409.774 -30.986H424.407L454.724 -0.668607L454.733 35.5147L390.847 99.4012L358.007 99.4105V96.787L389.757 96.7963L452.119 34.4339L452.119 0.421467L423.317 -28.3811L410.864 -28.3811L364.003 18.4808L362.155 16.6333Z" fill="#FC524A"/>
<path d="M360.437 14.6379C358.901 16.1735 358.901 18.6633 360.437 20.1989C361.972 21.7345 364.462 21.7345 365.998 20.1989C367.533 18.6633 367.533 16.1735 365.998 14.6379C364.462 13.1023 361.972 13.1023 360.437 14.6379Z" fill="#FC524A"/>
<path d="M358.202 94.1728C356.04 94.1728 354.276 95.9372 354.276 98.0988C354.276 100.26 356.04 102.025 358.202 102.025C360.363 102.025 362.128 100.26 362.128 98.0988C362.128 95.9372 360.363 94.1728 358.202 94.1728Z" fill="#FC524A"/>
<path d="M-21.2285 466.213L24.414 420.57H48.9118L112.032 483.69L129.888 483.699L140.003 493.814L134.46 499.357L126.636 491.533L108.789 491.533L45.6602 428.404L27.6563 428.413L-15.686 471.755L-21.2285 466.213Z" fill="#FC524A"/>
<path d="M132.862 492.216C130.561 494.517 130.561 498.248 132.862 500.548C135.163 502.849 138.893 502.849 141.194 500.548C143.495 498.248 143.495 494.517 141.194 492.216C138.893 489.915 135.163 489.915 132.862 492.216Z" fill="#FC524A"/>
<path d="M151.975 -131.915L153.822 -133.763L166.672 -120.913L166.672 -95.5103L177.064 -85.1181L177.073 -31.6052L148.548 -3.07984L148.548 21.0485L130.128 39.4681L130.128 64.9266L52.7919 142.263L52.7919 160.073L-31.4357 244.3L-50.2894 244.309L-50.2893 241.686L-32.5256 241.695L50.1868 158.983L50.1868 141.173L127.514 63.8458L127.523 38.378L145.934 19.9677L145.943 -4.16991L174.459 -32.6861L174.459 -84.028L164.067 -94.4202L164.067 -119.823L151.975 -131.915Z" fill="#FC524A"/>
<path d="M152.51 -117.135L155.134 -117.135L155.124 -93.2009L166.44 -81.885L166.449 -32.0671L140.233 -5.85111L140.233 16.8916L121.121 36.004L121.121 59.8367L49.1425 131.815L18.5756 131.824L-28.1939 178.594L-28.1939 197.475L-37.2743 206.556L-39.1218 204.708L-30.8081 196.395L-30.7989 177.504L17.4948 129.21L48.0524 129.21L118.507 58.7559L118.516 34.9139L137.619 15.8108L137.628 -6.94119L163.835 -33.148L163.835 -80.7949L152.519 -92.1109L152.51 -117.135Z" fill="#FC524A"/>
<path d="M146.044 -105.995L148.668 -106.106L150.072 -71.8162L118.637 -40.381L118.637 -29.0004L133.186 -14.4514L133.195 14.1203L113.445 33.87L113.445 55.2271L46.6951 121.977L13.4955 121.977L-71.5172 206.99L-96.0151 206.99L-96.0151 204.385L-72.6072 204.385L12.4146 119.363L45.605 119.372L110.831 54.1463L110.84 32.78L130.581 13.0394L130.581 -13.3613L116.032 -27.9103L116.032 -41.471L147.411 -72.8508L146.044 -105.995Z" fill="#FC524A"/>
<path d="M134.959 -99.5842L137.583 -99.5842L137.573 -74.0979L108.937 -45.4617L108.937 -25.7674L125.334 -9.37082L125.334 8.56844L102.582 31.3204L102.591 51.5228L42.1871 111.927L9.32933 111.936L-63.3791 184.644L-77.5401 184.654L-77.5402 182.03L-64.4691 182.039L8.24851 109.322L41.097 109.322L99.9769 50.442L99.9769 30.2303L122.72 7.48761L122.729 -8.28074L106.332 -24.6773L106.332 -46.5517L134.969 -75.188L134.959 -99.5842Z" fill="#FC524A"/>
<path d="M79.9961 -42.7735L82.6196 -42.7735L82.6103 11.349L69.216 24.7434L69.216 70.469L35.8964 103.789L1.02477 103.798L-60.5154 165.338L-88.117 165.338L-105.262 182.483L-117.261 182.492L-117.261 179.869L-106.352 179.878L-89.1978 162.724L-61.6054 162.733L-0.0559468 101.184L34.8063 101.184L66.6111 69.3789L66.611 23.6533L80.0054 10.259L79.9961 -42.7735Z" fill="#FC524A"/>
<path d="M65.2161 -29.8409H67.8397L67.8304 4.42097L53.7432 18.5082L53.7524 67.6978L30.474 90.9763H-6.82703L-70.3903 154.54H-91.8212L-103.95 166.668L-105.798 164.821L-92.9021 151.925L-71.4803 151.934L-7.90786 88.3621L29.3839 88.3713L51.1383 66.617V17.4181L65.2254 3.3309L65.2161 -29.8409Z" fill="#FC524A"/>
<path d="M48.1269 -13.6755L50.7505 -13.6755L50.7412 5.34452L40.5799 15.5058L40.5799 54.7651L18.3453 76.9997L-14.6788 77.009L-72.7364 135.067L-74.5839 133.219L-15.7595 74.3947L17.2552 74.3948L37.975 53.675L37.975 14.4157L48.1362 4.25444L48.1269 -13.6755Z" fill="#FC524A"/>
<path d="M22.2619 10.3425H24.8855L24.8762 45.99L15.5925 55.2737L13.745 53.4262L22.2713 44.9L22.2619 10.3425Z" fill="#FC524A"/>
<path d="M12.0262 51.4309C10.4906 52.9665 10.4906 55.4563 12.0262 56.9919C13.5618 58.5275 16.0516 58.5275 17.5872 56.9919C19.1228 55.4563 19.1228 52.9666 17.5872 51.4309C16.0516 49.8953 13.5618 49.8953 12.0262 51.4309Z" fill="#FC524A"/>
<path d="M1421.06 -238.46L1447.45 -264.852L1488.72 -264.852L1584.79 -168.782L1660 -168.791L1660 -166.168L1583.7 -166.177L1487.63 -262.247L1448.54 -262.247L1423.66 -237.37L1423.66 -208.974L1311.77 -97.0803L1311.78 1.17894L1306.82 6.1395L1304.97 4.292L1309.17 0.0981655L1309.16 -98.1703L1421.05 -210.055L1421.06 -238.46Z" fill="#FC524A"/>
<path d="M1303.25 2.2964C1301.72 3.83202 1301.72 6.32176 1303.25 7.85738C1304.79 9.393 1307.28 9.39299 1308.81 7.85737C1310.35 6.32175 1310.35 3.83204 1308.81 2.29642C1307.28 0.760795 1304.79 0.760781 1303.25 2.2964Z" fill="#FC524A"/>
<path d="M1434.33 -236.271L1450.68 -252.621L1483.87 -252.612L1582.48 -154.002L1664.62 -154.011L1664.62 -151.387L1581.39 -151.397L1482.78 -250.007L1451.76 -250.007L1436.94 -235.181L1436.95 -208.974L1322.11 -94.1335L1322.12 28.4388L1319.61 30.9422L1317.77 29.0947L1319.5 27.358L1319.5 -95.2235L1434.33 -210.055L1434.33 -236.271Z" fill="#FC524A"/>
<path d="M1316.05 27.0994C1314.51 28.6328 1314.51 31.1269 1316.05 32.6604C1317.58 34.1938 1320.07 34.1938 1321.61 32.6604C1323.14 31.1269 1323.14 28.6328 1321.61 27.0994C1320.07 25.566 1317.58 25.566 1316.05 27.0994Z" fill="#FC524A"/>
<path d="M1382.17 -97.7177L1418.36 -133.91L1440.29 -133.91L1498.26 -191.875H1528.44L1576.94 -143.379H1651.77L1669.23 -125.911L1667.39 -124.063L1650.68 -140.774H1575.85L1527.35 -189.271H1499.35L1441.38 -131.305L1419.44 -131.296L1384.02 -95.8702L1382.17 -97.7177Z" fill="#FC524A"/>
<path d="M1343.69 -83.9631L1467.52 -207.792L1469.37 -205.944L1346.3 -82.8731L1346.3 55.2275L1325.45 76.0765L1307.21 76.0858L1284.71 98.5791L1282.87 96.7316L1306.13 73.4716L1324.36 73.4716L1343.69 54.1375L1343.69 -83.9631Z" fill="#FC524A"/>
<path d="M1281.15 94.7363C1279.61 96.2719 1279.61 98.7616 1281.15 100.297C1282.68 101.833 1285.17 101.833 1286.71 100.297C1288.24 98.7616 1288.24 96.2719 1286.71 94.7363C1285.17 93.2007 1282.68 93.2007 1281.15 94.7363Z" fill="#FC524A"/>
<path d="M1456.38 -231.181L1459.01 -231.181L1459 -213.122L1334.75 -88.8774L1334.75 46.9138L1325.22 56.4469L1315.35 56.4469L1290.64 31.7366L1272.56 31.7366L1240.13 64.1602L1238.29 62.3127L1271.48 29.1223L1291.73 29.1316L1316.44 53.8419L1324.13 53.8419L1332.15 45.8237L1332.15 -89.9675L1456.39 -214.212L1456.38 -231.181Z" fill="#FC524A"/>
<path d="M1236.57 60.3173C1235.03 61.853 1235.03 64.3427 1236.57 65.8783C1238.1 67.4139 1240.59 67.4139 1242.13 65.8783C1243.66 64.3427 1243.66 61.853 1242.13 60.3174C1240.59 58.7817 1238.1 58.7817 1236.57 60.3173Z" fill="#FC524A"/>
<path d="M1447.62 -105.671L1510.27 -168.32H1531.68L1565.4 -134.603L1638.37 -134.603L1654.45 -118.521L1652.61 -116.673L1637.28 -131.998L1564.31 -131.998L1530.59 -165.715H1511.36L1450.22 -104.581V-81.9493L1380.71 -12.4371L1380.71 75.0789L1332.55 123.234L1332.56 156.831L1298.55 190.843L1298.55 265.759L1295.95 265.759L1295.95 189.753L1329.95 155.75L1329.95 122.144L1378.1 73.9982L1378.1 -13.5271L1447.62 -83.0393V-105.671Z" fill="#FC524A"/>
<path d="M1474.87 -97.8193L1502.63 -125.578L1504.47 -123.73L1477.47 -96.7292L1477.47 -80.5636L1401.96 -5.0471L1401.96 147.519L1399.35 147.519L1399.35 -6.13712L1474.87 -81.6536L1474.87 -97.8193Z" fill="#FC524A"/>
<path d="M1407.88 2.42577L1519.25 -108.951L1521.1 -107.103L1410.52 3.47886L1413.27 147.03L1410.67 147.085L1407.88 2.42577Z" fill="#FC524A"/>
<path d="M1417.83 14.1854L1466.39 -34.3761L1505.65 -34.3761L1590.17 -118.899L1641.14 -118.899L1651.22 -108.821L1649.37 -106.974L1640.05 -116.294L1591.26 -116.294L1506.74 -31.7712L1467.48 -31.7712L1420.43 15.2754L1420.43 137.358L1417.83 137.358L1417.83 14.1854Z" fill="#FC524A"/>
<path d="M1466.2 -0.252829L1490.41 -24.4551L1510.04 -24.4458L1596.17 -110.585L1636.52 -110.585L1647.99 -99.1218L1646.14 -97.2743L1635.43 -107.981L1597.26 -107.981L1511.13 -21.8409L1491.49 -21.8409L1468.81 0.837189L1468.82 22.4252L1433.42 57.8233L1433.42 117.036L1430.81 117.036L1430.81 56.7333L1466.2 21.3444L1466.2 -0.252829Z" fill="#FC524A"/>
<path d="M1439.53 59.911L1598.48 -99.0386L1633.29 -99.0386L1646.6 -85.7274L1644.75 -83.8799L1632.2 -96.4337L1599.57 -96.4337L1442.14 61.001L1442.14 133.201L1439.53 133.201L1439.53 59.911Z" fill="#FC524A"/>
<path d="M1447.15 63.8369L1601.25 -90.263L1629.13 -90.263L1645.68 -73.7187L1643.83 -71.8712L1628.04 -87.658L1602.34 -87.658L1449.76 64.9269L1449.77 126.735L1447.15 126.735L1447.15 63.8369Z" fill="#FC524A"/>
</g>
</g>
</g>
<defs>
<clipPath id="clip0_114_172">
<rect width="1472" height="617" fill="white"/>
</clipPath>
<clipPath id="clip1_114_172">
<rect width="1567.66" height="1045.1" fill="white" transform="translate(1666 -143) rotate(135)"/>
</clipPath>
</defs>
</svg>
