<svg width="910" height="829" viewBox="0 0 910 829" fill="none" xmlns="http://www.w3.org/2000/svg">
<path d="M725.19 147.81L704.995 112.838H745.38L725.19 147.81ZM708.35 114.779L725.19 143.941L742.025 114.779H708.35Z" fill="#D88B8B" fill-opacity="0.9"/>
<path d="M725.19 336.349L704.995 301.372H745.38L725.19 336.349ZM708.35 303.314L725.19 332.476L742.025 303.314H708.35Z" fill="#D88B8B" fill-opacity="0.9"/>
<path d="M725.186 443.202L706.671 411.135H743.701L725.186 443.202Z" fill="#FF540A" fill-opacity="0.9"/>
<path d="M725.19 444.169C724.847 444.169 724.522 443.985 724.353 443.685L705.838 411.618C705.663 411.317 705.663 410.949 705.838 410.649C706.007 410.349 706.332 410.165 706.676 410.165H743.7C744.044 410.165 744.369 410.349 744.538 410.649C744.713 410.949 744.713 411.317 744.538 411.618L726.028 443.685C725.854 443.985 725.534 444.169 725.19 444.169ZM708.351 412.102L725.19 441.264L742.025 412.102H708.351Z" fill="#FF540A" fill-opacity="0.9"/>
<path d="M725.19 553.933L704.995 518.956H745.38L725.19 553.933ZM708.35 520.898L725.19 550.06L742.025 520.898H708.35Z" fill="#D88B8B" fill-opacity="0.9"/>
<path d="M394.046 33.8541L375.531 1.78711H412.561L394.046 33.8541Z" fill="#FF540A" fill-opacity="0.9"/>
<path d="M394.047 34.8216C393.703 34.8216 393.379 34.6377 393.209 34.3375L374.694 2.27042C374.52 1.97023 374.52 1.60223 374.694 1.30204C374.864 1.00185 375.188 0.817871 375.532 0.817871H412.562C412.906 0.817871 413.23 1.00185 413.399 1.30204C413.574 1.60223 413.574 1.97023 413.399 2.27042L394.885 34.3375C394.715 34.6377 394.391 34.8216 394.047 34.8216ZM377.212 2.75459L394.052 31.9166L410.887 2.75459H377.212Z" fill="#FF540A" fill-opacity="0.9"/>
<path d="M394.046 144.585L373.852 109.613H414.242L394.046 144.585ZM377.212 111.55L394.051 140.712L410.886 111.55H377.212Z" fill="#D88B8B" fill-opacity="0.9"/>
<path d="M889.079 333.897L868.884 298.92H909.269L889.079 333.897ZM872.244 300.861L889.084 330.023L905.918 300.861H872.244Z" fill="#D88B8B" fill-opacity="0.9"/>
<path d="M889.079 442.688L868.884 407.716H909.269L889.079 442.688ZM872.244 409.657L889.084 438.819L905.918 409.657H872.244Z" fill="#D88B8B" fill-opacity="0.9"/>
<path d="M889.077 767.13L870.562 735.063H907.592L889.077 767.13Z" fill="#FF540A" fill-opacity="0.9"/>
<path d="M889.078 768.098C888.734 768.098 888.41 767.913 888.241 767.608L869.725 735.541C869.551 735.241 869.551 734.873 869.725 734.578C869.895 734.273 870.219 734.089 870.563 734.089H907.588C907.932 734.089 908.256 734.273 908.426 734.578C908.6 734.878 908.6 735.246 908.426 735.541L889.916 767.608C889.746 767.913 889.427 768.098 889.078 768.098ZM872.243 736.03L889.083 765.188L905.918 736.03H872.243Z" fill="#FF540A" fill-opacity="0.9"/>
<path d="M204.69 218.175L186.175 186.104H223.205L204.69 218.175Z" fill="#FF540A" fill-opacity="0.9"/>
<path d="M204.69 219.142C204.346 219.142 204.022 218.958 203.853 218.658L185.338 186.591C185.163 186.291 185.163 185.923 185.338 185.623C185.507 185.323 185.831 185.139 186.175 185.139H223.205C223.549 185.139 223.873 185.323 224.043 185.623C224.217 185.923 224.217 186.291 224.043 186.591L205.528 218.658C205.354 218.958 205.034 219.142 204.69 219.142ZM187.851 187.075L204.685 216.237L221.525 187.075H187.851Z" fill="#FF540A" fill-opacity="0.9"/>
<path d="M204.689 328.902L184.494 293.93H224.884L204.689 328.902ZM187.849 295.866L204.684 325.028L221.524 295.866H187.849Z" fill="#D88B8B" fill-opacity="0.9"/>
<path d="M204.689 437.695L184.494 402.723H224.884L204.689 437.695ZM187.849 404.659L204.684 433.821L221.524 404.659H187.849Z" fill="#D88B8B" fill-opacity="0.9"/>
<path d="M20.6971 492.838L0.501953 457.861H40.8922L20.6971 492.838ZM3.85756 459.803L20.6971 488.965L37.5369 459.803H3.85756Z" fill="#D88B8B" fill-opacity="0.9"/>
<path d="M20.6965 599.699L2.18164 567.627H39.2116L20.6965 599.699Z" fill="#FF540A" fill-opacity="0.9"/>
<path d="M20.6972 600.666C20.3534 600.666 20.0292 600.482 19.8597 600.182L1.3446 568.115C1.17029 567.814 1.17029 567.446 1.3446 567.146C1.51406 566.846 1.83862 566.662 2.18239 566.662H39.217C39.5608 566.662 39.8851 566.846 40.0545 567.146C40.2288 567.446 40.2288 567.814 40.0545 568.115L21.5397 600.182C21.3606 600.482 21.041 600.666 20.6972 600.666ZM3.85768 568.599L20.6972 597.761L37.537 568.599H3.85768Z" fill="#FF540A" fill-opacity="0.9"/>
<path d="M20.6971 719.69L0.501953 684.713H40.8922L20.6971 719.69ZM3.85756 686.654L20.6971 715.816L37.5369 686.654H3.85756Z" fill="#D88B8B" fill-opacity="0.9"/>
<path d="M20.6971 828.479L0.501953 793.502H40.8922L20.6971 828.479ZM3.85756 795.444L20.6971 824.601L37.5369 795.444H3.85756Z" fill="#D88B8B" fill-opacity="0.9"/>
</svg>
