<svg width="1450" height="743" viewBox="0 0 1450 743" fill="none" xmlns="http://www.w3.org/2000/svg">
<g clip-path="url(#clip0_266_2)">
<g style="mix-blend-mode:color-dodge">
<path d="M837.578 129.346C835.473 129.346 833.368 128.803 831.488 127.717L767.473 90.7023C766.04 89.8746 765.184 88.391 765.187 86.7332C765.187 85.0754 766.042 83.5942 767.473 82.7665L906.177 2.56848C909.93 0.395143 914.597 0.395143 918.355 2.56848L982.37 39.5829C983.803 40.4106 984.656 41.8942 984.656 43.5496C984.659 45.2075 983.801 46.6911 982.37 47.5188L843.665 127.717C841.79 128.803 839.685 129.346 837.578 129.346ZM912.265 3.2195C910.554 3.2195 908.84 3.66239 907.313 4.54334L768.609 84.7414C767.888 85.1577 767.458 85.903 767.458 86.7356C767.458 87.5681 767.888 88.3136 768.609 88.7322L832.624 125.747C835.681 127.513 839.475 127.511 842.527 125.747L981.232 45.5487C981.952 45.1325 982.382 44.387 982.382 43.552C982.382 42.7195 981.952 41.9741 981.232 41.5578L917.217 4.54334C915.689 3.65997 913.976 3.2195 912.265 3.2195Z" fill="#4788FF"/>
</g>
<g style="mix-blend-mode:color-dodge">
<path d="M782.509 627.864C778.677 627.864 775.013 627.087 772.28 625.505L772.277 625.502L361.439 386.59C358.59 384.944 357.021 382.609 357.021 380.019C357.021 376.977 359.213 373.964 363.039 371.752L639.075 212.15C645.965 208.166 656.456 207.75 662.466 211.228L1073.3 450.14C1076.15 451.785 1077.72 454.121 1077.72 456.713C1077.72 459.758 1075.53 462.768 1071.7 464.98L795.666 624.58C791.913 626.751 787.091 627.864 782.509 627.864ZM773.418 623.532C778.8 626.645 788.271 626.231 794.527 622.605L1070.56 463.005C1073.66 461.214 1075.45 458.92 1075.45 456.713C1075.45 454.97 1074.28 453.334 1072.16 452.115L661.326 213.203C655.949 210.093 646.473 210.506 640.214 214.127L364.177 373.732C361.077 375.523 359.298 377.819 359.298 380.024C359.298 381.767 360.465 383.4 362.58 384.62L773.418 623.532Z" fill="#4788FF"/>
</g>
<g style="mix-blend-mode:color-dodge">
<path d="M1174.11 374.067C1172.33 374.067 1170.61 373.694 1169.3 372.932L1022.98 288.339C1021.52 287.494 1020.72 286.272 1020.72 284.897C1020.72 283.329 1021.8 281.804 1023.68 280.715L1168.59 196.931C1171.84 195.05 1176.63 194.869 1179.49 196.526L1325.81 281.124C1327.26 281.969 1328.07 283.189 1328.07 284.563C1328.07 286.132 1326.99 287.654 1325.11 288.746L1180.2 372.53C1178.44 373.549 1176.22 374.067 1174.11 374.067ZM1174.69 197.681C1172.97 197.681 1171.13 198.1 1169.73 198.908L1024.82 282.695C1023.68 283.356 1023 284.179 1023 284.9C1023 285.575 1023.6 286.069 1024.12 286.364L1170.43 370.962C1172.59 372.206 1176.53 372.017 1179.06 370.555L1323.96 286.771C1325.11 286.112 1325.78 285.287 1325.78 284.566C1325.78 283.891 1325.18 283.399 1324.67 283.104L1178.35 198.504C1177.39 197.95 1176.08 197.681 1174.69 197.681Z" fill="#4788FF"/>
</g>
<g style="mix-blend-mode:color-dodge">
<path d="M1037.28 607.697C1035.62 607.697 1033.96 607.269 1032.49 606.417L929.397 546.602L930.541 544.631L1033.63 604.444C1035.88 605.744 1038.68 605.746 1040.93 604.442L1375.41 412.15C1375.94 411.843 1376.26 411.291 1376.26 410.674C1376.26 410.059 1375.94 409.505 1375.41 409.2L1245.49 334.13L1246.62 332.155L1376.55 407.225C1377.8 407.946 1378.54 409.236 1378.54 410.676C1378.54 412.119 1377.79 413.408 1376.55 414.13L1042.06 606.421C1040.59 607.268 1038.93 607.697 1037.28 607.697Z" fill="#4788FF"/>
</g>
<g style="mix-blend-mode:color-dodge">
<path d="M238.754 578.673C236.896 578.673 235.112 578.286 233.752 577.499L81.0474 489.208C79.5442 488.339 78.7153 487.079 78.7129 485.66C78.7129 484.041 79.8318 482.468 81.7796 481.34L233.017 393.896C236.398 391.938 241.379 391.759 244.344 393.473L397.048 481.766C398.551 482.635 399.38 483.896 399.383 485.314C399.383 486.933 398.264 488.506 396.316 489.634L245.079 577.078C243.247 578.133 240.949 578.673 238.754 578.673ZM239.358 394.579C237.548 394.579 235.622 395.019 234.153 395.869L82.9155 483.313C81.7096 484.01 80.9894 484.886 80.9894 485.658C80.9894 486.389 81.6395 486.916 82.1832 487.229L234.888 575.522C237.142 576.827 241.284 576.635 243.938 575.099L395.175 487.654C396.381 486.957 397.101 486.081 397.101 485.309C397.101 484.578 396.451 484.051 395.908 483.739L243.203 395.445C242.198 394.862 240.816 394.579 239.358 394.579Z" fill="#4788FF"/>
</g>
<g style="mix-blend-mode:color-dodge">
<path d="M244.591 700.446C242.474 700.446 240.357 699.899 238.47 698.809L62.4059 597.44C61.2773 596.789 60.6079 595.624 60.6055 594.325C60.6055 593.023 61.2773 591.854 62.4035 591.203L161.859 533.953L162.992 535.928L63.5393 593.178C62.9472 593.521 62.8844 594.092 62.8844 594.322C62.8844 594.552 62.9472 595.121 63.5417 595.465L239.608 696.835C242.684 698.611 246.503 698.613 249.574 696.832L578.292 510.712L579.411 512.696L250.7 698.812C248.818 699.901 246.706 700.446 244.591 700.446Z" fill="#4788FF"/>
</g>
<g style="mix-blend-mode:color-dodge">
<path d="M304.1 263.269C301.893 263.269 299.684 262.7 297.715 261.563L234.04 224.744C232.598 223.912 231.737 222.418 231.737 220.751C231.737 219.083 232.6 217.588 234.04 216.755L297.712 179.939C301.649 177.664 306.543 177.664 310.48 179.939L374.154 216.758C375.597 217.593 376.457 219.086 376.457 220.753C376.457 222.421 375.597 223.914 374.154 224.747L310.482 261.563C308.515 262.7 306.306 263.269 304.1 263.269ZM304.097 180.51C302.282 180.51 300.47 180.977 298.851 181.914L235.179 218.73C234.449 219.154 234.011 219.909 234.011 220.751C234.011 221.596 234.449 222.351 235.179 222.772L298.853 259.588C302.091 261.459 306.108 261.459 309.346 259.588L373.018 222.774C373.748 222.353 374.183 221.598 374.183 220.753C374.183 219.909 373.745 219.154 373.018 218.732L309.344 181.914C307.725 180.977 305.912 180.51 304.097 180.51Z" fill="#4788FF"/>
</g>
<g style="mix-blend-mode:color-dodge">
<path d="M578.847 684.601C576.812 684.601 574.775 684.076 572.96 683.028L508.36 645.672C507.006 644.891 506.199 643.489 506.199 641.926C506.199 640.36 507.006 638.959 508.36 638.177L572.957 600.826C576.585 598.73 581.099 598.725 584.731 600.826L649.334 638.179C650.684 638.961 651.492 640.362 651.492 641.926C651.492 643.489 650.684 644.893 649.334 645.675L584.736 683.028C582.921 684.076 580.884 684.601 578.847 684.601ZM578.844 601.533C577.203 601.533 575.562 601.959 574.095 602.803L509.498 640.154C508.858 640.522 508.476 641.188 508.476 641.926C508.476 642.664 508.858 643.327 509.498 643.697L574.098 681.051C577.032 682.743 580.669 682.745 583.598 681.051L648.195 643.697C648.836 643.33 649.218 642.664 649.218 641.926C649.218 641.188 648.836 640.525 648.195 640.157L583.595 602.803C582.131 601.959 580.488 601.533 578.844 601.533Z" fill="#4788FF"/>
</g>
<g style="mix-blend-mode:color-dodge">
<path d="M253.296 290C250.794 290 248.293 289.357 246.06 288.067L184.225 252.315C182.574 251.359 181.591 249.651 181.591 247.744C181.593 245.837 182.577 244.13 184.225 243.177L203.111 232.349C207.572 229.771 213.116 229.771 217.575 232.351L279.41 268.102C281.061 269.058 282.044 270.767 282.044 272.674C282.042 274.581 281.058 276.287 279.41 277.241L260.526 288.069C258.298 289.359 255.799 290 253.296 290ZM210.344 232.695C208.237 232.695 206.13 233.239 204.247 234.326L185.361 245.157C184.428 245.694 183.87 246.662 183.87 247.744C183.87 248.828 184.428 249.798 185.363 250.338L247.198 286.092C250.964 288.267 255.633 288.265 259.393 286.092L278.277 275.264C279.21 274.724 279.768 273.756 279.768 272.674C279.768 271.59 279.212 270.619 278.274 270.08L216.439 234.326C214.559 233.239 212.452 232.695 210.344 232.695Z" fill="#4788FF"/>
</g>
<g style="mix-blend-mode:color-dodge">
<path d="M207.326 318.66C204.825 318.66 202.324 318.016 200.091 316.726L138.255 280.975C136.605 280.019 135.621 278.311 135.621 276.403C135.624 274.496 136.607 272.79 138.255 271.837L157.142 261.006C161.603 258.431 167.144 258.429 171.608 261.009L233.443 296.76C235.094 297.716 236.077 299.424 236.077 301.331C236.075 303.239 235.091 304.945 233.443 305.898L214.557 316.729C212.326 318.016 209.827 318.66 207.326 318.66ZM164.377 261.355C162.267 261.355 160.16 261.899 158.28 262.986L139.394 273.816C138.461 274.354 137.902 275.322 137.902 276.403C137.902 277.488 138.458 278.458 139.396 278.998L201.231 314.749C204.996 316.925 209.665 316.922 213.426 314.749L232.312 303.919C233.245 303.381 233.803 302.413 233.803 301.331C233.803 300.247 233.247 299.277 232.31 298.737L170.472 262.986C168.592 261.899 166.484 261.355 164.377 261.355Z" fill="#4788FF"/>
</g>
<g style="mix-blend-mode:color-dodge">
<path d="M630.372 714.774C627.871 714.774 625.37 714.13 623.139 712.84L604.258 702.014C602.607 701.058 601.624 699.352 601.621 697.445C601.621 695.538 602.605 693.829 604.255 692.876L666.09 657.122C670.549 654.545 676.098 654.545 680.559 657.122L699.441 667.95C701.091 668.904 702.075 670.61 702.077 672.517C702.077 674.424 701.093 676.133 699.443 677.086L637.61 712.84C635.375 714.127 632.873 714.774 630.372 714.774ZM667.226 659.099L605.391 694.851C604.453 695.393 603.898 696.361 603.898 697.445C603.898 698.527 604.456 699.497 605.391 700.035L624.273 710.86C628.033 713.038 632.704 713.036 636.469 710.863L698.302 675.109C699.24 674.567 699.796 673.599 699.796 672.515C699.796 671.433 699.238 670.462 698.302 669.925L679.421 659.097C675.663 656.926 670.989 656.926 667.226 659.099Z" fill="#4788FF"/>
</g>
<g style="mix-blend-mode:color-dodge">
<path d="M676.34 743.434C673.839 743.434 671.338 742.787 669.107 741.5L650.225 730.672C648.572 729.716 647.589 728.01 647.589 726.103C647.589 724.195 648.573 722.489 650.223 721.533L712.058 685.782C716.519 683.202 722.063 683.202 726.527 685.782L745.408 696.61C747.061 697.566 748.045 699.272 748.045 701.179C748.045 703.084 747.061 704.79 745.411 705.746L683.576 741.5C681.345 742.787 678.844 743.434 676.34 743.434ZM719.294 686.128C717.184 686.128 715.077 686.673 713.197 687.759L651.361 723.511C650.424 724.053 649.868 725.021 649.868 726.103C649.868 727.184 650.424 728.155 651.361 728.695L670.243 739.523C674.003 741.693 678.674 741.698 682.44 739.523L744.275 703.769C745.213 703.227 745.768 702.259 745.768 701.179C745.768 700.098 745.213 699.127 744.275 698.587L725.393 687.759C723.511 686.673 721.401 686.128 719.294 686.128Z" fill="#4788FF"/>
</g>
<g style="mix-blend-mode:color-dodge">
<path d="M1346.45 587.884C1344.42 587.884 1342.38 587.359 1340.57 586.311L1275.97 548.96C1274.61 548.179 1273.81 546.777 1273.81 545.212C1273.81 543.648 1274.62 542.247 1275.97 541.465L1340.57 504.109C1344.2 502.009 1348.71 502.013 1352.34 504.109L1416.94 541.463C1418.29 542.244 1419.1 543.646 1419.1 545.212C1419.1 546.775 1418.29 548.176 1416.94 548.958L1352.34 586.311C1350.53 587.359 1348.49 587.884 1346.45 587.884ZM1346.46 504.816C1344.81 504.816 1343.18 505.24 1341.71 506.087L1277.11 543.44C1276.47 543.808 1276.09 544.471 1276.09 545.212C1276.09 545.955 1276.47 546.615 1277.11 546.983L1341.71 584.334C1344.63 586.031 1348.28 586.031 1351.21 584.334L1415.81 546.981C1416.45 546.613 1416.83 545.947 1416.83 545.212C1416.83 544.471 1416.45 543.808 1415.81 543.44L1351.21 506.087C1349.74 505.24 1348.1 504.816 1346.46 504.816Z" fill="#4788FF"/>
</g>
<g style="mix-blend-mode:color-dodge">
<path d="M1294.93 618.06C1292.43 618.06 1289.93 617.416 1287.7 616.126L1225.86 580.373C1224.22 579.419 1223.23 577.713 1223.23 575.806C1223.23 573.899 1224.21 572.19 1225.86 571.234L1244.75 560.404C1249.21 557.829 1254.75 557.826 1259.22 560.406L1321.05 596.16C1322.7 597.116 1323.69 598.822 1323.69 600.729C1323.69 602.634 1322.7 604.34 1321.05 605.296L1302.17 616.126C1299.93 617.416 1297.44 618.06 1294.93 618.06ZM1251.98 560.752C1249.87 560.752 1247.77 561.297 1245.89 562.383L1227 573.214C1226.06 573.753 1225.51 574.721 1225.51 575.806C1225.51 576.888 1226.07 577.858 1227 578.395L1288.84 614.149C1292.6 616.325 1297.27 616.322 1301.03 614.149L1319.92 603.319C1320.85 602.776 1321.41 601.808 1321.41 600.729C1321.41 599.647 1320.85 598.677 1319.92 598.137L1258.08 562.383C1256.2 561.297 1254.09 560.752 1251.98 560.752Z" fill="#4788FF"/>
</g>
<g style="mix-blend-mode:color-dodge">
<path d="M1248.96 646.72C1246.46 646.72 1243.96 646.074 1241.73 644.782L1179.89 609.033C1178.25 608.082 1177.26 606.373 1177.26 604.466C1177.26 602.559 1178.24 600.85 1179.89 599.894L1198.78 589.066C1203.24 586.486 1208.78 586.486 1213.24 589.066L1275.08 624.82C1276.73 625.776 1277.71 627.482 1277.71 629.389C1277.71 631.294 1276.73 633 1275.08 633.956L1256.19 644.786C1253.96 646.074 1251.47 646.72 1248.96 646.72ZM1206.01 589.412C1203.9 589.412 1201.8 589.957 1199.91 591.044L1181.03 601.872C1180.09 602.414 1179.54 603.382 1179.54 604.466C1179.54 605.548 1180.1 606.518 1181.03 607.056L1242.87 642.807C1246.63 644.985 1251.3 644.982 1255.06 642.809L1273.95 631.979C1274.88 631.439 1275.44 630.471 1275.44 629.392C1275.44 628.31 1274.88 627.339 1273.94 626.8L1212.11 591.046C1210.23 589.957 1208.12 589.412 1206.01 589.412Z" fill="#4788FF"/>
</g>
<path d="M1174.07 223.893C1168.09 223.893 1162.35 226.271 1158.13 230.504C1153.9 234.736 1151.52 240.477 1151.52 246.463V259.463C1149 260.419 1146.69 261.86 1144.72 263.706C1138.49 269.89 1138 283.162 1138 287.089C1138 291.016 1138.49 304.287 1144.72 310.471C1150.22 315.933 1162.12 318.687 1174.07 318.687C1186.02 318.687 1197.92 315.978 1203.42 310.516C1209.64 304.287 1210.14 291.016 1210.14 287.089C1210.14 283.162 1209.64 269.89 1203.42 263.706C1201.45 261.86 1199.14 260.419 1196.61 259.463V246.463C1196.61 240.477 1194.24 234.736 1190.01 230.504C1185.78 226.271 1180.05 223.893 1174.07 223.893ZM1160.54 246.463C1160.54 242.871 1161.97 239.427 1164.5 236.887C1167.04 234.348 1170.48 232.921 1174.07 232.921C1177.66 232.921 1181.1 234.348 1183.63 236.887C1186.17 239.427 1187.59 242.871 1187.59 246.463V256.755C1178.65 255.13 1169.49 255.13 1160.54 256.755V246.463ZM1178.58 287.089V291.603C1178.58 292.8 1178.1 293.948 1177.26 294.795C1176.41 295.641 1175.26 296.117 1174.07 296.117C1172.87 296.117 1171.73 295.641 1170.88 294.795C1170.03 293.948 1169.56 292.8 1169.56 291.603V287.089C1168.36 287.089 1167.22 286.613 1166.37 285.767C1165.53 284.92 1165.05 283.772 1165.05 282.575C1165.05 281.378 1165.53 280.229 1166.37 279.383C1167.22 278.536 1168.36 278.061 1169.56 278.061H1178.58C1179.77 278.061 1180.92 278.536 1181.76 279.383C1182.61 280.229 1183.09 281.378 1183.09 282.575C1183.09 283.772 1182.61 284.92 1181.76 285.767C1180.92 286.613 1179.77 287.089 1178.58 287.089Z" fill="#BEBEBE" style="mix-blend-mode:exclusion"/>
<path d="M238.867 509.448V479.086C238.867 478.051 238.029 477.211 236.992 477.211C235.955 477.211 235.117 478.051 235.117 479.086V509.448C235.117 510.483 235.955 511.323 236.992 511.323C238.029 511.323 238.867 510.483 238.867 509.448Z" fill="#BEBEBE"/>
<path d="M276.814 517.668C276.822 521.16 279.664 523.998 283.155 523.998C286.647 523.998 289.5 521.152 289.5 517.655C289.5 514.158 286.654 511.312 283.155 511.312C279.657 511.312 276.835 514.14 276.816 517.621C276.805 516.596 275.974 515.765 274.945 515.765H245.213C244.176 515.765 243.338 516.605 243.338 517.64C243.338 518.675 244.176 519.515 245.213 519.515H274.945C275.97 519.515 276.797 518.688 276.814 517.668Z" fill="#BEBEBE"/>
<path d="M228.772 515.763H199.07C198.033 515.763 197.195 516.603 197.195 517.638C197.195 518.673 198.033 519.513 199.07 519.513H228.772C229.809 519.513 230.647 518.673 230.647 517.638C230.647 516.603 229.809 515.763 228.772 515.763Z" fill="#BEBEBE"/>
<path d="M237 429.095C235.279 430.981 232.795 433.036 229.369 434.428C223.772 436.695 218.573 435.952 215.323 435.003C215.096 438.463 214.915 445.305 216.221 452.471C218.831 466.98 225.821 475.29 237.004 477.18C241.279 476.461 244.98 474.774 248.005 472.158L248.008 472.156C259.39 462.371 259.114 441.922 258.662 435.003C255.409 435.954 250.215 436.695 244.616 434.43C241.206 433.044 238.721 430.989 237.002 429.097L237 429.095Z" fill="#BEBEBE"/>
<path d="M236.992 511.323C233.494 511.323 230.647 514.156 230.647 517.638C230.647 521.12 233.494 523.983 236.992 523.983C240.491 523.983 243.337 521.137 243.337 517.638C243.337 514.139 240.491 511.323 236.992 511.323Z" fill="#BEBEBE"/>
<path d="M190.845 523.996C194.342 523.996 197.188 521.15 197.188 517.653C197.188 514.156 194.342 511.31 190.845 511.31C187.348 511.31 184.5 514.156 184.5 517.653C184.5 521.15 187.346 523.996 190.845 523.996Z" fill="#BEBEBE"/>
</g>
<defs>
<clipPath id="clip0_266_2">
<rect width="1450" height="743" fill="white"/>
</clipPath>
</defs>
</svg>
