<svg width="74" height="74" viewBox="0 0 74 74" fill="none" xmlns="http://www.w3.org/2000/svg">
<path d="M73.888 37.1876C73.888 16.8514 57.4022 0.365673 37.066 0.365674C16.7299 0.365675 0.244138 16.8514 0.244139 37.1876C0.24414 57.5238 16.7299 74.0095 37.0661 74.0095C57.4022 74.0095 73.888 57.5238 73.888 37.1876Z" fill="#FF850A"/>
<path fill-rule="evenodd" clip-rule="evenodd" d="M26.6039 51.852H19.4579C17.9559 51.852 17.2149 51.852 16.7619 51.563C16.2739 51.246 15.9749 50.722 15.9389 50.143C15.9119 49.609 16.2829 48.958 17.0249 47.656L34.6689 16.556C35.4199 15.235 35.7999 14.575 36.2789 14.331C36.7949 14.069 37.4099 14.069 37.9249 14.331C38.4039 14.575 38.7839 15.236 39.5349 16.556L43.1619 22.888L43.1799 22.92C43.9909 24.337 44.4019 25.055 44.5819 25.809C44.7809 26.632 44.7809 27.5 44.5819 28.324C44.4009 29.084 43.9939 29.807 43.1709 31.246L33.9029 47.629L33.8789 47.671C33.0629 49.099 32.6489 49.823 32.0759 50.37C31.4519 50.967 30.7009 51.401 29.8779 51.646C29.1279 51.852 28.2869 51.852 26.6039 51.852Z" fill="white"/>
<path fill-rule="evenodd" clip-rule="evenodd" d="M44.6497 51.852H54.8887C56.3997 51.852 57.1597 51.852 57.6117 51.554C58.0997 51.237 58.4077 50.703 58.4347 50.125C58.4607 49.609 58.0977 48.983 57.3867 47.756C57.3617 47.714 57.3377 47.672 57.3127 47.628L52.1837 38.854L52.1257 38.755C51.4047 37.536 51.0407 36.921 50.5737 36.683C50.0587 36.421 49.4517 36.421 48.9367 36.683C48.4667 36.927 48.0867 37.569 47.3357 38.863L42.2247 47.637L42.2067 47.667C41.4587 48.958 41.0847 49.604 41.1117 50.133C41.1477 50.712 41.4467 51.245 41.9347 51.562C42.3797 51.852 43.1397 51.852 44.6497 51.852Z" fill="white"/>
</svg>
