<svg width="75" height="75" viewBox="0 0 75 75" fill="none" xmlns="http://www.w3.org/2000/svg">
<path d="M37.3215 0.876709C57.6575 0.876709 74.1425 17.3617 74.1425 37.6977C74.1425 58.0337 57.6575 74.5187 37.3215 74.5187C16.9855 74.5187 0.500488 58.0337 0.500488 37.6977C0.500488 17.3617 16.9855 0.876709 37.3215 0.876709Z" fill="#F3BA2F"/>
<path d="M27.7935 33.7417L33.3685 28.1857L34.5445 27.0097L37.3305 24.2237L46.8175 33.7417L52.3405 28.1857L37.3305 13.1497L22.2705 28.1857L27.7935 33.7417Z" fill="white"/>
<path d="M37.3363 32.1395L31.7905 37.6853L37.3363 43.2311L42.8821 37.6853L37.3363 32.1395Z" fill="white"/>
<path d="M46.8175 41.6647L37.3275 51.1557L33.9945 47.8227L33.3815 47.2097L27.7935 41.6647L22.2705 47.1877L37.3305 62.2227L52.3405 47.1877L46.8175 41.6647Z" fill="white"/>
<path d="M18.3182 32.1547L12.7725 37.7004L18.3182 43.2462L23.864 37.7004L18.3182 32.1547Z" fill="white"/>
<path d="M56.3226 32.1539L50.7769 37.6997L56.3226 43.2455L61.8684 37.6997L56.3226 32.1539Z" fill="white"/>
</svg>
