<svg width="79" height="78" viewBox="0 0 79 78" fill="none" xmlns="http://www.w3.org/2000/svg">
<path d="M39.5312 0.814453C60.6066 0.814701 77.6914 17.9002 77.6914 38.9756C77.6912 60.0508 60.6064 77.1355 39.5312 77.1357C18.4558 77.1357 1.37036 60.0509 1.37012 38.9756C1.37012 17.9 18.4557 0.814453 39.5312 0.814453Z" fill="white" stroke="black"/>
<mask id="path-2-inside-1_235_5068" fill="white">
<path d="M38.7919 11.3139C40.1043 10.6293 41.7066 12.2169 41.0094 13.5293C40.6041 14.5982 39.068 14.8827 38.2837 14.068C37.4531 13.2847 37.724 11.7391 38.7919 11.3139ZM24.673 12.8353C25.471 12.5067 26.48 13.2374 26.3981 14.1068C26.4831 15.0507 25.3292 15.7448 24.5166 15.2964C23.4393 14.8796 23.5621 13.1314 24.673 12.8353ZM53.5911 15.3237C52.3448 15.1736 52.1474 13.2133 53.3475 12.8196C54.2777 12.366 55.1314 13.2164 55.2679 14.0984C55.0726 14.8512 54.4426 15.5411 53.5911 15.3237ZM27.8848 18.8453C29.2183 18.0022 31.1208 19.2579 30.915 20.8066C30.8457 22.37 28.7689 23.2761 27.5971 22.2188C26.4653 21.3883 26.6364 19.4837 27.8848 18.8453ZM48.2373 19.7399C48.8316 18.2069 51.2423 18.1607 51.9195 19.6527C52.5884 20.814 51.7652 22.2524 50.5735 22.6472C48.9943 22.9423 47.4939 21.235 48.2373 19.7399ZM37.092 22.5601C37.0794 21.2424 38.2795 20.2606 39.531 20.1714C40.3615 20.3383 41.2666 20.6922 41.6236 21.5301C42.2872 22.6861 41.6982 24.2778 40.498 24.8091C39.9489 25.1167 39.3 25.0012 38.7026 24.9655C37.7891 24.5161 37.0206 23.6363 37.092 22.5601ZM16.0937 24.4794C17.3117 23.7308 18.9549 25.0968 18.494 26.4197C18.2399 27.5642 16.7017 28.0293 15.8229 27.2996C14.8831 26.615 15.0322 24.9697 16.0937 24.4794ZM61.1844 24.4773C62.2176 23.6751 63.9227 24.5949 63.7999 25.9C63.8692 27.0896 62.395 27.9863 61.3692 27.3741C60.2394 26.866 60.1239 25.1283 61.1844 24.4773ZM42.9969 26.846C44.7021 26.2339 46.7275 26.9668 47.6997 28.4871C48.9817 30.3455 48.2993 33.1762 46.3096 34.2419C44.2485 35.503 41.2383 34.4341 40.477 32.1326C39.6129 30.0715 40.8718 27.4917 42.9969 26.846ZM32.9929 27.0487C34.8828 26.1562 37.4259 26.9048 38.3393 28.8378C39.4134 30.7193 38.5829 33.34 36.6625 34.3112C34.74 35.4032 32.0269 34.5758 31.0967 32.5557C30.052 30.6017 30.978 27.9485 32.9929 27.0487ZM22.9752 30.4736C23.119 29.2557 24.2677 28.464 25.4269 28.3821C26.6753 28.5323 27.6727 29.5024 27.8082 30.7666C27.7263 32.0171 26.7593 33.2403 25.4342 33.2329C23.9748 33.3579 22.697 31.9068 22.9752 30.4736ZM52.5632 28.6467C54.0604 27.7752 56.1393 29.0436 56.0732 30.7645C56.1761 32.5872 53.8746 33.8713 52.3836 32.8024C50.8349 31.911 50.9557 29.4048 52.5632 28.6467ZM28.9212 35.0704C30.6725 34.5884 32.6748 35.4137 33.5336 37.0233C34.4744 38.6434 34.0901 40.8945 32.6286 42.0831C30.7544 43.826 27.2979 43.1267 26.3004 40.7475C25.1549 38.5667 26.5472 35.6437 28.9212 35.0704ZM47.8971 35.0609C49.5991 34.5737 51.5993 35.23 52.5149 36.7808C53.7244 38.5541 53.1469 41.2001 51.3463 42.3435C49.4595 43.6706 46.5364 42.9745 45.498 40.8977C44.238 38.7505 45.5053 35.7161 47.8971 35.0609ZM17.6571 37.0853C19.1701 36.513 20.8469 38.1825 20.2338 39.6818C19.8589 41.0478 17.9333 41.5528 16.939 40.5459C15.7756 39.5999 16.2071 37.4947 17.6571 37.0853ZM58.6603 39.2618C58.6162 38.0082 59.5339 36.8984 60.819 36.8291C61.8553 36.9929 62.8623 37.8286 62.7804 38.9563C62.8749 40.4462 61.0805 41.4583 59.8111 40.7591C59.2157 40.4556 58.9112 39.8456 58.6603 39.2618ZM10.2192 37.8202C11.1295 37.4233 12.2551 38.2119 12.0472 39.223C11.9989 40.3674 10.3085 40.8074 9.68793 39.8508C9.13985 39.1873 9.46848 38.1625 10.2192 37.8202ZM67.6028 37.7982C68.2433 37.3414 69.2723 37.6701 69.5253 38.4187C69.9558 39.2366 69.1662 40.3569 68.2465 40.2183C66.955 40.3349 66.5361 38.3662 67.6028 37.7982ZM33.8644 43.2905C36.2593 42.6679 38.8338 44.6649 38.8485 47.1302C39.005 49.6218 36.4693 51.832 34.0177 51.2566C32.1225 50.9511 30.6357 49.1262 30.6977 47.2111C30.6924 45.381 32.0742 43.678 33.8644 43.2905ZM43.3487 43.2863C45.7794 42.607 48.4305 44.6397 48.3917 47.1628C48.5197 49.6082 46.0639 51.7438 43.6637 51.2587C41.4052 50.9668 39.7389 48.4847 40.3689 46.2934C40.687 44.8319 41.9071 43.6444 43.3487 43.2863ZM25.0625 44.8035C26.7446 44.5169 28.3216 46.3932 27.6391 47.9902C27.1415 49.6921 24.6646 50.1541 23.5695 48.7629C22.2854 47.4284 23.244 44.9883 25.0625 44.8035ZM52.876 44.8791C54.3754 44.2512 56.217 45.5479 56.1015 47.1764C56.1614 48.9677 53.8893 50.2035 52.4225 49.1577C50.7604 48.218 51.0628 45.4545 52.876 44.8791ZM60.65 52.6761C60.063 51.581 61.1298 50.131 62.3446 50.3337C62.9494 50.3232 63.3725 50.7999 63.76 51.1999C63.8398 51.8488 63.9731 52.6226 63.4345 53.1224C62.7037 54.0474 61.0469 53.7839 60.65 52.6761ZM16.0885 50.6382C17.2246 49.8822 18.8594 51.0099 18.6042 52.3381C18.4688 53.513 16.9894 54.1839 16.014 53.5172C14.9682 52.9124 15.007 51.1894 16.0885 50.6382ZM38.5304 53.0972C40.0172 52.441 41.9123 53.7356 41.7716 55.3735C41.8819 57.1836 39.5384 58.4373 38.0842 57.3506C36.4693 56.4161 36.7392 53.6705 38.5304 53.0972ZM28.1368 55.5215C29.4031 54.8548 31.103 56.0056 30.9875 57.4241C31.0263 58.5885 29.8903 59.5796 28.7416 59.4085C27.7903 59.3875 27.1698 58.5349 26.8643 57.7244C26.88 56.8392 27.2444 55.8554 28.1368 55.5215ZM49.1917 55.5415C50.4947 54.7362 52.3458 55.8922 52.2219 57.4083C52.2555 58.9927 50.1629 60.008 48.9502 58.9665C47.7764 58.1517 47.9192 56.1904 49.1917 55.5415ZM52.853 64.5943C52.2734 63.7176 52.9558 62.6613 53.8966 62.4618C54.6536 62.6161 55.4527 63.1842 55.2941 64.0619C55.1839 65.2473 53.4483 65.6117 52.853 64.5943ZM23.7879 63.832C24.0189 63.1369 24.5775 62.4471 25.3954 62.6277C26.5881 62.7127 26.942 64.5092 25.8983 65.0636C24.9596 65.6957 23.8708 64.8295 23.7879 63.832ZM37.8101 64.63C38.038 63.6021 39.3693 63.1023 40.246 63.6483C40.8256 63.8971 40.9947 64.546 41.1438 65.0961C41.064 65.3828 40.9926 65.6705 40.9233 65.9571C40.5642 66.3834 40.1032 66.8086 39.5058 66.7929C38.395 66.9231 37.3933 65.6684 37.8101 64.63Z"/>
</mask>
<path d="M38.7919 11.3139C40.1043 10.6293 41.7066 12.2169 41.0094 13.5293C40.6041 14.5982 39.068 14.8827 38.2837 14.068C37.4531 13.2847 37.724 11.7391 38.7919 11.3139ZM24.673 12.8353C25.471 12.5067 26.48 13.2374 26.3981 14.1068C26.4831 15.0507 25.3292 15.7448 24.5166 15.2964C23.4393 14.8796 23.5621 13.1314 24.673 12.8353ZM53.5911 15.3237C52.3448 15.1736 52.1474 13.2133 53.3475 12.8196C54.2777 12.366 55.1314 13.2164 55.2679 14.0984C55.0726 14.8512 54.4426 15.5411 53.5911 15.3237ZM27.8848 18.8453C29.2183 18.0022 31.1208 19.2579 30.915 20.8066C30.8457 22.37 28.7689 23.2761 27.5971 22.2188C26.4653 21.3883 26.6364 19.4837 27.8848 18.8453ZM48.2373 19.7399C48.8316 18.2069 51.2423 18.1607 51.9195 19.6527C52.5884 20.814 51.7652 22.2524 50.5735 22.6472C48.9943 22.9423 47.4939 21.235 48.2373 19.7399ZM37.092 22.5601C37.0794 21.2424 38.2795 20.2606 39.531 20.1714C40.3615 20.3383 41.2666 20.6922 41.6236 21.5301C42.2872 22.6861 41.6982 24.2778 40.498 24.8091C39.9489 25.1167 39.3 25.0012 38.7026 24.9655C37.7891 24.5161 37.0206 23.6363 37.092 22.5601ZM16.0937 24.4794C17.3117 23.7308 18.9549 25.0968 18.494 26.4197C18.2399 27.5642 16.7017 28.0293 15.8229 27.2996C14.8831 26.615 15.0322 24.9697 16.0937 24.4794ZM61.1844 24.4773C62.2176 23.6751 63.9227 24.5949 63.7999 25.9C63.8692 27.0896 62.395 27.9863 61.3692 27.3741C60.2394 26.866 60.1239 25.1283 61.1844 24.4773ZM42.9969 26.846C44.7021 26.2339 46.7275 26.9668 47.6997 28.4871C48.9817 30.3455 48.2993 33.1762 46.3096 34.2419C44.2485 35.503 41.2383 34.4341 40.477 32.1326C39.6129 30.0715 40.8718 27.4917 42.9969 26.846ZM32.9929 27.0487C34.8828 26.1562 37.4259 26.9048 38.3393 28.8378C39.4134 30.7193 38.5829 33.34 36.6625 34.3112C34.74 35.4032 32.0269 34.5758 31.0967 32.5557C30.052 30.6017 30.978 27.9485 32.9929 27.0487ZM22.9752 30.4736C23.119 29.2557 24.2677 28.464 25.4269 28.3821C26.6753 28.5323 27.6727 29.5024 27.8082 30.7666C27.7263 32.0171 26.7593 33.2403 25.4342 33.2329C23.9748 33.3579 22.697 31.9068 22.9752 30.4736ZM52.5632 28.6467C54.0604 27.7752 56.1393 29.0436 56.0732 30.7645C56.1761 32.5872 53.8746 33.8713 52.3836 32.8024C50.8349 31.911 50.9557 29.4048 52.5632 28.6467ZM28.9212 35.0704C30.6725 34.5884 32.6748 35.4137 33.5336 37.0233C34.4744 38.6434 34.0901 40.8945 32.6286 42.0831C30.7544 43.826 27.2979 43.1267 26.3004 40.7475C25.1549 38.5667 26.5472 35.6437 28.9212 35.0704ZM47.8971 35.0609C49.5991 34.5737 51.5993 35.23 52.5149 36.7808C53.7244 38.5541 53.1469 41.2001 51.3463 42.3435C49.4595 43.6706 46.5364 42.9745 45.498 40.8977C44.238 38.7505 45.5053 35.7161 47.8971 35.0609ZM17.6571 37.0853C19.1701 36.513 20.8469 38.1825 20.2338 39.6818C19.8589 41.0478 17.9333 41.5528 16.939 40.5459C15.7756 39.5999 16.2071 37.4947 17.6571 37.0853ZM58.6603 39.2618C58.6162 38.0082 59.5339 36.8984 60.819 36.8291C61.8553 36.9929 62.8623 37.8286 62.7804 38.9563C62.8749 40.4462 61.0805 41.4583 59.8111 40.7591C59.2157 40.4556 58.9112 39.8456 58.6603 39.2618ZM10.2192 37.8202C11.1295 37.4233 12.2551 38.2119 12.0472 39.223C11.9989 40.3674 10.3085 40.8074 9.68793 39.8508C9.13985 39.1873 9.46848 38.1625 10.2192 37.8202ZM67.6028 37.7982C68.2433 37.3414 69.2723 37.6701 69.5253 38.4187C69.9558 39.2366 69.1662 40.3569 68.2465 40.2183C66.955 40.3349 66.5361 38.3662 67.6028 37.7982ZM33.8644 43.2905C36.2593 42.6679 38.8338 44.6649 38.8485 47.1302C39.005 49.6218 36.4693 51.832 34.0177 51.2566C32.1225 50.9511 30.6357 49.1262 30.6977 47.2111C30.6924 45.381 32.0742 43.678 33.8644 43.2905ZM43.3487 43.2863C45.7794 42.607 48.4305 44.6397 48.3917 47.1628C48.5197 49.6082 46.0639 51.7438 43.6637 51.2587C41.4052 50.9668 39.7389 48.4847 40.3689 46.2934C40.687 44.8319 41.9071 43.6444 43.3487 43.2863ZM25.0625 44.8035C26.7446 44.5169 28.3216 46.3932 27.6391 47.9902C27.1415 49.6921 24.6646 50.1541 23.5695 48.7629C22.2854 47.4284 23.244 44.9883 25.0625 44.8035ZM52.876 44.8791C54.3754 44.2512 56.217 45.5479 56.1015 47.1764C56.1614 48.9677 53.8893 50.2035 52.4225 49.1577C50.7604 48.218 51.0628 45.4545 52.876 44.8791ZM60.65 52.6761C60.063 51.581 61.1298 50.131 62.3446 50.3337C62.9494 50.3232 63.3725 50.7999 63.76 51.1999C63.8398 51.8488 63.9731 52.6226 63.4345 53.1224C62.7037 54.0474 61.0469 53.7839 60.65 52.6761ZM16.0885 50.6382C17.2246 49.8822 18.8594 51.0099 18.6042 52.3381C18.4688 53.513 16.9894 54.1839 16.014 53.5172C14.9682 52.9124 15.007 51.1894 16.0885 50.6382ZM38.5304 53.0972C40.0172 52.441 41.9123 53.7356 41.7716 55.3735C41.8819 57.1836 39.5384 58.4373 38.0842 57.3506C36.4693 56.4161 36.7392 53.6705 38.5304 53.0972ZM28.1368 55.5215C29.4031 54.8548 31.103 56.0056 30.9875 57.4241C31.0263 58.5885 29.8903 59.5796 28.7416 59.4085C27.7903 59.3875 27.1698 58.5349 26.8643 57.7244C26.88 56.8392 27.2444 55.8554 28.1368 55.5215ZM49.1917 55.5415C50.4947 54.7362 52.3458 55.8922 52.2219 57.4083C52.2555 58.9927 50.1629 60.008 48.9502 58.9665C47.7764 58.1517 47.9192 56.1904 49.1917 55.5415ZM52.853 64.5943C52.2734 63.7176 52.9558 62.6613 53.8966 62.4618C54.6536 62.6161 55.4527 63.1842 55.2941 64.0619C55.1839 65.2473 53.4483 65.6117 52.853 64.5943ZM23.7879 63.832C24.0189 63.1369 24.5775 62.4471 25.3954 62.6277C26.5881 62.7127 26.942 64.5092 25.8983 65.0636C24.9596 65.6957 23.8708 64.8295 23.7879 63.832ZM37.8101 64.63C38.038 63.6021 39.3693 63.1023 40.246 63.6483C40.8256 63.8971 40.9947 64.546 41.1438 65.0961C41.064 65.3828 40.9926 65.6705 40.9233 65.9571C40.5642 66.3834 40.1032 66.8086 39.5058 66.7929C38.395 66.9231 37.3933 65.6684 37.8101 64.63Z" fill="#0033AD" stroke="black" stroke-width="2" mask="url(#path-2-inside-1_235_5068)"/>
</svg>
