<svg width="75" height="75" viewBox="0 0 75 75" fill="none" xmlns="http://www.w3.org/2000/svg">
<path d="M74.4838 37.7027C74.4838 17.3675 57.9989 0.882618 37.6638 0.882619C17.3286 0.88262 0.843748 17.3675 0.843748 37.7027C0.843749 58.0378 17.3286 74.5227 37.6638 74.5227C57.9989 74.5227 74.4838 58.0378 74.4838 37.7027Z" fill="#F238AD"/>
<path d="M37.6791 20.6358C43.5339 20.6358 48.2802 17.8756 48.2802 14.4708C48.2802 11.0659 43.5339 8.30579 37.6791 8.30579C31.8244 8.30579 27.0781 11.0659 27.0781 14.4708C27.0781 17.8756 31.8244 20.6358 37.6791 20.6358Z" fill="white"/>
<path d="M37.6791 67.0888C43.5339 67.0888 48.2802 64.3286 48.2802 60.9238C48.2802 57.5189 43.5339 54.7588 37.6791 54.7588C31.8244 54.7588 27.0781 57.5189 27.0781 60.9238C27.0781 64.3286 31.8244 67.0888 37.6791 67.0888Z" fill="white"/>
<path d="M12.2218 23.0008C15.1488 17.9308 19.9138 15.2018 22.8648 16.9058C25.8158 18.6098 25.8348 24.1008 22.9068 29.1708C19.9798 34.2408 15.2148 36.9698 12.2638 35.2658C9.31277 33.5618 9.29377 28.0708 12.2218 23.0008Z" fill="white"/>
<path d="M52.4549 46.2288C55.3819 41.1588 60.1459 38.4288 63.0939 40.1308C66.0429 41.8328 66.0599 47.3238 63.1329 52.3938C60.2059 57.4638 55.4419 60.1938 52.4939 58.4908C49.5449 56.7888 49.5269 51.2988 52.4549 46.2288Z" fill="white"/>
<path d="M12.2657 40.1298C15.2167 38.4258 19.9817 41.1548 22.9087 46.2248C25.8357 51.2948 25.8167 56.7858 22.8667 58.4898C19.9157 60.1938 15.1507 57.4648 12.2237 52.3948C9.29573 47.3248 9.31472 41.8338 12.2657 40.1298Z" fill="white"/>
<path d="M52.4955 16.9067C55.4445 15.2047 60.2075 17.9337 63.1345 23.0037C66.0615 28.0737 66.0445 33.5637 63.0955 35.2667C60.1465 36.9687 55.3835 34.2397 52.4565 29.1697C49.5295 24.0987 49.5465 18.6087 52.4955 16.9067Z" fill="white"/>
</svg>
