<svg width="81" height="80" viewBox="0 0 81 80" fill="none" xmlns="http://www.w3.org/2000/svg">
<path d="M40.4997 79.3638C62.4011 79.3638 80.1557 61.6092 80.1557 39.7079C80.1557 17.8065 62.4011 0.0518799 40.4997 0.0518799C18.5983 0.0518799 0.84375 17.8065 0.84375 39.7079C0.84375 61.6092 18.5983 79.3638 40.4997 79.3638Z" fill="#16222E"/>
<path d="M21.717 51.1875C22.053 50.8515 22.514 50.6555 23.004 50.6555H67.4095C68.2205 50.6555 68.6265 51.6345 68.0536 52.2085L59.2814 60.9807C58.9454 61.3167 58.4845 61.5127 57.9945 61.5127H13.5889C12.778 61.5127 12.3719 60.5337 12.9449 59.9597L21.717 51.1875Z" fill="url(#paint0_linear_235_5051)"/>
<path d="M21.717 18.4362C22.067 18.1002 22.528 17.9042 23.004 17.9042H67.4095C68.2205 17.9042 68.6265 18.8832 68.0536 19.4572L59.2814 28.2293C58.9454 28.5653 58.4845 28.7613 57.9945 28.7613H13.5889C12.778 28.7613 12.3719 27.7824 12.9449 27.2083L21.717 18.4362Z" fill="url(#paint1_linear_235_5051)"/>
<path d="M59.2814 34.7073C58.9454 34.3713 58.4845 34.1753 57.9945 34.1753H13.5889C12.778 34.1753 12.3719 35.1543 12.9449 35.7283L21.717 44.5004C22.053 44.8364 22.514 45.0325 23.004 45.0325H67.4095C68.2205 45.0325 68.6265 44.0535 68.0536 43.4794L59.2814 34.7073Z" fill="url(#paint2_linear_235_5051)"/>
<defs>
<linearGradient id="paint0_linear_235_5051" x1="12.6768" y1="56.0841" x2="68.3217" y2="56.0841" gradientUnits="userSpaceOnUse">
<stop stop-color="#D724FC"/>
<stop offset="1" stop-color="#4CB0C2"/>
</linearGradient>
<linearGradient id="paint1_linear_235_5051" x1="12.6768" y1="23.3328" x2="68.3217" y2="23.3328" gradientUnits="userSpaceOnUse">
<stop stop-color="#9D5FE4"/>
<stop offset="1" stop-color="#0EF9AF"/>
</linearGradient>
<linearGradient id="paint2_linear_235_5051" x1="12.6768" y1="39.6039" x2="68.3217" y2="39.6039" gradientUnits="userSpaceOnUse">
<stop stop-color="#B348EE"/>
<stop offset="1" stop-color="#3BC2BB"/>
</linearGradient>
</defs>
</svg>
