<svg width="82" height="81" viewBox="0 0 82 81" fill="none" xmlns="http://www.w3.org/2000/svg">
<path d="M41.0046 80.826C63.3151 80.826 81.2621 62.879 81.2621 40.5685C81.2621 18.2581 63.3151 0.311035 41.0046 0.311035C18.6941 0.311035 0.74707 18.2581 0.74707 40.5685C0.74707 62.8801 18.6941 80.826 41.0046 80.826Z" fill="#27A17C"/>
<path d="M46.2729 33.9121V27.9971H59.7295V18.6635H22.3762V27.9971H35.8707V33.9121C24.5654 34.4559 16.0781 36.7255 16.0781 39.4442C16.0781 42.163 24.5559 44.4184 35.8707 44.9763V64.4993H46.2729V44.9763C57.5782 44.4373 66.0654 42.1677 66.0654 39.4442C66.0654 36.7207 57.5876 34.4559 46.2729 33.9121ZM41.0718 43.2079C28.8303 43.2079 18.9056 41.3166 18.9056 39.0376C18.9056 37.0753 26.1352 35.4299 35.8612 34.9902V41.6712C37.535 41.7469 39.275 41.7894 41.0623 41.7894C42.8496 41.7894 44.5991 41.7469 46.2634 41.6712V34.9902C55.9895 35.4299 63.219 37.0753 63.219 39.0376C63.2379 41.3402 53.3133 43.2079 41.0718 43.2079Z" fill="white"/>
</svg>
