<svg width="81" height="80" viewBox="0 0 81 80" fill="none" xmlns="http://www.w3.org/2000/svg">
<g clip-path="url(#clip0_235_2054)">
<path d="M40.5 10.1562C43.3046 10.1562 45.5781 7.8827 45.5781 5.07812C45.5781 2.27355 43.3046 0 40.5 0C37.6954 0 35.4219 2.27355 35.4219 5.07812C35.4219 7.8827 37.6954 10.1562 40.5 10.1562Z" fill="white"/>
<path d="M45.5781 17.7343H47.9219V12.9031L51.1625 11.6062C51.7844 12.4104 52.6716 12.9677 53.6661 13.179C54.6605 13.3902 55.6976 13.2416 56.5927 12.7596C57.4879 12.2776 58.1828 11.4936 58.5539 10.5471C58.925 9.60058 58.948 8.55312 58.619 7.59121C58.2899 6.62931 57.6302 5.81543 56.7571 5.29452C55.8841 4.7736 54.8545 4.57948 53.8518 4.74672C52.849 4.91395 51.9381 5.43169 51.2814 6.20773C50.6247 6.98377 50.2647 7.96772 50.2656 8.98434C50.2655 9.13361 50.2734 9.28277 50.2891 9.43121L46.3141 11.0218C46.0958 11.1093 45.909 11.2604 45.7777 11.4554C45.6465 11.6505 45.5769 11.8805 45.5781 12.1156V17.7343Z" fill="white"/>
<path d="M26.4375 13.2813C27.0947 13.2814 27.7432 13.1305 28.3327 12.84C28.9223 12.5496 29.4371 12.1274 29.8375 11.6063L33.0781 12.9031V17.7344H35.4219V12.1094C35.4231 11.8743 35.3535 11.6443 35.2223 11.4492C35.091 11.2542 34.9042 11.1031 34.6859 11.0156L30.7109 9.43125C30.7267 9.28281 30.7345 9.13365 30.7344 8.98438C30.7344 8.13454 30.4824 7.30378 30.0102 6.59716C29.5381 5.89054 28.867 5.3398 28.0818 5.01458C27.2967 4.68936 26.4327 4.60427 25.5992 4.77007C24.7657 4.93586 24.0001 5.3451 23.3992 5.94603C22.7982 6.54696 22.389 7.31259 22.2232 8.1461C22.0574 8.97961 22.1425 9.84357 22.4677 10.6287C22.7929 11.4139 23.3437 12.085 24.0503 12.5571C24.7569 13.0292 25.5877 13.2813 26.4375 13.2813Z" fill="white"/>
<path d="M40.5 80C43.3046 80 45.5781 77.7264 45.5781 74.9219C45.5781 72.1173 43.3046 69.8438 40.5 69.8438C37.6954 69.8438 35.4219 72.1173 35.4219 74.9219C35.4219 77.7264 37.6954 80 40.5 80Z" fill="white"/>
<path d="M54.5625 66.7188C53.9053 66.7186 53.2569 66.8695 52.6673 67.16C52.0777 67.4504 51.5629 67.8726 51.1625 68.3938L47.9219 67.0969V62.2656H45.5781V67.8906C45.5769 68.1257 45.6465 68.3557 45.7777 68.5508C45.909 68.7459 46.0958 68.8969 46.3141 68.9844L50.2891 70.575C50.2734 70.7234 50.2655 70.8726 50.2656 71.0219C50.2669 71.8715 50.5199 72.7016 50.9928 73.4074C51.4657 74.1132 52.1372 74.663 52.9225 74.9872C53.7078 75.3115 54.5715 75.3957 55.4046 75.2292C56.2377 75.0627 57.0028 74.6529 57.6031 74.0518C58.2034 73.4506 58.612 72.6849 58.7773 71.8516C58.9426 71.0183 58.8571 70.1546 58.5317 69.3698C58.2063 68.5851 57.6556 67.9143 56.9491 67.4425C56.2426 66.9706 55.4121 66.7188 54.5625 66.7188Z" fill="white"/>
<path d="M35.4223 62.2656H33.0785V67.0969L29.8379 68.3937C29.216 67.5896 28.3288 67.0322 27.3343 66.821C26.3399 66.6098 25.3028 66.7584 24.4077 67.2404C23.5126 67.7224 22.8176 68.5064 22.4465 69.4529C22.0755 70.3994 22.0524 71.4468 22.3814 72.4087C22.7105 73.3706 23.3703 74.1845 24.2433 74.7054C25.1163 75.2264 26.1459 75.4205 27.1487 75.2532C28.1514 75.086 29.0623 74.5683 29.719 73.7922C30.3757 73.0162 30.7357 72.0322 30.7348 71.0156C30.7349 70.8664 30.727 70.7172 30.7113 70.5688L34.6863 68.9781C34.9046 68.8907 35.0914 68.7396 35.2227 68.5445C35.3539 68.3495 35.4235 68.1195 35.4223 67.8844V62.2656Z" fill="white"/>
<path d="M68.0938 41.1719C67.9688 40.3956 67.9688 39.6044 68.0938 38.8281H60.4219V24.375C60.4202 23.2359 59.967 22.1439 59.1615 21.3385C58.3561 20.533 57.2641 20.0798 56.125 20.0781H41.6719V12.4062C40.8956 12.5312 40.1044 12.5312 39.3281 12.4062V20.0781H24.875C23.7359 20.0798 22.6439 20.533 21.8385 21.3385C21.033 22.1439 20.5798 23.2359 20.5781 24.375V38.8281H12.9062C13.0312 39.6044 13.0312 40.3956 12.9062 41.1719H20.5781V55.625C20.5798 56.7641 21.033 57.8561 21.8385 58.6615C22.6439 59.467 23.7359 59.9202 24.875 59.9219H39.3281V67.5938C40.1044 67.4687 40.8956 67.4687 41.6719 67.5938V59.9219H56.125C57.2641 59.9202 58.3561 59.467 59.1615 58.6615C59.967 57.8561 60.4202 56.7641 60.4219 55.625V41.1719H68.0938ZM47.9219 44.6875C47.9201 45.9456 47.5141 47.1699 46.7638 48.1798C46.0136 49.1897 44.9587 49.9319 43.7547 50.2969V52.5C43.7547 52.8108 43.6312 53.1089 43.4115 53.3286C43.1917 53.5484 42.8936 53.6719 42.5828 53.6719C42.272 53.6719 41.9739 53.5484 41.7542 53.3286C41.5344 53.1089 41.4109 52.8108 41.4109 52.5V50.5469H39.5891V52.5C39.5891 52.8108 39.4656 53.1089 39.2458 53.3286C39.0261 53.5484 38.728 53.6719 38.4172 53.6719C38.1064 53.6719 37.8083 53.5484 37.5885 53.3286C37.3688 53.1089 37.2453 52.8108 37.2453 52.5V50.5469H34.25C33.9392 50.5469 33.6411 50.4234 33.4214 50.2036C33.2016 49.9839 33.0781 49.6858 33.0781 49.375C33.0781 49.0642 33.2016 48.7661 33.4214 48.5464C33.6411 48.3266 33.9392 48.2031 34.25 48.2031H36.2031V41.1719H34.25C33.9392 41.1719 33.6411 41.0484 33.4214 40.8286C33.2016 40.6089 33.0781 40.3108 33.0781 40C33.0781 39.6892 33.2016 39.3911 33.4214 39.1714C33.6411 38.9516 33.9392 38.8281 34.25 38.8281H36.2031V31.7969H34.25C33.9392 31.7969 33.6411 31.6734 33.4214 31.4536C33.2016 31.2339 33.0781 30.9358 33.0781 30.625C33.0781 30.3142 33.2016 30.0161 33.4214 29.7964C33.6411 29.5766 33.9392 29.4531 34.25 29.4531H37.2453V27.5C37.2453 27.1892 37.3688 26.8911 37.5885 26.6714C37.8083 26.4516 38.1064 26.3281 38.4172 26.3281C38.728 26.3281 39.0261 26.4516 39.2458 26.6714C39.4656 26.8911 39.5891 27.1892 39.5891 27.5V29.4531H41.4109V27.5C41.4109 27.1892 41.5344 26.8911 41.7542 26.6714C41.9739 26.4516 42.272 26.3281 42.5828 26.3281C42.8936 26.3281 43.1917 26.4516 43.4115 26.6714C43.6312 26.8911 43.7547 27.1892 43.7547 27.5V29.7031C44.7922 30.016 45.7226 30.6106 46.4424 31.4206C47.1621 32.2307 47.6431 33.2246 47.8317 34.2917C48.0204 35.3588 47.9093 36.4573 47.5109 37.4651C47.1125 38.4729 46.4424 39.3504 45.575 40C46.3034 40.5454 46.8947 41.2529 47.3021 42.0666C47.7094 42.8802 47.9216 43.7776 47.9219 44.6875Z" fill="white"/>
<path d="M75.4219 45.0781C78.2264 45.0781 80.5 42.8046 80.5 40C80.5 37.1954 78.2264 34.9219 75.4219 34.9219C72.6173 34.9219 70.3438 37.1954 70.3438 40C70.3438 42.8046 72.6173 45.0781 75.4219 45.0781Z" fill="white"/>
<path d="M71.516 49.7656C71.3667 49.7655 71.2176 49.7734 71.0691 49.7891L69.4785 45.8141C69.3911 45.5958 69.24 45.409 69.0449 45.2777C68.8499 45.1465 68.6199 45.0769 68.3848 45.0781H62.7598V47.4219H67.591L68.8879 50.6625C68.0837 51.2844 67.5264 52.1716 67.3151 53.1661C67.1039 54.1605 67.2525 55.1976 67.7345 56.0927C68.2165 56.9879 69.0006 57.6828 69.947 58.0539C70.8935 58.425 71.941 58.448 72.9029 58.119C73.8648 57.7899 74.6787 57.1302 75.1996 56.2571C75.7205 55.3841 75.9146 54.3545 75.7474 53.3518C75.5802 52.349 75.0624 51.4381 74.2864 50.7814C73.5103 50.1247 72.5264 49.7647 71.5098 49.7656H71.516Z" fill="white"/>
<path d="M69.4781 34.1859L71.0688 30.2109C71.2172 30.2266 71.3664 30.2345 71.5156 30.2344C72.5356 30.2363 73.5231 29.876 74.3021 29.2177C75.0812 28.5594 75.6012 27.6459 75.7695 26.6399C75.9378 25.634 75.7434 24.6009 75.221 23.7249C74.6986 22.8489 73.8821 22.1868 72.9171 21.8567C71.952 21.5266 70.9011 21.5499 69.9516 21.9224C69.0021 22.2949 68.2158 22.9924 67.7326 23.8907C67.2495 24.789 67.1011 25.8296 67.3137 26.8272C67.5264 27.8247 68.0863 28.7143 68.8938 29.3375L67.5969 32.5781H62.7656V34.9219H68.3906C68.6247 34.9218 68.8533 34.8517 69.0471 34.7205C69.241 34.5894 69.3911 34.4032 69.4781 34.1859Z" fill="white"/>
<path d="M5.57812 45.0781C8.3827 45.0781 10.6562 42.8046 10.6562 40C10.6562 37.1954 8.3827 34.9219 5.57812 34.9219C2.77355 34.9219 0.5 37.1954 0.5 40C0.5 42.8046 2.77355 45.0781 5.57812 45.0781Z" fill="white"/>
<path d="M11.5223 45.8141L9.93163 49.7891C9.78319 49.7733 9.63402 49.7655 9.48475 49.7656C8.46481 49.7637 7.4773 50.124 6.69824 50.7823C5.91917 51.4406 5.39916 52.3541 5.23088 53.3601C5.0626 54.366 5.25698 55.3991 5.77938 56.2751C6.30178 57.1511 7.11826 57.8132 8.08331 58.1433C9.04836 58.4734 10.0993 58.4501 11.0488 58.0776C11.9983 57.7051 12.7846 57.0075 13.2677 56.1093C13.7509 55.211 13.8993 54.1704 13.6867 53.1728C13.474 52.1753 12.9141 51.2857 12.1066 50.6625L13.4035 47.4219H18.2348V45.0781H12.6098C12.3757 45.0782 12.1471 45.1483 11.9532 45.2795C11.7594 45.4106 11.6093 45.5968 11.5223 45.8141Z" fill="white"/>
<path d="M9.48458 30.2343C9.63385 30.2344 9.78302 30.2266 9.93146 30.2108L11.5221 34.1858C11.6095 34.4041 11.7606 34.5909 11.9557 34.7222C12.1507 34.8534 12.3807 34.923 12.6158 34.9218H18.2408V32.578H13.4033L12.1065 29.3374C12.9106 28.7155 13.468 27.8283 13.6792 26.8338C13.8904 25.8394 13.7418 24.8023 13.2598 23.9072C12.7778 23.0121 11.9938 22.3171 11.0473 21.946C10.1008 21.575 9.05336 21.5519 8.09146 21.8809C7.12956 22.21 6.31568 22.8698 5.79476 23.7428C5.27385 24.6158 5.07972 25.6454 5.24696 26.6482C5.4142 27.6509 5.93194 28.5618 6.70797 29.2185C7.48401 29.8752 8.46796 30.2352 9.48458 30.2343Z" fill="white"/>
<path d="M42.0625 31.7969H38.5469V38.8281H42.0625C42.9949 38.8281 43.8891 38.4577 44.5484 37.7984C45.2077 37.1391 45.5781 36.2449 45.5781 35.3125C45.5781 34.3801 45.2077 33.4859 44.5484 32.8266C43.8891 32.1673 42.9949 31.7969 42.0625 31.7969Z" fill="white"/>
<path d="M42.0625 41.1719H38.5469V48.2031H42.0625C42.9949 48.2031 43.8891 47.8327 44.5484 47.1734C45.2077 46.5141 45.5781 45.6199 45.5781 44.6875C45.5781 43.7551 45.2077 42.8609 44.5484 42.2016C43.8891 41.5423 42.9949 41.1719 42.0625 41.1719Z" fill="white"/>
<rect x="23.5" y="23" width="33" height="33" fill="white"/>
<circle cx="40.5" cy="40" r="9.48927" fill="#FF150A"/>
<path d="M49.5206 37.0546C48.819 34.9059 47.3735 33.0783 45.4443 31.9006C43.5151 30.7229 41.2288 30.2725 38.9971 30.6305C36.7653 30.9885 34.7346 32.1314 33.2706 33.8534C31.8065 35.5754 31.0051 37.7634 31.0108 40.0237C31.0164 42.284 31.8287 44.468 33.3014 46.1827C34.774 47.8974 36.8104 49.0301 39.0439 49.3769C41.2774 49.7237 43.5614 49.2619 45.4847 48.0746C47.408 46.8873 48.8444 45.0524 49.5352 42.9003L43.5565 40.9811C43.3228 41.7092 42.8369 42.3299 42.1862 42.7315C41.5356 43.1332 40.763 43.2894 40.0074 43.1721C39.2519 43.0547 38.563 42.6716 38.0648 42.0915C37.5666 41.5115 37.2919 40.7726 37.29 40.008C37.2881 39.2434 37.5591 38.5032 38.0544 37.9207C38.5497 37.3382 39.2366 36.9516 39.9916 36.8305C40.7466 36.7094 41.52 36.8617 42.1726 37.2601C42.8252 37.6585 43.3142 38.2768 43.5515 39.0036L49.5206 37.0546Z" fill="white"/>
<path d="M52.8579 35.9649C51.8968 33.0213 49.9165 30.5175 47.2735 28.9041C44.6305 27.2907 41.4984 26.6737 38.441 27.1641C35.3836 27.6545 32.6016 29.2202 30.5959 31.5793C28.5901 33.9384 27.4923 36.936 27.5 40.0325C27.5078 43.129 28.6206 46.121 30.6381 48.4701C32.6556 50.8191 35.4453 52.3709 38.5052 52.846C41.565 53.3212 44.694 52.6885 47.3289 51.0619C49.9637 49.4354 51.9315 46.9217 52.8779 43.9733L49.5285 42.8982C48.8382 45.0487 47.4029 46.8822 45.481 48.0686C43.5591 49.255 41.2768 49.7165 39.045 49.3699C36.8131 49.0233 34.7783 47.8915 33.3067 46.1781C31.8351 44.4647 31.0234 42.2823 31.0178 40.0237C31.0122 37.7651 31.8129 35.5787 33.2759 33.8579C34.7389 32.1372 36.7681 30.9952 38.9982 30.6375C41.2283 30.2797 43.5128 30.7298 45.4406 31.9066C47.3684 33.0834 48.8128 34.9097 49.5139 37.0568L52.8579 35.9649Z" fill="#FF150A"/>
</g>
<defs>
<clipPath id="clip0_235_2054">
<rect width="80" height="80" fill="white" transform="translate(0.5)"/>
</clipPath>
</defs>
</svg>
