<svg width="65" height="64" viewBox="0 0 65 64" fill="none" xmlns="http://www.w3.org/2000/svg">
<g style="mix-blend-mode:color-dodge">
<path d="M18.5 15.9998V11.1758C17.9163 11.4408 17.3852 11.809 16.9323 12.2627L10.0283 19.292C9.64099 19.6972 9.32031 20.161 9.07812 20.6664H13.8333C15.0705 20.6649 16.2566 20.1727 17.1314 19.2979C18.0063 18.4231 18.4984 17.237 18.5 15.9998Z" fill="#C9D2DA"/>
<path d="M29.8333 10.6665H20.7373C20.434 10.6708 20.1315 10.7011 19.8333 10.7569V15.9998C19.8316 17.5906 19.1989 19.1157 18.074 20.2405C16.9492 21.3654 15.4241 21.9981 13.8333 21.9998H8.6008C8.53385 22.3389 8.50009 22.6836 8.5 23.0292V42.6665C8.5 44.081 9.0619 45.4375 10.0621 46.4377C11.0623 47.4379 12.4188 47.9998 13.8333 47.9998H29.8333C31.2478 47.9998 32.6044 47.4379 33.6046 46.4377C34.6048 45.4375 35.1667 44.081 35.1667 42.6665V15.9998C35.1667 14.5853 34.6048 13.2288 33.6046 12.2286C32.6044 11.2284 31.2478 10.6665 29.8333 10.6665ZM19.1667 31.3332H24.5C25.3841 31.3332 26.2319 31.6844 26.857 32.3095C27.4821 32.9346 27.8333 33.7824 27.8333 34.6665C27.8333 35.5506 27.4821 36.3984 26.857 37.0235C26.2319 37.6486 25.3841 37.9998 24.5 37.9998H22.5V39.9998C22.5 40.1766 22.4298 40.3462 22.3047 40.4712C22.1797 40.5963 22.0101 40.6665 21.8333 40.6665C21.6565 40.6665 21.487 40.5963 21.3619 40.4712C21.2369 40.3462 21.1667 40.1766 21.1667 39.9998V37.9998H16.5C16.3232 37.9998 16.1536 37.9296 16.0286 37.8046C15.9036 37.6796 15.8333 37.51 15.8333 37.3332C15.8333 37.1564 15.9036 36.9868 16.0286 36.8618C16.1536 36.7367 16.3232 36.6665 16.5 36.6665H24.5C25.0304 36.6665 25.5391 36.4558 25.9142 36.0807C26.2893 35.7056 26.5 35.1969 26.5 34.6665C26.5 34.1361 26.2893 33.6274 25.9142 33.2523C25.5391 32.8772 25.0304 32.6665 24.5 32.6665H19.1667C18.2826 32.6665 17.4348 32.3153 16.8096 31.6902C16.1845 31.0651 15.8333 30.2172 15.8333 29.3332C15.8333 28.4491 16.1845 27.6013 16.8096 26.9761C17.4348 26.351 18.2826 25.9998 19.1667 25.9998H21.1667V23.9998C21.1667 23.823 21.2369 23.6535 21.3619 23.5284C21.487 23.4034 21.6565 23.3332 21.8333 23.3332C22.0101 23.3332 22.1797 23.4034 22.3047 23.5284C22.4298 23.6535 22.5 23.823 22.5 23.9998V25.9998H27.1667C27.3435 25.9998 27.513 26.0701 27.6381 26.1951C27.7631 26.3201 27.8333 26.4897 27.8333 26.6665C27.8333 26.8433 27.7631 27.0129 27.6381 27.1379C27.513 27.2629 27.3435 27.3332 27.1667 27.3332H19.1667C18.6362 27.3332 18.1275 27.5439 17.7525 27.919C17.3774 28.294 17.1667 28.8027 17.1667 29.3332C17.1667 29.8636 17.3774 30.3723 17.7525 30.7474C18.1275 31.1225 18.6362 31.3332 19.1667 31.3332Z" fill="#C9D2DA"/>
<path d="M59.1667 40H43.1667C41.6939 40 40.5 41.1939 40.5 42.6667C40.5 44.1394 41.6939 45.3333 43.1667 45.3333H59.1667C60.6394 45.3333 61.8333 44.1394 61.8333 42.6667C61.8333 41.1939 60.6394 40 59.1667 40Z" fill="#C9D2DA"/>
<path d="M7.16699 42.6665V23.0297C7.17345 22.6821 7.20697 22.3355 7.26726 21.9932L4.68699 24.6132C3.71696 25.6252 3.17281 26.9713 3.16699 28.3732V47.9998C3.17114 49.413 3.73438 50.7672 4.73367 51.7665C5.73297 52.7658 7.08711 53.329 8.50033 53.3332H24.5003C25.6788 53.3274 26.8222 52.9319 27.7524 52.2084C28.6826 51.4848 29.3473 50.4739 29.643 49.3332H13.8337C12.0662 49.331 10.3717 48.628 9.12195 47.3782C7.87217 46.1284 7.16911 44.434 7.16699 42.6665Z" fill="#C9D2DA"/>
<path d="M46.5003 36.8763C46.5027 36.0878 46.3485 35.3068 46.0467 34.5783C45.745 33.8499 45.3017 33.1886 44.7425 32.6328L42.5342 30.4245C42.0993 29.9921 41.7546 29.4777 41.5199 28.9111C41.2852 28.3445 41.1653 27.737 41.167 27.1237V24.5317C41.9122 24.3881 42.5849 23.9912 43.0709 23.4082C43.5569 22.8253 43.8264 22.0923 43.8337 21.3333C43.8337 20.4493 43.4825 19.6014 42.8573 18.9763C42.2322 18.3512 41.3844 18 40.5003 18C39.6163 18 38.7684 18.3512 38.1433 18.9763C37.5182 19.6014 37.167 20.4493 37.167 21.3333C37.1743 22.0922 37.4438 22.8253 37.9298 23.4082C38.4158 23.9911 39.0884 24.3881 39.8337 24.5317V27.1237C39.8313 27.9122 39.9855 28.6932 40.2872 29.4217C40.589 30.1501 41.0323 30.8114 41.5915 31.3672L43.7998 33.5755C44.2347 34.0079 44.5794 34.5223 44.8141 35.0889C45.0488 35.6555 45.1687 36.263 45.167 36.8763V38.6667H46.5003V36.8763ZM38.5003 21.3333C38.5003 20.9378 38.6176 20.5511 38.8374 20.2222C39.0572 19.8933 39.3695 19.6369 39.735 19.4856C40.1004 19.3342 40.5025 19.2946 40.8905 19.3718C41.2785 19.4489 41.6348 19.6394 41.9145 19.9191C42.1942 20.1988 42.3847 20.5552 42.4619 20.9432C42.5391 21.3311 42.4995 21.7332 42.3481 22.0987C42.1967 22.4642 41.9404 22.7765 41.6115 22.9963C41.2826 23.216 40.8959 23.3333 40.5003 23.3333C39.9701 23.3328 39.4617 23.1219 39.0867 22.7469C38.7118 22.372 38.5009 21.8636 38.5003 21.3333Z" fill="#C9D2DA"/>
<path d="M51.833 29.8652C52.5782 29.7216 53.2509 29.3247 53.7369 28.7417C54.2229 28.1588 54.4924 27.4258 54.4997 26.6668C54.4997 25.7828 54.1485 24.9349 53.5234 24.3098C52.8982 23.6847 52.0504 23.3335 51.1663 23.3335C50.2823 23.3335 49.4344 23.6847 48.8093 24.3098C48.1842 24.9349 47.833 25.7828 47.833 26.6668C47.8403 27.4257 48.1098 28.1588 48.5958 28.7417C49.0818 29.3246 49.7545 29.7215 50.4997 29.8652V38.6668H51.833V29.8652ZM49.1663 26.6668C49.1663 26.2713 49.2836 25.8846 49.5034 25.5557C49.7232 25.2268 50.0355 24.9704 50.401 24.8191C50.7664 24.6677 51.1686 24.6281 51.5565 24.7053C51.9445 24.7824 52.3009 24.9729 52.5806 25.2526C52.8603 25.5323 53.0507 25.8887 53.1279 26.2766C53.2051 26.6646 53.1655 27.0667 53.0141 27.4322C52.8627 27.7976 52.6064 28.11 52.2775 28.3298C51.9486 28.5495 51.5619 28.6668 51.1663 28.6668C50.6361 28.6663 50.1277 28.4554 49.7528 28.0804C49.3778 27.7055 49.1669 27.1971 49.1663 26.6668Z" fill="#C9D2DA"/>
<path d="M57.167 36.8763C57.1653 36.263 57.2852 35.6555 57.5199 35.0889C57.7546 34.5223 58.0993 34.0079 58.5342 33.5755L60.7425 31.3672C61.3017 30.8114 61.745 30.1501 62.0467 29.4217C62.3485 28.6932 62.5027 27.9122 62.5003 27.1237V20.8763C62.5027 20.0878 62.3485 19.3068 62.0467 18.5783C61.745 17.8499 61.3017 17.1886 60.7425 16.6328L58.5342 14.4245C58.0993 13.9921 57.7546 13.4777 57.5199 12.9111C57.2852 12.3445 57.1653 11.737 57.167 11.1237V8.53173C57.9122 8.3881 58.5849 7.99117 59.0709 7.40825C59.5569 6.82532 59.8264 6.09226 59.8337 5.33333C59.8337 4.44928 59.4825 3.60143 58.8574 2.97631C58.2322 2.35119 57.3844 2 56.5003 2C55.6163 2 54.7684 2.35119 54.1433 2.97631C53.5182 3.60143 53.167 4.44928 53.167 5.33333C53.1743 6.09224 53.4438 6.82528 53.9298 7.4082C54.4158 7.99111 55.0884 8.38805 55.8337 8.53173V11.1237C55.8313 11.9122 55.9855 12.6932 56.2872 13.4217C56.589 14.1501 57.0323 14.8114 57.5915 15.3672L59.7998 17.5755C60.2347 18.0079 60.5794 18.5223 60.8141 19.0889C61.0488 19.6555 61.1687 20.263 61.167 20.8763V27.1237C61.1687 27.737 61.0488 28.3445 60.8141 28.9111C60.5794 29.4777 60.2347 29.9921 59.7998 30.4245L57.5915 32.6328C57.0323 33.1886 56.589 33.8499 56.2872 34.5783C55.9855 35.3068 55.8313 36.0878 55.8337 36.8763V38.6667H57.167V36.8763ZM54.5003 5.33333C54.5003 4.93777 54.6176 4.55109 54.8374 4.22219C55.0572 3.89329 55.3695 3.63695 55.735 3.48557C56.1004 3.3342 56.5025 3.29459 56.8905 3.37176C57.2785 3.44893 57.6348 3.63941 57.9145 3.91912C58.1942 4.19882 58.3847 4.55519 58.4619 4.94315C58.5391 5.33111 58.4995 5.73325 58.3481 6.0987C58.1967 6.46415 57.9404 6.77651 57.6115 6.99627C57.2826 7.21604 56.8959 7.33333 56.5003 7.33333C55.9701 7.33277 55.4617 7.12187 55.0867 6.74692C54.7118 6.37197 54.5009 5.86359 54.5003 5.33333Z" fill="#C9D2DA"/>
<path d="M50.4997 55.9998C50.4981 57.237 50.006 58.4231 49.1311 59.298C48.2563 60.1728 47.0702 60.665 45.833 60.6665H21.833C20.5958 60.665 19.4097 60.1728 18.5349 59.298C17.6601 58.4231 17.1679 57.237 17.1663 55.9998V54.6665H15.833V55.9998C15.8348 57.5906 16.4675 59.1157 17.5923 60.2405C18.7172 61.3654 20.2423 61.9981 21.833 61.9998H45.833C47.4238 61.9981 48.9489 61.3654 50.0737 60.2405C51.1985 59.1157 51.8312 57.5906 51.833 55.9998V46.6665H50.4997V55.9998Z" fill="#C9D2DA"/>
</g>
</svg>
