<svg width="65" height="64" viewBox="0 0 65 64" fill="none" xmlns="http://www.w3.org/2000/svg">
<path fill-rule="evenodd" clip-rule="evenodd" d="M13.6803 12.2199L17.8603 16.4011C18.3503 16.8911 19.0053 17.1611 19.7015 17.1611C20.3978 17.1611 21.0528 16.8911 21.5428 16.4011L25.7228 12.2199C26.0153 11.9274 26.4903 11.9274 26.784 12.2199C27.0765 12.5124 27.0765 12.9874 26.784 13.2811L22.604 17.4624C21.8303 18.2361 20.799 18.6624 19.7015 18.6624C18.604 18.6624 17.5728 18.2361 16.799 17.4624L12.619 13.2811C12.3265 12.9886 12.3265 12.5136 12.619 12.2199C12.9128 11.9274 13.3878 11.9274 13.6803 12.2199ZM34.244 45.0736H29.3803V51.1311H34.244C35.914 51.1311 37.2728 49.7724 37.2728 48.1024C37.2728 46.4324 35.914 45.0736 34.244 45.0736ZM36.6128 41.0336C36.6128 39.6324 35.4728 38.4936 34.0728 38.4936H29.3803V43.5736H34.129C34.1328 43.5736 34.1353 43.5724 34.139 43.5724C35.5028 43.5374 36.6128 42.3986 36.6128 41.0336ZM32.4503 30.6936C40.2353 30.6936 46.569 37.0274 46.569 44.8124C46.569 52.5974 40.2353 58.9311 32.4503 58.9311C24.6653 58.9311 18.3315 52.5974 18.3315 44.8124C18.3315 37.0261 24.6653 30.6936 32.4503 30.6936ZM48.3103 44.8124C48.3103 53.5574 41.1953 60.6724 32.4515 60.6724C23.7065 60.6724 16.5915 53.5574 16.5915 44.8124C16.5915 36.0674 23.7065 28.9524 32.4515 28.9524C41.1953 28.9524 48.3103 36.0674 48.3103 44.8124ZM45.069 44.8124C45.069 51.7711 39.4078 57.4311 32.4503 57.4311C25.4928 57.4311 19.8315 51.7699 19.8315 44.8124C19.8315 37.8536 25.4928 32.1936 32.4503 32.1936C39.409 32.1924 45.069 37.8536 45.069 44.8124ZM34.0728 36.9936C36.3003 36.9936 38.1128 38.8061 38.1128 41.0336C38.1128 42.3111 37.5003 43.4649 36.554 44.2086C37.8803 44.9986 38.7715 46.4486 38.7715 48.1011C38.7715 50.5974 36.7403 52.6299 34.244 52.6299H33.2415V54.3061C33.2415 54.7199 32.9053 55.0561 32.4915 55.0561C32.0765 55.0561 31.7415 54.7199 31.7415 54.3061V52.6299H30.6378V54.3061C30.6378 54.7199 30.3015 55.0561 29.8878 55.0561C29.474 55.0561 29.1378 54.7199 29.1378 54.3061V52.6299H26.879C26.4653 52.6299 26.129 52.2936 26.129 51.8799C26.129 51.4649 26.4653 51.1299 26.879 51.1299H27.8815V38.4924H26.879C26.4653 38.4924 26.129 38.1561 26.129 37.7424C26.129 37.3286 26.4653 36.9924 26.879 36.9924H29.1378V35.3161C29.1378 34.9011 29.474 34.5661 29.8878 34.5661C30.3028 34.5661 30.6378 34.9024 30.6378 35.3161V36.9924H31.7415V35.3161C31.7415 34.9011 32.0778 34.5661 32.4915 34.5661C32.9053 34.5661 33.2415 34.9024 33.2415 35.3161V36.9924H34.0728V36.9936ZM44.8215 26.0124L41.8765 24.0774L45.234 28.6511L48.5915 24.0774L45.6465 26.0124C45.3953 26.1774 45.0715 26.1774 44.8215 26.0124ZM45.234 10.0574L40.1753 18.1249L45.234 20.9374L50.2928 18.1249L45.234 10.0574ZM45.234 6.66236C38.2753 6.66236 32.6153 12.3236 32.6153 19.2811C32.6153 22.4536 33.7903 25.4699 35.9265 27.8024C38.9715 28.4236 41.729 29.8461 43.969 31.8361C44.3878 31.8774 44.8128 31.8999 45.234 31.8999C52.1915 31.8999 57.854 26.2386 57.854 19.2799C57.8528 12.3236 52.1915 6.66236 45.234 6.66236ZM38.484 17.9974L44.5978 8.24736C44.7353 8.02861 44.9753 7.89611 45.2328 7.89611C45.4903 7.89611 45.7315 8.02861 45.8678 8.24736L51.9815 17.9974C52.0903 18.1724 52.1228 18.3836 52.0715 18.5824C52.0203 18.7811 51.8903 18.9511 51.7103 19.0511L45.5965 22.4499C45.4828 22.5136 45.3578 22.5449 45.2315 22.5449C45.1053 22.5449 44.9803 22.5136 44.8665 22.4499L38.7528 19.0511C38.5728 18.9511 38.4415 18.7811 38.3903 18.5824C38.3428 18.3824 38.3753 18.1711 38.484 17.9974ZM39.219 20.5361C38.9153 20.3361 38.5128 20.3836 38.2628 20.6461C38.0128 20.9099 37.9878 21.3136 38.2015 21.6061L44.629 30.3624C44.7703 30.5549 44.994 30.6686 45.234 30.6686C45.4728 30.6686 45.6965 30.5549 45.839 30.3624L52.2665 21.6061C52.4815 21.3136 52.4553 20.9099 52.2053 20.6461C51.9553 20.3824 51.5528 20.3361 51.2503 20.5361L45.2353 24.4886L39.219 20.5361ZM45.234 3.42236C36.489 3.42236 29.374 10.5374 29.374 19.2824C29.374 22.1849 30.1615 25.0061 31.6515 27.4724C31.9165 27.4611 32.1828 27.4536 32.4503 27.4536C32.8878 27.4536 33.3215 27.4699 33.7515 27.5024C32.0403 25.1186 31.1128 22.2624 31.1128 19.2824C31.1128 11.4974 37.4465 5.16361 45.2328 5.16361C53.0178 5.16361 59.3515 11.4974 59.3515 19.2824C59.3515 26.9724 53.1715 33.2461 45.5165 33.3986C45.979 33.9274 46.409 34.4836 46.8065 35.0649C54.8503 34.2711 61.0915 27.4199 61.0915 19.2824C61.0928 10.5361 53.979 3.42236 45.234 3.42236ZM19.7028 5.16236C23.8565 5.16236 27.8028 7.00986 30.4728 10.1549C30.789 9.64486 31.1315 9.15361 31.4965 8.68111C28.4865 5.33236 24.2228 3.42236 19.7028 3.42236C10.9578 3.42236 3.84277 10.5374 3.84277 19.2824C3.84277 27.4024 10.069 34.2511 18.0953 35.0611C18.4903 34.4811 18.9215 33.9249 19.3828 33.3974C11.744 33.2274 5.58402 26.9611 5.58402 19.2824C5.58402 11.4961 11.9178 5.16236 19.7028 5.16236ZM19.7028 6.66236C12.7453 6.66236 7.08402 12.3236 7.08402 19.2811C7.08402 26.2399 12.7453 31.8999 19.7028 31.8999C20.1103 31.8999 20.5215 31.8799 20.9265 31.8399C23.4178 29.6236 26.5503 28.1136 30.0078 27.6249C28.609 25.0761 27.874 22.2161 27.874 19.2811C27.874 16.5111 28.5278 13.8899 29.6878 11.5636C27.3028 8.48736 23.604 6.66236 19.7028 6.66236ZM22.6053 21.1024L26.7853 25.2824C27.0778 25.5749 27.0778 26.0499 26.7853 26.3436C26.639 26.4899 26.4465 26.5636 26.2553 26.5636C26.0628 26.5636 25.8715 26.4911 25.7253 26.3436L21.5453 22.1636C21.0553 21.6736 20.4003 21.4036 19.704 21.4036C19.0078 21.4036 18.3528 21.6736 17.8628 22.1636L13.6828 26.3436C13.3903 26.6361 12.9153 26.6361 12.6215 26.3436C12.329 26.0511 12.329 25.5761 12.6215 25.2824L16.8015 21.1024C17.5753 20.3286 18.6065 19.9024 19.704 19.9024C20.8015 19.9024 21.8315 20.3286 22.6053 21.1024Z" fill="#FF150A"/>
</svg>
