<svg width="140" height="140" viewBox="0 0 140 140" fill="none" xmlns="http://www.w3.org/2000/svg">
<path d="M140 61.9062C140 50.0117 131.715 40.0313 120.613 37.4063V33.2773C120.613 24.3633 113.34 17.0898 104.426 17.0898H87.2266L76.9453 6.83594C73.8828 3.80078 69.8359 2.10547 65.5156 2.10547C61.1953 2.10547 57.1484 3.80078 54.0859 6.83594L43.8047 17.0898H26.6875C17.7734 17.0898 10.5 24.3633 10.5 33.2773V50.2578L0.792969 59.9648C0.273438 60.4844 0 61.168 0 61.9062V121.68C0 130.594 7.27344 137.867 16.1875 137.867H114.844C123.758 137.867 131.031 130.594 131.031 121.68V81.1289C136.5 76.5078 140 69.6172 140 61.9062ZM137.266 61.9062C137.266 74.293 127.23 84.3281 114.844 84.3281C102.457 84.3281 92.4219 74.293 92.4219 61.9062C92.4219 49.5195 102.457 39.4844 114.844 39.4844C127.23 39.4844 137.266 49.5195 137.266 61.9062ZM56.0273 8.77734C61.2773 3.55469 69.7812 3.55469 75.0312 8.77734L83.3711 17.0898H47.6602L56.0273 8.77734ZM13.2617 33.3047C13.2617 25.8672 19.2773 19.8516 26.7148 19.8516H104.453C111.891 19.8516 117.906 25.8672 117.906 33.3047V36.9141C116.922 36.8047 115.883 36.7227 114.871 36.7227C101.008 36.7227 89.7148 48.0156 89.7148 61.8789C89.7148 71.2852 94.8828 79.4883 102.539 83.8086L91.7109 94.6094L76.9453 79.8437C73.8828 76.7812 69.8086 75.1133 65.4883 75.1133C61.168 75.1133 57.0938 76.8086 54.0313 79.8437L39.1836 94.6914L13.207 68.7148V33.3047H13.2617ZM10.5273 54.1406V65.9805L4.67578 60.1289C4.64844 60.1016 4.62109 60.0742 4.59375 60.0469L10.5273 54.1406ZM2.73438 121.68V62.0703L37.2969 96.6328L4.92188 129.008C3.52734 126.902 2.73438 124.387 2.73438 121.68ZM114.844 135.133H16.1875C12.4414 135.133 9.07812 133.602 6.64453 131.141L56 81.7852C61.25 76.5352 69.7812 76.5352 75.0312 81.7852L124.387 131.141C121.953 133.629 118.59 135.133 114.844 135.133ZM128.297 121.68C128.297 124.387 127.504 126.902 126.109 129.008L93.6523 96.5508L105.109 85.0938C108.117 86.3516 111.398 87.0625 114.844 87.0625C119.793 87.0625 124.414 85.6406 128.297 83.1523V121.68Z" fill="white"/>
<circle cx="115" cy="62.0003" r="13.139" fill="white"/>
<path d="M127.49 57.922C126.519 54.947 124.517 52.4164 121.846 50.7858C119.175 49.1551 116.009 48.5315 112.919 49.0272C109.829 49.5229 107.017 51.1053 104.99 53.4896C102.963 55.8739 101.854 58.9035 101.861 62.0331C101.869 65.1628 102.994 68.1868 105.033 70.561C107.072 72.9351 109.892 74.5035 112.984 74.9837C116.077 75.4639 119.239 74.8245 121.902 73.1805C124.565 71.5366 126.554 68.996 127.511 66.0161L119.232 63.3588C118.909 64.3668 118.236 65.2263 117.335 65.7824C116.434 66.3385 115.364 66.5548 114.318 66.3924C113.272 66.2299 112.318 65.6994 111.629 64.8962C110.939 64.0931 110.558 63.0701 110.556 62.0114C110.553 60.9527 110.928 59.9279 111.614 59.1213C112.3 58.3147 113.251 57.7794 114.296 57.6117C115.342 57.444 116.413 57.655 117.316 58.2066C118.22 58.7582 118.897 59.6143 119.225 60.6207L127.49 57.922Z" fill="#F78B1D"/>
<path d="M132.111 56.4129C130.78 52.3372 128.038 48.8703 124.379 46.6364C120.719 44.4025 116.382 43.5481 112.149 44.2272C107.916 44.9063 104.064 47.0741 101.287 50.3406C98.5094 53.607 96.9893 57.7575 97.0001 62.045C97.0108 66.3324 98.5515 70.4753 101.345 73.7278C104.139 76.9803 108.001 79.1289 112.238 79.7868C116.475 80.4447 120.807 79.5687 124.455 77.3165C128.104 75.0643 130.828 71.5839 132.139 67.5015L127.501 66.0128C126.545 68.9905 124.558 71.5292 121.897 73.1719C119.236 74.8147 116.076 75.4536 112.985 74.9737C109.895 74.4939 107.078 72.9267 105.04 70.5543C103.002 68.1819 101.879 65.1601 101.871 62.0328C101.863 58.9055 102.972 55.8781 104.997 53.4956C107.023 51.113 109.833 49.5318 112.921 49.0365C116.008 48.5412 119.172 49.1643 121.841 50.7938C124.51 52.4232 126.51 54.9519 127.481 57.9247L132.111 56.4129Z" fill="white"/>
</svg>
