<svg width="65" height="64" viewBox="0 0 65 64" fill="none" xmlns="http://www.w3.org/2000/svg">
<path d="M58.5503 38.7752L59.9128 42.1627C59.1878 42.6502 58.4253 43.1252 57.6628 43.5502L56.2753 40.1002C57.0878 39.6752 57.8503 39.2252 58.5503 38.7752ZM30.1503 17.8252C29.7003 13.8127 29.7128 10.1377 30.1128 7.4502C30.4503 5.1127 30.9753 3.6252 31.6003 3.5627C32.2253 3.4877 33.0753 4.8252 33.9253 7.0252C34.9128 9.5627 35.7503 13.1377 36.2003 17.1502C36.6503 21.1627 36.6378 24.8377 36.2378 27.5252C35.8878 29.8627 35.3628 31.3502 34.7378 31.4127C34.1128 31.4877 33.2628 30.1502 32.4128 27.9502C32.1128 27.1752 31.8253 26.2877 31.5503 25.3377C31.5378 25.3127 31.5378 25.2877 31.5253 25.2502C31.1753 23.9877 30.8628 22.5752 30.6003 21.0752C30.6003 21.0627 30.6003 21.0627 30.5878 21.0502C30.4378 20.0127 30.2753 18.9377 30.1503 17.8252ZM30.0003 13.4752C30.0378 13.8752 30.3378 14.2002 30.7253 14.2627L31.1503 17.5377C30.8378 17.7002 30.6378 18.0377 30.6753 18.4002C30.7128 18.8002 31.0003 19.1252 31.3753 19.2127L31.7628 22.1377C31.4628 22.3002 31.2753 22.6252 31.3003 22.9752C31.3253 23.3752 31.6128 23.7002 31.9753 23.7877L32.0378 24.3127C32.1003 24.8002 32.5503 25.1502 33.0503 25.0877C33.5378 25.0252 33.8878 24.5752 33.8253 24.0752L33.7753 23.7002L34.0128 23.6877L34.0753 24.1752C34.1378 24.6627 34.5878 25.0252 35.0753 24.9627C35.5628 24.9002 35.9253 24.4502 35.8628 23.9627L35.7503 23.0127C35.8878 22.8252 36.0128 22.6127 36.1003 22.3627C36.2128 22.0752 36.2878 21.7377 36.3253 21.3752C36.3628 21.0377 36.3628 20.6877 36.3128 20.3127C36.2753 19.9377 36.2003 19.5752 36.1003 19.2502C35.9878 18.9002 35.8378 18.5752 35.6753 18.3002C35.6128 18.1877 35.5378 18.0877 35.4628 18.0002C35.5128 17.8877 35.5628 17.7752 35.6128 17.6627C35.7253 17.3627 35.7878 17.0127 35.8253 16.6127C35.8628 16.2627 35.8628 15.8752 35.8128 15.4877C35.7753 15.0877 35.6878 14.7002 35.5878 14.3502C35.4753 13.9752 35.3253 13.6377 35.1503 13.3502C34.9503 13.0252 34.7128 12.7502 34.4503 12.5627C34.4003 12.5252 34.3628 12.5002 34.3128 12.4752L34.2003 11.5377C34.1378 11.0502 33.6878 10.6877 33.2003 10.7502C32.7128 10.8127 32.3503 11.2502 32.4128 11.7502L32.4753 12.3252L32.2878 12.3502L32.1878 11.6127C32.1253 11.1252 31.6753 10.7752 31.1753 10.8377C30.6878 10.9002 30.3378 11.3502 30.4003 11.8502L30.5003 12.5752C30.1753 12.7377 29.9628 13.0877 30.0003 13.4752ZM25.1878 22.6002C25.3753 23.5002 25.5753 24.3502 25.8128 25.1627L29.5628 24.7627C29.3628 23.9502 29.1753 23.0877 29.0003 22.2002L25.1878 22.6002ZM30.0378 26.5127L26.3378 26.9002C26.5378 27.4752 26.7503 28.0252 26.9753 28.5252C27.9378 30.7377 28.9503 32.0627 29.7753 31.9752L32.3753 31.6752C31.7878 30.9002 31.2503 29.8627 30.7503 28.6002C30.5003 27.9627 30.2628 27.2627 30.0378 26.5127ZM28.1378 9.0002L24.5003 9.3877C24.4753 9.66269 24.4503 9.9377 24.4253 10.2127C24.3753 10.8127 24.3378 11.4252 24.3253 12.0252L28.0128 11.6377C28.0378 10.7127 28.0753 9.8252 28.1378 9.0002ZM28.3628 17.9752L28.3503 17.8377L24.5003 18.2502C24.5128 18.3127 24.5128 18.3627 24.5128 18.4127C24.5253 18.4502 24.5253 18.4877 24.5253 18.5252C24.6128 19.3127 24.7253 20.0877 24.8503 20.8377L28.6878 20.4377C28.5628 19.6752 28.4628 18.8877 28.3753 18.1002C28.3628 18.0502 28.3628 18.0127 28.3628 17.9752ZM29.2378 3.8252L26.6378 4.1252C25.6878 4.2377 25.1128 5.6627 24.7503 7.5627L28.3378 7.1877C28.5378 5.8377 28.8378 4.7127 29.2378 3.8252ZM33.9753 19.0502H33.9628H33.9503H33.9253H33.9128H33.8878H33.8503H33.8378H33.8128H33.8003H33.7753H33.7628H33.7378H33.7253H33.7003H33.6878H33.6503H33.6128H33.6003L33.4878 19.0627H33.4128H33.3753H33.3378H33.3253H33.3003H33.2878H33.2503H33.2378H33.2128H33.2003H33.1753H33.1628H33.1378H33.1253L33.4878 21.8752L34.3003 21.8252C34.3253 21.7877 34.3378 21.7377 34.3628 21.6877C34.4128 21.5377 34.4503 21.3627 34.4753 21.1627C34.5003 20.9502 34.5003 20.7127 34.4628 20.4627C34.4378 20.2127 34.3878 19.9752 34.3128 19.7502C34.2378 19.5377 34.1628 19.3502 34.0753 19.2127C34.0753 19.1627 34.0253 19.1002 33.9753 19.0502ZM47.8003 38.7877L47.4878 38.0502C47.4253 38.0252 47.3503 38.0127 47.2503 38.0127C47.0753 38.0002 46.8753 38.0252 46.6503 38.0627C46.4253 38.1002 46.1878 38.1752 45.9503 38.2752C45.7128 38.3752 45.5003 38.4877 45.3253 38.6002C45.1503 38.7127 45.0003 38.8377 44.9003 38.9502C44.8628 39.0002 44.8253 39.0502 44.8003 39.0877L45.1128 39.8127L47.8003 38.7877ZM52.5253 36.9877L52.2003 36.1627C52.1378 36.1377 52.0378 36.1252 51.9253 36.1252C51.7378 36.1127 51.5128 36.1377 51.2628 36.1877C51.0128 36.2377 50.7503 36.3127 50.4878 36.4252C50.2253 36.5377 49.9878 36.6502 49.7878 36.7877C49.5878 36.9127 49.4253 37.0502 49.3003 37.1877C49.2378 37.2502 49.1878 37.3127 49.1628 37.3627C49.2753 37.6252 49.3878 37.8877 49.4878 38.1502L52.5253 36.9877ZM63.5628 37.8127L62.6003 35.3877C62.0128 36.1502 61.1503 36.9502 60.0628 37.7502L61.4003 41.0752C62.9003 39.8627 63.9003 38.6627 63.5628 37.8127ZM33.3628 17.3002H33.3753H33.3878H33.4003L33.7628 17.2752H33.7753H33.7878H33.8003C33.8253 17.2252 33.8628 17.1627 33.8878 17.0877C33.9503 16.9127 34.0003 16.7127 34.0128 16.4877C34.0378 16.2502 34.0378 15.9877 34.0003 15.7002C33.9753 15.4252 33.9128 15.1502 33.8378 14.9127C33.7628 14.6752 33.6753 14.4627 33.5753 14.3002C33.5128 14.1877 33.4503 14.1127 33.4003 14.0627L32.5128 14.1502L32.9253 17.3502L33.3628 17.3002ZM38.3878 40.3002C40.5753 38.6877 43.8128 36.9502 47.5628 35.4627C51.3253 33.9752 54.8753 33.0377 57.5628 32.7252C59.9128 32.4502 61.4878 32.5752 61.7128 33.1627C61.9378 33.7502 60.8878 34.9002 58.9753 36.3002C56.7878 37.9127 53.5503 39.6502 49.7878 41.1377C46.0253 42.6252 42.4753 43.5627 39.7878 43.8752C37.4378 44.1502 35.8628 44.0252 35.6378 43.4502C35.4253 42.8627 36.4878 41.7002 38.3878 40.3002ZM41.7253 39.9002C41.9003 40.3627 42.4253 40.5877 42.8878 40.4127L43.3378 40.2377L43.4128 40.4252L43.4253 40.4502L43.0503 40.5877C42.5878 40.7627 42.3503 41.2752 42.5253 41.7377C42.7003 42.2002 43.2128 42.4377 43.6753 42.2627L44.1878 42.0752C44.4378 42.3502 44.8503 42.4377 45.2003 42.2877C45.5253 42.1377 45.7378 41.8252 45.7378 41.4877L48.5253 40.4377C48.7753 40.7127 49.1878 40.8252 49.5503 40.6752C49.8878 40.5252 50.1003 40.2002 50.1003 39.8502L53.2378 38.6627C53.4753 38.9502 53.8878 39.0627 54.2628 38.9252C54.6253 38.7877 54.8378 38.4252 54.8253 38.0627L55.5253 37.7877C55.9878 37.6127 56.2253 37.1002 56.0503 36.6377C55.8753 36.1752 55.3628 35.9377 54.9003 36.1127L54.2128 36.3752L54.1503 36.2127L54.7128 36.0002C55.1753 35.8252 55.4003 35.3002 55.2253 34.8377C55.0503 34.3752 54.5253 34.1502 54.0628 34.3252L53.1878 34.6627C53.1378 34.6377 53.1003 34.6127 53.0503 34.5877C52.7628 34.4502 52.4128 34.3627 52.0253 34.3502C51.6878 34.3377 51.3128 34.3627 50.9378 34.4377C50.5753 34.5127 50.2003 34.6127 49.8378 34.7752C49.4753 34.9252 49.1378 35.1002 48.8253 35.3002C48.5003 35.5127 48.2128 35.7502 48.0003 35.9877C47.9128 36.0877 47.8253 36.1752 47.7628 36.2752C47.6378 36.2502 47.5128 36.2377 47.3878 36.2377C47.0628 36.2252 46.7128 36.2502 46.3503 36.3127C46.0128 36.3752 45.6628 36.4877 45.3128 36.6252C44.9628 36.7627 44.6503 36.9377 44.3628 37.1252C44.0628 37.3252 43.8003 37.5502 43.5878 37.7877C43.4128 37.9877 43.2753 38.2002 43.1753 38.4127L42.2753 38.7627C41.7753 38.9127 41.5503 39.4377 41.7253 39.9002ZM28.1753 16.0502C28.1128 15.1627 28.0628 14.2877 28.0378 13.4377L24.3003 13.8377C24.3003 14.8002 24.3378 15.6877 24.3753 16.4502L28.1753 16.0502ZM8.92532 42.3002C9.77532 42.7502 10.5753 43.1377 11.2753 43.4627L12.7003 39.9252C11.8753 39.5627 11.0878 39.2002 10.3378 38.8252L8.92532 42.3002ZM50.4628 42.8127C49.7003 43.1127 48.9378 43.3877 48.2003 43.6502L49.6378 47.2252C50.3753 46.9752 51.1253 46.7002 51.8753 46.4127C51.9378 46.3877 52.0003 46.3627 52.0753 46.3252L50.6378 42.7502C50.5878 42.7627 50.5253 42.7877 50.4628 42.8127ZM14.3628 40.6127L12.9253 44.1877C13.0003 44.2252 13.0753 44.2502 13.1253 44.2752C13.8878 44.5752 14.6253 44.8502 15.3628 45.1002L16.8003 41.5252C16.0503 41.2627 15.3003 40.9877 14.5378 40.6877C14.4753 40.6627 14.4128 40.6377 14.3628 40.6127ZM27.5128 45.9752L28.4753 43.5502C27.5128 43.7002 26.3378 43.7002 25.0003 43.5377C24.3253 43.4502 23.5878 43.3377 22.8128 43.1877L21.4253 46.6252C22.0378 46.7252 22.6128 46.7877 23.1628 46.8252C25.5628 47.0252 27.2128 46.7502 27.5128 45.9752ZM17.0878 45.6377C17.9628 45.9002 18.8128 46.1127 19.6378 46.2877L21.0503 42.7877C20.2378 42.5877 19.3878 42.3502 18.5253 42.0877L17.0878 45.6377ZM43.9628 44.9127L45.3753 48.4127C46.1878 48.2377 47.0503 48.0127 47.9253 47.7627L46.4878 44.2127C45.6253 44.4752 44.7753 44.7127 43.9628 44.9127ZM40.0003 45.6627C38.6628 45.8252 37.4878 45.8252 36.5253 45.6752L37.4878 48.1127C37.7878 48.8877 39.4378 49.1502 41.8378 48.9627C42.3753 48.9252 42.9628 48.8502 43.5628 48.7627L42.1753 45.3127C41.4128 45.4627 40.6878 45.5877 40.0003 45.6627ZM3.28782 31.0252C3.51282 30.4377 5.08782 30.3252 7.43782 30.6002C10.1378 30.9252 13.6753 31.8627 17.4378 33.3377C21.2003 34.8252 24.4378 36.5627 26.6253 38.1752C28.5253 39.5752 29.5878 40.7377 29.3628 41.3252C29.1378 41.9127 27.5628 42.0252 25.2128 41.7502C22.5128 41.4252 18.9753 40.4877 15.2003 39.0127C11.4378 37.5252 8.20032 35.7877 6.02532 34.1752C4.11282 32.7752 3.05032 31.6127 3.28782 31.0252ZM9.47532 35.6377L10.1753 35.9002C10.1628 36.2627 10.3753 36.6252 10.7378 36.7627C11.1003 36.9127 11.5128 36.7877 11.7628 36.5002L14.8878 37.6877C14.8878 38.0377 15.0878 38.3752 15.4378 38.5127C15.8003 38.6627 16.2128 38.5627 16.4628 38.2752L19.2503 39.3252C19.2628 39.6627 19.4503 39.9877 19.7878 40.1252C20.1503 40.2752 20.5503 40.1877 20.8003 39.9127L21.3003 40.1002C21.7628 40.2752 22.2878 40.0377 22.4628 39.5752C22.6378 39.1127 22.4003 38.5877 21.9378 38.4252L21.5628 38.2752L21.5753 38.2502L21.6503 38.0752L22.1003 38.2502C22.5628 38.4252 23.0878 38.2002 23.2628 37.7377C23.4378 37.2752 23.2128 36.7502 22.7503 36.5752L21.8378 36.2252C21.7378 36.0127 21.6003 35.8002 21.4253 35.6002C21.2253 35.3627 20.9628 35.1377 20.6503 34.9377C20.3753 34.7502 20.0503 34.5877 19.7003 34.4377C19.3503 34.3002 19.0003 34.1877 18.6628 34.1252C18.3003 34.0627 17.9503 34.0252 17.6378 34.0502C17.5003 34.0627 17.3753 34.0752 17.2503 34.0877C17.1753 33.9877 17.1003 33.8877 17.0128 33.7877C16.7878 33.5502 16.5128 33.3252 16.1878 33.1002C15.8878 32.9002 15.5503 32.7252 15.1753 32.5752C14.8003 32.4252 14.4253 32.3127 14.0628 32.2377C13.6878 32.1627 13.3128 32.1377 12.9753 32.1502C12.5878 32.1627 12.2378 32.2502 11.9503 32.3877C11.9003 32.4127 11.8503 32.4377 11.8128 32.4627L10.9378 32.1252C10.4753 31.9502 9.95032 32.1752 9.77532 32.6377C9.60032 33.1002 9.82532 33.6252 10.2878 33.8002L10.8503 34.0127L10.7878 34.1752L10.1003 33.9127C9.63782 33.7377 9.11282 33.9752 8.93782 34.4377C8.77532 34.9502 9.01282 35.4752 9.47532 35.6377ZM15.8503 35.2377C15.8253 35.1877 15.7753 35.1252 15.7128 35.0627C15.5878 34.9252 15.4253 34.7877 15.2253 34.6627C15.0253 34.5377 14.7878 34.4127 14.5253 34.3002C14.2628 34.1877 14.0003 34.1127 13.7503 34.0627C13.5003 34.0127 13.2753 33.9877 13.0878 34.0002C12.9753 34.0127 12.8753 34.0252 12.8003 34.0377L12.4753 34.8627L15.5253 36.0127C15.6378 35.7502 15.7378 35.4877 15.8503 35.2377ZM20.2128 36.9502C20.1878 36.9127 20.1503 36.8627 20.1128 36.8127C20.0128 36.7002 19.8628 36.5752 19.6878 36.4627C19.5128 36.3377 19.3003 36.2252 19.0628 36.1377C18.8128 36.0377 18.5753 35.9627 18.3628 35.9252C18.1378 35.8877 17.9378 35.8627 17.7628 35.8752C17.6628 35.8752 17.5878 35.8877 17.5253 35.9127L17.2128 36.6502L19.9003 37.6752L20.2128 36.9502ZM52.3128 42.0502L53.7378 45.5877C54.4253 45.2627 55.2378 44.8752 56.0753 44.4252L54.6753 40.9377C53.9128 41.3252 53.1253 41.6877 52.3128 42.0502ZM2.40032 33.2502L1.43782 35.6752C1.08782 36.5627 2.07532 37.7502 3.58782 38.9502L4.92532 35.6002C3.86282 34.8127 3.00032 34.0127 2.40032 33.2502ZM5.10032 40.0377C5.32532 40.1877 5.56282 40.3502 5.80032 40.5002C6.31282 40.8252 6.82532 41.1377 7.35032 41.4377L8.73782 37.9877C7.92532 37.5502 7.16282 37.1002 6.46282 36.6502L5.10032 40.0377ZM49.7003 16.4127C50.5128 10.1252 51.1753 9.4627 57.4628 8.6502C51.1753 7.8377 50.5128 7.1752 49.7003 0.887695C48.8878 7.1752 48.2253 7.8377 41.9378 8.6502C48.2128 9.4627 48.8753 10.1252 49.7003 16.4127ZM12.9003 21.0002C13.4003 17.1752 13.8003 16.7627 17.6253 16.2752C13.8003 15.7752 13.3878 15.3752 12.9003 11.5502C12.4003 15.3752 12.0003 15.7752 8.17532 16.2752C12.0003 16.7752 12.4003 17.1752 12.9003 21.0002ZM32.7628 49.5002C32.0503 55.0127 31.4628 55.5877 25.9503 56.3127C31.4628 57.0252 32.0378 57.6127 32.7628 63.1252C33.4753 57.6127 34.0628 57.0377 39.5753 56.3127C34.0628 55.5877 33.4753 55.0127 32.7628 49.5002Z" fill="white"/>
</svg>
