<svg width="16" height="16" viewBox="0 0 16 16" fill="none" xmlns="http://www.w3.org/2000/svg">
<path d="M11.5706 0H4.42996C4.12308 0.000347385 3.82887 0.122409 3.61187 0.339408C3.39487 0.556406 3.27281 0.850619 3.27246 1.1575V14.8425C3.27282 15.1494 3.39489 15.4436 3.6119 15.6606C3.82891 15.8776 4.12314 15.9997 4.43002 16H11.5706C11.8775 15.9997 12.1717 15.8776 12.3887 15.6606C12.6057 15.4436 12.7278 15.1494 12.7281 14.8425V1.1575C12.7278 0.850608 12.6057 0.556385 12.3887 0.339386C12.1717 0.122386 11.8775 0.000330845 11.5706 0ZM4.42996 0.75H11.5706C11.6786 0.750124 11.7822 0.793097 11.8586 0.869491C11.935 0.945885 11.978 1.04946 11.9781 1.1575V12.7967H4.02252V1.1575C4.02265 1.04946 4.06562 0.945885 4.14201 0.869491C4.21841 0.793097 4.32199 0.750124 4.43002 0.75H4.42996ZM11.5706 15.25H4.42996C4.32193 15.2499 4.21835 15.2069 4.14195 15.1305C4.06556 15.0541 4.02259 14.9506 4.02246 14.8425V13.5467H11.9781V14.8425C11.978 14.9506 11.935 15.0541 11.8586 15.1305C11.7822 15.2069 11.6786 15.2499 11.5706 15.25ZM6.75477 1.91675C6.75477 1.81729 6.79428 1.72191 6.86461 1.65158C6.93493 1.58126 7.03032 1.54175 7.12977 1.54175H8.81962C8.91907 1.54175 9.01446 1.58126 9.08478 1.65158C9.15511 1.72191 9.19462 1.81729 9.19462 1.91675C9.19462 2.01621 9.15511 2.11159 9.08478 2.18192C9.01446 2.25224 8.91907 2.29175 8.81962 2.29175H7.12977C7.03032 2.29175 6.93493 2.25224 6.86461 2.18192C6.79428 2.11159 6.75477 2.01621 6.75477 1.91675ZM8.82177 14.3983C8.82177 14.4978 8.78226 14.5932 8.71194 14.6635C8.64161 14.7338 8.54623 14.7733 8.44677 14.7733H7.55384C7.45438 14.7733 7.359 14.7338 7.28867 14.6635C7.21834 14.5932 7.17884 14.4978 7.17884 14.3983C7.17884 14.2989 7.21834 14.2035 7.28867 14.1332C7.359 14.0629 7.45438 14.0233 7.55384 14.0233H8.44677C8.54623 14.0233 8.64161 14.0629 8.71194 14.1332C8.78226 14.2035 8.82177 14.2989 8.82177 14.3983Z" fill="white"/>
</svg>
