<svg width="16" height="16" viewBox="0 0 16 16" fill="none" xmlns="http://www.w3.org/2000/svg">
<path d="M12 4.50334C11.9938 2.3346 10.4768 1 8 1C5.52322 1 4.00619 2.3346 4 4.50334C4 6.65872 5.5356 8 8 8C10.4644 8 11.9938 6.6654 12 4.50334ZM8 6.65872C7.17028 6.65872 5.23839 6.44519 5.23839 4.49666C5.23839 2.54814 7.17028 2.3346 8 2.3346C8.82972 2.3346 10.7554 2.54814 10.7616 4.49666C10.7678 6.44519 8.82972 6.65872 8 6.65872Z" fill="white"/>
<path d="M14.3056 15C14.1214 15 13.9447 14.9321 13.8145 14.8113C13.6843 14.6904 13.6111 14.5266 13.6111 14.3557C13.6111 12.5773 11.25 11.2887 8 11.2887C4.75 11.2887 2.38889 12.5773 2.38889 14.3557C2.38889 14.5266 2.31572 14.6904 2.18549 14.8113C2.05526 14.9321 1.87862 15 1.69444 15C1.51027 15 1.33363 14.9321 1.2034 14.8113C1.07316 14.6904 1 14.5266 1 14.3557C1 11.8299 3.94444 10 8 10C12.0556 10 15 11.8299 15 14.3557C15 14.5266 14.9268 14.6904 14.7966 14.8113C14.6664 14.9321 14.4897 15 14.3056 15Z" fill="white"/>
</svg>
