<svg width="81" height="81" viewBox="0 0 81 81" fill="none" xmlns="http://www.w3.org/2000/svg">
<path d="M79.3048 49.6892C73.9615 71.121 52.2537 84.162 30.8197 78.8187C9.39546 73.4754 -3.6466 51.7676 1.69778 30.3379C7.03889 8.90393 28.7445 -4.14031 50.172 1.20298C71.6049 6.54627 84.6459 28.2562 79.3026 49.6892H79.3048Z" fill="#F7931A"/>
<path d="M58.1392 34.3122C58.9345 28.9895 54.8819 26.1277 49.3398 24.2188L51.1379 17.0078L46.7475 15.9138L44.9972 22.9346C43.8444 22.6467 42.6591 22.3761 41.4813 22.1067L43.2436 15.0392L38.8564 13.9451L37.0572 21.1538C36.1022 20.9365 35.1645 20.7214 34.2541 20.4954L34.2595 20.4726L28.2067 18.9613L27.0388 23.6495C27.0388 23.6495 30.295 24.3959 30.2265 24.4415C32.004 24.8848 32.3267 26.0615 32.2713 26.9947L30.2178 35.2411L27.3463 46.7491C27.129 47.289 26.577 48.0995 25.3352 47.7921C25.3786 47.8562 22.1453 46.9957 22.1453 46.9957L19.9658 52.0217L25.6785 53.4461C26.7411 53.7123 27.7819 53.9915 28.8065 54.2533L26.9899 61.5479L31.3738 62.642L33.1741 55.4267C34.3703 55.7516 35.5329 56.0515 36.6704 56.3339L34.8777 63.5156L39.2671 64.6096L41.0837 57.3302C48.5684 58.747 54.1974 58.1755 56.5638 51.4068C58.4727 45.9559 56.4703 42.8117 52.5319 40.7604C55.4002 40.0966 57.5601 38.2104 58.1359 34.3132L58.1392 34.3122ZM48.1099 48.3755C46.7518 53.8264 37.5765 50.8809 34.5996 50.141L37.0094 40.479C39.9852 41.2221 49.5245 42.6921 48.111 48.3766L48.1099 48.3755ZM49.4658 34.2339C48.2283 39.1926 40.5893 36.6731 38.1111 36.056L40.296 27.2924C42.7753 27.9085 50.7566 29.0612 49.4658 34.2339Z" fill="white"/>
</svg>
