<svg width="87" height="86" viewBox="0 0 87 86" fill="none" xmlns="http://www.w3.org/2000/svg">
<path d="M86.7933 42.9719C86.7933 19.2392 67.5541 8.69098e-05 43.8214 8.79472e-05C20.0888 8.89846e-05 0.849606 19.2392 0.849607 42.9719C0.849609 66.7046 20.0888 85.9438 43.8215 85.9438C67.5541 85.9438 86.7933 66.7046 86.7933 42.9719Z" fill="#C2A633"/>
<path d="M43.31 19.729H29.953V40.4198H24.4678V45.4884H29.9541V66.178H45.5169C45.5169 66.178 67.3992 68.0114 67.3992 43.3421C67.398 19.0731 46.4692 19.729 43.31 19.729ZM45.1597 57.5919H38.7187V45.4884H48.3784V40.4198H38.7187V28.3151H44.8586C47.1554 28.3151 58.7081 29.2394 58.7268 43.509C58.7454 57.7787 46.8146 57.5919 45.1597 57.5919Z" fill="white"/>
</svg>
