<svg width="81" height="80" viewBox="0 0 81 80" fill="none" xmlns="http://www.w3.org/2000/svg">
<path d="M80.5002 39.898C80.5002 17.8629 62.6373 -5.99236e-05 40.6022 -5.89604e-05C18.5671 -5.79972e-05 0.704099 17.8629 0.7041 39.898C0.704101 61.9331 18.5671 79.7961 40.6022 79.7961C62.6373 79.7961 80.5002 61.9331 80.5002 39.898Z" fill="#627EEA"/>
<path d="M41.8379 9.97711V32.0956L60.5324 40.4487L41.8379 9.97711Z" fill="#C1CCF6"/>
<path d="M41.8382 9.97705L23.1416 40.4486L41.8382 32.0955V9.97705Z" fill="white"/>
<path d="M41.8379 54.7818V69.8106L60.5443 43.9301L41.8379 54.7818Z" fill="#C1CCF6"/>
<path d="M41.8382 69.8106V54.7796L23.1416 43.929L41.8382 69.8106Z" fill="white"/>
<path d="M41.8379 51.3025L60.5324 40.4476L41.8379 32.0988V51.3025Z" fill="#8198EE"/>
<path d="M23.1416 40.4486L41.8382 51.3036V32.0999L23.1416 40.4486Z" fill="#C1CCF6"/>
</svg>
