<svg width="74" height="75" viewBox="0 0 74 75" fill="none" xmlns="http://www.w3.org/2000/svg">
<path fill-rule="evenodd" clip-rule="evenodd" d="M30.664 17.3008L24.89 38.8988L20.315 40.6978L18.666 46.8478L23.315 45.2728L20.241 58.0218L53.537 58.0958L55.561 49.9218H35.313L37.938 40.0968L43.413 37.7718L44.987 31.7728L39.663 33.5718L43.863 17.5238L30.664 17.3008Z" fill="#B8B9BB"/>
<path fill-rule="evenodd" clip-rule="evenodd" d="M37.0378 0.880737C57.3668 0.892737 73.8438 17.3687 73.8588 37.6967C73.8468 58.0277 57.3688 74.5057 37.0378 74.5177C16.7068 74.5057 0.228797 58.0277 0.216797 37.6967C0.290797 17.3747 16.7158 0.875732 37.0378 0.875732V0.880737Z" fill="#345D9D"/>
<path fill-rule="evenodd" clip-rule="evenodd" d="M30.664 17.3008L24.89 38.8988L20.315 40.6978L18.666 46.8478L23.315 45.2728L20.241 58.0218L53.537 58.0958L55.561 49.9218H35.313L37.938 40.0968L43.413 37.7718L44.987 31.7728L39.663 33.5718L43.863 17.5238L30.664 17.3008Z" fill="white"/>
</svg>
