<svg width="74" height="75" viewBox="0 0 74 75" fill="none" xmlns="http://www.w3.org/2000/svg">
<path d="M73.7331 37.7007C73.7331 17.3652 57.2479 0.880103 36.9124 0.880104C16.577 0.880105 0.0917944 17.3653 0.0917953 37.7007C0.0917962 58.0362 16.577 74.5214 36.9124 74.5214C57.2479 74.5214 73.7331 58.0362 73.7331 37.7007Z" fill="#172853"/>
<path d="M29.7554 17.3318C34.0674 15.7188 38.9203 15.7148 43.3123 17.0408C49.0303 18.8158 53.8574 23.1308 56.3804 28.5478C57.0764 30.0908 57.7423 31.6998 57.8093 33.4158C54.5943 31.5528 51.0714 30.3448 47.5404 29.2438C41.8924 27.2078 35.9783 25.7938 30.6323 22.9948C29.3873 22.2508 27.8004 21.4888 27.4624 19.9388C27.3254 18.5978 28.7434 17.8508 29.7554 17.3318Z" fill="#FCD83C"/>
<path d="M16.7398 30.3668C17.9878 26.9788 20.0348 23.8348 22.8148 21.5038C23.5218 27.3178 25.9958 32.9368 30.0838 37.1638C34.9848 42.2558 41.9658 45.3828 49.0688 45.2648C51.8888 45.3528 54.6468 44.7018 57.3978 44.1748C54.6918 53.9548 43.9728 60.4458 34.0418 58.8848C28.0478 58.1188 22.5128 54.5698 19.1738 49.5578C15.4068 44.0198 14.4568 36.6658 16.7398 30.3668Z" fill="#FCD83C"/>
<path d="M47.541 29.2428C51.072 30.3438 54.596 31.5518 57.81 33.4148L58.027 33.5288C58.325 35.7708 58.543 38.0578 58.145 40.3038C56.528 39.6188 55.218 38.4148 53.848 37.3508C51.212 35.1568 48.52 32.6458 47.541 29.2428Z" fill="#F37524"/>
</svg>
