<svg width="81" height="80" viewBox="0 0 81 80" fill="none" xmlns="http://www.w3.org/2000/svg">
<path d="M80.11 39.7482C80.11 17.8697 62.3739 0.133636 40.4954 0.133637C18.6169 0.133638 0.880857 17.8697 0.880858 39.7482C0.880859 61.6267 18.6169 79.3628 40.4954 79.3628C62.3739 79.3628 80.11 61.6267 80.11 39.7482Z" fill="#EC0927"/>
<path d="M56.956 21.0604L14.8096 13.8164L36.8936 69.7428L68.4057 32.0199L56.956 21.0604ZM56.1972 24.5717L62.9923 31.0555L46.3217 33.3529L56.1972 24.5717ZM41.4746 33.5515L22.7258 18.2864L52.8393 23.4599L41.4746 33.5515ZM39.8891 36.2063L36.6048 60.7517L20.8006 20.6633L39.8891 36.2063ZM42.8789 36.9153L62.5846 34.1982L39.5663 61.7501L42.8789 36.9153Z" fill="white"/>
</svg>
