<svg width="81" height="81" viewBox="0 0 81 81" fill="none" xmlns="http://www.w3.org/2000/svg">
<path d="M40.5552 80.9423C62.7611 80.9423 80.6241 63.0794 80.6241 40.8734C80.6241 18.6675 62.7611 0.804565 40.5552 0.804565C18.3492 0.804565 0.486328 18.6675 0.486328 40.8734C0.486328 63.0804 18.3492 80.9423 40.5552 80.9423Z" fill="#2775CA"/>
<path d="M51.5738 47.2165C51.5738 41.375 48.0676 39.3705 41.0562 38.5337C36.0472 37.8644 35.0461 36.5303 35.0461 34.1939C35.0461 31.8575 36.7165 30.3558 40.0551 30.3558C43.0607 30.3558 44.7311 31.358 45.5647 33.862C45.7334 34.3626 46.234 34.6956 46.7345 34.6956H49.4072C50.0764 34.6956 50.577 34.195 50.577 33.5257V33.3571C49.9077 29.6833 46.9021 26.8463 43.064 26.5133V22.5066C43.064 21.8373 42.5634 21.3367 41.7299 21.1724H39.2259C38.5566 21.1724 38.0561 21.673 37.8918 22.5066V26.3458C32.8828 27.015 29.7095 30.3525 29.7095 34.528C29.7095 40.0376 33.0471 42.2096 40.0595 43.0421C44.7355 43.8757 46.2383 44.8768 46.2383 47.5495C46.2383 50.2221 43.9019 52.0568 40.7287 52.0568C36.389 52.0568 34.8861 50.2221 34.3855 47.717C34.2169 47.0478 33.7163 46.7148 33.2158 46.7148H30.3788C29.7096 46.7148 29.209 47.2154 29.209 47.8846V48.0533C29.8782 52.2287 32.5465 55.2333 38.0561 56.0668V60.0736C38.0561 60.7429 38.5566 61.2434 39.3902 61.4078H41.8942C42.5634 61.4078 43.064 60.9072 43.2283 60.0736V56.0668C48.2319 55.23 51.5738 51.7238 51.5738 47.2165Z" fill="white"/>
<path d="M32.0415 64.7465C19.019 60.0704 12.3395 45.5451 17.1842 32.6912C19.6882 25.6788 25.1978 20.3379 32.0415 17.8339C32.7108 17.5009 33.0438 17.0003 33.0438 16.1635V13.8271C33.0438 13.1579 32.7108 12.6573 32.0415 12.493C31.8729 12.493 31.541 12.493 31.3723 12.6617C15.5128 17.6707 6.82996 34.5313 11.839 50.3941C14.8435 59.7418 22.0246 66.9229 31.3723 69.9274C32.0415 70.2604 32.7064 69.9274 32.8751 69.2582C33.0438 69.0895 33.0438 68.9252 33.0438 68.5889V66.2526C33.0427 65.7487 32.5421 65.0838 32.0415 64.7465ZM49.7358 12.6573C49.0665 12.3243 48.4016 12.6573 48.2329 13.3265C48.0642 13.4952 48.0643 13.6595 48.0643 13.9958V16.3322C48.0643 17.0014 48.5649 17.6663 49.0665 18.0026C62.0891 22.6786 68.7685 37.204 63.9238 50.0579C61.4198 57.0703 55.9103 62.4112 49.0665 64.9151C48.3973 65.2481 48.0643 65.7487 48.0643 66.5855V68.9219C48.0643 69.5912 48.3973 70.0917 49.0665 70.2561C49.2352 70.2561 49.5671 70.2561 49.7358 70.0874C65.5953 65.0784 74.2781 48.2177 69.2691 32.3549C66.2635 22.8429 58.9192 15.6629 49.7358 12.6573Z" fill="white"/>
</svg>
