<svg width="78" height="77" viewBox="0 0 78 77" fill="none" xmlns="http://www.w3.org/2000/svg">
<path d="M77.289 38.8208C77.289 17.735 60.1956 0.641604 39.1098 0.641605C18.0241 0.641606 0.930661 17.735 0.930662 38.8208C0.930663 59.9065 18.0241 77 39.1098 77C60.1956 77 77.289 59.9065 77.289 38.8208Z" fill="black"/>
<path d="M57.3903 17.6353H64.8449L49.3312 32.9979C43.7099 38.5592 34.603 38.5592 28.9818 32.9979L13.458 17.6353H20.9227L32.7096 29.3011C36.2864 32.8268 42.0177 32.8268 45.5944 29.3011L57.3903 17.6353Z" fill="white"/>
<path d="M20.823 60.3485H13.3584L28.9732 44.8948C34.5945 39.3336 43.7014 39.3336 49.3226 44.8948L64.9374 60.3485H57.4828L45.5958 48.5826C42.0191 45.057 36.2878 45.057 32.7111 48.5826L20.823 60.3485Z" fill="white"/>
</svg>
