<svg width="262" height="89" viewBox="0 0 262 89" fill="none" xmlns="http://www.w3.org/2000/svg">
<path d="M169.028 62.0609C185.29 66.3244 217.139 67.4053 240.129 64.4613C244.387 63.9141 248.048 63.2696 251.089 62.5473C257.617 61.004 260.463 60.1286 260.913 58.2033L261.165 47.8336C260.716 49.7595 257.094 51.6325 250.553 53.178C247.516 53.8953 243.863 54.5427 239.592 55.092C216.603 58.036 184.766 56.953 168.496 52.6859C161.648 50.8856 158.605 48.8128 159.074 46.7915L159.598 56.163C159.129 58.1849 162.173 60.2577 169.028 62.0609Z" fill="#6C8EFF"/>
<path d="M169.028 62.7175C185.29 66.981 217.139 68.0619 240.129 65.1179C244.387 64.57 248.048 63.9261 251.089 63.2039C257.617 61.6606 260.463 60.1286 260.913 58.2033L261.165 47.8336C260.716 49.7595 257.094 51.6325 250.553 53.178C247.516 53.8953 243.863 54.5427 239.592 55.092C216.603 58.036 184.766 56.953 168.496 52.6859C161.648 50.8856 158.605 48.8128 159.074 46.7915L159.598 56.8195C159.129 58.8415 162.173 60.9143 169.028 62.7175Z" stroke="#B3B5CC" stroke-miterlimit="10" stroke-linecap="round" stroke-linejoin="round"/>
<path d="M250.553 53.178L250.133 63.2286" stroke="#B3B5CC" stroke-miterlimit="10" stroke-linecap="round" stroke-linejoin="round"/>
<path d="M205.67 56.7009L205.301 66.7593" stroke="#B3B5CC" stroke-miterlimit="10" stroke-linecap="round" stroke-linejoin="round"/>
<path d="M229.013 56.127L228.922 66.1571" stroke="#B3B5CC" stroke-miterlimit="10" stroke-linecap="round" stroke-linejoin="round"/>
<path d="M181.114 55.2805L180.898 64.9463" stroke="#B3B5CC" stroke-miterlimit="10" stroke-linecap="round" stroke-linejoin="round"/>
<path d="M166.75 52.1965L166.68 62.0424" stroke="#B3B5CC" stroke-miterlimit="10" stroke-linecap="round" stroke-linejoin="round"/>
<path d="M167.853 52.683C183.486 56.9472 215.178 58.0274 238.626 55.0855C242.973 54.5391 246.731 53.8924 249.882 53.1758C263.721 50.0171 265.597 45.4775 252.847 41.9772C237.15 37.6755 205.457 36.5932 181.919 39.5521C177.583 40.0978 173.836 40.7417 170.697 41.4583C156.836 44.6205 154.973 49.1713 167.853 52.683Z" fill="#6C8EFF"/>
<path d="M254.291 51.9961C259.659 49.3189 258.279 46.2393 249.071 43.7126C233.761 39.5161 202.848 38.4635 179.883 41.3489C175.649 41.8826 171.994 42.5088 168.941 43.2085C164.365 44.252 161.13 45.45 159.333 46.7124C160.148 44.8174 164.036 42.979 170.697 41.4555C173.837 40.741 177.579 40.0957 181.914 39.5507C205.462 36.594 237.145 37.6756 252.849 41.9772C264.086 45.061 263.962 48.956 254.291 51.9961Z" fill="#3033F2"/>
<path d="M167.853 52.683C183.486 56.9472 215.178 58.0274 238.626 55.0855C242.973 54.5391 246.731 53.8924 249.882 53.1758C263.721 50.0171 265.597 45.4775 252.847 41.9772C237.15 37.6755 205.457 36.5932 181.919 39.5521C177.583 40.0978 173.836 40.7417 170.697 41.4583C156.836 44.6205 154.973 49.1713 167.853 52.683Z" stroke="#B3B5CC" stroke-miterlimit="10" stroke-linecap="round" stroke-linejoin="round"/>
<path d="M177.127 43.3835C179.753 42.9154 182.896 42.4932 186.526 42.136C206.216 40.1952 232.768 40.8821 245.916 43.673C256.598 45.942 255.046 48.8973 243.459 50.9631C240.827 51.4326 237.676 51.8555 234.034 52.2148C214.414 54.1458 187.864 53.4609 174.768 50.6962C163.984 48.4166 165.533 45.4507 177.127 43.3835Z" stroke="#3033F2" stroke-miterlimit="10" stroke-linecap="round" stroke-linejoin="round"/>
<path d="M183.894 49.2567L184.465 42.6245L198.264 43.1187C199.731 43.171 201.08 43.2867 202.31 43.4647C203.54 43.6433 204.591 43.8558 205.46 44.1022C206.331 44.3486 207.008 44.6197 207.492 44.9148C207.976 45.2099 208.206 45.4979 208.182 45.7782C208.149 46.1644 207.737 46.5103 206.947 46.816C206.156 47.1217 205.074 47.3568 203.702 47.5199L209.84 50.1851L200.529 49.8518L195.414 47.6258L192.324 47.515L192.148 49.5511L183.894 49.2567ZM192.459 45.9279L197.665 46.1143C198.174 46.1326 198.651 46.0874 199.099 45.978C199.548 45.8693 199.781 45.7027 199.8 45.4782C199.82 45.248 199.582 45.063 199.084 44.9233C198.586 44.7835 198.083 44.7044 197.576 44.6868L192.582 44.5081L192.459 45.9279Z" fill="#3033F2"/>
<path d="M231.853 46.4956C231.239 46.3861 230.569 46.281 229.842 46.18C229.227 46.0896 228.534 46.0007 227.764 45.9131C226.992 45.8263 226.213 45.7529 225.426 45.6936L225.354 46.5344C225.606 46.5563 225.872 46.5831 226.153 46.6149C226.433 46.6467 226.728 46.6777 227.037 46.7074C228.411 46.85 229.651 46.9975 230.757 47.15C231.861 47.3018 232.803 47.4684 233.579 47.6492C234.356 47.8299 234.947 48.0368 235.351 48.2698C235.756 48.5027 235.944 48.7753 235.917 49.0866C235.886 49.4544 235.569 49.7566 234.969 49.9945C234.368 50.2325 233.588 50.4167 232.628 50.548C231.668 50.6793 230.578 50.7648 229.358 50.8057C228.137 50.8467 226.877 50.8523 225.578 50.8248L225.481 51.9551L222.095 51.8336L222.193 50.685C220.25 50.5777 218.324 50.4245 216.416 50.2254C214.508 50.0263 212.802 49.7997 211.295 49.5455L214.988 48.0756C215.741 48.209 216.55 48.3375 217.417 48.4625C218.144 48.5698 218.991 48.68 219.958 48.7922C220.925 48.9052 221.915 48.9948 222.928 49.0626L222.998 48.2408C222.128 48.1596 221.258 48.0693 220.39 47.9697C219.072 47.8229 217.938 47.6746 216.989 47.5249C216.039 47.3753 215.26 47.2164 214.653 47.0477C214.044 46.8789 213.6 46.6961 213.32 46.4984C213.04 46.3007 212.91 46.0812 212.931 45.8383C212.96 45.5022 213.24 45.2135 213.77 44.9735C214.3 44.7334 215.011 44.535 215.902 44.3797C216.792 44.2244 217.828 44.1114 219.009 44.0415C220.189 43.9716 221.444 43.9448 222.773 43.961L222.854 43.0178L226.24 43.1393L226.158 44.0924C227.087 44.1502 227.987 44.2201 228.857 44.3013C229.727 44.3825 230.562 44.4701 231.361 44.564C232.159 44.6586 232.908 44.7539 233.607 44.8506C234.306 44.9473 234.95 45.0377 235.537 45.121L231.853 46.4956ZM221.507 45.844C221.499 45.9371 221.633 46.019 221.91 46.0882C222.187 46.1574 222.606 46.2273 223.166 46.2972L223.228 45.5877C222.096 45.5778 221.523 45.6632 221.507 45.844ZM227.014 48.9454C227.022 48.8586 226.859 48.776 226.525 48.6983C226.193 48.6207 225.746 48.5472 225.186 48.4766L225.127 49.1678C225.805 49.1798 226.288 49.1657 226.574 49.1261C226.859 49.0866 227.007 49.0266 227.014 48.9454Z" fill="#3033F2"/>
<path d="M185.672 30.8965H71.5059V47.3894H185.672V30.8965Z" fill="#6C8EFF"/>
<path d="M185.674 30.9006H151.685V47.3893H185.674V30.9006Z" fill="#3033F2"/>
<path d="M185.672 30.8965H71.5059V47.3894H185.672V30.8965Z" stroke="#B3B5CC" stroke-miterlimit="10" stroke-linecap="round" stroke-linejoin="round"/>
<path d="M81.0801 30.9006V40.8023" stroke="#B3B5CC" stroke-miterlimit="10" stroke-linecap="round" stroke-linejoin="round"/>
<path d="M168.68 37.4878V47.3895" stroke="#B3B5CC" stroke-miterlimit="10" stroke-linecap="round" stroke-linejoin="round"/>
<path d="M101.577 35.021V43.265" stroke="#B3B5CC" stroke-miterlimit="10" stroke-linecap="round" stroke-linejoin="round"/>
<path d="M114.792 35.021V43.265" stroke="#B3B5CC" stroke-miterlimit="10" stroke-linecap="round" stroke-linejoin="round"/>
<path d="M141.223 35.021V43.265" stroke="#B3B5CC" stroke-miterlimit="10" stroke-linecap="round" stroke-linejoin="round"/>
<path d="M179.115 35.021V43.265" stroke="#B3B5CC" stroke-miterlimit="10" stroke-linecap="round" stroke-linejoin="round"/>
<path d="M176.093 14.4106H61.9268V30.9035H176.093V14.4106Z" fill="#6C8EFF"/>
<path d="M176.095 14.4148H142.105V30.9034H176.095V14.4148Z" fill="#3033F2"/>
<path d="M176.093 14.4106H61.9268V30.9035H176.093V14.4106Z" stroke="#B3B5CC" stroke-miterlimit="10" stroke-linecap="round" stroke-linejoin="round"/>
<path d="M71.501 14.4148V24.3165" stroke="#B3B5CC" stroke-miterlimit="10" stroke-linecap="round" stroke-linejoin="round"/>
<path d="M159.101 21.002V30.9036" stroke="#B3B5CC" stroke-miterlimit="10" stroke-linecap="round" stroke-linejoin="round"/>
<path d="M91.998 18.5344V26.7791" stroke="#B3B5CC" stroke-miterlimit="10" stroke-linecap="round" stroke-linejoin="round"/>
<path d="M105.213 18.5344V26.7791" stroke="#B3B5CC" stroke-miterlimit="10" stroke-linecap="round" stroke-linejoin="round"/>
<path d="M131.644 18.5344V26.7791" stroke="#B3B5CC" stroke-miterlimit="10" stroke-linecap="round" stroke-linejoin="round"/>
<path d="M169.536 18.5344V26.7791" stroke="#B3B5CC" stroke-miterlimit="10" stroke-linecap="round" stroke-linejoin="round"/>
<path d="M156.465 47.3831H42.2988V63.8759H156.465V47.3831Z" fill="#6C8EFF"/>
<path d="M156.467 47.3872H122.478V63.8758H156.467V47.3872Z" fill="#3033F2"/>
<path d="M156.465 47.3831H42.2988V63.8759H156.465V47.3831Z" stroke="#B3B5CC" stroke-miterlimit="10" stroke-linecap="round" stroke-linejoin="round"/>
<path d="M51.874 47.3872V57.2889" stroke="#B3B5CC" stroke-miterlimit="10" stroke-linecap="round" stroke-linejoin="round"/>
<path d="M139.473 53.9744V63.876" stroke="#B3B5CC" stroke-miterlimit="10" stroke-linecap="round" stroke-linejoin="round"/>
<path d="M72.3701 51.5068V59.7515" stroke="#B3B5CC" stroke-miterlimit="10" stroke-linecap="round" stroke-linejoin="round"/>
<path d="M85.5859 51.5068V59.7515" stroke="#B3B5CC" stroke-miterlimit="10" stroke-linecap="round" stroke-linejoin="round"/>
<path d="M112.016 51.5068V59.7515" stroke="#B3B5CC" stroke-miterlimit="10" stroke-linecap="round" stroke-linejoin="round"/>
<path d="M149.909 51.5068V59.7515" stroke="#B3B5CC" stroke-miterlimit="10" stroke-linecap="round" stroke-linejoin="round"/>
<path d="M121.854 75.0562C138.863 84.2575 173.533 89.9281 199.254 87.6951C204.018 87.2778 208.147 86.6241 211.612 85.7627C219.048 83.9271 223.364 81.1808 224.216 77.9636L224.974 65.7928C224.122 69.0101 219.807 71.7564 212.356 73.5941C208.898 74.447 204.777 75.1064 199.999 75.5257C174.278 77.7588 139.622 72.0854 122.605 62.8785C115.444 58.9955 112.499 55.1075 113.391 51.7307L112.633 63.9015C111.74 67.2797 114.686 71.1676 121.854 75.0562Z" fill="#6C8EFF"/>
<path d="M121.854 75.0562C138.863 84.2575 173.533 89.9281 199.254 87.6951C204.018 87.2778 208.147 86.6241 211.612 85.7627C219.048 83.9271 223.364 81.1808 224.216 77.9636L224.974 65.7928C224.122 69.0101 219.807 71.7564 212.356 73.5941C208.898 74.447 204.777 75.1064 199.999 75.5257C174.278 77.7588 139.622 72.0854 122.605 62.8785C115.444 58.9955 112.499 55.1075 113.391 51.7307L112.633 63.9015C111.74 67.2797 114.686 71.1676 121.854 75.0562Z" stroke="#B3B5CC" stroke-miterlimit="10" stroke-linecap="round" stroke-linejoin="round"/>
<path d="M212.356 73.5955L210.646 84.9091" stroke="#B3B5CC" stroke-miterlimit="10" stroke-linecap="round" stroke-linejoin="round"/>
<path d="M162.557 74.1753L160.9 85.5094" stroke="#B3B5CC" stroke-miterlimit="10" stroke-linecap="round" stroke-linejoin="round"/>
<path d="M188.222 76.0107L186.876 87.3301" stroke="#B3B5CC" stroke-miterlimit="10" stroke-linecap="round" stroke-linejoin="round"/>
<path d="M135.936 68.8054L134.65 79.788" stroke="#B3B5CC" stroke-miterlimit="10" stroke-linecap="round" stroke-linejoin="round"/>
<path d="M120.783 61.8372L119.438 73.3668" stroke="#B3B5CC" stroke-miterlimit="10" stroke-linecap="round" stroke-linejoin="round"/>
<path d="M121.9 62.7968C138.22 71.9239 172.718 77.574 198.94 75.4003C203.803 74.9957 208.038 74.349 211.621 73.511C227.363 69.8109 230.266 62.3251 216.96 54.8444C200.576 45.6466 166.078 39.9915 139.754 42.1837C134.905 42.5889 130.682 43.2314 127.112 44.0708C111.345 47.7738 108.455 55.2807 121.9 62.7968Z" fill="#6C8EFF"/>
<path d="M216.669 72.0373C223.047 68.1359 222.111 62.7379 212.502 57.3377C196.522 48.3651 162.874 42.8548 137.189 44.9911C132.454 45.3879 128.334 46.0113 124.861 46.8331C119.656 48.0552 115.891 49.7008 113.687 51.6289C114.933 48.5084 119.534 45.8525 127.11 44.0663C130.682 43.2304 134.899 42.5851 139.748 42.1812C166.084 39.9934 200.571 45.6456 216.961 54.8448C228.69 61.436 227.826 68.0371 216.669 72.0373Z" fill="#3033F2"/>
<path d="M121.9 62.7968C138.22 71.9239 172.718 77.574 198.94 75.4003C203.803 74.9957 208.038 74.349 211.621 73.511C227.363 69.8109 230.266 62.3251 216.96 54.8444C200.576 45.6466 166.078 39.9915 139.754 42.1837C134.905 42.5889 130.682 43.2314 127.112 44.0708C111.345 47.7738 108.455 55.2807 121.9 62.7968Z" stroke="#B3B5CC" stroke-miterlimit="10" stroke-linecap="round" stroke-linejoin="round"/>
<path d="M133.792 48.1158C136.755 47.6364 140.274 47.2983 144.316 47.1281C166.236 46.2018 195.18 50.5663 209.054 56.89C220.326 62.0304 218.074 66.8643 205.003 68.9781C202.033 69.4582 198.504 69.7985 194.449 69.9693C172.608 70.8878 143.665 66.5276 129.844 60.2541C118.462 55.0833 120.712 50.231 133.792 48.1158Z" stroke="#3033F2" stroke-miterlimit="10" stroke-linecap="round" stroke-linejoin="round"/>
<path d="M140.104 58.9079L141.968 47.7107L156.984 50.2113C158.58 50.4775 160.035 50.8355 161.349 51.2866C162.662 51.7377 163.773 52.2249 164.679 52.7487C165.587 53.2726 166.277 53.8148 166.752 54.3746C167.227 54.9345 167.425 55.4513 167.346 55.9243C167.237 56.5759 166.722 57.1146 165.799 57.5389C164.876 57.9632 163.648 58.2315 162.114 58.3438L168.338 63.6105L158.205 61.9232L153.02 57.5262L149.657 56.9664L149.085 60.4046L140.104 58.9079ZM150.105 54.2843L155.77 55.2275C156.323 55.32 156.855 55.3002 157.366 55.1689C157.877 55.0383 158.164 54.7834 158.227 54.405C158.292 54.016 158.065 53.6729 157.547 53.3756C157.028 53.0784 156.493 52.8843 155.94 52.7918L150.505 51.8867L150.105 54.2843Z" fill="#3033F2"/>
<path d="M193.13 59.9915C192.479 59.7317 191.764 59.4726 190.987 59.2135C190.33 58.9855 189.588 58.7511 188.761 58.5103C187.933 58.2696 187.093 58.0514 186.243 57.8559L186.006 59.2749C186.279 59.342 186.565 59.4197 186.867 59.5072C187.167 59.5955 187.484 59.683 187.817 59.7705C189.295 60.1786 190.625 60.5789 191.807 60.97C192.988 61.3612 193.987 61.7572 194.804 62.1582C195.621 62.5592 196.229 62.9821 196.629 63.4262C197.028 63.871 197.184 64.356 197.096 64.882C196.993 65.5026 196.59 65.9784 195.888 66.3095C195.186 66.6406 194.297 66.8602 193.222 66.9675C192.147 67.0748 190.937 67.0889 189.593 67.0113C188.249 66.9336 186.868 66.7924 185.451 66.5884L185.133 68.4967L181.448 67.8832L181.772 65.9431C179.663 65.5273 177.584 65.0352 175.533 64.4662C173.481 63.8978 171.655 63.3069 170.053 62.6941L174.371 60.6418C175.17 60.9587 176.032 61.275 176.958 61.5913C177.733 61.861 178.64 62.1498 179.678 62.4576C180.715 62.7654 181.782 63.0379 182.879 63.2744L183.109 61.8864C182.171 61.6436 181.236 61.3852 180.304 61.1113C178.888 60.7025 177.675 60.3142 176.664 59.9456C175.652 59.5771 174.829 59.2135 174.195 58.8534C173.56 58.4941 173.108 58.1291 172.839 57.7606C172.569 57.3913 172.468 57.0016 172.536 56.5914C172.631 56.0238 172.991 55.5677 173.617 55.2232C174.241 54.8787 175.057 54.628 176.061 54.4713C177.065 54.3146 178.221 54.2475 179.527 54.2701C180.832 54.2934 182.211 54.3986 183.663 54.5864L183.928 52.9937L187.613 53.6072L187.345 55.2161C188.351 55.4272 189.323 55.6539 190.261 55.896C191.198 56.1389 192.095 56.3881 192.953 56.6444C193.809 56.9006 194.611 57.1534 195.359 57.4019C196.106 57.6504 196.794 57.8813 197.421 58.0938L193.13 59.9915ZM181.924 57.6384C181.898 57.7959 182.029 57.9505 182.32 58.1016C182.61 58.2527 183.055 58.4214 183.656 58.6078L183.856 57.409C182.618 57.2572 181.975 57.3341 181.924 57.6384ZM187.374 63.5709C187.398 63.4241 187.235 63.2646 186.885 63.0923C186.535 62.9207 186.06 62.7414 185.46 62.555L185.266 63.722C186.006 63.8237 186.536 63.8583 186.858 63.8251C187.178 63.7926 187.351 63.7079 187.374 63.5709Z" fill="#3033F2"/>
<path d="M19.0159 64.7887C37.7214 64.1286 69.4356 51.8639 89.8065 37.3909C93.578 34.7067 96.7034 32.1376 99.173 29.7202C104.479 24.5424 106.734 20.1349 105.868 17.032L100.534 6.50342C101.4 9.60629 99.1455 14.0139 93.8286 19.2001C91.3597 21.6076 88.2442 24.1781 84.4621 26.8708C64.0912 41.3445 32.3876 53.6 13.6722 54.2594C5.79254 54.5298 1.42875 52.7288 0.516602 49.4734L5.85043 60.002C6.76258 63.2574 11.1264 65.0577 19.0159 64.7887Z" fill="#6C8EFF"/>
<path d="M19.0159 64.7887C37.7214 64.1286 69.4356 51.8639 89.8065 37.3909C93.578 34.7067 96.7034 32.1376 99.173 29.7202C104.479 24.5424 106.734 20.1349 105.868 17.032L100.534 6.50342C101.4 9.60629 99.1455 14.0139 93.8286 19.2001C91.3597 21.6076 88.2442 24.1781 84.4621 26.8708C64.0912 41.3445 32.3876 53.6 13.6722 54.2594C5.79254 54.5298 1.42875 52.7288 0.516602 49.4734L5.85043 60.002C6.76258 63.2574 11.1264 65.0577 19.0159 64.7887Z" stroke="#B3B5CC" stroke-miterlimit="10" stroke-linecap="round" stroke-linejoin="round"/>
<path d="M93.8281 19.1995L97.9476 29.4795" stroke="#B3B5CC" stroke-miterlimit="10" stroke-linecap="round" stroke-linejoin="round"/>
<path d="M52.5518 44.0986L56.7263 54.3688" stroke="#B3B5CC" stroke-miterlimit="10" stroke-linecap="round" stroke-linejoin="round"/>
<path d="M74.8701 33.0476L79.296 43.154" stroke="#B3B5CC" stroke-miterlimit="10" stroke-linecap="round" stroke-linejoin="round"/>
<path d="M27.7021 52.668L32.0137 62.4637" stroke="#B3B5CC" stroke-miterlimit="10" stroke-linecap="round" stroke-linejoin="round"/>
<path d="M11.6406 54.2812L16.1696 64.5634" stroke="#B3B5CC" stroke-miterlimit="10" stroke-linecap="round" stroke-linejoin="round"/>
<path d="M13.0436 54.5349C31.1376 54.1508 62.6987 41.9525 83.5165 27.2833C87.3755 24.5616 90.5934 21.9459 93.1732 19.4897C104.497 8.68371 103.249 1.01371 88.4775 1.29329C70.2945 1.64982 38.7314 13.8439 17.8373 28.5788C13.9889 31.2948 10.7794 33.9006 8.2117 36.3511C-3.13089 47.172 -1.86221 54.854 13.0436 54.5349Z" fill="#6C8EFF"/>
<path d="M96.664 15.7845C100.073 9.40228 96.6464 5.3562 85.9787 5.56023C68.244 5.90617 37.4603 17.8044 17.0738 32.1793C13.3165 34.8324 10.184 37.3719 7.68825 39.7603C3.94292 43.332 1.60818 46.5513 0.713675 49.2412C0.224417 46.0253 2.76178 41.5535 8.20928 36.3489C10.7805 33.8998 13.9837 31.2947 17.8314 28.5801C38.7374 13.843 70.29 1.65181 88.4787 1.29317C101.499 1.04465 104.014 6.97647 96.664 15.7845Z" fill="#3033F2"/>
<path d="M13.0436 54.5349C31.1376 54.1508 62.6987 41.9525 83.5165 27.2833C87.3755 24.5616 90.5934 21.9459 93.1732 19.4897C104.497 8.68371 103.249 1.01371 88.4775 1.29329C70.2945 1.64982 38.7314 13.8439 17.8373 28.5788C13.9889 31.2948 10.7794 33.9006 8.2117 36.3511C-3.13089 47.172 -1.86221 54.854 13.0436 54.5349Z" stroke="#B3B5CC" stroke-miterlimit="10" stroke-linecap="round" stroke-linejoin="round"/>
<path d="M15.7699 36.4527C18.0079 34.6002 20.779 32.5923 24.0689 30.4687C41.9082 18.9489 68.2031 8.40124 82.8823 6.87699C94.8101 5.64008 95.3001 10.779 85.4274 18.9517C83.1844 20.8085 80.4056 22.822 77.1058 24.9527C59.328 36.4273 33.0366 46.9778 18.4259 48.5183C6.39212 49.7834 5.89086 44.631 15.7699 36.4527Z" stroke="#3033F2" stroke-miterlimit="10" stroke-linecap="round" stroke-linejoin="round"/>
<path d="M27.9072 30.3628L69.1998 11.1179L70.8927 14.5688C71.0728 14.936 70.8214 15.469 70.1409 16.1672C69.4589 16.8669 68.5043 17.6385 67.2759 18.4843C66.0475 19.3301 64.6009 20.219 62.9382 21.1495C61.2749 22.0807 59.5713 22.9526 57.8268 23.7659C55.4222 24.8863 53.1361 25.8352 50.9687 26.6111C48.8006 27.3877 46.9742 27.9137 45.4902 28.189L31.0899 36.8509L29.9476 34.5225L41.9771 27.2903L41.598 26.5172L28.9196 32.4264L27.9072 30.3628ZM51.4855 21.9098L52.1244 23.2117C52.1866 23.3388 52.6321 23.2759 53.4616 23.0239C54.2905 22.7719 55.4031 22.3207 56.7989 21.6698C58.2327 21.0012 59.2974 20.4272 59.9914 19.9479C60.6847 19.4685 61.001 19.1656 60.9381 19.0385L60.3253 17.7896L51.4855 21.9098Z" fill="#3033F2"/>
<path d="M61.5444 29.303C62.0111 28.895 62.4318 28.4904 62.8074 28.0901C63.1576 27.7364 63.469 27.3764 63.7429 27.0107C64.0154 26.6449 64.2004 26.3181 64.2978 26.03L59.0635 28.4693C59.0162 28.5695 58.9428 28.686 58.8418 28.8194C58.7402 28.9536 58.6512 29.0856 58.5729 29.2176C58.1605 29.834 57.6741 30.4446 57.1128 31.049C56.5523 31.6526 55.8442 32.2753 54.992 32.9156C54.1385 33.556 53.0597 34.245 51.755 34.9835C50.4489 35.722 48.8279 36.5431 46.8893 37.446C44.6011 38.5128 42.6173 39.348 40.9377 39.953C39.2574 40.5581 37.8454 40.9824 36.7024 41.2245C35.5587 41.4667 34.6515 41.5585 33.9786 41.4992C33.3058 41.4399 32.8328 41.2747 32.5568 41.0043L25.5193 44.2844L25.1035 43.4379L32.2574 40.1034C32.2511 39.5083 32.537 38.7811 33.1159 37.9219C33.6941 37.0627 34.5095 36.1541 35.5643 35.1939L45.9453 31.4479C45.3791 31.9463 44.8602 32.4391 44.3858 32.929C43.9714 33.3477 43.5817 33.7911 43.2167 34.2606C42.8509 34.7301 42.6342 35.1367 42.565 35.4813L47.6828 33.0964C47.8854 32.7335 48.1459 32.3431 48.4658 31.9251C48.9225 31.3045 49.4513 30.7073 50.0514 30.1326C50.6508 29.5586 51.3681 28.9811 52.2033 28.4015C53.0378 27.8218 54.0192 27.2232 55.1466 26.6075C56.2734 25.9912 57.5929 25.3311 59.1052 24.6258C61.1985 23.6501 63.0814 22.8509 64.7525 22.2275C66.4236 21.6048 67.8949 21.1311 69.165 20.8078C70.4351 20.4844 71.4912 20.3065 72.3335 20.274C73.1751 20.2415 73.7737 20.346 74.1303 20.5875L80.0042 17.8496L80.42 18.6961L74.4882 21.4608C74.4473 21.7658 74.3251 22.1004 74.1225 22.4633C73.9192 22.8269 73.6643 23.2039 73.3558 23.5943C73.0473 23.9847 72.7126 24.373 72.354 24.7571C71.9946 25.1412 71.6564 25.4984 71.3423 25.8267L61.5444 29.303ZM62.0174 25.8966C61.4357 26.1677 60.9775 26.4247 60.6443 26.6668C60.3096 26.909 60.023 27.173 59.7822 27.459L64.2018 25.3989C63.8693 25.2068 63.1414 25.3727 62.0174 25.8966ZM44.6943 35.7389C45.2372 35.4862 45.6919 35.2221 46.0569 34.9482C46.4226 34.6736 46.7248 34.394 46.9669 34.1081L42.6631 36.1138C42.8234 36.2473 43.0762 36.2769 43.4214 36.2028C43.7652 36.128 44.1895 35.974 44.6943 35.7389Z" fill="#3033F2"/>
</svg>
