<svg width="336" height="336" viewBox="0 0 336 336" fill="none" xmlns="http://www.w3.org/2000/svg">
<rect x="167.5" y="77" width="121.697" height="121.697" transform="rotate(45 167.5 77)" fill="#FCE9DC"/>
<path d="M159.234 258.512C160.901 257.49 162.705 256.711 164.644 256.321V228.178C163.209 227.149 162.782 225.194 163.733 223.682C163.978 223.295 164.294 222.986 164.644 222.738V183.023C162.433 182.576 160.376 181.695 158.569 180.472C154.076 177.435 151.12 172.297 151.12 166.481C151.12 166.438 151.133 166.394 151.133 166.35C151.14 165.393 151.251 164.438 151.422 163.491C151.486 163.131 151.577 162.785 151.664 162.436C151.741 162.12 151.785 161.794 151.882 161.482L139.927 153.975L114.828 138.217C114.496 138.328 114.153 138.422 113.78 138.422C112.08 138.422 110.736 137.142 110.511 135.505L88.7916 121.867C88.7278 121.934 88.6505 121.985 88.5866 122.052C88.4455 122.196 88.2876 122.317 88.1431 122.455C87.5518 123.02 86.9268 123.537 86.2649 124.004C86.0498 124.155 85.8281 124.296 85.6063 124.438C84.9444 124.861 84.259 125.231 83.5433 125.556C83.3215 125.657 83.1098 125.768 82.8814 125.859C81.9204 126.249 80.9359 126.578 79.9111 126.783V200.071C79.9246 200.075 79.9347 200.081 79.9481 200.081C79.9884 200.088 80.0254 200.108 80.0657 200.115C81.0569 200.327 82.0078 200.629 82.9284 201.005C83.2543 201.14 83.55 201.318 83.8658 201.469C84.4774 201.765 85.0755 202.07 85.6433 202.433C85.9927 202.658 86.3119 202.91 86.6446 203.159C87.1284 203.522 87.5988 203.898 88.039 204.312C88.3615 204.614 88.6606 204.926 88.9596 205.252C89.3494 205.679 89.7156 206.123 90.0617 206.586C90.3339 206.949 90.5926 207.312 90.8345 207.698C91.1403 208.186 91.4023 208.696 91.6577 209.214C91.8593 209.624 92.0676 210.023 92.2356 210.45C92.4574 211.011 92.6153 211.596 92.7766 212.187C92.8942 212.611 93.0386 213.021 93.1226 213.457C93.2705 214.234 93.3276 215.037 93.3646 215.846C93.378 216.105 93.4418 216.35 93.4418 216.612C93.4418 216.75 93.4049 216.878 93.4015 217.016C93.3814 217.866 93.294 218.712 93.1462 219.549C93.0756 219.956 92.9715 220.342 92.874 220.739C92.8001 221.028 92.7631 221.327 92.6724 221.612L155.77 261.23C155.83 261.166 155.908 261.122 155.971 261.059C156.301 260.726 156.677 260.45 157.033 260.145C157.527 259.718 158.001 259.271 158.535 258.905C158.757 258.754 159.009 258.653 159.234 258.512ZM110.423 151.408C110.423 149.55 111.925 148.048 113.783 148.048C115.641 148.048 117.143 149.55 117.143 151.408V154.681C117.143 156.539 115.641 158.041 113.783 158.041C111.925 158.041 110.423 156.539 110.423 154.681V151.408ZM110.423 171.024C110.423 169.166 111.925 167.664 113.783 167.664C115.641 167.664 117.143 169.166 117.143 171.024V174.297C117.143 176.155 115.641 177.657 113.783 177.657C111.925 177.657 110.423 176.155 110.423 174.297V171.024ZM118.05 195.008C117.415 196.022 116.32 196.58 115.201 196.58C114.59 196.58 113.975 196.412 113.417 196.066L111.996 195.172C111.018 194.557 110.423 193.482 110.423 192.326V190.646C110.423 188.788 111.925 187.286 113.783 187.286C115.581 187.286 117.049 188.698 117.14 190.472C118.591 191.493 119.005 193.486 118.05 195.008ZM136.181 206.385C135.546 207.403 134.451 207.96 133.332 207.96C132.72 207.96 132.105 207.796 131.551 207.446L128.53 205.551C126.958 204.567 126.484 202.494 127.472 200.921C128.456 199.352 130.536 198.872 132.102 199.863L135.123 201.758C136.695 202.739 137.169 204.812 136.181 206.385ZM154.315 217.768C153.68 218.786 152.585 219.344 151.466 219.344C150.854 219.344 150.239 219.179 149.685 218.83L146.664 216.935C145.092 215.951 144.618 213.877 145.606 212.305C146.594 210.732 148.667 210.255 150.236 211.247L153.257 213.142C154.826 214.123 155.303 216.196 154.315 217.768Z" fill="#16222E"/>
<path d="M248.012 112.674C248.109 113.067 248.227 113.454 248.371 113.827C248.452 114.038 248.533 114.247 248.627 114.452C248.818 114.865 249.033 115.265 249.275 115.645C249.342 115.755 249.403 115.87 249.474 115.977C249.635 116.212 249.836 116.414 250.014 116.632C250.313 116.995 250.626 117.348 250.965 117.664C251.197 117.879 251.446 118.074 251.698 118.269C252.024 118.517 252.363 118.746 252.713 118.951C252.998 119.119 253.287 119.287 253.593 119.428C253.969 119.603 254.362 119.734 254.755 119.861C255.054 119.959 255.343 120.073 255.653 120.14C256.237 120.268 256.842 120.328 257.457 120.352C257.588 120.359 257.712 120.392 257.843 120.392C263.444 120.392 268.001 115.836 268.001 110.235C268.001 104.634 263.444 100.078 257.843 100.078C254.379 100.078 251.322 101.825 249.487 104.479C249.41 104.59 249.349 104.708 249.279 104.822C249.02 105.229 248.785 105.652 248.586 106.095C248.519 106.243 248.462 106.391 248.405 106.542C248.234 106.976 248.099 107.423 247.988 107.88C247.951 108.041 247.904 108.202 247.874 108.367C247.76 108.968 247.689 109.583 247.686 110.218C247.686 110.225 247.683 110.235 247.683 110.242C247.683 110.87 247.76 111.481 247.867 112.08C247.904 112.274 247.962 112.473 248.012 112.674Z" fill="#16222E"/>
<path d="M93.1259 107.066C93.267 107.806 93.3107 108.558 93.3544 109.314C93.3712 109.627 93.4484 109.919 93.4484 110.235C93.4484 110.524 93.3779 110.796 93.3611 111.085C93.3208 111.861 93.2737 112.637 93.1259 113.397C93.0318 113.884 92.8705 114.341 92.7361 114.815C92.6084 115.265 92.5244 115.732 92.3598 116.172L113.666 129.552C115.208 128.752 117.11 129.216 118.047 130.704C118.417 131.292 118.521 131.947 118.501 132.592L132.67 141.49L155.108 155.578C155.407 155.225 155.729 154.899 156.052 154.573C156.059 154.567 156.069 154.557 156.075 154.55C156.815 153.807 157.624 153.149 158.481 152.564C158.538 152.524 158.592 152.487 158.649 152.45C159.489 151.892 160.373 151.408 161.304 151.008C161.411 150.961 161.522 150.921 161.633 150.877C162.554 150.504 163.504 150.195 164.489 149.99C164.607 149.964 164.727 149.953 164.848 149.93C165.85 149.742 166.875 149.624 167.919 149.621C167.946 149.621 167.97 149.614 167.997 149.614C168.017 149.614 168.037 149.621 168.061 149.621C169.112 149.624 170.144 149.742 171.152 149.933C171.269 149.957 171.387 149.967 171.505 149.99C172.479 150.195 173.42 150.501 174.33 150.871C174.458 150.921 174.586 150.968 174.71 151.025C175.604 151.415 176.461 151.882 177.27 152.416C177.375 152.487 177.479 152.557 177.583 152.628C178.379 153.182 179.135 153.794 179.827 154.483C179.918 154.573 180.002 154.671 180.089 154.762C180.351 155.034 180.62 155.296 180.862 155.585L217.486 132.606C217.466 131.961 217.57 131.305 217.94 130.717C218.884 129.219 220.799 128.759 222.335 129.565L234.814 121.736L242.364 116.999C242.35 116.972 242.347 116.941 242.337 116.915C241.967 116.058 241.702 115.147 241.477 114.223C241.433 114.042 241.349 113.87 241.309 113.686C241.097 112.664 240.999 111.606 240.983 110.527C240.983 110.436 240.956 110.349 240.956 110.258V110.252C240.956 109.082 241.077 107.943 241.305 106.841C241.419 106.273 241.645 105.743 241.816 105.195C241.981 104.674 242.098 104.136 242.31 103.639C242.327 103.596 242.333 103.548 242.354 103.505L180.21 64.4616C180.187 64.4851 180.16 64.5019 180.136 64.5255C177.062 67.7175 172.771 69.7234 168 69.7234C165.641 69.7234 163.4 69.2295 161.361 68.3525C161.072 68.2282 160.816 68.0434 160.534 67.9023C159.825 67.5495 159.113 67.1933 158.464 66.7498C158.139 66.5246 157.86 66.2424 157.551 65.9938C156.986 65.5435 156.418 65.1 155.914 64.5826C155.871 64.5355 155.813 64.5053 155.77 64.4583L92.3564 104.278C92.5312 104.738 92.6185 105.228 92.7496 105.702C92.8772 106.156 93.0352 106.596 93.1259 107.066ZM199.823 119.324C200.811 117.751 202.884 117.274 204.453 118.265L207.473 120.16C209.046 121.145 209.52 123.218 208.532 124.79C207.897 125.808 206.801 126.366 205.683 126.366C205.071 126.366 204.456 126.202 203.902 125.852L200.881 123.957C199.309 122.969 198.835 120.893 199.823 119.324ZM181.689 107.94C182.673 106.371 184.753 105.887 186.319 106.882L189.339 108.777C190.912 109.761 191.386 111.834 190.398 113.407C189.763 114.425 188.667 114.983 187.549 114.983C186.937 114.983 186.322 114.818 185.768 114.468L182.747 112.573C181.178 111.586 180.701 109.512 181.689 107.94ZM164.791 97.393L166.213 96.4992C167.308 95.8104 168.689 95.8138 169.784 96.4959L171.209 97.3896C172.781 98.3775 173.255 100.451 172.271 102.023C171.357 103.478 169.515 103.992 168 103.283C167.543 103.495 167.059 103.599 166.579 103.599C165.46 103.599 164.368 103.041 163.73 102.026C162.748 100.454 163.219 98.3808 164.791 97.393ZM146.661 108.773L149.681 106.878C151.251 105.887 153.327 106.364 154.311 107.937C155.299 109.509 154.822 111.582 153.253 112.567L150.232 114.462C149.678 114.811 149.06 114.976 148.452 114.976C147.333 114.976 146.241 114.418 145.602 113.4C144.615 111.831 145.092 109.758 146.661 108.773ZM128.53 120.157L131.551 118.262C133.117 117.274 135.196 117.751 136.181 119.32C137.169 120.893 136.692 122.966 135.123 123.95L132.102 125.845C131.547 126.195 130.929 126.36 130.321 126.36C129.202 126.36 128.11 125.802 127.472 124.784C126.484 123.215 126.958 121.141 128.53 120.157Z" fill="#16222E"/>
<path d="M160.981 60.154C161.071 60.2414 161.179 60.3119 161.273 60.3959C161.763 60.8327 162.288 61.2158 162.849 61.5484C163.03 61.6559 163.218 61.7534 163.406 61.8508C163.951 62.1297 164.519 62.3548 165.107 62.5295C165.275 62.5799 165.436 62.6438 165.607 62.6841C166.383 62.8722 167.183 62.9898 168.006 62.9898C168.83 62.9898 169.639 62.8722 170.426 62.674C170.553 62.6438 170.671 62.5934 170.799 62.5598C171.46 62.3682 172.099 62.1129 172.704 61.7937C172.825 61.7298 172.942 61.6694 173.06 61.6022C173.725 61.2158 174.357 60.7689 174.921 60.2414C174.935 60.2279 174.951 60.2178 174.965 60.2078C175.58 59.6265 176.124 58.9646 176.578 58.2354C176.581 58.2321 176.584 58.2287 176.588 58.2254C177.572 56.663 178.164 54.8284 178.164 52.846C178.164 47.2449 173.607 42.6887 168.003 42.6887C162.402 42.6887 157.846 47.2449 157.846 52.846C157.846 54.862 158.454 56.7302 159.469 58.3127C159.905 58.9881 160.413 59.6063 160.981 60.154Z" fill="#16222E"/>
<path d="M76.5674 120.392C76.638 120.392 76.7018 120.372 76.769 120.372C77.4881 120.355 78.1937 120.264 78.8758 120.103C79.1311 120.043 79.373 119.949 79.6217 119.871C80.119 119.713 80.6062 119.525 81.0732 119.29C81.3151 119.169 81.5503 119.045 81.7822 118.904C82.2761 118.605 82.7431 118.258 83.1866 117.875C83.3244 117.754 83.479 117.654 83.61 117.526C84.161 116.992 84.6583 116.387 85.0884 115.725C85.3841 115.271 85.6462 114.794 85.8679 114.294C85.9385 114.132 85.9855 113.961 86.0494 113.796C86.1905 113.42 86.3148 113.034 86.4089 112.634C86.4626 112.412 86.513 112.187 86.5534 111.962C86.634 111.495 86.681 111.021 86.6978 110.537C86.7012 110.436 86.718 110.339 86.718 110.238C86.718 110.127 86.6978 110.016 86.6945 109.906C86.6777 109.425 86.6306 108.955 86.5534 108.494C86.5164 108.276 86.4694 108.064 86.4156 107.849C86.3081 107.409 86.177 106.976 86.0158 106.559C85.9721 106.441 85.9351 106.32 85.8881 106.203C84.3257 102.601 80.7406 100.071 76.5708 100.071C70.9663 100.071 66.4102 104.627 66.4102 110.228C66.4102 115.829 70.963 120.392 76.5674 120.392Z" fill="#16222E"/>
<path d="M177.718 163.669C177.543 163.071 177.324 162.486 177.039 161.935C176.935 161.73 176.827 161.532 176.713 161.334C176.572 161.088 176.431 160.843 176.269 160.615C175.96 160.181 175.631 159.771 175.258 159.392C175.161 159.291 175.053 159.207 174.952 159.109C174.613 158.79 174.253 158.491 173.874 158.219C173.756 158.135 173.639 158.048 173.514 157.97C173.027 157.655 172.516 157.366 171.979 157.134C171.932 157.114 171.881 157.1 171.831 157.083C171.337 156.882 170.82 156.727 170.292 156.606C170.131 156.569 169.966 156.536 169.801 156.505C169.24 156.405 168.672 156.337 168.084 156.331C168.058 156.331 168.031 156.324 168.004 156.324C167.964 156.324 167.923 156.331 167.883 156.331C167.308 156.337 166.751 156.401 166.203 156.502C166.035 156.532 165.867 156.569 165.699 156.606C165.158 156.734 164.627 156.888 164.12 157.097C164.089 157.11 164.059 157.117 164.029 157.127C163.464 157.369 162.93 157.665 162.42 158.001C162.346 158.051 162.272 158.101 162.201 158.152C161.721 158.488 161.264 158.857 160.847 159.271C160.834 159.284 160.82 159.294 160.807 159.308C160.37 159.744 159.977 160.228 159.627 160.739C159.577 160.813 159.537 160.89 159.486 160.964C159.264 161.307 159.08 161.673 158.902 162.039C158.653 162.557 158.451 163.091 158.293 163.635C158.24 163.813 158.169 163.985 158.125 164.17C157.947 164.929 157.84 165.702 157.84 166.478C157.84 169.979 159.621 173.07 162.319 174.901C163.942 175.997 165.894 176.639 167.994 176.639C173.598 176.639 178.154 172.082 178.154 166.481C178.154 166.434 178.141 166.391 178.141 166.343C178.131 165.614 178.037 164.892 177.872 164.186C177.839 164.008 177.768 163.844 177.718 163.669Z" fill="#16222E"/>
<path d="M80.5091 207.255C79.2962 206.741 77.9656 206.458 76.5679 206.458C70.9634 206.458 66.4072 211.015 66.4072 216.616C66.4072 222.22 70.9634 226.776 76.5679 226.776C80.5562 226.776 83.98 224.445 85.6399 221.091C85.912 220.534 86.1338 219.956 86.3018 219.361C86.3387 219.223 86.3959 219.095 86.4295 218.954C86.6109 218.185 86.7184 217.399 86.7184 216.609C86.7184 212.416 84.1547 208.8 80.5091 207.255Z" fill="#16222E"/>
<path d="M175.012 265.544C174.918 265.453 174.807 265.383 174.71 265.295C174.229 264.869 173.712 264.492 173.161 264.163C172.966 264.045 172.764 263.941 172.559 263.837C172.062 263.585 171.541 263.384 171.007 263.212C170.775 263.138 170.55 263.051 170.312 262.997C169.677 262.846 169.025 262.769 168.363 262.742C168.239 262.738 168.121 262.705 167.997 262.705C167.879 262.705 167.768 262.735 167.651 262.738C166.989 262.762 166.34 262.839 165.708 262.987C165.423 263.054 165.154 263.155 164.878 263.246C164.415 263.397 163.965 263.572 163.528 263.787C163.259 263.918 162.997 264.059 162.742 264.213C162.288 264.489 161.861 264.808 161.455 265.154C161.28 265.302 161.092 265.43 160.927 265.591C160.39 266.115 159.906 266.703 159.486 267.348C158.451 268.941 157.836 270.829 157.836 272.865C157.836 278.467 162.392 283.023 167.993 283.023C173.598 283.023 178.154 278.467 178.154 272.865C178.154 270.863 177.552 269.008 176.548 267.432C176.121 266.737 175.597 266.105 175.012 265.544Z" fill="#16222E"/>
<path d="M250.183 201.583C250.962 201.069 251.785 200.626 252.649 200.243C252.746 200.199 252.834 200.142 252.931 200.101C253.932 199.681 254.974 199.332 256.063 199.11V127.025C255.723 126.988 255.394 126.89 255.058 126.833C254.695 126.773 254.336 126.709 253.976 126.625C253.321 126.467 252.686 126.259 252.054 126.027C251.708 125.899 251.359 125.795 251.026 125.647C250.21 125.284 249.43 124.858 248.681 124.37C248.573 124.3 248.459 124.246 248.352 124.175C247.609 123.671 246.9 123.107 246.241 122.489L225.49 135.509C225.262 137.142 223.918 138.419 222.221 138.419C221.851 138.419 221.508 138.324 221.176 138.214L184.115 161.465C184.219 161.791 184.266 162.133 184.347 162.466C184.428 162.792 184.515 163.111 184.575 163.447C184.76 164.448 184.884 165.46 184.884 166.481C184.884 174.639 179.068 181.46 171.367 183.023V222.741C171.717 222.99 172.029 223.299 172.274 223.682C173.219 225.191 172.792 227.136 171.367 228.164V256.324C171.381 256.328 171.391 256.328 171.404 256.328C171.596 256.368 171.77 256.455 171.962 256.502C172.886 256.727 173.796 256.99 174.657 257.359C174.724 257.386 174.781 257.433 174.845 257.463C175.802 257.89 176.716 258.391 177.57 258.982C177.778 259.127 177.953 259.311 178.154 259.463C178.833 259.98 179.498 260.511 180.093 261.122C180.13 261.159 180.177 261.186 180.214 261.227L243.584 221.481C243.362 220.883 243.234 220.258 243.083 219.636C243.026 219.398 242.939 219.176 242.892 218.934C242.676 217.859 242.545 216.764 242.545 215.648C242.545 214.509 242.683 213.41 242.898 212.335C242.922 212.214 242.965 212.103 242.992 211.986C243.201 211.058 243.476 210.161 243.829 209.301C243.913 209.093 244.02 208.901 244.111 208.696C244.457 207.94 244.844 207.215 245.294 206.522C245.432 206.314 245.573 206.112 245.721 205.911C246.188 205.256 246.695 204.637 247.249 204.056C247.421 203.878 247.585 203.703 247.764 203.532C248.362 202.957 249 202.433 249.679 201.953C249.847 201.828 250.008 201.697 250.183 201.583ZM189.343 216.932L186.323 218.827C185.768 219.176 185.15 219.341 184.542 219.341C183.423 219.341 182.331 218.783 181.692 217.765C180.705 216.192 181.182 214.119 182.751 213.135L185.772 211.24C187.337 210.252 189.417 210.729 190.402 212.298C191.389 213.871 190.912 215.947 189.343 216.932ZM207.474 205.551L204.453 207.446C203.899 207.796 203.28 207.96 202.672 207.96C201.553 207.96 200.461 207.403 199.823 206.385C198.835 204.812 199.312 202.739 200.881 201.755L203.902 199.859C205.471 198.872 207.548 199.349 208.532 200.918C209.52 202.494 209.046 204.567 207.474 205.551ZM225.581 192.326C225.581 193.486 224.986 194.557 224.005 195.176L222.58 196.069C222.026 196.419 221.408 196.58 220.8 196.58C219.681 196.58 218.589 196.022 217.947 195.004C216.996 193.482 217.409 191.49 218.861 190.468C218.952 188.698 220.423 187.286 222.217 187.286C224.076 187.286 225.577 188.788 225.577 190.646L225.581 192.326ZM225.581 174.3C225.581 176.158 224.079 177.66 222.221 177.66C220.363 177.66 218.861 176.158 218.861 174.3V171.027C218.861 169.169 220.363 167.667 222.221 167.667C224.079 167.667 225.581 169.169 225.581 171.027V174.3ZM225.581 154.681C225.581 156.539 224.079 158.041 222.221 158.041C220.363 158.041 218.861 156.539 218.861 154.681V151.408C218.861 149.55 220.363 148.048 222.221 148.048C224.079 148.048 225.581 149.55 225.581 151.408V154.681Z" fill="#16222E"/>
<path d="M259.436 205.511C253.834 205.511 249.278 210.067 249.278 215.668C249.278 215.806 249.312 215.934 249.319 216.068C249.346 216.747 249.433 217.409 249.591 218.047C249.661 218.333 249.759 218.608 249.85 218.884C250.068 219.512 250.323 220.127 250.669 220.708C252.427 223.752 255.679 225.829 259.436 225.829C265.04 225.829 269.596 221.273 269.596 215.668C269.596 210.07 265.04 205.511 259.436 205.511Z" fill="#16222E"/>
</svg>
