<svg width="79" height="80" viewBox="0 0 79 80" fill="none" xmlns="http://www.w3.org/2000/svg">
<path d="M48.645 70.4758C65.4083 65.4342 74.9107 47.7579 69.8691 30.9946C64.8275 14.2313 47.1511 4.72896 30.3878 9.77056C13.6245 14.8121 4.12218 32.4885 9.16377 49.2518C14.2054 66.0151 31.8817 75.5174 48.645 70.4758Z" fill="#3033F2" stroke="#6C8EFF" stroke-miterlimit="10" stroke-linecap="round" stroke-linejoin="round"/>
<path d="M64.5611 49.0969C69.5124 35.2641 62.3125 20.0365 48.4797 15.0852C34.6469 10.1339 19.4194 17.3338 14.4681 31.1666C9.51676 44.9994 16.7166 60.227 30.5495 65.1783C44.3823 70.1296 59.6098 62.9297 64.5611 49.0969Z" stroke="#6C8EFF" stroke-miterlimit="10" stroke-linecap="round" stroke-linejoin="round"/>
<path d="M21.902 51.1144L21.5342 30.4208L31.0362 30.2521C32.0465 30.2344 32.9827 30.4265 33.8454 30.8289C34.7074 31.232 35.4509 31.7622 36.075 32.4223C36.6991 33.0817 37.1933 33.8407 37.559 34.6992C37.924 35.5577 38.1146 36.4239 38.1301 37.2987C38.1513 38.5038 37.9091 39.6306 37.4029 40.679C36.8967 41.7281 36.183 42.5909 35.2623 43.2679L39.7695 50.7974L33.3576 50.9111L29.6016 44.622L27.4738 44.6594L27.5867 51.0134L21.902 51.1144ZM27.3848 39.7047L30.9699 39.6412C31.3193 39.6348 31.6413 39.435 31.9357 39.0411C32.2301 38.6471 32.3713 38.1007 32.3586 37.401C32.3459 36.6823 32.1609 36.1366 31.8044 35.7638C31.4478 35.3911 31.0948 35.2082 30.7454 35.2146L27.3057 35.276L27.3848 39.7047Z" fill="#6C8EFF"/>
<path d="M54.4149 36.6004C53.9821 36.3363 53.5112 36.0913 53.0022 35.8675C52.5708 35.6614 52.0865 35.4708 51.5485 35.2957C51.0106 35.1206 50.4691 34.99 49.9233 34.9017L49.9699 37.5245C50.1457 37.5605 50.3307 37.6106 50.527 37.6749C50.7218 37.7398 50.9273 37.7992 51.1426 37.8535C52.0992 38.1282 52.9648 38.4331 53.7393 38.7699C54.513 39.106 55.176 39.5077 55.7288 39.9736C56.2809 40.4403 56.7094 41.0107 57.013 41.6857C57.3166 42.3606 57.4768 43.1838 57.4945 44.1553C57.5149 45.3018 57.3328 46.2817 56.9487 47.0951C56.5647 47.9084 56.0521 48.5791 55.4104 49.105C54.7679 49.6317 54.0322 50.0334 53.2013 50.3102C52.3703 50.5876 51.5083 50.7627 50.6159 50.8369L50.6788 54.3633L48.3468 54.405L48.2833 50.8199C46.9405 50.7274 45.6047 50.4888 44.276 50.104C42.9473 49.72 41.7528 49.2265 40.6924 48.6228L43.0518 43.5954C43.582 43.9166 44.1511 44.2174 44.7589 44.4977C45.2687 44.7412 45.861 44.9792 46.5352 45.2093C47.2102 45.4409 47.8978 45.5983 48.5989 45.6831L48.553 43.1182C47.9479 42.9734 47.3422 42.7998 46.7364 42.5964C45.8172 42.302 45.0244 41.9808 44.3579 41.6327C43.6908 41.2854 43.1394 40.8865 42.7038 40.4375C42.2682 39.9885 41.9434 39.4738 41.7288 38.8949C41.5142 38.316 41.4005 37.6474 41.3871 36.8891C41.3687 35.84 41.5269 34.9088 41.8622 34.0962C42.1976 33.2836 42.6614 32.5804 43.253 31.9867C43.8447 31.3929 44.5408 30.9142 45.3414 30.5499C46.1413 30.1856 46.997 29.9477 47.9091 29.8341L47.8569 26.89L50.1888 26.8484L50.2417 29.8214C50.8842 29.8877 51.5083 29.9936 52.1133 30.1384C52.7184 30.2831 53.2994 30.4525 53.8572 30.6467C54.4142 30.8408 54.9381 31.0456 55.428 31.2602C55.9173 31.4748 56.3684 31.676 56.78 31.8631L54.4149 36.6004ZM47.2589 35.8527C47.2638 36.1443 47.3655 36.3808 47.5632 36.5615C47.7601 36.743 48.0546 36.9075 48.4464 37.0557L48.4068 34.841C47.631 34.9526 47.2483 35.29 47.2589 35.8527ZM51.3826 44.8182C51.3777 44.5464 51.257 44.3099 51.0205 44.1101C50.7839 43.9103 50.4691 43.7359 50.0779 43.5876L50.1161 45.7445C50.582 45.6979 50.9103 45.5948 51.1016 45.4353C51.2937 45.2764 51.3876 45.071 51.3826 44.8182Z" fill="#6C8EFF"/>
</svg>
