<svg width="282" height="282" viewBox="0 0 282 282" fill="none" xmlns="http://www.w3.org/2000/svg">
<mask id="mask0_244_132" style="mask-type:luminance" maskUnits="userSpaceOnUse" x="46" y="46" width="190" height="190">
<path d="M141 235.648C193.272 235.648 235.648 193.273 235.648 141C235.648 88.7274 193.272 46.3521 141 46.3521C88.7269 46.3521 46.3516 88.7274 46.3516 141C46.3516 193.273 88.7269 235.648 141 235.648Z" fill="white"/>
</mask>
<g mask="url(#mask0_244_132)">
<path d="M115.839 343.653C115.839 342.428 116.754 341.427 117.936 341.268V324.816L193.505 249.247L195.953 -7.96126C195.597 -8.02346 195.255 -8.18827 194.98 -8.46296C194.271 -9.17197 194.27 -10.3267 194.98 -11.0357C195.689 -11.7447 196.844 -11.7458 197.554 -11.0357C198.263 -10.3267 198.263 -9.17197 197.554 -8.46192C197.277 -8.18516 196.933 -8.02035 196.575 -7.95919L194.174 249.264L194.221 249.443L118.579 325.085V341.271C119.76 341.43 120.675 342.432 120.675 343.657C120.675 344.992 119.592 346.076 118.257 346.076C116.922 346.072 115.839 344.989 115.839 343.653Z" fill="#FCE9DC"/>
<path d="M138.397 498.76C138.397 497.534 139.313 496.533 140.494 496.374V479.921L216.063 404.352L218.512 147.144C218.155 147.082 217.813 146.917 217.538 146.643C216.829 145.934 216.828 144.779 217.538 144.07C218.247 143.361 219.402 143.36 220.112 144.07C220.821 144.779 220.821 145.933 220.112 146.644C219.835 146.92 219.491 147.085 219.134 147.146L216.733 404.37L216.78 404.548L141.137 480.191V496.377C142.319 496.535 143.234 497.538 143.234 498.763C143.234 500.098 142.151 501.181 140.816 501.181C139.48 501.178 138.396 500.095 138.397 498.76Z" fill="#FCE9DC"/>
<path d="M93.6328 425.048C93.6328 423.823 94.5481 422.821 95.7298 422.663V406.21L171.299 330.641L173.747 73.4333C173.391 73.3711 173.048 73.2063 172.774 72.9316C172.065 72.2226 172.064 71.0678 172.774 70.3588C173.483 69.6498 174.638 69.6488 175.348 70.3588C176.057 71.0678 176.057 72.2226 175.348 72.9326C175.071 73.2094 174.727 73.3742 174.369 73.4353L171.968 330.659L172.015 330.837L96.3725 406.48V422.666C97.5542 422.824 98.4694 423.827 98.4694 425.052C98.4694 426.387 97.3862 427.47 96.0511 427.47C94.715 427.465 93.6318 426.383 93.6328 425.048Z" fill="#FCE9DC"/>
<path d="M188.632 234.973C189.218 234.388 190.101 234.294 190.791 234.677L205.95 219.517L205.951 30.5672C205.037 30.4449 204.328 29.6685 204.328 28.7211C204.328 27.6876 205.166 26.8501 206.199 26.8501C207.233 26.8501 208.07 27.6876 208.07 28.7221C208.07 29.6706 207.362 30.446 206.448 30.5683V219.621V219.723L191.197 234.974C191.906 235.682 191.906 236.832 191.197 237.54C190.489 238.248 189.339 238.248 188.631 237.54C187.923 236.831 187.923 235.682 188.632 234.973Z" fill="#FCE9DC"/>
<path d="M228.684 -97.5728C228.098 -96.9871 227.215 -96.8938 226.526 -97.2763L211.365 -82.1154L211.364 106.834C212.278 106.957 212.987 107.733 212.987 108.681C212.987 109.714 212.15 110.552 211.116 110.552C210.083 110.552 209.245 109.714 209.245 108.681C209.245 107.732 209.953 106.957 210.867 106.834V-82.2181V-82.3207L226.118 -97.5717C225.409 -98.2797 225.409 -99.4293 226.118 -100.137C226.826 -100.845 227.976 -100.845 228.684 -100.137C229.392 -99.4293 229.392 -98.2807 228.684 -97.5728Z" fill="#FCE9DC"/>
<path d="M184.189 18.382C184.189 20.9558 182.095 23.0496 179.521 23.0496C178.451 23.0496 177.476 22.6734 176.688 22.0659L161.088 37.6663V153.85C161.088 153.991 161.032 154.126 160.932 154.225L120.379 194.777V220.895C122.755 221.111 124.629 223.091 124.629 225.522C124.629 228.095 122.534 230.189 119.961 230.189C117.387 230.189 115.293 228.095 115.293 225.522C115.293 223.168 117.05 221.234 119.318 220.918V194.558C119.318 194.417 119.374 194.282 119.473 194.183L160.026 153.631V37.4465C160.026 37.3056 160.082 37.1708 160.182 37.0713L175.928 21.3258C175.267 20.5204 174.853 19.5035 174.853 18.383C174.853 15.8092 176.947 13.7153 179.521 13.7153C182.095 13.7143 184.189 15.8082 184.189 18.382ZM116.354 225.521C116.354 227.51 117.973 229.127 119.961 229.127C121.951 229.127 123.568 227.509 123.568 225.521C123.568 223.664 122.154 222.15 120.349 221.953C120.286 222.174 120.09 222.339 119.848 222.339C119.613 222.339 119.422 222.186 119.351 221.975C117.654 222.266 116.354 223.74 116.354 225.521ZM175.914 18.382C175.914 19.3138 176.278 20.1566 176.861 20.7982C176.941 20.8231 177.018 20.8604 177.081 20.9236C177.139 20.9817 177.176 21.0501 177.202 21.1216C177.831 21.6554 178.634 21.9892 179.522 21.9892C181.511 21.9892 183.128 20.3711 183.128 18.382C183.128 16.3928 181.51 14.7747 179.522 14.7747C177.532 14.7747 175.914 16.3928 175.914 18.382Z" fill="#FCE9DC"/>
<path d="M61.8076 135.366C61.8076 137.94 59.7138 140.034 57.14 140.034C56.0702 140.034 55.0948 139.657 54.307 139.05L38.7067 154.65V270.834C38.7067 270.975 38.6507 271.11 38.5512 271.209L-2.00145 311.761V337.879C0.374365 338.095 2.24848 340.075 2.24848 342.506C2.24848 345.079 0.153576 347.173 -2.42022 347.173C-4.99402 347.173 -7.08789 345.079 -7.08789 342.506C-7.08789 340.151 -5.33091 338.218 -3.0629 337.902V311.542C-3.0629 311.401 -3.00692 311.266 -2.90741 311.167L37.6452 270.615V154.429C37.6452 154.288 37.7012 154.154 37.8007 154.054L53.5472 138.309C52.8859 137.503 52.4723 136.486 52.4723 135.366C52.4723 132.792 54.5662 130.698 57.14 130.698C59.7138 130.698 61.8076 132.792 61.8076 135.366ZM-6.02644 342.503C-6.02644 344.493 -4.40836 346.11 -2.42022 346.11C-0.430012 346.11 1.18704 344.492 1.18704 342.503C1.18704 340.647 -0.226844 339.133 -2.03151 338.936C-2.09474 339.157 -2.29065 339.322 -2.53321 339.322C-2.76748 339.322 -2.95924 339.169 -3.02972 338.958C-4.72659 339.249 -6.02644 340.723 -6.02644 342.503ZM53.5337 135.366C53.5337 136.298 53.8986 137.141 54.4812 137.782C54.561 137.807 54.6377 137.844 54.7009 137.908C54.759 137.966 54.7963 138.034 54.8222 138.106C55.4514 138.639 56.2537 138.973 57.142 138.973C59.1312 138.973 60.7483 137.355 60.7483 135.366C60.7483 133.377 59.1302 131.759 57.142 131.759C55.1518 131.759 53.5337 133.377 53.5337 135.366Z" fill="#FCE9DC"/>
<path d="M223.897 128.231C223.897 130.805 221.804 132.899 219.23 132.899C218.16 132.899 217.185 132.522 216.397 131.915L200.797 147.515V263.699C200.797 263.84 200.741 263.975 200.641 264.074L160.088 304.626V330.744C162.464 330.96 164.338 332.94 164.338 335.371C164.338 337.944 162.243 340.038 159.67 340.038C157.096 340.038 155.002 337.944 155.002 335.371C155.002 333.017 156.759 331.083 159.027 330.767V304.407C159.027 304.266 159.083 304.132 159.182 304.032L199.735 263.48V147.296C199.735 147.155 199.791 147.02 199.891 146.92L215.636 131.175C214.975 130.37 214.561 129.353 214.561 128.232C214.561 125.658 216.655 123.564 219.229 123.564C221.804 123.563 223.897 125.657 223.897 128.231ZM156.064 335.369C156.064 337.358 157.683 338.975 159.671 338.975C161.661 338.975 163.278 337.357 163.278 335.369C163.278 333.512 161.864 331.998 160.059 331.801C159.996 332.023 159.8 332.187 159.558 332.187C159.323 332.187 159.132 332.034 159.061 331.824C157.363 332.115 156.064 333.588 156.064 335.369ZM215.624 128.231C215.624 129.163 215.988 130.006 216.571 130.647C216.651 130.672 216.728 130.71 216.79 130.773C216.848 130.831 216.885 130.899 216.911 130.971C217.54 131.505 218.343 131.838 219.231 131.838C221.22 131.838 222.837 130.22 222.837 128.231C222.837 126.242 221.219 124.624 219.231 124.624C217.242 124.624 215.624 126.242 215.624 128.231Z" fill="#FCE9DC"/>
<path d="M133.176 107.645V45.7434C133.176 45.45 132.938 45.2126 132.645 45.2126C132.352 45.2126 132.114 45.45 132.114 45.7434V107.425L115.448 124.091C115.349 124.191 115.293 124.326 115.293 124.467V142.021C115.293 142.314 115.53 142.552 115.824 142.552C116.117 142.552 116.354 142.314 116.354 142.021V124.686L133.02 108.02C133.12 107.921 133.176 107.786 133.176 107.645Z" fill="#FCE9DC"/>
<path d="M120.575 99.4687V29.8476C120.575 29.5543 120.337 29.3169 120.044 29.3169C119.75 29.3169 119.513 29.5543 119.513 29.8476V99.249L104.193 114.568C103.985 114.776 103.985 115.112 104.193 115.319C104.4 115.526 104.736 115.526 104.943 115.319L120.419 99.844C120.519 99.7445 120.575 99.6097 120.575 99.4687Z" fill="#FCE9DC"/>
<path d="M106.444 117.636C106.444 115.062 104.35 112.967 101.776 112.967C99.2023 112.967 97.1084 115.062 97.1084 117.636C97.1084 120.21 99.2023 122.303 101.776 122.303C104.351 122.303 106.444 120.21 106.444 117.636ZM98.1698 117.636C98.1698 115.646 99.7879 114.028 101.776 114.028C103.765 114.028 105.383 115.647 105.383 117.636C105.383 119.625 103.765 121.242 101.776 121.242C99.7879 121.242 98.1698 119.625 98.1698 117.636Z" fill="#FCE9DC"/>
<path d="M120.002 146.079C120.002 143.505 117.907 141.412 115.334 141.412C112.76 141.412 110.666 143.505 110.666 146.079C110.666 148.653 112.759 150.747 115.334 150.747C117.907 150.747 120.002 148.653 120.002 146.079ZM111.726 146.079C111.726 144.09 113.345 142.473 115.333 142.473C117.323 142.473 118.94 144.091 118.94 146.079C118.94 148.068 117.322 149.686 115.333 149.686C113.345 149.686 111.726 148.067 111.726 146.079Z" fill="#FCE9DC"/>
<path d="M199.966 181.874V119.972C199.966 119.679 199.729 119.441 199.435 119.441C199.142 119.441 198.904 119.679 198.904 119.972V181.654L182.238 198.32C182.139 198.419 182.083 198.554 182.083 198.695V216.249C182.083 216.543 182.32 216.78 182.614 216.78C182.907 216.78 183.144 216.543 183.144 216.249V198.915L199.81 182.249C199.91 182.149 199.966 182.015 199.966 181.874Z" fill="#FCE9DC"/>
<path d="M187.365 173.697V104.076C187.365 103.783 187.127 103.545 186.834 103.545C186.541 103.545 186.303 103.783 186.303 104.076V173.478L170.983 188.797C170.775 189.004 170.775 189.34 170.983 189.547C171.19 189.755 171.526 189.755 171.733 189.547L187.209 174.073C187.309 173.973 187.365 173.838 187.365 173.697Z" fill="#FCE9DC"/>
<path d="M173.234 191.864C173.234 189.29 171.14 187.196 168.566 187.196C165.992 187.196 163.898 189.29 163.898 191.864C163.898 194.438 165.992 196.532 168.566 196.532C171.14 196.532 173.234 194.439 173.234 191.864ZM164.959 191.864C164.959 189.874 166.577 188.257 168.565 188.257C170.554 188.257 172.172 189.875 172.172 191.864C172.172 193.853 170.554 195.47 168.565 195.47C166.577 195.472 164.959 193.853 164.959 191.864Z" fill="#FCE9DC"/>
<path d="M186.79 220.308C186.79 217.734 184.696 215.64 182.122 215.64C179.548 215.64 177.454 217.734 177.454 220.308C177.454 222.882 179.547 224.975 182.122 224.975C184.697 224.975 186.79 222.883 186.79 220.308ZM178.516 220.308C178.516 218.319 180.134 216.702 182.122 216.702C184.112 216.702 185.729 218.32 185.729 220.308C185.729 222.296 184.111 223.914 182.122 223.914C180.134 223.915 178.516 222.297 178.516 220.308Z" fill="#FCE9DC"/>
<path d="M191.501 99.9392C191.501 97.3654 189.408 95.2715 186.834 95.2715C184.26 95.2715 182.165 97.3654 182.165 99.9392C182.165 102.513 184.26 104.607 186.834 104.607C189.408 104.607 191.501 102.513 191.501 99.9392ZM183.226 99.9392C183.226 97.95 184.845 96.3319 186.834 96.3319C188.823 96.3319 190.44 97.95 190.44 99.9392C190.44 101.928 188.822 103.546 186.834 103.546C184.845 103.546 183.226 101.928 183.226 99.9392Z" fill="#FCE9DC"/>
<path d="M204.103 115.835C204.103 113.261 202.009 111.167 199.435 111.167C196.862 111.167 194.767 113.261 194.767 115.835C194.767 118.409 196.862 120.503 199.435 120.503C202.01 120.503 204.103 118.409 204.103 115.835ZM195.828 115.835C195.828 113.846 197.446 112.228 199.435 112.228C201.424 112.228 203.042 113.846 203.042 115.835C203.042 117.824 201.423 119.442 199.435 119.442C197.446 119.442 195.828 117.824 195.828 115.835Z" fill="#FCE9DC"/>
<path d="M152.953 29.6798C152.953 32.038 151.189 33.9722 148.916 34.2843V133.972C148.916 134.113 148.86 134.248 148.761 134.347L105.233 177.905V189.285C107.774 189.324 109.831 191.396 109.831 193.946C109.831 196.52 107.738 198.614 105.164 198.614C102.59 198.614 100.496 196.52 100.496 193.946C100.496 191.712 102.075 189.845 104.173 189.389V177.685C104.173 177.544 104.229 177.41 104.328 177.31L147.856 133.752V34.305C145.486 34.0842 143.617 32.1075 143.617 29.6809C143.617 27.1071 145.711 25.0132 148.286 25.0132C150.859 25.0121 152.953 27.106 152.953 29.6798ZM101.556 193.945C101.556 195.934 103.175 197.551 105.164 197.551C107.153 197.551 108.771 195.933 108.771 193.945C108.771 191.965 107.167 190.355 105.191 190.341C105.11 190.529 104.922 190.662 104.704 190.662C104.535 190.662 104.392 190.578 104.294 190.456C102.726 190.849 101.556 192.257 101.556 193.945ZM144.678 29.6798C144.678 31.612 146.207 33.1803 148.117 33.2705C148.197 33.2218 148.285 33.1865 148.386 33.1865C148.475 33.1865 148.555 33.2135 148.628 33.2529C150.455 33.0777 151.892 31.5519 151.892 29.6798C151.892 27.6906 150.274 26.0726 148.286 26.0726C146.296 26.0726 144.678 27.6906 144.678 29.6798Z" fill="#FCE9DC"/>
<path d="M106.334 71.9489C106.334 74.5227 104.24 76.6166 101.667 76.6166C100.54 76.6166 99.5178 76.1988 98.7103 75.5313L81.5509 92.6907V128.562L96.0297 143.041C96.1292 143.14 96.1852 143.275 96.1852 143.416V260.559C96.1852 260.7 96.1292 260.835 96.0297 260.934L53.7118 303.252V360.695L66.2024 373.186C67.0078 372.525 68.0247 372.111 69.1453 372.111C71.7191 372.111 73.814 374.205 73.814 376.779C73.814 379.353 71.7191 381.447 69.1453 381.447C66.5715 381.447 64.4776 379.354 64.4776 376.779C64.4776 375.709 64.8539 374.734 65.4623 373.945L52.8069 361.289C52.7074 361.19 52.6514 361.055 52.6514 360.914V303.032C52.6514 302.891 52.7074 302.756 52.8069 302.657L95.1248 260.339V143.636L80.646 129.157C80.5465 129.058 80.4905 128.923 80.4905 128.782V92.4709C80.4905 92.3299 80.5465 92.1952 80.646 92.0957L97.9722 74.7694C97.37 73.9837 96.9978 73.0124 96.9978 71.9489C96.9978 69.3751 99.0917 67.2812 101.667 67.2812C104.24 67.2812 106.334 69.3751 106.334 71.9489ZM69.1453 380.385C71.1344 380.385 72.7525 378.767 72.7525 376.779C72.7525 374.791 71.1344 373.173 69.1453 373.173C68.2331 373.173 67.409 373.524 66.7725 374.084C66.7549 374.187 66.7145 374.288 66.6347 374.369C66.5601 374.443 66.4668 374.482 66.3704 374.503C65.8583 375.126 65.538 375.911 65.538 376.779C65.538 378.767 67.1561 380.385 69.1453 380.385ZM98.0593 71.9489C98.0593 72.7668 98.3433 73.5141 98.8036 74.1195C98.9549 74.106 99.1104 74.1496 99.2265 74.2657C99.3301 74.3693 99.382 74.5051 99.382 74.6409C99.382 74.6637 99.3716 74.6844 99.3695 74.7072C99.9956 75.2297 100.79 75.5572 101.668 75.5572C103.657 75.5572 105.274 73.9391 105.274 71.95C105.274 69.9608 103.656 68.3427 101.668 68.3427C99.6774 68.3417 98.0593 69.9597 98.0593 71.9489Z" fill="#FCE9DC"/>
<path d="M68.8647 59.6199C68.8647 62.0123 67.0496 63.9673 64.7267 64.2347V149.622L83.075 167.969C83.1745 168.069 83.2305 168.204 83.2305 168.345V240.676C83.2305 240.817 83.1745 240.952 83.075 241.052L41.3448 282.781V375.92C41.3448 376.06 41.2888 376.195 41.1893 376.295L14.8004 402.684C15.3642 403.455 15.7084 404.397 15.7084 405.424C15.7084 407.998 13.6145 410.093 11.0407 410.093C8.46691 410.093 6.37305 407.998 6.37305 405.424C6.37305 402.851 8.46691 400.757 11.0407 400.757C12.2048 400.757 13.2579 401.2 14.0758 401.907L40.2834 375.699V282.56C40.2834 282.419 40.3393 282.284 40.4388 282.185L82.169 240.456V168.562L63.8207 150.215C63.7212 150.115 63.6652 149.981 63.6652 149.84V64.2327C61.3433 63.9652 59.5272 62.0103 59.5272 59.6179C59.5272 57.0441 61.6211 54.9502 64.1949 54.9502C66.7708 54.9533 68.8647 57.0472 68.8647 59.6199ZM7.4345 405.424C7.4345 407.415 9.05257 409.032 11.0417 409.032C13.0309 409.032 14.649 407.414 14.649 405.424C14.649 404.675 14.4189 403.979 14.0271 403.403C13.8332 403.487 13.601 403.452 13.4424 403.293C13.2756 403.126 13.2496 402.878 13.3523 402.679C12.7241 402.15 11.9249 401.818 11.0417 401.818C9.05257 401.817 7.4345 403.435 7.4345 405.424ZM60.5897 59.6199C60.5897 61.4277 61.93 62.9142 63.6663 63.1733V62.9836C63.6663 62.6903 63.9036 62.4529 64.197 62.4529C64.4903 62.4529 64.7277 62.6903 64.7277 62.9836V63.1733C66.464 62.9142 67.8042 61.4277 67.8042 59.6199C67.8042 57.6308 66.1862 56.0137 64.197 56.0137C62.2078 56.0137 60.5897 57.6318 60.5897 59.6199Z" fill="#FCE9DC"/>
<path d="M117.011 -182.307C117.011 -179.915 115.196 -177.96 112.873 -177.692V-92.3049L131.221 -73.9576C131.321 -73.8581 131.377 -73.7233 131.377 -73.5824V-1.25059C131.377 -1.10962 131.321 -0.974864 131.221 -0.875353L89.4923 40.8528V133.992C89.4923 134.133 89.4363 134.267 89.3368 134.367L62.9478 160.756C63.5117 161.527 63.8558 162.469 63.8558 163.496C63.8558 166.07 61.762 168.165 59.1882 168.165C56.6144 168.165 54.5205 166.07 54.5205 163.496C54.5205 160.923 56.6144 158.829 59.1882 158.829C60.3522 158.829 61.4054 159.272 62.2232 159.979L88.4308 133.771V40.632C88.4308 40.491 88.4868 40.3562 88.5863 40.2567L130.318 -1.47035V-73.3636L111.969 -91.7109C111.87 -91.8104 111.814 -91.9452 111.814 -92.0861V-177.693C109.492 -177.961 107.676 -179.916 107.676 -182.308C107.676 -184.882 109.77 -186.976 112.343 -186.976C114.917 -186.975 117.011 -184.881 117.011 -182.307ZM55.5809 163.496C55.5809 165.487 57.199 167.104 59.1882 167.104C61.1773 167.104 62.7954 165.486 62.7954 163.496C62.7954 162.747 62.5653 162.051 62.1735 161.475C61.9797 161.559 61.7475 161.524 61.5889 161.365C61.422 161.198 61.3961 160.95 61.4987 160.751C60.8705 160.222 60.0713 159.89 59.1882 159.89C57.199 159.89 55.5809 161.508 55.5809 163.496ZM108.736 -182.307C108.736 -180.499 110.076 -179.013 111.813 -178.754V-178.943C111.813 -179.237 112.05 -179.474 112.343 -179.474C112.637 -179.474 112.874 -179.237 112.874 -178.943V-178.754C114.61 -179.013 115.951 -180.499 115.951 -182.307C115.951 -184.296 114.333 -185.913 112.343 -185.913C110.354 -185.913 108.736 -184.296 108.736 -182.307Z" fill="#FCE9DC"/>
</g>
<path d="M141 256.896C205.008 256.896 256.897 205.008 256.897 141C256.897 76.9917 205.008 25.103 141 25.103C76.9922 25.103 25.1035 76.9917 25.1035 141C25.1035 205.008 76.9922 256.896 141 256.896Z" stroke="#FFBB8A" stroke-width="1.1686" stroke-miterlimit="10"/>
<path d="M222.616 85.0192C210.043 66.7206 191.504 53.0307 170.413 46.4702L173.07 37.9258C196.071 45.0802 216.285 60.0047 229.991 79.9514L222.616 85.0192Z" fill="#FCE9DC"/>
<path d="M239.344 129.935C237.969 117.566 234.322 105.727 228.506 94.7452L236.414 90.5564C242.759 102.537 246.737 115.454 248.237 128.946L239.344 129.935Z" fill="#FCE9DC"/>
<path d="M243.02 176.23L234.561 173.311C236.534 167.591 237.986 161.654 238.875 155.665L247.726 156.979C246.757 163.512 245.173 169.989 243.02 176.23Z" fill="#FCE9DC"/>
<path d="M211.425 222.76L205.582 215.983C216.138 206.881 224.507 195.905 230.456 183.361L238.54 187.195C232.055 200.873 222.931 212.838 211.425 222.76Z" fill="#FCE9DC"/>
<path d="M145.346 248.834L144.989 239.894C162.426 239.199 179.402 233.889 194.082 224.536L198.89 232.083C182.878 242.284 164.362 248.077 145.346 248.834Z" fill="#FCE9DC"/>
<path d="M123.532 247.516C84.0163 241.092 51.5085 213.501 38.6934 175.513L47.1725 172.653C58.9241 207.491 88.7337 232.793 124.968 238.685L123.532 247.516Z" fill="#FCE9DC"/>
<path d="M42.0023 140.997H33.0547C33.0547 113.824 43.1861 87.8621 61.5852 67.8916L68.1664 73.9545C51.2941 92.2675 42.0023 116.078 42.0023 140.997Z" fill="#FCE9DC"/>
<path d="M83.5946 60.3433L78.4004 53.0563C96.7414 39.9831 118.381 33.0723 140.978 33.0723V42.0199C120.254 42.021 100.411 48.3565 83.5946 60.3433Z" fill="#FCE9DC"/>
<path d="M141 264.306C209.1 264.306 264.306 209.1 264.306 141C264.306 72.8999 209.1 17.6938 141 17.6938C72.9003 17.6938 17.6943 72.8999 17.6943 141C17.6943 209.1 72.9003 264.306 141 264.306Z" stroke="#FFBB8A" stroke-width="1.2433" stroke-miterlimit="10"/>
<path d="M141 281C218.32 281 281 218.32 281 141C281 63.6801 218.32 1 141 1C63.6801 1 1 63.6801 1 141C1 218.32 63.6801 281 141 281Z" stroke="#FFBB8A" stroke-width="1.4116" stroke-miterlimit="10"/>
<path d="M141 235.648C193.272 235.648 235.648 193.273 235.648 141C235.648 88.7274 193.272 46.3521 141 46.3521C88.7269 46.3521 46.3516 88.7274 46.3516 141C46.3516 193.273 88.7269 235.648 141 235.648Z" stroke="#FCE9DC" stroke-width="0.8981" stroke-miterlimit="10"/>
<path d="M141.047 274.911H141C140.566 274.911 140.132 274.909 139.699 274.905L139.751 269.625C140.166 269.629 140.582 269.631 141 269.631L141.047 274.911ZM143.744 274.884L143.635 269.605C144.067 269.597 144.497 269.585 144.928 269.572L145.087 274.85C144.64 274.864 144.192 274.874 143.744 274.884ZM137.004 274.853C136.556 274.84 136.108 274.824 135.663 274.808L135.863 269.531C136.295 269.547 136.728 269.563 137.162 269.575L137.004 274.853ZM147.778 274.742L147.521 269.468C147.952 269.448 148.381 269.424 148.81 269.398L149.128 274.669C148.679 274.695 148.229 274.72 147.778 274.742ZM132.968 274.675C132.519 274.649 132.071 274.619 131.623 274.589L131.982 269.32C132.413 269.349 132.843 269.378 133.275 269.403L132.968 274.675ZM151.813 274.481L151.398 269.216C151.827 269.183 152.256 269.146 152.685 269.108L153.161 274.366C152.712 274.407 152.263 274.446 151.813 274.481ZM128.934 274.375C128.486 274.336 128.039 274.293 127.592 274.249L128.109 268.995C128.538 269.037 128.968 269.078 129.4 269.116L128.934 274.375ZM155.84 274.1L155.266 268.851C155.694 268.804 156.122 268.754 156.549 268.702L157.184 273.944C156.736 273.998 156.288 274.05 155.84 274.1ZM124.912 273.956C124.465 273.902 124.017 273.847 123.571 273.788L124.256 268.552C124.682 268.608 125.11 268.661 125.537 268.712L124.912 273.956ZM159.853 273.595L159.119 268.365C159.546 268.305 159.972 268.243 160.398 268.179L161.19 273.399C160.744 273.466 160.299 273.533 159.853 273.595ZM120.904 273.414C120.458 273.347 120.012 273.278 119.568 273.206L120.41 267.993C120.835 268.062 121.26 268.128 121.687 268.192L120.904 273.414ZM163.853 272.969L162.954 267.765C163.38 267.692 163.805 267.616 164.229 267.539L165.181 272.732C164.738 272.814 164.297 272.893 163.853 272.969ZM116.914 272.751C116.471 272.67 116.028 272.587 115.585 272.502L116.587 267.317C117.008 267.399 117.432 267.478 117.856 267.555L116.914 272.751ZM167.83 272.222L166.771 267.05C167.195 266.963 167.62 266.875 168.044 266.785L169.145 271.949C168.706 272.041 168.268 272.132 167.83 272.222ZM112.945 271.967C112.506 271.873 112.066 271.778 111.629 271.68L112.78 266.528C113.201 266.622 113.623 266.713 114.046 266.804L112.945 271.967ZM171.777 271.356L170.569 266.216C170.989 266.117 171.41 266.016 171.827 265.913L173.088 271.041C172.653 271.149 172.215 271.253 171.777 271.356ZM109.001 271.065C108.564 270.958 108.128 270.848 107.693 270.737L109.003 265.622C109.421 265.728 109.84 265.834 110.259 265.937L109.001 271.065ZM175.697 270.372L174.337 265.269C174.753 265.158 175.168 265.045 175.583 264.929L177.001 270.016C176.568 270.137 176.133 270.256 175.697 270.372ZM105.086 270.039C104.654 269.92 104.223 269.797 103.793 269.674L105.253 264.599C105.669 264.719 106.086 264.837 106.504 264.953L105.086 270.039ZM179.594 269.266L178.071 264.211C178.485 264.085 178.899 263.96 179.311 263.83L180.881 268.872C180.453 269.005 180.024 269.137 179.594 269.266ZM101.207 268.899C100.776 268.765 100.345 268.629 99.9155 268.49L101.536 263.465C101.948 263.597 102.362 263.728 102.775 263.856L101.207 268.899ZM183.444 268.044L181.777 263.034C182.186 262.898 182.593 262.76 183 262.619L184.726 267.609C184.3 267.756 183.873 267.902 183.444 268.044ZM97.3489 267.635C96.9198 267.487 96.4927 267.337 96.0667 267.185L97.8444 262.212C98.2507 262.357 98.6581 262.501 99.0676 262.64L97.3489 267.635ZM187.262 266.704L185.443 261.747C185.846 261.599 186.249 261.447 186.652 261.295L188.529 266.231C188.107 266.391 187.685 266.549 187.262 266.704ZM93.5323 266.254C93.1083 266.093 92.6864 265.931 92.2646 265.766L94.1926 260.85C94.5948 261.008 94.9969 261.162 95.4012 261.315L93.5323 266.254ZM191.04 265.248L189.064 260.352C189.465 260.19 189.863 260.027 190.26 259.862L192.28 264.742C191.867 264.912 191.454 265.082 191.04 265.248ZM89.7592 264.757C89.3414 264.584 88.9237 264.409 88.508 264.231L90.5864 259.376C90.9834 259.546 91.3814 259.713 91.7794 259.878L89.7592 264.757ZM194.754 263.686L192.629 258.852C193.024 258.679 193.417 258.503 193.811 258.326L195.979 263.141C195.571 263.325 195.164 263.506 194.754 263.686ZM86.0348 263.146C85.6243 262.961 85.2138 262.774 84.8044 262.584L87.0237 257.793C87.4165 257.975 87.8104 258.155 88.2053 258.334L86.0348 263.146ZM198.419 262.01L196.152 257.241C196.54 257.055 196.929 256.869 197.316 256.68L199.627 261.429C199.225 261.625 198.823 261.818 198.419 262.01ZM82.3643 261.425C81.959 261.227 81.5547 261.028 81.1515 260.825L83.5149 256.104C83.9015 256.298 84.2892 256.488 84.6779 256.678L82.3643 261.425ZM202.032 260.225L199.624 255.525C200.007 255.33 200.387 255.132 200.766 254.931L203.228 259.603C202.831 259.814 202.432 260.02 202.032 260.225ZM78.7467 259.591C78.3476 259.381 77.9506 259.17 77.5546 258.956L80.06 254.309C80.4415 254.514 80.8239 254.717 81.2064 254.919L78.7467 259.591ZM205.594 258.33L203.043 253.706C203.42 253.498 203.797 253.289 204.172 253.076L206.765 257.676C206.375 257.895 205.984 258.114 205.594 258.33ZM75.1902 257.651C74.7973 257.43 74.4066 257.206 74.0158 256.98L76.6621 252.412C77.0353 252.628 77.4105 252.842 77.7868 253.054L75.1902 257.651ZM209.098 256.327L206.405 251.784C206.776 251.565 207.146 251.343 207.515 251.12L210.25 255.637C209.867 255.869 209.483 256.098 209.098 256.327ZM71.6918 255.603C71.3072 255.37 70.9237 255.136 70.5412 254.898L73.3223 250.41C73.6903 250.637 74.0593 250.864 74.4294 251.088L71.6918 255.603ZM212.538 254.221L209.714 249.76C210.078 249.53 210.441 249.298 210.801 249.062L213.671 253.496C213.294 253.738 212.917 253.981 212.538 254.221ZM68.2607 253.452C67.8834 253.208 67.5072 252.96 67.133 252.712L70.0488 248.309C70.4095 248.548 70.7713 248.786 71.1341 249.021L68.2607 253.452ZM215.912 252.013L212.962 247.633C213.318 247.393 213.673 247.15 214.026 246.906L217.026 251.253C216.656 251.508 216.284 251.762 215.912 252.013ZM64.896 251.198C64.526 250.942 64.157 250.684 63.79 250.424L66.8386 246.113C67.191 246.363 67.5455 246.61 67.901 246.857L64.896 251.198ZM219.226 249.698L216.137 245.416C216.487 245.163 216.835 244.91 217.181 244.654L220.314 248.905C219.952 249.171 219.589 249.436 219.226 249.698ZM61.6029 248.845C61.2401 248.577 60.8793 248.308 60.5186 248.036L63.6988 243.822C64.044 244.081 64.3892 244.339 64.7364 244.595L61.6029 248.845ZM222.468 247.288L219.25 243.1C219.592 242.837 219.935 242.572 220.273 242.306L223.529 246.463C223.177 246.741 222.822 247.015 222.468 247.288ZM58.3822 246.395C58.0288 246.118 57.6763 245.838 57.3249 245.557L60.6254 241.434C60.9623 241.704 61.3012 241.973 61.6412 242.24L58.3822 246.395ZM225.635 244.778L222.291 240.692C222.625 240.418 222.959 240.143 223.291 239.866L226.671 243.922C226.327 244.209 225.982 244.494 225.635 244.778ZM55.2373 243.847C54.8921 243.559 54.548 243.27 54.2059 242.979L57.6297 238.959C57.9583 239.24 58.2889 239.518 58.6206 239.794L55.2373 243.847ZM228.727 242.177L225.26 238.192C225.587 237.908 225.913 237.622 226.238 237.336L229.735 241.292C229.401 241.589 229.064 241.883 228.727 242.177ZM52.1711 241.209C51.8342 240.911 51.4994 240.61 51.1657 240.309L54.7097 236.395C55.0289 236.684 55.3503 236.972 55.6737 237.258L52.1711 241.209ZM231.735 239.486L228.159 235.601C228.476 235.309 228.79 235.016 229.104 234.72L232.724 238.565C232.396 238.874 232.067 239.181 231.735 239.486ZM49.1868 238.481C48.8582 238.172 48.5317 237.861 48.2073 237.548L51.8716 233.746C52.1815 234.046 52.4935 234.341 52.8065 234.635L49.1868 238.481ZM234.666 236.701L230.974 232.926C231.283 232.625 231.59 232.321 231.896 232.016L235.625 235.754C235.307 236.071 234.988 236.387 234.666 236.701ZM46.2845 235.663C45.9673 235.346 45.6521 235.026 45.3381 234.707L49.107 231.009C49.4097 231.317 49.7145 231.625 50.0202 231.931L46.2845 235.663ZM237.514 233.83L233.71 230.168C234.009 229.858 234.306 229.547 234.601 229.233L238.446 232.853C238.137 233.179 237.826 233.505 237.514 233.83ZM43.4691 232.759C43.1613 232.433 42.8555 232.104 42.5518 231.775L46.4327 228.194C46.725 228.511 47.0204 228.828 47.3158 229.143L43.4691 232.759ZM240.275 230.872L236.359 227.33C236.648 227.009 236.937 226.688 237.223 226.366L241.176 229.867C240.878 230.203 240.578 230.537 240.275 230.872ZM40.745 229.777C40.4475 229.441 40.1521 229.104 39.8577 228.766L43.8413 225.3C44.1242 225.626 44.4093 225.951 44.6954 226.273L40.745 229.777ZM242.945 227.832L238.923 224.411C239.203 224.081 239.483 223.75 239.761 223.418L243.813 226.803C243.526 227.147 243.237 227.49 242.945 227.832ZM38.109 226.712C37.8219 226.368 37.5379 226.023 37.2539 225.676L41.339 222.331C41.6126 222.665 41.8884 222.999 42.1651 223.332L38.109 226.712ZM245.525 224.713L241.402 221.415C241.672 221.077 241.942 220.738 242.209 220.398L246.362 223.658C246.085 224.012 245.805 224.363 245.525 224.713ZM35.5684 223.57C35.2927 223.218 35.018 222.863 34.7454 222.509L38.93 219.288C39.1933 219.63 39.4587 219.972 39.725 220.313L35.5684 223.57ZM248.004 221.523L243.79 218.342C244.049 217.998 244.307 217.652 244.563 217.305L248.813 220.439C248.546 220.801 248.276 221.163 248.004 221.523ZM33.1252 220.357C32.8588 219.995 32.5945 219.632 32.3322 219.268L36.6153 216.179C36.8672 216.53 37.1212 216.878 37.3772 217.224L33.1252 220.357ZM250.392 218.254L246.084 215.201C246.334 214.848 246.582 214.495 246.827 214.139L251.167 217.146C250.91 217.517 250.653 217.886 250.392 218.254ZM30.7784 217.07C30.5234 216.701 30.2695 216.33 30.0186 215.96L34.3919 213C34.6334 213.357 34.877 213.712 35.1216 214.068L30.7784 217.07ZM252.682 214.91L248.281 211.993C248.519 211.632 248.756 211.271 248.992 210.908L253.423 213.782C253.177 214.159 252.931 214.535 252.682 214.91ZM28.5343 213.714C28.2907 213.338 28.0481 212.961 27.8087 212.582L32.268 209.755C32.4981 210.118 32.7313 210.481 32.9656 210.842L28.5343 213.714ZM254.87 211.501L250.382 208.719C250.61 208.351 250.836 207.981 251.061 207.611L255.575 210.351C255.343 210.736 255.106 211.12 254.87 211.501ZM26.3896 210.294C26.1574 209.911 25.9273 209.527 25.6992 209.142L30.2415 206.449C30.4612 206.82 30.6831 207.19 30.9059 207.559L26.3896 210.294ZM256.952 208.028L252.383 205.381C252.6 205.006 252.816 204.63 253.029 204.253L257.623 206.858C257.401 207.248 257.177 207.639 256.952 208.028ZM24.3517 206.813C24.1319 206.423 23.9132 206.032 23.6955 205.64L28.3176 203.085C28.526 203.463 28.7353 203.838 28.9478 204.212L24.3517 206.813ZM258.931 204.491L254.283 201.985C254.49 201.604 254.693 201.222 254.894 200.838L259.566 203.299C259.355 203.697 259.144 204.095 258.931 204.491ZM22.4206 203.273C22.2122 202.876 22.0049 202.478 21.7997 202.079L26.4974 199.667C26.6943 200.049 26.8923 200.431 27.0924 200.811L22.4206 203.273ZM260.801 200.895L256.08 198.531C256.274 198.144 256.465 197.755 256.656 197.366L261.4 199.684C261.201 200.089 261.002 200.493 260.801 200.895ZM20.5952 199.674C20.3993 199.272 20.2044 198.869 20.0116 198.464L24.7808 196.197C24.9653 196.586 25.1519 196.974 25.3406 197.36L20.5952 199.674ZM262.558 197.245L257.771 195.018C257.953 194.627 258.132 194.235 258.31 193.842L263.124 196.012C262.938 196.424 262.75 196.835 262.558 197.245ZM18.8828 196.026C18.6982 195.618 18.5158 195.209 18.3354 194.798L23.171 192.677C23.3431 193.071 23.5183 193.463 23.6945 193.855L18.8828 196.026ZM264.21 193.538L259.354 191.462C259.524 191.063 259.692 190.664 259.859 190.264L264.735 192.291C264.562 192.707 264.387 193.123 264.21 193.538ZM17.2813 192.327C17.1092 191.914 16.9402 191.501 16.7723 191.085L21.6691 189.109C21.8297 189.508 21.9925 189.907 22.1573 190.304L17.2813 192.327ZM265.747 189.778L260.827 187.859C260.985 187.454 261.141 187.049 261.297 186.642L266.232 188.52C266.073 188.939 265.911 189.359 265.747 189.778ZM15.7886 188.575C15.629 188.155 15.4714 187.733 15.3159 187.312L20.2697 185.485C20.419 185.89 20.5703 186.294 20.7237 186.698L15.7886 188.575ZM267.167 185.981L262.194 184.204C262.34 183.797 262.483 183.39 262.624 182.98L267.617 184.7C267.468 185.127 267.319 185.554 267.167 185.981ZM14.4089 184.773C14.2617 184.348 14.1166 183.921 13.9736 183.494L18.9823 181.823C19.1181 182.233 19.257 182.639 19.3979 183.046L14.4089 184.773ZM268.473 182.133L263.448 180.513C263.58 180.101 263.711 179.688 263.84 179.274L268.882 180.842C268.748 181.273 268.611 181.704 268.473 182.133ZM13.1454 180.93C13.0116 180.502 12.88 180.072 12.7494 179.64L17.8058 178.12C17.9301 178.533 18.0566 178.946 18.1852 179.357L13.1454 180.93ZM269.658 178.257L264.584 176.795C264.703 176.379 264.822 175.963 264.938 175.545L270.025 176.963C269.904 177.395 269.781 177.825 269.658 178.257ZM11.9999 177.05C11.8787 176.617 11.7605 176.183 11.6444 175.749L16.7443 174.383C16.8563 174.801 16.9703 175.217 17.0864 175.633L11.9999 177.05ZM270.721 174.355L265.606 173.046C265.713 172.628 265.818 172.208 265.921 171.789L271.049 173.049C270.942 173.484 270.833 173.92 270.721 174.355ZM10.9727 173.139C10.8649 172.703 10.7592 172.264 10.6566 171.826L15.7969 170.618C15.8954 171.038 15.997 171.458 16.0996 171.874L10.9727 173.139ZM271.664 170.426L266.513 169.265C266.607 168.847 266.699 168.426 266.79 168.005L271.954 169.105C271.859 169.546 271.764 169.987 271.664 170.426ZM10.0647 169.196C9.97138 168.757 9.87913 168.319 9.78895 167.879L14.9614 166.82C15.0485 167.244 15.1366 167.668 15.2278 168.091L10.0647 169.196ZM272.493 166.459L267.306 165.467C267.388 165.043 267.467 164.618 267.544 164.193L272.739 165.136C272.66 165.577 272.577 166.019 272.493 166.459ZM9.27689 165.228C9.19603 164.786 9.11828 164.346 9.04158 163.902L14.2452 163.003C14.3188 163.43 14.3944 163.855 14.4722 164.28L9.27689 165.228ZM273.196 162.478L267.982 161.642C268.05 161.215 268.117 160.787 268.182 160.359L273.403 161.15C273.334 161.594 273.265 162.037 273.196 162.478ZM8.6114 161.24C8.54403 160.797 8.47873 160.351 8.4155 159.904L13.6439 159.167C13.7041 159.595 13.7673 160.021 13.8316 160.446L8.6114 161.24ZM273.779 158.475L268.542 157.8C268.597 157.37 268.651 156.939 268.704 156.509L273.946 157.143C273.892 157.586 273.836 158.031 273.779 158.475ZM8.06513 157.233C8.01123 156.786 7.95941 156.338 7.90965 155.889L13.1588 155.315C13.2055 155.743 13.2552 156.171 13.3071 156.598L8.06513 157.233ZM274.24 154.456L268.986 153.939C269.029 153.507 269.07 153.076 269.108 152.644L274.367 153.119C274.327 153.564 274.285 154.011 274.24 154.456ZM7.64014 153.211C7.59971 152.763 7.56136 152.314 7.52508 151.865L12.7888 151.446C12.823 151.877 12.8603 152.306 12.8987 152.735L7.64014 153.211ZM274.582 150.427L269.314 150.068C269.344 149.637 269.372 149.204 269.398 148.771L274.668 149.087C274.642 149.535 274.612 149.982 274.582 150.427ZM7.33746 149.178C7.31051 148.73 7.28564 148.281 7.26283 147.83L12.5369 147.569C12.5576 148 12.5825 148.431 12.6084 148.862L7.33746 149.178ZM274.802 146.39L269.525 146.19C269.542 145.757 269.557 145.324 269.57 144.889L274.848 145.048C274.834 145.496 274.819 145.944 274.802 146.39ZM7.15399 145.137C7.14051 144.689 7.12911 144.242 7.11978 143.795L12.399 143.686C12.4084 144.116 12.4187 144.548 12.4322 144.979L7.15399 145.137ZM274.902 142.351L269.622 142.301C269.627 141.869 269.629 141.437 269.629 141.004V140.818H274.908V141.004C274.908 141.453 274.906 141.902 274.902 142.351ZM12.3721 141.097H7.0918V141.033C7.0918 140.586 7.09283 140.168 7.09698 139.75L12.3773 139.8C12.3731 140.201 12.3721 140.602 12.3721 141.003V141.097ZM269.6 138.233C269.59 137.8 269.579 137.37 269.565 136.94L274.844 136.772C274.857 137.22 274.869 137.668 274.879 138.115L269.6 138.233ZM12.427 137.209L7.14881 137.055C7.16228 136.606 7.17783 136.157 7.19442 135.708L12.4705 135.913C12.454 136.346 12.4394 136.778 12.427 137.209ZM269.46 134.353C269.437 133.919 269.413 133.487 269.387 133.054L274.658 132.737C274.684 133.183 274.71 133.63 274.733 134.078L269.46 134.353ZM12.597 133.325L7.32606 133.018C7.35301 132.569 7.381 132.119 7.41209 131.671L12.6799 132.034C12.6499 132.464 12.6219 132.895 12.597 133.325ZM269.204 130.476C269.168 130.044 269.131 129.611 269.093 129.18L274.351 128.704C274.392 129.15 274.43 129.596 274.466 130.043L269.204 130.476ZM12.8831 129.451L7.62356 128.984C7.66295 128.535 7.70544 128.088 7.75001 127.64L13.0044 128.162C12.9619 128.591 12.9215 129.021 12.8831 129.451ZM268.832 126.608C268.784 126.177 268.733 125.747 268.681 125.317L273.923 124.683C273.977 125.127 274.028 125.572 274.079 126.017L268.832 126.608ZM13.2863 125.586L8.04233 124.961C8.09623 124.514 8.15117 124.066 8.20921 123.62L13.4449 124.305C13.39 124.731 13.3371 125.159 13.2863 125.586ZM268.344 122.754C268.282 122.325 268.22 121.896 268.155 121.468L273.375 120.675C273.442 121.118 273.508 121.561 273.571 122.005L268.344 122.754ZM13.8046 121.737L8.58238 120.953C8.64872 120.508 8.71817 120.064 8.7897 119.62L14.0036 120.458C13.9352 120.885 13.8689 121.311 13.8046 121.737ZM267.74 118.917C267.665 118.49 267.59 118.063 267.512 117.637L272.705 116.685C272.786 117.126 272.865 117.566 272.942 118.008L267.74 118.917ZM14.439 117.904L9.24371 116.963C9.32353 116.521 9.40645 116.079 9.49041 115.638L14.6764 116.631C14.5955 117.055 14.5167 117.479 14.439 117.904ZM267.018 115.096C266.932 114.673 266.843 114.25 266.752 113.829L271.915 112.718C272.01 113.158 272.102 113.596 272.191 114.038L267.018 115.096ZM15.1905 114.094L10.0263 112.993C10.1196 112.554 10.216 112.116 10.3135 111.679L15.4673 112.826C15.3719 113.248 15.2796 113.671 15.1905 114.094ZM266.181 111.299C266.083 110.881 265.981 110.462 265.878 110.044L271.003 108.776C271.112 109.214 271.218 109.651 271.321 110.091L266.181 111.299ZM16.0571 110.306L10.9281 109.052C11.0349 108.615 11.1437 108.178 11.2557 107.742L16.3712 109.051C16.2644 109.469 16.1597 109.888 16.0571 110.306ZM265.233 107.539C265.12 107.121 265.005 106.703 264.888 106.285L269.975 104.866C270.095 105.298 270.213 105.73 270.329 106.162L265.233 107.539ZM17.0377 106.55L11.9502 105.137C12.0704 104.704 12.1928 104.272 12.3161 103.841L17.3901 105.302C17.2709 105.716 17.1538 106.132 17.0377 106.55ZM264.167 103.801C264.043 103.387 263.916 102.975 263.788 102.563L268.826 100.987C268.961 101.415 269.093 101.845 269.223 102.276L264.167 103.801ZM18.1323 102.821L13.0894 101.256C13.2231 100.824 13.3599 100.393 13.4978 99.9635L18.5231 101.584C18.3914 101.995 18.2608 102.408 18.1323 102.821ZM262.991 100.102C262.852 99.6919 262.713 99.2824 262.571 98.873L267.561 97.1461C267.707 97.569 267.852 97.994 267.994 98.419L262.991 100.102ZM19.3461 99.1155L14.353 97.3969C14.5001 96.9698 14.6494 96.5428 14.8008 96.1188L19.7763 97.8893C19.6301 98.2966 19.4871 98.7051 19.3461 99.1155ZM261.242 95.2212L266.178 93.3439C266.338 93.7627 266.494 94.1825 266.651 94.6044M20.6708 95.4482L15.7316 93.5792C15.8923 93.1563 16.054 92.7344 16.2188 92.3136L21.1363 94.2385C20.9787 94.6396 20.8243 95.0439 20.6708 95.4482ZM260.297 92.8132C260.136 92.4141 259.972 92.0161 259.807 91.6191L264.682 89.5905C264.854 90.0031 265.023 90.4156 265.191 90.8313L260.297 92.8132ZM22.1065 91.8264L17.2274 89.8061C17.3994 89.3894 17.5746 88.9738 17.7519 88.5591L22.6103 90.6281C22.4403 91.0272 22.2723 91.4252 22.1065 91.8264ZM258.792 89.2474C258.619 88.8535 258.444 88.4617 258.267 88.0699L263.078 85.8931C263.262 86.3015 263.445 86.7099 263.625 87.1193L258.792 89.2474ZM23.651 88.2513L18.8372 86.0807C19.0217 85.6702 19.2093 85.2608 19.3979 84.8524L24.191 87.0675C24.0096 87.4614 23.8293 87.8553 23.651 88.2513ZM257.181 85.7293C256.995 85.3406 256.808 84.9529 256.619 84.5663L261.363 82.2464C261.559 82.6486 261.754 83.0508 261.947 83.4551L257.181 85.7293ZM25.3053 84.7218L20.5579 82.4102C20.7558 82.0039 20.9549 81.5996 21.157 81.1964L25.8796 83.5598C25.6858 83.9464 25.494 84.333 25.3053 84.7218ZM255.464 82.262C255.265 81.8774 255.066 81.4949 254.865 81.1124L259.537 78.6506C259.745 79.0455 259.95 79.4415 260.155 79.8385L255.464 82.262ZM27.0634 81.2492L22.3895 78.7915C22.5989 78.3925 22.8103 77.9955 23.0239 77.5995L27.6729 80.1028C27.4676 80.4843 27.2644 80.8667 27.0634 81.2492ZM253.639 78.8423C253.43 78.465 253.22 78.0887 253.006 77.7145L257.601 75.1117C257.821 75.5015 258.04 75.8912 258.256 76.283L253.639 78.8423ZM28.9271 77.8306L24.3289 75.234C24.5507 74.8422 24.7746 74.4504 24.9995 74.0606L29.5698 76.7039C29.3542 77.0791 29.1396 77.4544 28.9271 77.8306ZM251.711 75.4776C251.492 75.1076 251.271 74.7396 251.047 74.3716L255.56 71.6299C255.794 72.0145 256.025 72.399 256.254 72.7857L251.711 75.4776ZM30.8914 74.4722L26.374 71.7367C26.6073 71.351 26.8426 70.9675 27.0799 70.585L31.5683 73.3661C31.3413 73.7341 31.1153 74.1021 30.8914 74.4722ZM249.682 72.172C249.452 71.8092 249.22 71.4474 248.985 71.0867L253.415 68.2113C253.659 68.5886 253.902 68.9659 254.141 69.3463L249.682 72.172ZM32.9573 71.1748L28.526 68.3035C28.7706 67.9252 29.0173 67.5489 29.2661 67.1737L33.6684 70.0895C33.4289 70.4503 33.1926 70.812 32.9573 71.1748ZM247.556 68.9307C247.314 68.5751 247.072 68.2196 246.826 67.8661L251.166 64.858C251.422 65.227 251.676 65.5981 251.927 65.9702L247.556 68.9307ZM35.1216 67.9418L30.7774 64.9388C31.0334 64.5688 31.2905 64.2008 31.5496 63.8328L35.8638 66.8772C35.615 67.2317 35.3673 67.5862 35.1216 67.9418ZM245.334 65.7556C245.081 65.4053 244.826 65.057 244.57 64.7098L248.82 61.5762C249.085 61.9369 249.349 62.2987 249.613 62.6625L245.334 65.7556ZM37.3803 64.7771L33.1304 61.6436C33.3968 61.2818 33.6663 60.9211 33.9369 60.5614L38.1546 63.7375C37.8955 64.0826 37.6374 64.4288 37.3803 64.7771ZM243.014 62.6439C242.75 62.3018 242.487 61.9628 242.221 61.6239L246.37 58.3587C246.648 58.7122 246.924 59.0667 247.198 59.4222L243.014 62.6439ZM39.7344 61.6819L35.5798 58.423C35.8576 58.0685 36.1375 57.716 36.4184 57.3646L40.5387 60.6671C40.2692 61.004 40.0008 61.3419 39.7344 61.6819ZM240.602 59.6047C240.328 59.2698 240.052 58.9371 239.775 58.6054L243.831 55.2231C244.118 55.5672 244.403 55.9124 244.687 56.2586L240.602 59.6047ZM42.1796 58.6593L38.1256 55.2759C38.4138 54.9308 38.703 54.5877 38.9943 54.2456L43.0162 57.6673C42.7352 57.9959 42.4564 58.3276 42.1796 58.6593ZM238.096 56.6349C237.813 56.3094 237.529 55.986 237.243 55.6636L241.191 52.1579C241.49 52.4938 241.787 52.8317 242.082 53.1717L238.096 56.6349ZM44.714 55.7113L40.7616 52.2098C41.0601 51.8729 41.3607 51.537 41.6634 51.2033L45.5754 54.7494C45.2873 55.0686 45.0001 55.3889 44.714 55.7113ZM235.504 53.7429C235.212 53.4267 234.917 53.1106 234.623 52.7975L238.465 49.1757C238.774 49.5033 239.081 49.8319 239.386 50.1626L235.504 53.7429ZM47.3355 52.8431L43.4909 49.2234C43.7988 48.8969 44.1087 48.5704 44.4197 48.247L48.228 51.905C47.9285 52.216 47.631 52.529 47.3355 52.8431ZM232.825 50.9296C232.524 50.6228 232.221 50.317 231.916 50.0122L235.649 46.2765C235.967 46.5947 236.284 46.915 236.598 47.2353L232.825 50.9296ZM50.0399 50.0558L46.3062 46.3221C46.6234 46.0049 46.9416 45.6898 47.2619 45.3757L50.9625 49.1426C50.6536 49.4452 50.3457 49.75 50.0399 50.0558ZM230.063 48.1983C229.753 47.8997 229.439 47.6022 229.126 47.3068L232.746 43.4622C233.073 43.77 233.399 44.08 233.723 44.392L230.063 48.1983ZM52.8283 47.3493L49.2065 43.5067C49.5341 43.1989 49.8627 42.8921 50.1934 42.5873L53.7737 46.4682C53.4575 46.7595 53.1413 47.0539 52.8283 47.3493ZM227.224 45.5519C226.903 45.2616 226.581 44.9735 226.258 44.6874L229.759 40.735C230.095 41.0325 230.43 41.332 230.764 41.6337L227.224 45.5519ZM55.6934 44.7309L52.1919 40.7785C52.5277 40.481 52.8646 40.1845 53.2035 39.8902L56.6678 43.8758C56.3412 44.1598 56.0168 44.4438 55.6934 44.7309ZM224.3 42.9874C223.971 42.7075 223.641 42.4308 223.31 42.1551L226.689 38.0969C227.035 38.3851 227.38 38.6753 227.722 38.9676L224.3 42.9874ZM58.6372 42.1986L55.2549 38.1446C55.5991 37.8574 55.9453 37.5713 56.2915 37.2873L59.6354 41.3735C59.3017 41.6471 58.9689 41.9218 58.6372 42.1986ZM221.302 40.5142C220.965 40.2447 220.626 39.9762 220.287 39.7098L223.543 35.5532C223.897 35.831 224.251 36.1108 224.601 36.3917L221.302 40.5142ZM61.6547 39.7564L58.3936 35.6029C58.7471 35.3251 59.1016 35.0504 59.4572 34.7768L62.6747 38.9635C62.3336 39.2257 61.9936 39.49 61.6547 39.7564ZM218.231 38.1332C217.885 37.873 217.538 37.6138 217.189 37.3568L220.322 33.1068C220.683 33.3732 221.043 33.6407 221.401 33.9102L218.231 38.1332ZM64.7426 37.4065L61.6091 33.1566C61.9698 32.8902 62.3316 32.6269 62.6964 32.3636L65.7875 36.6447C65.4382 36.8965 65.0899 37.1505 64.7426 37.4065ZM215.088 35.8403C214.735 35.5915 214.381 35.3448 214.025 35.0991L217.025 30.7538C217.396 31.0099 217.765 31.2669 218.132 31.5261L215.088 35.8403ZM67.899 35.152L64.895 30.8098C65.264 30.5548 65.6341 30.3009 66.0052 30.049L68.9656 34.4212C68.609 34.6627 68.2535 34.9063 67.899 35.152ZM211.873 33.6448C211.513 33.4064 211.152 33.1701 210.79 32.9358L213.659 28.5034C214.038 28.7481 214.415 28.9948 214.79 29.2436L211.873 33.6448ZM71.1206 32.9939L68.2493 28.5625C68.6256 28.3189 69.0029 28.0764 69.3802 27.8369L72.209 32.2952C71.8452 32.5264 71.4824 32.7596 71.1206 32.9939ZM208.599 31.5489C208.231 31.3219 207.862 31.0959 207.492 30.872L210.225 26.3546C210.611 26.5879 210.994 26.8221 211.377 27.0595L208.599 31.5489ZM74.4055 30.9332L71.6679 26.4179C72.0515 26.1846 72.436 25.9545 72.8227 25.7254L75.5126 30.2698C75.1425 30.4895 74.7735 30.7103 74.4055 30.9332ZM205.258 29.5504C204.885 29.3348 204.509 29.1202 204.132 28.9077L206.728 24.3085C207.12 24.5303 207.512 24.7542 207.902 24.9791L205.258 29.5504ZM77.7495 28.9741L75.1487 24.3789C75.5385 24.1582 75.9293 23.9394 76.3221 23.7228L78.8773 28.3438C78.5 28.5522 78.1247 28.7616 77.7495 28.9741ZM201.859 27.6545C201.478 27.4493 201.097 27.2461 200.713 27.045L203.168 22.3701C203.567 22.5795 203.965 22.792 204.362 23.0055L201.859 27.6545ZM81.1505 27.1165L78.6886 22.4447C79.0846 22.2363 79.4826 22.029 79.8817 21.8238L82.2948 26.5205C81.9123 26.7174 81.5309 26.9165 81.1505 27.1165ZM198.404 25.8633C198.017 25.6695 197.629 25.4777 197.239 25.289L199.55 20.5416C199.956 20.7385 200.359 20.9386 200.762 21.1397L198.404 25.8633ZM84.6043 25.3637L82.2845 20.6203C82.6877 20.4234 83.092 20.2285 83.4983 20.0357L85.7642 24.805C85.3755 24.9895 84.9899 25.1761 84.6043 25.3637ZM194.892 24.1747C194.499 23.9933 194.105 23.814 193.711 23.6368L195.878 18.8209C196.289 19.0064 196.7 19.193 197.108 19.3827L194.892 24.1747ZM88.1069 23.7176L85.9332 18.9059C86.3406 18.7214 86.75 18.54 87.1595 18.3596L89.2855 23.1931C88.8916 23.3662 88.4987 23.5404 88.1069 23.7176ZM191.335 22.596C190.935 22.426 190.535 22.2581 190.134 22.0923L192.153 17.2131C192.569 17.3852 192.985 17.5594 193.399 17.7356L191.335 22.596ZM91.6582 22.1783L89.6306 17.3033C90.0442 17.1313 90.4589 16.9613 90.8735 16.7944L92.8502 21.6911C92.4522 21.8507 92.0541 22.0135 91.6582 22.1783ZM187.725 21.1241C187.322 20.9666 186.918 20.8111 186.512 20.6577L188.38 15.7184C188.803 15.878 189.224 16.0408 189.645 16.2046L187.725 21.1241ZM95.2613 20.7437L93.384 15.8086C93.8028 15.649 94.2237 15.4924 94.6445 15.3359L96.4772 20.2876C96.0708 20.4379 95.6655 20.5903 95.2613 20.7437ZM184.072 19.7641C183.663 19.619 183.254 19.476 182.843 19.334L184.563 14.3418C184.989 14.488 185.414 14.6373 185.838 14.7876L184.072 19.7641ZM98.9131 19.4169L97.1862 14.4279C97.6101 14.2807 98.0362 14.1356 98.4622 13.9936L100.138 19.0002C99.7289 19.137 99.3205 19.2759 98.9131 19.4169ZM180.377 18.514C179.964 18.3814 179.552 18.2507 179.137 18.1222L180.701 13.0783C181.133 13.212 181.564 13.3478 181.993 13.4856L180.377 18.514ZM102.602 18.2031L101.029 13.1622C101.457 13.0285 101.886 12.8969 102.316 12.7673L103.841 17.8226C103.427 17.9481 103.014 18.0745 102.602 18.2031ZM176.655 17.38C176.241 17.2608 175.826 17.1437 175.411 17.0286L176.82 11.9391C177.254 12.0593 177.687 12.1816 178.119 12.306L176.655 17.38ZM106.327 17.1022L104.908 12.0158C105.34 11.8955 105.772 11.7763 106.206 11.6602L107.577 16.7602C107.16 16.8721 106.743 16.9861 106.327 17.1022ZM172.908 16.3632C172.49 16.2564 172.072 16.1517 171.651 16.0491L172.905 10.9191C173.343 11.0259 173.778 11.1347 174.215 11.2456L172.908 16.3632ZM110.083 16.1144L108.819 10.9875C109.255 10.8797 109.691 10.775 110.129 10.6714L111.342 15.8107C110.923 15.9091 110.503 16.0107 110.083 16.1144ZM169.129 15.4593C168.709 15.3649 168.288 15.2737 167.867 15.1846L168.962 10.0194C169.404 10.1126 169.844 10.209 170.282 10.3065L169.129 15.4593ZM113.87 15.2406L112.76 10.0784C113.199 9.98411 113.64 9.89082 114.081 9.80167L115.134 14.9752C114.712 15.0623 114.291 15.1504 113.87 15.2406ZM165.329 14.6725C164.904 14.5917 164.479 14.5118 164.053 14.4351L164.994 9.23985C165.437 9.31967 165.877 9.40156 166.318 9.48552L165.329 14.6725ZM117.679 14.4839L116.728 9.28961C117.169 9.20876 117.611 9.12998 118.054 9.05327L118.955 14.2569C118.529 14.3294 118.103 14.4051 117.679 14.4839ZM161.502 13.9987C161.076 13.9314 160.649 13.864 160.221 13.8008L161.005 8.57852C161.448 8.64486 161.893 8.71327 162.335 8.7848L161.502 13.9987ZM121.51 13.8412L120.717 8.62102C121.161 8.55365 121.606 8.48835 122.05 8.42512L122.793 13.6536C122.363 13.7137 121.936 13.7769 121.51 13.8412ZM157.654 13.4431C157.226 13.3872 156.798 13.3343 156.37 13.2835L156.995 8.04055C157.442 8.09341 157.888 8.14938 158.333 8.20639L157.654 13.4431ZM125.359 13.3167L124.725 8.07475C125.17 8.02085 125.616 7.96902 126.063 7.91926L126.646 13.1674C126.216 13.2151 125.787 13.2648 125.359 13.3167ZM153.793 13.0036C153.364 12.9611 152.935 12.9207 152.506 12.8824L152.972 7.62281C153.42 7.6622 153.869 7.7047 154.316 7.74927L153.793 13.0036ZM129.222 12.9072L128.747 7.64873C129.193 7.6083 129.641 7.56995 130.089 7.53367L130.514 12.7963C130.083 12.8316 129.653 12.8678 129.222 12.9072ZM149.922 12.6802C149.492 12.6502 149.061 12.6232 148.631 12.5983L148.939 7.32738C149.389 7.35433 149.838 7.38232 150.285 7.41342L149.922 12.6802ZM133.099 12.6139L132.778 7.34293C133.227 7.31598 133.675 7.2911 134.125 7.2683L134.392 12.5413C133.959 12.5641 133.529 12.5869 133.099 12.6139ZM146.043 12.4719C145.612 12.4553 145.18 12.4408 144.749 12.4283L144.898 7.15013C145.349 7.16257 145.798 7.17812 146.247 7.19574L146.043 12.4719ZM136.98 12.4366L136.816 7.15946C137.265 7.14599 137.714 7.13355 138.164 7.12525L138.269 12.4045C137.839 12.4118 137.409 12.4232 136.98 12.4366ZM142.158 12.3807C141.772 12.3775 141.386 12.3755 140.999 12.3755H140.859V7.09519H140.979C141.408 7.07964 141.803 7.09726 142.204 7.10037L142.158 12.3807Z" fill="#FFBB8A"/>
</svg>
