<svg width="99" height="62" viewBox="0 0 99 62" fill="none" xmlns="http://www.w3.org/2000/svg">
<path d="M90.3087 44.8258C76.5128 58.0153 47.2695 64.6468 25.0235 59.5968C20.9026 58.6557 17.3055 57.3884 14.2612 55.8408C7.72718 52.5389 3.79194 48.0198 2.78519 42.9867L1.07031 33.7677C2.07636 38.8008 6.01231 43.3199 12.5583 46.6261C15.5977 48.1603 19.1877 49.4367 23.3206 50.3821C45.5667 55.4321 74.7979 48.7964 88.6009 35.5977C94.4084 30.0309 96.6006 24.1944 95.5465 18.9114L97.2614 28.1303C98.3155 33.414 96.1233 39.2498 90.3087 44.8258Z" fill="#6C8EFF"/>
<path d="M90.3087 44.8258C76.5128 58.0153 47.2695 64.6468 25.0235 59.5968C20.9026 58.6557 17.3055 57.3884 14.2612 55.8408C7.72718 52.5389 3.79194 48.0198 2.78519 42.9867L1.07031 33.7677C2.07636 38.8008 6.01231 43.3199 12.5583 46.6261C15.5977 48.1603 19.1877 49.4367 23.3206 50.3821C45.5667 55.4321 74.7979 48.7964 88.6009 35.5977C94.4084 30.0309 96.6006 24.1944 95.5465 18.9114L97.2614 28.1303C98.3155 33.414 96.1233 39.2498 90.3087 44.8258Z" stroke="#B3B5CC" stroke-miterlimit="10" stroke-linecap="round" stroke-linejoin="round"/>
<path d="M12.5586 46.6262L14.2608 55.8409" stroke="#B3B5CC" stroke-miterlimit="10" stroke-linecap="round" stroke-linejoin="round"/>
<path d="M55.3105 50.6086L56.9682 59.8516" stroke="#B3B5CC" stroke-miterlimit="10" stroke-linecap="round" stroke-linejoin="round"/>
<path d="M33.4609 51.8604L34.8518 61.0609" stroke="#B3B5CC" stroke-miterlimit="10" stroke-linecap="round" stroke-linejoin="round"/>
<path d="M77.6777 43.9456L78.9874 52.6202" stroke="#B3B5CC" stroke-miterlimit="10" stroke-linecap="round" stroke-linejoin="round"/>
<path d="M90.0732 34.0967L91.4824 43.6227" stroke="#B3B5CC" stroke-miterlimit="10" stroke-linecap="round" stroke-linejoin="round"/>
<path d="M89.4747 35.3791C76.2633 48.4965 47.1655 55.1061 24.4945 50.1175C20.2902 49.1898 16.6035 47.9268 13.459 46.4075C-0.356741 39.7047 -3.48715 27.9371 7.28076 17.1798C20.5416 3.9564 49.6386 -2.66094 72.3987 2.36296C76.5916 3.29135 80.2677 4.54662 83.401 6.06664C97.2393 12.7772 100.361 24.5766 89.4747 35.3791Z" fill="#6C8EFF"/>
<path d="M89.4749 35.3801C85.863 38.968 81.0608 42.0688 75.5265 44.5744C78.9421 42.6223 81.956 40.4048 84.4129 37.962C95.3008 27.1567 92.1753 15.3559 78.3406 8.64888C75.2102 7.12745 71.5333 5.8743 67.3383 4.94238C50.8454 1.30154 31.0308 3.77464 16.3213 10.4421C31.2885 1.87338 53.9271 -1.71733 72.4003 2.35982C76.596 3.29245 80.2665 4.54489 83.4026 6.06632C97.2374 12.7747 100.362 24.5755 89.4749 35.3801Z" fill="#3033F2"/>
<path d="M89.4747 35.3791C76.2633 48.4965 47.1655 55.1061 24.4945 50.1175C20.2902 49.1898 16.6035 47.9268 13.459 46.4075C-0.356741 39.7047 -3.48715 27.9371 7.28076 17.1798C20.5416 3.9564 49.6386 -2.66094 72.3987 2.36296C76.5916 3.29135 80.2677 4.54662 83.401 6.06664C97.2393 12.7772 100.361 24.5766 89.4747 35.3791Z" stroke="#B3B5CC" stroke-miterlimit="10" stroke-linecap="round" stroke-linejoin="round"/>
<path d="M82.7975 33.8969C71.7366 44.8731 47.3626 50.4137 28.3868 46.2293C24.8638 45.4513 21.7715 44.3951 19.1424 43.1201C7.56963 37.5074 4.95814 27.6565 13.9759 18.6579C25.0756 7.58709 49.4495 2.03792 68.4946 6.24709C72.0063 7.02157 75.0901 8.07492 77.7136 9.34713C89.2941 14.9634 91.9063 24.8495 82.7975 33.8969Z" stroke="#3033F2" stroke-miterlimit="10" stroke-linecap="round" stroke-linejoin="round"/>
<path d="M20.2393 36.9609L28.3674 13.3064H41.2406C42.6089 13.3064 43.7907 13.5457 44.7848 14.023C45.7788 14.501 46.5589 15.1222 47.1245 15.889C47.6907 16.655 48.0408 17.5325 48.175 18.5209C48.3091 19.5093 48.2046 20.5034 47.8608 21.5024C47.3878 22.8798 46.5914 24.1626 45.4724 25.3508C44.3534 26.539 43.0318 27.5111 41.5089 28.2658L44.4438 36.9616H35.7571L33.3172 29.6983H30.4346L27.9389 36.9616H20.2393V36.9609ZM32.381 24.0341H37.2383C37.7121 24.0341 38.2288 23.8124 38.7901 23.3676C39.3507 22.9235 39.7686 22.3015 40.0433 21.5016C40.3257 20.6806 40.3045 20.0522 39.979 19.6195C39.6536 19.1867 39.2547 18.9699 38.7809 18.9699H34.1213L32.381 24.0341Z" fill="#3033F2"/>
<path d="M70.0942 21.0357C69.6219 20.725 69.0889 20.4356 68.4965 20.1694C68.0009 19.9251 67.4276 19.6978 66.7767 19.4867C66.1251 19.2763 65.4494 19.1154 64.7512 19.0038L63.7211 22.0022C63.9428 22.0467 64.1716 22.1081 64.4088 22.1857C64.6446 22.2634 64.8966 22.3354 65.1635 22.4025C66.3383 22.7357 67.3775 23.1021 68.2798 23.5017C69.1821 23.9013 69.9085 24.3737 70.4585 24.918C71.0078 25.4623 71.3474 26.1231 71.4751 26.9004C71.6029 27.6784 71.4759 28.6223 71.0946 29.7322C70.6442 31.0432 69.9904 32.1594 69.1348 33.0807C68.2784 34.0028 67.3076 34.7582 66.2239 35.3463C65.1395 35.9351 63.9796 36.3792 62.7455 36.6792C61.5107 36.9793 60.2759 37.1621 59.0425 37.2285L57.6573 41.2598H54.4987L55.9071 37.1614C54.1365 37.0287 52.4364 36.7287 50.8063 36.262C49.1761 35.796 47.7726 35.2079 46.5957 34.4963L51.8702 28.7996C52.4513 29.1773 53.0923 29.5324 53.7941 29.8656C54.3786 30.1544 55.0783 30.4375 55.8909 30.715C56.7035 30.9931 57.5648 31.1873 58.4742 31.2981L59.4816 28.3661C58.7262 28.1889 57.9828 27.9778 57.2507 27.7335C56.1352 27.3784 55.2004 26.995 54.4471 26.5841C53.6931 26.1732 53.1163 25.7066 52.7167 25.1848C52.3164 24.6631 52.0933 24.0687 52.046 23.4022C51.9987 22.7357 52.1237 21.9697 52.4216 21.1035C52.8339 19.904 53.4347 18.8436 54.2254 17.9215C55.0155 17.0002 55.934 16.2052 56.9789 15.5395C58.0237 14.873 59.1611 14.34 60.3909 13.9404C61.6201 13.5408 62.8732 13.2852 64.149 13.1744L65.3054 9.80957H68.464L67.2963 13.2076C68.1343 13.2965 68.9307 13.4299 69.6861 13.6071C70.4409 13.7851 71.1539 13.9905 71.8239 14.2235C72.4939 14.4565 73.1138 14.7015 73.6842 14.9563C74.254 15.2119 74.7778 15.4512 75.2544 15.6722L70.0942 21.0357ZM60.7637 20.036C60.6493 20.3692 60.6868 20.6417 60.8781 20.8521C61.068 21.0632 61.3963 21.2574 61.8623 21.4353L62.732 18.9036C61.6406 19.0144 60.9847 19.3921 60.7637 20.036ZM62.5845 30.3641C62.6911 30.0534 62.6268 29.7809 62.391 29.5479C62.1552 29.3149 61.8044 29.1095 61.3391 28.9316L60.4919 31.3969C61.1386 31.3525 61.6243 31.2416 61.9491 31.0637C62.2731 30.8865 62.4857 30.6535 62.5845 30.3641Z" fill="#3033F2"/>
</svg>
