<svg width="480" height="480" viewBox="0 0 480 480" fill="none" xmlns="http://www.w3.org/2000/svg">
<path d="M356.586 311.07L275.05 263.976L278.096 258.703L359.632 305.801L356.586 311.07Z" fill="#FCE9DC"/>
<path d="M198.512 219.804L119.495 174.171L122.537 168.902L201.554 214.535L198.512 219.804Z" fill="#FCE9DC"/>
<path d="M237.072 290.573L194.477 266.016V216.874L237.068 192.281L279.623 216.874V266.02L237.072 290.573ZM200.561 262.504L237.064 283.544L273.534 262.504V220.383L237.072 199.302L200.561 220.379V262.504Z" fill="#FCE9DC"/>
<path d="M122.537 311.07L119.495 305.801L195.997 261.624L199.039 266.897L122.537 311.07Z" fill="#FCE9DC"/>
<path d="M278.096 221.264L275.05 215.991L356.586 168.902L359.632 174.171L278.096 221.264Z" fill="#FCE9DC"/>
<path d="M242.625 285.602H236.54V376.864H242.625V285.602Z" fill="#FCE9DC"/>
<path d="M242.587 103.068H236.503V197.215H242.587V103.068Z" fill="#FCE9DC"/>
<path d="M82.1566 380.036L39.5938 355.463V306.317L82.1566 281.743L124.719 306.317V355.463L82.1566 380.036ZM45.6782 351.954L82.1566 373.014L118.635 351.954V309.833L82.1566 288.773L45.6782 309.833V351.954Z" fill="#FCE9DC"/>
<path d="M397.008 198.257L354.449 173.684V124.538L397.008 99.9644L439.571 124.538V173.684L397.008 198.257ZM360.53 170.171L397.008 191.231L433.482 170.171V128.05L397.008 106.99L360.53 128.05V170.171Z" fill="#FCE9DC"/>
<path d="M239.582 106.99L197.02 82.4167V33.2704L239.582 8.69727L282.145 33.2704V82.4167L239.582 106.99ZM203.104 78.9039L239.582 99.9642L276.061 78.9039V36.7832L239.582 15.7228L203.104 36.7832V78.9039Z" fill="#FCE9DC"/>
<path d="M239.582 471.303L197.02 446.73V397.584L239.582 373.01L282.145 397.584V446.73L239.582 471.303ZM203.104 443.221L239.582 464.282L276.061 443.221V401.101L239.582 380.04L203.104 401.101V443.221Z" fill="#FCE9DC"/>
<path d="M397.851 381.491L355.284 356.918V307.772L397.851 283.199L440.406 307.772V356.918L397.851 381.491ZM361.365 353.406L397.843 374.466L434.317 353.406V311.285L397.843 290.224L361.365 311.285V353.406Z" fill="#FCE9DC"/>
<path d="M82.9926 199.708L40.4297 175.135V125.989L82.9926 101.416L125.555 125.989V175.135L82.9926 199.708ZM46.5142 171.626L82.9926 192.687L119.471 171.626V129.506L82.9926 108.445L46.5142 129.506V171.626Z" fill="#FCE9DC"/>
</svg>
