<svg width="1044" height="696" viewBox="0 0 1044 696" fill="none" xmlns="http://www.w3.org/2000/svg">
<g clip-path="url(#clip0_139_546)">
<mask id="mask0_139_546" style="mask-type:luminance" maskUnits="userSpaceOnUse" x="0" y="0" width="1044" height="696">
<path d="M1044 0H0V696H1044V0Z" fill="white"/>
</mask>
<g mask="url(#mask0_139_546)">
<path d="M76.6557 166.457H42.2298L20.88 141.549V56.3238L-10.7793 23.5161L-9.5265 22.3068L22.62 55.6191V140.905L43.0302 164.717H75.8901L88.0701 151.38H190.173L218.3 123.253H228.645V124.993H219.023L190.895 153.12H88.8357L76.6557 166.457Z" fill="black"/>
<path d="M228.514 126.742C229.96 126.742 231.133 125.569 231.133 124.123C231.133 122.677 229.96 121.504 228.514 121.504C227.068 121.504 225.896 122.677 225.896 124.123C225.896 125.569 227.068 126.742 228.514 126.742Z" fill="black"/>
<path d="M83.0503 171.825H38.7934L38.5411 171.573L14.3551 147.83V59.5341L-4.9502 41.0814L-3.7496 39.8286L16.0951 58.7859V147.1L39.5068 170.085H82.2499L93.5599 157.035H201.892L209.957 148.274L211.236 149.449L202.658 158.775H94.3603L83.0503 171.825Z" fill="black"/>
<path d="M212.437 150.728C213.411 149.666 213.35 148.004 212.28 147.03C211.21 146.056 209.566 146.117 208.583 147.187C207.608 148.248 207.678 149.91 208.739 150.884C209.8 151.859 211.462 151.798 212.437 150.728Z" fill="black"/>
<path d="M88.6966 177.48H36.6184L8.26511 149.57V62.1441L-6.69019 48.0501L-5.48959 46.7799L10.0051 61.3959V148.84L37.3318 175.74H87.9136L94.0036 168.78H150.197V170.52H94.7866L88.6966 177.48Z" fill="black"/>
<path d="M150.066 172.269C151.513 172.269 152.685 171.096 152.685 169.65C152.685 168.204 151.513 167.031 150.066 167.031C148.62 167.031 147.448 168.204 147.448 169.65C147.448 171.096 148.62 172.269 150.066 172.269Z" fill="black"/>
<path d="M190.017 184.005H33.5733L2.17498 153.485V66.0852L-6.65552 58.5163L-5.52452 57.1938L3.91498 65.2849V152.755L34.2867 182.265H189.303L216.273 155.295H225.452V157.035H216.987L190.017 184.005Z" fill="black"/>
<path d="M225.321 158.784C226.768 158.784 227.94 157.611 227.94 156.165C227.94 154.719 226.768 153.546 225.321 153.546C223.875 153.546 222.703 154.719 222.703 156.165C222.703 157.611 223.875 158.784 225.321 158.784Z" fill="black"/>
<path d="M198.325 190.095H30.5284L-7.57764 151.998L-6.34224 150.762L31.2418 188.355H197.525L209.992 174L211.306 175.14L198.325 190.095Z" fill="black"/>
<path d="M212.541 176.384C213.489 175.296 213.376 173.643 212.28 172.695C211.184 171.747 209.54 171.86 208.591 172.956C207.643 174.044 207.765 175.697 208.852 176.645C209.94 177.593 211.593 177.48 212.541 176.384Z" fill="black"/>
<path d="M209.792 196.185H27.9184L-4.08887 165.056L-2.87087 163.804L28.6318 194.445H209.792V196.185Z" fill="black"/>
<path d="M209.661 197.934C211.108 197.934 212.28 196.761 212.28 195.315C212.28 193.869 211.108 192.696 209.661 192.696C208.215 192.696 207.043 193.869 207.043 195.315C207.043 196.761 208.215 197.934 209.661 197.934Z" fill="black"/>
<path d="M148.022 208.365H29.6584L-4.08887 175.053L-2.87087 173.817L30.3718 206.625H148.022V208.365Z" fill="black"/>
<path d="M147.891 210.114C149.338 210.114 150.51 208.941 150.51 207.495C150.51 206.049 149.338 204.876 147.891 204.876C146.445 204.876 145.273 206.049 145.273 207.495C145.273 208.941 146.445 210.114 147.891 210.114Z" fill="black"/>
<path d="M161.307 219.892H138.626L133.623 214.89H29.2582L29.0146 214.681L-9.70044 181.186L-8.56944 179.864L29.902 213.15H134.337L139.339 218.152H160.593L164.099 214.638V207.138L172.173 199.065H200.457L205.564 204.172L204.337 205.398L199.743 200.805H172.895L165.839 207.852V215.36L161.307 219.892Z" fill="black"/>
<path d="M203.006 206.547C204.024 207.565 205.685 207.565 206.703 206.547C207.721 205.529 207.721 203.867 206.703 202.849C205.685 201.831 204.024 201.831 203.006 202.849C201.988 203.867 201.988 205.529 203.006 206.547Z" fill="black"/>
<path d="M166.527 224.025H28.3708L-4.4978 194.219L-3.332 192.931L29.0494 222.285H165.813L172.121 215.977H179.777V217.717H172.834L166.527 224.025Z" fill="black"/>
<path d="M179.646 219.466C181.093 219.466 182.265 218.294 182.265 216.847C182.265 215.401 181.093 214.229 179.646 214.229C178.2 214.229 177.028 215.401 177.028 216.847C177.028 218.294 178.2 219.466 179.646 219.466Z" fill="black"/>
<path d="M190.304 240.99H22.4372L-11.8147 208.069L-8.1955 204.311L24.5426 235.77H188.146L263.836 160.08H284.116V165.3H265.994L190.304 240.99Z" fill="black"/>
<path d="M283.82 168.58C287.073 168.58 289.71 165.943 289.71 162.69C289.71 159.437 287.073 156.8 283.82 156.8C280.567 156.8 277.93 159.437 277.93 162.69C277.93 165.943 280.567 168.58 283.82 168.58Z" fill="black"/>
<path d="M81.7017 309.502H72.9408L65.25 301.812V256.65H20.5146L-6.27271 229.419L-5.03731 228.201L21.2454 254.91H66.99V301.098L73.6542 307.762H80.9883L86.4606 302.29V258.468L90.7149 254.205H99.9717L104.757 258.982V300.663L108.419 304.326H115.353L121.06 298.61V260.643L131.292 250.403H191.478L267.742 174.139H339.657L370.498 204.972L369.263 206.207L338.943 175.879H268.465L192.192 252.143H132.014L122.8 261.357V299.332L116.067 306.066H107.697L103.017 301.377V259.704L99.2583 255.945H91.437L88.2006 259.182V303.012L81.7017 309.502Z" fill="black"/>
<path d="M367.94 207.347C368.958 208.365 370.62 208.365 371.638 207.347C372.656 206.329 372.656 204.667 371.638 203.65C370.62 202.632 368.958 202.632 367.94 203.65C366.923 204.667 366.923 206.329 367.94 207.347Z" fill="black"/>
<path d="M124.48 316.75H66.8509L53.7922 303.7V273.972L48.6505 268.83H18.4876L18.2353 268.569L-5.55054 244.505L-4.31514 243.278L19.2097 267.09H49.3726L55.5322 273.258V302.977L67.5643 315.01H123.758L134.45 304.317V273.397L146.908 260.948H198.003L273.224 185.719H306.023L318.29 197.986H333.863L346.756 210.879L345.529 212.106L333.14 199.726H317.567L305.3 187.459H273.946L198.717 262.688H147.622L136.19 274.12V305.039L124.48 316.75Z" fill="black"/>
<path d="M344.198 213.254C345.216 214.272 346.878 214.272 347.896 213.254C348.914 212.236 348.914 210.575 347.896 209.557C346.878 208.539 345.216 208.539 344.198 209.557C343.18 210.575 343.18 212.236 344.198 213.254Z" fill="black"/>
<path d="M129.412 327.99H60.2474L-5.25488 262.488L-4.02818 261.252L60.9695 326.25H128.69L146.743 308.198V285.578L159.427 272.893H204.38L280.357 196.907H297.609L309.154 208.452L307.928 209.687L296.887 198.647H281.079L205.102 274.633H160.15L148.483 286.3V308.92L129.412 327.99Z" fill="black"/>
<path d="M306.597 210.827C307.615 211.845 309.276 211.845 310.294 210.827C311.312 209.809 311.312 208.148 310.294 207.13C309.276 206.112 307.615 206.112 306.597 207.13C305.579 208.148 305.579 209.809 306.597 210.827Z" fill="black"/>
<path d="M134.337 341.04H54.7403L54.488 340.788L-7.28198 280.184L-6.06398 278.939L55.4537 339.3H133.623L158.192 314.723V295.443L167.623 286.013H209.887L273.728 222.181H312.4L318.62 228.392H328.695V230.132H317.898L311.677 223.921H274.45L210.61 287.753H168.345L159.932 296.157V315.445L134.337 341.04Z" fill="black"/>
<path d="M328.564 231.881C330.01 231.881 331.183 230.709 331.183 229.262C331.183 227.816 330.01 226.644 328.564 226.644C327.118 226.644 325.945 227.816 325.945 229.262C325.945 230.709 327.118 231.881 328.564 231.881Z" fill="black"/>
<path d="M137.817 352.933H49.5204L49.2681 352.681L-4.67188 299.898L-3.45388 298.662L50.2338 351.193H137.103L169.937 318.35V302.69L174.653 297.975H215.403L279.566 233.812H290.128V235.553H280.279L216.117 299.715H175.375L171.677 303.413V319.073L137.817 352.933Z" fill="black"/>
<path d="M289.997 237.301C291.443 237.301 292.616 236.129 292.616 234.682C292.616 233.236 291.443 232.064 289.997 232.064C288.551 232.064 287.378 233.236 287.378 234.682C287.378 236.129 288.551 237.301 289.997 237.301Z" fill="black"/>
<path d="M141.01 365.983H42.5605L-7.86475 315.558L-6.63805 314.322L43.2826 364.243H140.288L193.218 311.312H220.91L285.943 246.28H324.875L336.386 257.79L335.15 259.025L324.153 248.02H286.665L221.633 313.052H193.932L141.01 365.983Z" fill="black"/>
<path d="M333.828 260.165C334.846 261.183 336.507 261.183 337.525 260.165C338.543 259.147 338.543 257.485 337.525 256.467C336.507 255.449 334.846 255.449 333.828 256.467C332.81 257.485 332.81 259.147 333.828 260.165Z" fill="black"/>
<path d="M-7.21235 443.448L-8.44775 442.212L15.6599 418.113V383.887L24.8732 374.683H144.933L195.967 323.64H224.973L276.877 271.727H306.17L313.296 264.61L314.522 265.837L306.892 273.467H277.6L225.695 325.38H196.69L145.655 376.423H25.5866L17.3999 384.61V418.827L-7.21235 443.448Z" fill="black"/>
<path d="M315.662 267.168C316.68 266.15 316.68 264.489 315.662 263.471C314.644 262.453 312.982 262.453 311.965 263.471C310.947 264.489 310.947 266.15 311.965 267.168C312.982 268.186 314.644 268.186 315.662 267.168Z" fill="black"/>
<path d="M-6.33363 459.09L-7.58643 457.89L27.84 421.167V391.143L32.9208 386.062H147.543L197.673 335.924H231.063L284.185 282.802H313.322V284.542H284.908L231.777 337.664H198.395L148.257 387.802H33.6342L29.58 391.857V421.863L-6.33363 459.09Z" fill="black"/>
<path d="M313.191 286.291C314.637 286.291 315.81 285.118 315.81 283.672C315.81 282.226 314.637 281.053 313.191 281.053C311.745 281.053 310.573 282.226 310.573 283.672C310.573 285.118 311.745 286.291 313.191 286.291Z" fill="black"/>
<path d="M-3.73237 472.158L-4.96777 470.922L40.6724 425.291V402.453L44.9876 398.129H150.588L201.97 346.747H237.588L289.597 294.739H327.242V296.479H290.319L238.302 348.487H202.693L151.302 399.869H45.7097L42.4124 403.167V426.004L-3.73237 472.158Z" fill="black"/>
<path d="M327.111 298.227C328.555 298.227 329.73 297.053 329.73 295.609C329.73 294.164 328.555 292.99 327.111 292.99C325.667 292.99 324.492 294.164 324.492 295.609C324.492 297.053 325.667 298.227 327.111 298.227Z" fill="black"/>
<path d="M-3.73237 486.078L-4.96777 484.842L68.8082 411.075H151.893L204.963 358.005H243.678L294.791 306.892H306.797V308.632H295.504L244.392 359.745H205.677L152.607 412.815H69.5216L-3.73237 486.078Z" fill="black"/>
<path d="M306.666 310.381C308.113 310.381 309.285 309.209 309.285 307.763C309.285 306.316 308.113 305.144 306.666 305.144C305.22 305.144 304.048 306.316 304.048 307.763C304.048 309.209 305.22 310.381 306.666 310.381Z" fill="black"/>
<path d="M-3.73237 503.043L-4.96777 501.807L72.5057 424.342H156.243L205.938 374.639H246.288L295.495 325.432H320.673L348.244 297.862V275.433L375.823 247.854H389.447V249.594H376.536L349.984 276.147V298.584L321.387 327.172H296.218L247.002 376.379H206.66L156.957 426.082H73.2191L-3.73237 503.043Z" fill="black"/>
<path d="M389.316 251.343C390.762 251.343 391.935 250.171 391.935 248.724C391.935 247.278 390.762 246.106 389.316 246.106C387.87 246.106 386.698 247.278 386.698 248.724C386.698 250.171 387.87 251.343 389.316 251.343Z" fill="black"/>
<path d="M-3.28846 516.954L-4.54126 515.736L65.3197 444.135H90.4018L102.582 456.315H136.668L179.951 413.032H210.183L215.865 407.343V389.838L220.458 385.245H253.683L301.011 337.917H326.328L341.893 322.352L343.119 323.579L327.042 339.657H301.734L254.397 386.985H221.18L217.605 390.552V408.065L210.897 414.772H180.664L137.382 458.055H101.868L89.6884 445.875H66.0505L-3.28846 516.954Z" fill="black"/>
<path d="M344.259 324.91C345.277 323.892 345.277 322.231 344.259 321.213C343.241 320.195 341.58 320.195 340.562 321.213C339.544 322.231 339.544 323.892 340.562 324.91C341.58 325.928 343.241 325.928 344.259 324.91Z" fill="black"/>
<path d="M-3.29731 532.188L-4.53271 530.952L54.2358 472.192H137.538L183.97 425.761H248.463L264.21 410.005V393.318L309.007 348.513H334.158L360.006 322.666V298.488L390.395 268.09H410.327V269.83H391.117L361.746 299.202V323.388L334.872 350.253H309.729L265.95 394.032V410.727L249.177 427.501H184.692L138.252 473.932H54.9492L-3.29731 532.188Z" fill="black"/>
<path d="M410.196 271.579C411.641 271.579 412.815 270.405 412.815 268.96C412.815 267.516 411.641 266.342 410.196 266.342C408.752 266.342 407.578 267.516 407.578 268.96C407.578 270.405 408.752 271.579 410.196 271.579Z" fill="black"/>
<path d="M-2.07048 566.474L-5.75928 562.786L33.2863 523.74H95.4913L160.089 459.143H169.711V464.363H162.246L97.6489 528.96H35.4439L-2.07048 566.474Z" fill="black"/>
<path d="M169.415 467.642C172.668 467.642 175.305 465.005 175.305 461.753C175.305 458.5 172.668 455.863 169.415 455.863C166.162 455.863 163.525 458.5 163.525 461.753C163.525 465.005 166.162 467.642 169.415 467.642Z" fill="black"/>
<path d="M93.0118 555.06H35.5483V553.32H92.2984L162.116 483.502H227.148L261.183 449.459H279.348L316.158 412.65H328.938L332.114 409.474H355.908L370.542 394.832H427.527L441.09 408.387H468.417L486.73 426.7H722.892L764.025 467.825H832.077L847.006 482.754L845.779 483.981L831.363 469.565H763.303L722.178 428.44H486.008L467.703 410.127H440.368L426.813 396.572H371.264L356.622 411.214H332.836L329.652 414.39H316.88L280.062 451.199H261.905L227.862 485.242H162.829L93.0118 555.06Z" fill="black"/>
<path d="M35.6788 556.809C37.125 556.809 38.2975 555.636 38.2975 554.19C38.2975 552.744 37.125 551.571 35.6788 551.571C34.2325 551.571 33.0601 552.744 33.0601 554.19C33.0601 555.636 34.2325 556.809 35.6788 556.809Z" fill="black"/>
<path d="M844.448 485.121C845.466 486.138 847.128 486.138 848.146 485.121C849.164 484.103 849.164 482.441 848.146 481.423C847.128 480.405 845.466 480.405 844.448 481.423C843.43 482.441 843.43 484.103 844.448 485.121Z" fill="black"/>
<path d="M200.97 408.317C196.977 408.317 193.723 405.063 193.723 401.07C193.723 397.077 196.977 393.823 200.97 393.823C204.963 393.823 208.217 397.077 208.217 401.07C208.217 405.063 204.963 408.317 200.97 408.317ZM200.97 395.563C197.934 395.563 195.463 398.034 195.463 401.07C195.463 404.106 197.934 406.577 200.97 406.577C204.006 406.577 206.477 404.106 206.477 401.07C206.477 398.034 204.006 395.563 200.97 395.563Z" fill="black"/>
<path d="M234.317 412.667C230.324 412.667 227.07 409.413 227.07 405.42C227.07 401.427 230.324 398.173 234.317 398.173C238.31 398.173 241.564 401.427 241.564 405.42C241.564 409.413 238.31 412.667 234.317 412.667ZM234.317 399.913C231.281 399.913 228.81 402.384 228.81 405.42C228.81 408.456 231.281 410.927 234.317 410.927C237.353 410.927 239.824 408.456 239.824 405.42C239.824 402.384 237.353 399.913 234.317 399.913Z" fill="black"/>
<path d="M794.597 501.99C790.604 501.99 787.35 498.736 787.35 494.743C787.35 490.75 790.604 487.496 794.597 487.496C798.591 487.496 801.844 490.75 801.844 494.743C801.844 498.736 798.591 501.99 794.597 501.99ZM794.597 489.227C791.561 489.227 789.09 491.698 789.09 494.734C789.09 497.771 791.561 500.241 794.597 500.241C797.634 500.241 800.104 497.771 800.104 494.734C800.104 491.698 797.634 489.227 794.597 489.227Z" fill="black"/>
<path d="M797.79 562.02C793.797 562.02 790.543 558.766 790.543 554.773C790.543 550.78 793.797 547.526 797.79 547.526C801.783 547.526 805.037 550.78 805.037 554.773C805.037 558.766 801.783 562.02 797.79 562.02ZM797.79 549.257C794.754 549.257 792.283 551.728 792.283 554.764C792.283 557.801 794.754 560.271 797.79 560.271C800.826 560.271 803.297 557.801 803.297 554.764C803.297 551.728 800.826 549.257 797.79 549.257Z" fill="black"/>
<path d="M848.833 558.54C844.84 558.54 841.586 555.286 841.586 551.293C841.586 547.3 844.84 544.046 848.833 544.046C852.826 544.046 856.08 547.3 856.08 551.293C856.08 555.286 852.826 558.54 848.833 558.54ZM848.833 545.777C845.797 545.777 843.326 548.248 843.326 551.284C843.326 554.32 845.797 556.791 848.833 556.791C851.869 556.791 854.34 554.32 854.34 551.284C854.34 548.248 851.869 545.777 848.833 545.777Z" fill="black"/>
<path d="M880.727 501.703C876.734 501.703 873.48 498.449 873.48 494.456C873.48 490.463 876.734 487.209 880.727 487.209C884.72 487.209 887.974 490.463 887.974 494.456C887.974 498.449 884.72 501.703 880.727 501.703ZM880.727 488.94C877.691 488.94 875.22 491.411 875.22 494.447C875.22 497.483 877.691 499.954 880.727 499.954C883.763 499.954 886.234 497.483 886.234 494.447C886.234 491.411 883.763 488.94 880.727 488.94Z" fill="black"/>
<path d="M880.727 471.54C876.734 471.54 873.48 468.286 873.48 464.293C873.48 460.3 876.734 457.046 880.727 457.046C884.72 457.046 887.974 460.3 887.974 464.293C887.974 468.286 884.72 471.54 880.727 471.54ZM880.727 458.777C877.691 458.777 875.22 461.248 875.22 464.284C875.22 467.321 877.691 469.791 880.727 469.791C883.763 469.791 886.234 467.321 886.234 464.284C886.234 461.248 883.763 458.777 880.727 458.777Z" fill="black"/>
<path d="M942.21 454.723C938.217 454.723 934.963 451.469 934.963 447.476C934.963 443.483 938.217 440.229 942.21 440.229C946.203 440.229 949.457 443.483 949.457 447.476C949.457 451.469 946.203 454.723 942.21 454.723ZM942.21 441.96C939.174 441.96 936.703 444.431 936.703 447.467C936.703 450.503 939.174 452.974 942.21 452.974C945.246 452.974 947.717 450.503 947.717 447.467C947.717 444.431 945.246 441.96 942.21 441.96Z" fill="black"/>
<path d="M942.21 492.42C938.217 492.42 934.963 489.166 934.963 485.173C934.963 481.18 938.217 477.926 942.21 477.926C946.203 477.926 949.457 481.18 949.457 485.173C949.457 489.166 946.203 492.42 942.21 492.42ZM942.21 479.657C939.174 479.657 936.703 482.128 936.703 485.164C936.703 488.2 939.174 490.671 942.21 490.671C945.246 490.671 947.717 488.2 947.717 485.164C947.717 482.128 945.246 479.657 942.21 479.657Z" fill="black"/>
<path d="M942.21 515.623C938.217 515.623 934.963 512.369 934.963 508.376C934.963 504.383 938.217 501.129 942.21 501.129C946.203 501.129 949.457 504.383 949.457 508.376C949.457 512.369 946.203 515.623 942.21 515.623ZM942.21 502.86C939.174 502.86 936.703 505.331 936.703 508.367C936.703 511.403 939.174 513.874 942.21 513.874C945.246 513.874 947.717 511.403 947.717 508.367C947.717 505.331 945.246 502.86 942.21 502.86Z" fill="black"/>
<path d="M985.71 515.623C981.717 515.623 978.463 512.369 978.463 508.376C978.463 504.383 981.717 501.129 985.71 501.129C989.703 501.129 992.957 504.383 992.957 508.376C992.957 512.369 989.703 515.623 985.71 515.623ZM985.71 502.86C982.674 502.86 980.203 505.331 980.203 508.367C980.203 511.403 982.674 513.874 985.71 513.874C988.746 513.874 991.217 511.403 991.217 508.367C991.217 505.331 988.746 502.86 985.71 502.86Z" fill="black"/>
<path d="M985.71 488.94C981.717 488.94 978.463 485.686 978.463 481.693C978.463 477.7 981.717 474.446 985.71 474.446C989.703 474.446 992.957 477.7 992.957 481.693C992.957 485.686 989.703 488.94 985.71 488.94ZM985.71 476.177C982.674 476.177 980.203 478.648 980.203 481.684C980.203 484.721 982.674 487.191 985.71 487.191C988.746 487.191 991.217 484.721 991.217 481.684C991.217 478.648 988.746 476.177 985.71 476.177Z" fill="black"/>
<path d="M985.71 457.037C981.717 457.037 978.463 453.783 978.463 449.79C978.463 445.797 981.717 442.543 985.71 442.543C989.703 442.543 992.957 445.797 992.957 449.79C992.957 453.783 989.703 457.037 985.71 457.037ZM985.71 444.283C982.674 444.283 980.203 446.754 980.203 449.79C980.203 452.826 982.674 455.297 985.71 455.297C988.746 455.297 991.217 452.826 991.217 449.79C991.217 446.754 988.746 444.283 985.71 444.283Z" fill="black"/>
<path d="M985.71 430.937C981.717 430.937 978.463 427.683 978.463 423.69C978.463 419.697 981.717 416.443 985.71 416.443C989.703 416.443 992.957 419.697 992.957 423.69C992.957 427.683 989.703 430.937 985.71 430.937ZM985.71 418.183C982.674 418.183 980.203 420.654 980.203 423.69C980.203 426.726 982.674 429.197 985.71 429.197C988.746 429.197 991.217 426.726 991.217 423.69C991.217 420.654 988.746 418.183 985.71 418.183Z" fill="black"/>
<path d="M1001.95 413.537C997.96 413.537 994.706 410.283 994.706 406.29C994.706 402.297 997.96 399.043 1001.95 399.043C1005.95 399.043 1009.2 402.297 1009.2 406.29C1009.2 410.283 1005.95 413.537 1001.95 413.537ZM1001.95 400.783C998.917 400.783 996.446 403.254 996.446 406.29C996.446 409.326 998.917 411.797 1001.95 411.797C1004.99 411.797 1007.46 409.326 1007.46 406.29C1007.46 403.254 1004.99 400.783 1001.95 400.783Z" fill="black"/>
<path d="M1013.55 448.337C1009.56 448.337 1006.3 445.083 1006.3 441.09C1006.3 437.097 1009.56 433.843 1013.55 433.843C1017.54 433.843 1020.8 437.097 1020.8 441.09C1020.8 445.083 1017.54 448.337 1013.55 448.337ZM1013.55 435.583C1010.51 435.583 1008.04 438.054 1008.04 441.09C1008.04 444.126 1010.51 446.597 1013.55 446.597C1016.59 446.597 1019.06 444.126 1019.06 441.09C1019.06 438.054 1016.59 435.583 1013.55 435.583Z" fill="black"/>
<path d="M1011.81 497.057C1007.82 497.057 1004.56 493.803 1004.56 489.81C1004.56 485.817 1007.82 482.563 1011.81 482.563C1015.8 482.563 1019.06 485.817 1019.06 489.81C1019.06 493.803 1015.8 497.057 1011.81 497.057ZM1011.81 484.303C1008.77 484.303 1006.3 486.774 1006.3 489.81C1006.3 492.846 1008.77 495.317 1011.81 495.317C1014.85 495.317 1017.32 492.846 1017.32 489.81C1017.32 486.774 1014.85 484.303 1011.81 484.303Z" fill="black"/>
<path d="M858.107 471.54C854.114 471.54 850.86 468.286 850.86 464.293C850.86 460.3 854.114 457.046 858.107 457.046C862.101 457.046 865.354 460.3 865.354 464.293C865.354 468.286 862.101 471.54 858.107 471.54ZM858.107 458.777C855.071 458.777 852.6 461.248 852.6 464.284C852.6 467.321 855.071 469.791 858.107 469.791C861.144 469.791 863.614 467.321 863.614 464.284C863.614 461.248 861.144 458.777 858.107 458.777Z" fill="black"/>
<path d="M765.313 452.4C761.32 452.4 758.066 449.146 758.066 445.153C758.066 441.16 761.32 437.906 765.313 437.906C769.306 437.906 772.56 441.16 772.56 445.153C772.56 449.146 769.306 452.4 765.313 452.4ZM765.313 439.637C762.277 439.637 759.806 442.108 759.806 445.144C759.806 448.18 762.277 450.651 765.313 450.651C768.349 450.651 770.82 448.18 770.82 445.144C770.82 442.108 768.349 439.637 765.313 439.637Z" fill="black"/>
<path d="M759.51 426.3C755.517 426.3 752.263 423.046 752.263 419.053C752.263 415.06 755.517 411.806 759.51 411.806C763.503 411.806 766.757 415.06 766.757 419.053C766.757 423.046 763.503 426.3 759.51 426.3ZM759.51 413.537C756.474 413.537 754.003 416.008 754.003 419.044C754.003 422.08 756.474 424.551 759.51 424.551C762.546 424.551 765.017 422.08 765.017 419.044C765.017 416.008 762.546 413.537 759.51 413.537Z" fill="black"/>
<path d="M729.93 409.483C725.937 409.483 722.683 406.229 722.683 402.236C722.683 398.243 725.937 394.989 729.93 394.989C733.923 394.989 737.177 398.243 737.177 402.236C737.177 406.229 733.923 409.483 729.93 409.483ZM729.93 396.72C726.894 396.72 724.423 399.191 724.423 402.227C724.423 405.263 726.894 407.734 729.93 407.734C732.966 407.734 735.437 405.263 735.437 402.227C735.437 399.191 732.966 396.72 729.93 396.72Z" fill="black"/>
<path d="M712.965 397.442C708.972 397.442 705.718 394.188 705.718 390.195C705.718 386.202 708.972 382.948 712.965 382.948C716.958 382.948 720.212 386.202 720.212 390.195C720.212 394.188 716.958 397.442 712.965 397.442ZM712.965 384.688C709.929 384.688 707.458 387.159 707.458 390.195C707.458 393.231 709.929 395.702 712.965 395.702C716.001 395.702 718.472 393.231 718.472 390.195C718.472 387.159 716.001 384.688 712.965 384.688Z" fill="black"/>
<path d="M714.27 421.367C710.277 421.367 707.023 418.113 707.023 414.12C707.023 410.127 710.277 406.873 714.27 406.873C718.263 406.873 721.517 410.127 721.517 414.12C721.517 418.113 718.263 421.367 714.27 421.367ZM714.27 408.613C711.234 408.613 708.763 411.084 708.763 414.12C708.763 417.156 711.234 419.627 714.27 419.627C717.306 419.627 719.777 417.156 719.777 414.12C719.777 411.084 717.306 408.613 714.27 408.613Z" fill="black"/>
<path d="M732.105 428.327C728.112 428.327 724.858 425.073 724.858 421.08C724.858 417.087 728.112 413.833 732.105 413.833C736.098 413.833 739.352 417.087 739.352 421.08C739.352 425.073 736.098 428.327 732.105 428.327ZM732.105 415.573C729.069 415.573 726.598 418.044 726.598 421.08C726.598 424.116 729.069 426.587 732.105 426.587C735.141 426.587 737.612 424.116 737.612 421.08C737.612 418.044 735.141 415.573 732.105 415.573Z" fill="black"/>
<path d="M884.355 557.957C880.362 557.957 877.108 554.703 877.108 550.71C877.108 546.717 880.362 543.463 884.355 543.463C888.348 543.463 891.602 546.717 891.602 550.71C891.602 554.703 888.348 557.957 884.355 557.957ZM884.355 545.203C881.319 545.203 878.848 547.674 878.848 550.71C878.848 553.746 881.319 556.217 884.355 556.217C887.391 556.217 889.862 553.746 889.862 550.71C889.862 547.674 887.391 545.203 884.355 545.203Z" fill="black"/>
<path d="M883.485 529.247C879.492 529.247 876.238 525.993 876.238 522C876.238 518.007 879.492 514.753 883.485 514.753C887.478 514.753 890.732 518.007 890.732 522C890.732 525.993 887.478 529.247 883.485 529.247ZM883.485 516.493C880.449 516.493 877.978 518.964 877.978 522C877.978 525.036 880.449 527.507 883.485 527.507C886.521 527.507 888.992 525.036 888.992 522C888.992 518.964 886.521 516.493 883.485 516.493Z" fill="black"/>
<path d="M649.307 461.683C645.314 461.683 642.06 458.429 642.06 454.436C642.06 450.443 645.314 447.189 649.307 447.189C653.3 447.189 656.554 450.443 656.554 454.436C656.554 458.429 653.3 461.683 649.307 461.683ZM649.307 448.92C646.271 448.92 643.8 451.391 643.8 454.427C643.8 457.463 646.271 459.934 649.307 459.934C652.343 459.934 654.814 457.463 654.814 454.427C654.814 451.391 652.343 448.92 649.307 448.92Z" fill="black"/>
<path d="M661.922 515.623C657.929 515.623 654.675 512.369 654.675 508.376C654.675 504.383 657.929 501.129 661.922 501.129C665.915 501.129 669.169 504.383 669.169 508.376C669.169 512.369 665.915 515.623 661.922 515.623ZM661.922 502.86C658.886 502.86 656.415 505.331 656.415 508.367C656.415 511.403 658.886 513.874 661.922 513.874C664.958 513.874 667.429 511.403 667.429 508.367C667.429 505.331 664.958 502.86 661.922 502.86Z" fill="black"/>
<path d="M681.21 515.623C677.217 515.623 673.963 512.369 673.963 508.376C673.963 504.383 677.217 501.129 681.21 501.129C685.203 501.129 688.457 504.383 688.457 508.376C688.457 512.369 685.203 515.623 681.21 515.623ZM681.21 502.86C678.174 502.86 675.703 505.331 675.703 508.367C675.703 511.403 678.174 513.874 681.21 513.874C684.246 513.874 686.717 511.403 686.717 508.367C686.717 505.331 684.246 502.86 681.21 502.86Z" fill="black"/>
<path d="M736.89 592.322C732.897 592.322 729.643 589.068 729.643 585.075C729.643 581.082 732.897 577.828 736.89 577.828C740.883 577.828 744.137 581.082 744.137 585.075C744.137 589.068 740.883 592.322 736.89 592.322ZM736.89 579.568C733.854 579.568 731.383 582.039 731.383 585.075C731.383 588.111 733.854 590.582 736.89 590.582C739.926 590.582 742.397 588.111 742.397 585.075C742.397 582.039 739.926 579.568 736.89 579.568Z" fill="black"/>
<path d="M714.27 606.538C710.277 606.538 707.023 603.284 707.023 599.291C707.023 595.298 710.277 592.044 714.27 592.044C718.263 592.044 721.517 595.298 721.517 599.291C721.517 603.284 718.263 606.538 714.27 606.538ZM714.27 593.775C711.234 593.775 708.763 596.246 708.763 599.282C708.763 602.318 711.234 604.789 714.27 604.789C717.306 604.789 719.777 602.318 719.777 599.282C719.777 596.246 717.306 593.775 714.27 593.775Z" fill="black"/>
<path d="M730.8 624.077C726.807 624.077 723.553 620.823 723.553 616.83C723.553 612.837 726.807 609.583 730.8 609.583C734.793 609.583 738.047 612.837 738.047 616.83C738.047 620.823 734.793 624.077 730.8 624.077ZM730.8 611.323C727.764 611.323 725.293 613.794 725.293 616.83C725.293 619.866 727.764 622.337 730.8 622.337C733.836 622.337 736.307 619.866 736.307 616.83C736.307 613.794 733.836 611.323 730.8 611.323Z" fill="black"/>
<path d="M768.21 675.407C764.217 675.407 760.963 672.153 760.963 668.16C760.963 664.167 764.217 660.913 768.21 660.913C772.203 660.913 775.457 664.167 775.457 668.16C775.457 672.153 772.203 675.407 768.21 675.407ZM768.21 662.653C765.174 662.653 762.703 665.124 762.703 668.16C762.703 671.196 765.174 673.667 768.21 673.667C771.246 673.667 773.717 671.196 773.717 668.16C773.717 665.124 771.246 662.653 768.21 662.653Z" fill="black"/>
<path d="M803.445 674.537C799.452 674.537 796.198 671.283 796.198 667.29C796.198 663.297 799.452 660.043 803.445 660.043C807.438 660.043 810.692 663.297 810.692 667.29C810.692 671.283 807.438 674.537 803.445 674.537ZM803.445 661.783C800.409 661.783 797.938 664.254 797.938 667.29C797.938 670.326 800.409 672.797 803.445 672.797C806.481 672.797 808.952 670.326 808.952 667.29C808.952 664.254 806.481 661.783 803.445 661.783Z" fill="black"/>
<path d="M853.905 621.467C849.912 621.467 846.658 618.213 846.658 614.22C846.658 610.227 849.912 606.973 853.905 606.973C857.898 606.973 861.152 610.227 861.152 614.22C861.152 618.213 857.898 621.467 853.905 621.467ZM853.905 608.713C850.869 608.713 848.398 611.184 848.398 614.22C848.398 617.256 850.869 619.727 853.905 619.727C856.941 619.727 859.412 617.256 859.412 614.22C859.412 611.184 856.941 608.713 853.905 608.713Z" fill="black"/>
<path d="M885.225 621.467C881.232 621.467 877.978 618.213 877.978 614.22C877.978 610.227 881.232 606.973 885.225 606.973C889.218 606.973 892.472 610.227 892.472 614.22C892.472 618.213 889.218 621.467 885.225 621.467ZM885.225 608.713C882.189 608.713 879.718 611.184 879.718 614.22C879.718 617.256 882.189 619.727 885.225 619.727C888.261 619.727 890.732 617.256 890.732 614.22C890.732 611.184 888.261 608.713 885.225 608.713Z" fill="black"/>
<path d="M941.923 602.762C937.93 602.762 934.676 599.508 934.676 595.515C934.676 591.522 937.93 588.268 941.923 588.268C945.916 588.268 949.17 591.522 949.17 595.515C949.17 599.508 945.916 602.762 941.923 602.762ZM941.923 590.008C938.887 590.008 936.416 592.479 936.416 595.515C936.416 598.551 938.887 601.022 941.923 601.022C944.959 601.022 947.43 598.551 947.43 595.515C947.43 592.479 944.959 590.008 941.923 590.008Z" fill="black"/>
<path d="M1023.27 548.387C1019.27 548.387 1016.02 545.133 1016.02 541.14C1016.02 537.147 1019.27 533.893 1023.27 533.893C1027.26 533.893 1030.51 537.147 1030.51 541.14C1030.51 545.133 1027.26 548.387 1023.27 548.387ZM1023.27 535.633C1020.23 535.633 1017.76 538.104 1017.76 541.14C1017.76 544.176 1020.23 546.647 1023.27 546.647C1026.3 546.647 1028.77 544.176 1028.77 541.14C1028.77 538.104 1026.3 535.633 1023.27 535.633Z" fill="black"/>
<path d="M910.455 638.867C906.462 638.867 903.208 635.613 903.208 631.62C903.208 627.627 906.462 624.373 910.455 624.373C914.448 624.373 917.702 627.627 917.702 631.62C917.702 635.613 914.448 638.867 910.455 638.867ZM910.455 626.113C907.419 626.113 904.948 628.584 904.948 631.62C904.948 634.656 907.419 637.127 910.455 637.127C913.491 637.127 915.962 634.656 915.962 631.62C915.962 628.584 913.491 626.113 910.455 626.113Z" fill="black"/>
<path d="M620.31 461.683C616.317 461.683 613.063 458.429 613.063 454.436C613.063 450.443 616.317 447.189 620.31 447.189C624.303 447.189 627.557 450.443 627.557 454.436C627.557 458.429 624.303 461.683 620.31 461.683ZM620.31 448.92C617.274 448.92 614.803 451.391 614.803 454.427C614.803 457.463 617.274 459.934 620.31 459.934C623.346 459.934 625.817 457.463 625.817 454.427C625.817 451.391 623.346 448.92 620.31 448.92Z" fill="black"/>
<path d="M493.29 475.603C489.297 475.603 486.043 472.349 486.043 468.356C486.043 464.363 489.297 461.109 493.29 461.109C497.283 461.109 500.537 464.363 500.537 468.356C500.537 472.349 497.283 475.603 493.29 475.603ZM493.29 462.84C490.254 462.84 487.783 465.311 487.783 468.347C487.783 471.383 490.254 473.854 493.29 473.854C496.326 473.854 498.797 471.383 498.797 468.347C498.797 465.311 496.326 462.84 493.29 462.84Z" fill="black"/>
<path d="M455.593 475.603C451.6 475.603 448.346 472.349 448.346 468.356C448.346 464.363 451.6 461.109 455.593 461.109C459.586 461.109 462.84 464.363 462.84 468.356C462.84 472.349 459.586 475.603 455.593 475.603ZM455.593 462.84C452.557 462.84 450.086 465.311 450.086 468.347C450.086 471.383 452.557 473.854 455.593 473.854C458.629 473.854 461.1 471.383 461.1 468.347C461.1 465.311 458.629 462.84 455.593 462.84Z" fill="black"/>
<path d="M455.593 455.297C451.6 455.297 448.346 452.043 448.346 448.05C448.346 444.057 451.6 440.803 455.593 440.803C459.586 440.803 462.84 444.057 462.84 448.05C462.84 452.043 459.586 455.297 455.593 455.297ZM455.593 442.543C452.557 442.543 450.086 445.014 450.086 448.05C450.086 451.086 452.557 453.557 455.593 453.557C458.629 453.557 461.1 451.086 461.1 448.05C461.1 445.014 458.629 442.543 455.593 442.543Z" fill="black"/>
<path d="M434.13 455.297C430.137 455.297 426.883 452.043 426.883 448.05C426.883 444.057 430.137 440.803 434.13 440.803C438.123 440.803 441.377 444.057 441.377 448.05C441.377 452.043 438.123 455.297 434.13 455.297ZM434.13 442.543C431.094 442.543 428.623 445.014 428.623 448.05C428.623 451.086 431.094 453.557 434.13 453.557C437.166 453.557 439.637 451.086 439.637 448.05C439.637 445.014 437.166 442.543 434.13 442.543Z" fill="black"/>
<path d="M394.693 415.86C390.7 415.86 387.446 412.606 387.446 408.613C387.446 404.62 390.7 401.366 394.693 401.366C398.686 401.366 401.94 404.62 401.94 408.613C401.94 412.606 398.686 415.86 394.693 415.86ZM394.693 403.097C391.657 403.097 389.186 405.568 389.186 408.604C389.186 411.641 391.657 414.111 394.693 414.111C397.729 414.111 400.2 411.641 400.2 408.604C400.2 405.568 397.729 403.097 394.693 403.097Z" fill="black"/>
<path d="M434.13 336.403C430.137 336.403 426.883 333.149 426.883 329.156C426.883 325.162 430.137 321.909 434.13 321.909C438.123 321.909 441.377 325.162 441.377 329.156C441.377 333.149 438.123 336.403 434.13 336.403ZM434.13 323.64C431.094 323.64 428.623 326.111 428.623 329.147C428.623 332.183 431.094 334.654 434.13 334.654C437.166 334.654 439.637 332.183 439.637 329.147C439.637 326.111 437.166 323.64 434.13 323.64Z" fill="black"/>
<path d="M434.13 314.94C430.137 314.94 426.883 311.686 426.883 307.693C426.883 303.7 430.137 300.446 434.13 300.446C438.123 300.446 441.377 303.7 441.377 307.693C441.377 311.686 438.123 314.94 434.13 314.94ZM434.13 302.177C431.094 302.177 428.623 304.648 428.623 307.684C428.623 310.721 431.094 313.191 434.13 313.191C437.166 313.191 439.637 310.721 439.637 307.684C439.637 304.648 437.166 302.177 434.13 302.177Z" fill="black"/>
<path d="M461.97 427.457C457.977 427.457 454.723 424.203 454.723 420.21C454.723 416.217 457.977 412.963 461.97 412.963C465.963 412.963 469.217 416.217 469.217 420.21C469.217 424.203 465.963 427.457 461.97 427.457ZM461.97 414.703C458.934 414.703 456.463 417.174 456.463 420.21C456.463 423.246 458.934 425.717 461.97 425.717C465.006 425.717 467.477 423.246 467.477 420.21C467.477 417.174 465.006 414.703 461.97 414.703Z" fill="black"/>
<path d="M189.373 461.1C185.38 461.1 182.126 457.846 182.126 453.853C182.126 449.86 185.38 446.606 189.373 446.606C193.366 446.606 196.62 449.86 196.62 453.853C196.62 457.846 193.366 461.1 189.373 461.1ZM189.373 448.337C186.337 448.337 183.866 450.808 183.866 453.844C183.866 456.88 186.337 459.351 189.373 459.351C192.409 459.351 194.88 456.88 194.88 453.844C194.88 450.808 192.409 448.337 189.373 448.337Z" fill="black"/>
<path d="M210.827 467.477C206.834 467.477 203.58 464.223 203.58 460.23C203.58 456.237 206.834 452.983 210.827 452.983C214.82 452.983 218.074 456.237 218.074 460.23C218.074 464.223 214.82 467.477 210.827 467.477ZM210.827 454.723C207.791 454.723 205.32 457.194 205.32 460.23C205.32 463.266 207.791 465.737 210.827 465.737C213.863 465.737 216.334 463.266 216.334 460.23C216.334 457.194 213.863 454.723 210.827 454.723Z" fill="black"/>
<path d="M376.71 553.903C372.717 553.903 369.463 550.649 369.463 546.656C369.463 542.663 372.717 539.409 376.71 539.409C380.703 539.409 383.957 542.663 383.957 546.656C383.957 550.649 380.703 553.903 376.71 553.903ZM376.71 541.14C373.674 541.14 371.203 543.611 371.203 546.647C371.203 549.683 373.674 552.154 376.71 552.154C379.746 552.154 382.217 549.683 382.217 546.647C382.217 543.611 379.746 541.14 376.71 541.14Z" fill="black"/>
<path d="M381.347 581.743C377.354 581.743 374.1 578.489 374.1 574.496C374.1 570.503 377.354 567.249 381.347 567.249C385.34 567.249 388.594 570.503 388.594 574.496C388.594 578.489 385.34 581.743 381.347 581.743ZM381.347 568.98C378.311 568.98 375.84 571.451 375.84 574.487C375.84 577.523 378.311 579.994 381.347 579.994C384.383 579.994 386.854 577.523 386.854 574.487C386.854 571.451 384.383 568.98 381.347 568.98Z" fill="black"/>
<path d="M374.97 314.94C370.977 314.94 367.723 311.686 367.723 307.693C367.723 303.7 370.977 300.446 374.97 300.446C378.963 300.446 382.217 303.7 382.217 307.693C382.217 311.686 378.963 314.94 374.97 314.94ZM374.97 302.177C371.934 302.177 369.463 304.648 369.463 307.684C369.463 310.721 371.934 313.191 374.97 313.191C378.006 313.191 380.477 310.721 380.477 307.684C380.477 304.648 378.006 302.177 374.97 302.177Z" fill="black"/>
<path d="M394.11 314.94C390.117 314.94 386.863 311.686 386.863 307.693C386.863 303.7 390.117 300.446 394.11 300.446C398.103 300.446 401.357 303.7 401.357 307.693C401.357 311.686 398.103 314.94 394.11 314.94ZM394.11 302.177C391.074 302.177 388.603 304.648 388.603 307.684C388.603 310.721 391.074 313.191 394.11 313.191C397.146 313.191 399.617 310.721 399.617 307.684C399.617 304.648 397.146 302.177 394.11 302.177Z" fill="black"/>
<path d="M394.11 296.383C390.117 296.383 386.863 293.129 386.863 289.136C386.863 285.142 390.117 281.889 394.11 281.889C398.103 281.889 401.357 285.142 401.357 289.136C401.357 293.129 398.103 296.383 394.11 296.383ZM394.11 283.62C391.074 283.62 388.603 286.091 388.603 289.127C388.603 292.163 391.074 294.634 394.11 294.634C397.146 294.634 399.617 292.163 399.617 289.127C399.617 286.091 397.146 283.62 394.11 283.62Z" fill="black"/>
<path d="M414.407 314.94C410.414 314.94 407.16 311.686 407.16 307.693C407.16 303.7 410.414 300.446 414.407 300.446C418.401 300.446 421.654 303.7 421.654 307.693C421.654 311.686 418.401 314.94 414.407 314.94ZM414.407 302.177C411.371 302.177 408.9 304.648 408.9 307.684C408.9 310.721 411.371 313.191 414.407 313.191C417.444 313.191 419.914 310.721 419.914 307.684C419.914 304.648 417.444 302.177 414.407 302.177Z" fill="black"/>
<path d="M433.547 275.503C429.554 275.503 426.3 272.249 426.3 268.256C426.3 264.262 429.554 261.009 433.547 261.009C437.54 261.009 440.794 264.262 440.794 268.256C440.794 272.249 437.54 275.503 433.547 275.503ZM433.547 262.74C430.511 262.74 428.04 265.211 428.04 268.247C428.04 271.283 430.511 273.754 433.547 273.754C436.583 273.754 439.054 271.283 439.054 268.247C439.054 265.211 436.583 262.74 433.547 262.74Z" fill="black"/>
<path d="M433.547 256.363C429.554 256.363 426.3 253.109 426.3 249.116C426.3 245.122 429.554 241.869 433.547 241.869C437.54 241.869 440.794 245.122 440.794 249.116C440.794 253.109 437.54 256.363 433.547 256.363ZM433.547 243.6C430.511 243.6 428.04 246.071 428.04 249.107C428.04 252.143 430.511 254.614 433.547 254.614C436.583 254.614 439.054 252.143 439.054 249.107C439.054 246.071 436.583 243.6 433.547 243.6Z" fill="black"/>
<path d="M413.833 256.363C409.84 256.363 406.586 253.109 406.586 249.116C406.586 245.122 409.84 241.869 413.833 241.869C417.826 241.869 421.08 245.122 421.08 249.116C421.08 253.109 417.826 256.363 413.833 256.363ZM413.833 243.6C410.797 243.6 408.326 246.071 408.326 249.107C408.326 252.143 410.797 254.614 413.833 254.614C416.869 254.614 419.34 252.143 419.34 249.107C419.34 246.071 416.869 243.6 413.833 243.6Z" fill="black"/>
<path d="M413.833 236.64C409.84 236.64 406.586 233.386 406.586 229.393C406.586 225.4 409.84 222.146 413.833 222.146C417.826 222.146 421.08 225.4 421.08 229.393C421.08 233.386 417.826 236.64 413.833 236.64ZM413.833 223.877C410.797 223.877 408.326 226.348 408.326 229.384C408.326 232.42 410.797 234.891 413.833 234.891C416.869 234.891 419.34 232.42 419.34 229.384C419.34 226.348 416.869 223.877 413.833 223.877Z" fill="black"/>
<path d="M413.833 216.917C409.84 216.917 406.586 213.663 406.586 209.67C406.586 205.677 409.84 202.423 413.833 202.423C417.826 202.423 421.08 205.677 421.08 209.67C421.08 213.663 417.826 216.917 413.833 216.917ZM413.833 204.163C410.797 204.163 408.326 206.634 408.326 209.67C408.326 212.706 410.797 215.177 413.833 215.177C416.869 215.177 419.34 212.706 419.34 209.67C419.34 206.634 416.869 204.163 413.833 204.163Z" fill="black"/>
<path d="M413.833 196.62C409.84 196.62 406.586 193.366 406.586 189.373C406.586 185.38 409.84 182.126 413.833 182.126C417.826 182.126 421.08 185.38 421.08 189.373C421.08 193.366 417.826 196.62 413.833 196.62ZM413.833 183.857C410.797 183.857 408.326 186.328 408.326 189.364C408.326 192.4 410.797 194.871 413.833 194.871C416.869 194.871 419.34 192.4 419.34 189.364C419.34 186.328 416.869 183.857 413.833 183.857Z" fill="black"/>
<path d="M393.527 196.62C389.534 196.62 386.28 193.366 386.28 189.373C386.28 185.38 389.534 182.126 393.527 182.126C397.52 182.126 400.774 185.38 400.774 189.373C400.774 193.366 397.52 196.62 393.527 196.62ZM393.527 183.857C390.491 183.857 388.02 186.328 388.02 189.364C388.02 192.4 390.491 194.871 393.527 194.871C396.563 194.871 399.034 192.4 399.034 189.364C399.034 186.328 396.563 183.857 393.527 183.857Z" fill="black"/>
<path d="M323.927 147.9C319.934 147.9 316.68 144.646 316.68 140.653C316.68 136.66 319.934 133.406 323.927 133.406C327.92 133.406 331.174 136.66 331.174 140.653C331.174 144.646 327.92 147.9 323.927 147.9ZM323.927 135.137C320.891 135.137 318.42 137.608 318.42 140.644C318.42 143.68 320.891 146.151 323.927 146.151C326.963 146.151 329.434 143.68 329.434 140.644C329.434 137.608 326.963 135.137 323.927 135.137Z" fill="black"/>
<path d="M348.287 157.183C344.294 157.183 341.04 153.929 341.04 149.936C341.04 145.943 344.294 142.689 348.287 142.689C352.28 142.689 355.534 145.943 355.534 149.936C355.534 153.929 352.28 157.183 348.287 157.183ZM348.287 144.42C345.251 144.42 342.78 146.891 342.78 149.927C342.78 152.963 345.251 155.434 348.287 155.434C351.323 155.434 353.794 152.963 353.794 149.927C353.794 146.891 351.323 144.42 348.287 144.42Z" fill="black"/>
<path d="M373.23 176.897C369.237 176.897 365.983 173.643 365.983 169.65C365.983 165.657 369.237 162.403 373.23 162.403C377.223 162.403 380.477 165.657 380.477 169.65C380.477 173.643 377.223 176.897 373.23 176.897ZM373.23 164.143C370.194 164.143 367.723 166.614 367.723 169.65C367.723 172.686 370.194 175.157 373.23 175.157C376.266 175.157 378.737 172.686 378.737 169.65C378.737 166.614 376.266 164.143 373.23 164.143Z" fill="black"/>
<path d="M393.527 176.897C389.534 176.897 386.28 173.643 386.28 169.65C386.28 165.657 389.534 162.403 393.527 162.403C397.52 162.403 400.774 165.657 400.774 169.65C400.774 173.643 397.52 176.897 393.527 176.897ZM393.527 164.143C390.491 164.143 388.02 166.614 388.02 169.65C388.02 172.686 390.491 175.157 393.527 175.157C396.563 175.157 399.034 172.686 399.034 169.65C399.034 166.614 396.563 164.143 393.527 164.143Z" fill="black"/>
<path d="M393.527 156.6C389.534 156.6 386.28 153.346 386.28 149.353C386.28 145.36 389.534 142.106 393.527 142.106C397.52 142.106 400.774 145.36 400.774 149.353C400.774 153.346 397.52 156.6 393.527 156.6ZM393.527 143.837C390.491 143.837 388.02 146.308 388.02 149.344C388.02 152.381 390.491 154.851 393.527 154.851C396.563 154.851 399.034 152.381 399.034 149.344C399.034 146.308 396.563 143.837 393.527 143.837Z" fill="black"/>
<path d="M372.073 156.6C368.079 156.6 364.826 153.346 364.826 149.353C364.826 145.36 368.079 142.106 372.073 142.106C376.066 142.106 379.32 145.36 379.32 149.353C379.32 153.346 376.066 156.6 372.073 156.6ZM372.073 143.837C369.036 143.837 366.566 146.308 366.566 149.344C366.566 152.381 369.036 154.851 372.073 154.851C375.109 154.851 377.58 152.381 377.58 149.344C377.58 146.308 375.109 143.837 372.073 143.837Z" fill="black"/>
<path d="M372.073 136.303C368.079 136.303 364.826 133.049 364.826 129.056C364.826 125.063 368.079 121.809 372.073 121.809C376.066 121.809 379.32 125.063 379.32 129.056C379.32 133.049 376.066 136.303 372.073 136.303ZM372.073 123.54C369.036 123.54 366.566 126.011 366.566 129.047C366.566 132.083 369.036 134.554 372.073 134.554C375.109 134.554 377.58 132.083 377.58 129.047C377.58 126.011 375.109 123.54 372.073 123.54Z" fill="black"/>
<path d="M294.06 94.6821C290.067 94.6821 286.813 91.4283 286.813 87.435C286.813 83.4417 290.067 80.1879 294.06 80.1879C298.053 80.1879 301.307 83.4417 301.307 87.435C301.307 91.4283 298.053 94.6821 294.06 94.6821ZM294.06 81.9279C291.024 81.9279 288.553 84.3987 288.553 87.435C288.553 90.4713 291.024 92.9421 294.06 92.9421C297.096 92.9421 299.567 90.4713 299.567 87.435C299.567 84.3987 297.096 81.9279 294.06 81.9279Z" fill="black"/>
<path d="M272.745 94.6821C268.752 94.6821 265.498 91.4283 265.498 87.435C265.498 83.4417 268.752 80.1879 272.745 80.1879C276.738 80.1879 279.992 83.4417 279.992 87.435C279.992 91.4283 276.738 94.6821 272.745 94.6821ZM272.745 81.9279C269.709 81.9279 267.238 84.3987 267.238 87.435C267.238 90.4713 269.709 92.9421 272.745 92.9421C275.781 92.9421 278.252 90.4713 278.252 87.435C278.252 84.3987 275.781 81.9279 272.745 81.9279Z" fill="black"/>
<path d="M287.535 130.787C283.542 130.787 280.288 127.533 280.288 123.54C280.288 119.547 283.542 116.293 287.535 116.293C291.528 116.293 294.782 119.547 294.782 123.54C294.782 127.533 291.528 130.787 287.535 130.787ZM287.535 118.033C284.499 118.033 282.028 120.504 282.028 123.54C282.028 126.576 284.499 129.047 287.535 129.047C290.571 129.047 293.042 126.576 293.042 123.54C293.042 120.504 290.571 118.033 287.535 118.033Z" fill="black"/>
<path d="M178.933 109.907C174.94 109.907 171.686 106.653 171.686 102.66C171.686 98.6668 174.94 95.413 178.933 95.413C182.926 95.413 186.18 98.6668 186.18 102.66C186.18 106.653 182.926 109.907 178.933 109.907ZM178.933 97.153C175.897 97.153 173.426 99.6238 173.426 102.66C173.426 105.696 175.897 108.167 178.933 108.167C181.969 108.167 184.44 105.696 184.44 102.66C184.44 99.6238 181.969 97.153 178.933 97.153Z" fill="black"/>
<path d="M178.933 34.6522C174.94 34.6522 171.686 31.3984 171.686 27.4051C171.686 23.4118 174.94 20.158 178.933 20.158C182.926 20.158 186.18 23.4118 186.18 27.4051C186.18 31.3984 182.926 34.6522 178.933 34.6522ZM178.933 21.898C175.897 21.898 173.426 24.3688 173.426 27.4051C173.426 30.4414 175.897 32.9122 178.933 32.9122C181.969 32.9122 184.44 30.4414 184.44 27.4051C184.44 24.3688 181.969 21.898 178.933 21.898Z" fill="black"/>
<path d="M350.61 136.303C346.617 136.303 343.363 133.049 343.363 129.056C343.363 125.063 346.617 121.809 350.61 121.809C354.603 121.809 357.857 125.063 357.857 129.056C357.857 133.049 354.603 136.303 350.61 136.303ZM350.61 123.54C347.574 123.54 345.103 126.011 345.103 129.047C345.103 132.083 347.574 134.554 350.61 134.554C353.646 134.554 356.117 132.083 356.117 129.047C356.117 126.011 353.646 123.54 350.61 123.54Z" fill="black"/>
<path d="M434.13 494.16C430.137 494.16 426.883 490.906 426.883 486.913C426.883 482.92 430.137 479.666 434.13 479.666C438.123 479.666 441.377 482.92 441.377 486.913C441.377 490.906 438.123 494.16 434.13 494.16ZM434.13 481.397C431.094 481.397 428.623 483.868 428.623 486.904C428.623 489.941 431.094 492.411 434.13 492.411C437.166 492.411 439.637 489.941 439.637 486.904C439.637 483.868 437.166 481.397 434.13 481.397Z" fill="black"/>
<path d="M513.587 475.603C509.594 475.603 506.34 472.349 506.34 468.356C506.34 464.363 509.594 461.109 513.587 461.109C517.581 461.109 520.834 464.363 520.834 468.356C520.834 472.349 517.581 475.603 513.587 475.603ZM513.587 462.84C510.551 462.84 508.08 465.311 508.08 468.347C508.08 471.383 510.551 473.854 513.587 473.854C516.624 473.854 519.094 471.383 519.094 468.347C519.094 465.311 516.624 462.84 513.587 462.84Z" fill="black"/>
<path d="M493.29 495.317C489.297 495.317 486.043 492.063 486.043 488.07C486.043 484.077 489.297 480.823 493.29 480.823C497.283 480.823 500.537 484.077 500.537 488.07C500.537 492.063 497.283 495.317 493.29 495.317ZM493.29 482.563C490.254 482.563 487.783 485.034 487.783 488.07C487.783 491.106 490.254 493.577 493.29 493.577C496.326 493.577 498.797 491.106 498.797 488.07C498.797 485.034 496.326 482.563 493.29 482.563Z" fill="black"/>
<path d="M828.527 501.99C824.534 501.99 821.28 498.736 821.28 494.743C821.28 490.75 824.534 487.496 828.527 487.496C832.52 487.496 835.774 490.75 835.774 494.743C835.774 498.736 832.52 501.99 828.527 501.99ZM828.527 489.227C825.491 489.227 823.02 491.698 823.02 494.734C823.02 497.771 825.491 500.241 828.527 500.241C831.563 500.241 834.034 497.771 834.034 494.734C834.034 491.698 831.563 489.227 828.527 489.227Z" fill="black"/>
<path d="M854.627 501.99C850.634 501.99 847.38 498.736 847.38 494.743C847.38 490.75 850.634 487.496 854.627 487.496C858.62 487.496 861.874 490.75 861.874 494.743C861.874 498.736 858.62 501.99 854.627 501.99ZM854.627 489.227C851.591 489.227 849.12 491.698 849.12 494.734C849.12 497.771 851.591 500.241 854.627 500.241C857.663 500.241 860.134 497.771 860.134 494.734C860.134 491.698 857.663 489.227 854.627 489.227Z" fill="black"/>
<path d="M349.592 554.477C345.599 554.477 342.345 551.223 342.345 547.23C342.345 543.237 345.599 539.983 349.592 539.983C353.585 539.983 356.839 543.237 356.839 547.23C356.839 551.223 353.585 554.477 349.592 554.477ZM349.592 541.723C346.556 541.723 344.085 544.194 344.085 547.23C344.085 550.266 346.556 552.737 349.592 552.737C352.628 552.737 355.099 550.266 355.099 547.23C355.099 544.194 352.628 541.723 349.592 541.723Z" fill="black"/>
<path d="M253.17 412.667C249.177 412.667 245.923 409.413 245.923 405.42C245.923 401.427 249.177 398.173 253.17 398.173C257.163 398.173 260.417 401.427 260.417 405.42C260.417 409.413 257.163 412.667 253.17 412.667ZM253.17 399.913C250.134 399.913 247.663 402.384 247.663 405.42C247.663 408.456 250.134 410.927 253.17 410.927C256.206 410.927 258.677 408.456 258.677 405.42C258.677 402.384 256.206 399.913 253.17 399.913Z" fill="black"/>
<path d="M118.903 406.29C114.91 406.29 111.656 403.036 111.656 399.043C111.656 395.05 114.91 391.796 118.903 391.796C122.896 391.796 126.15 395.05 126.15 399.043C126.15 403.036 122.896 406.29 118.903 406.29ZM118.903 393.527C115.867 393.527 113.396 395.998 113.396 399.034C113.396 402.07 115.867 404.541 118.903 404.541C121.939 404.541 124.41 402.07 124.41 399.034C124.41 395.998 121.939 393.527 118.903 393.527Z" fill="black"/>
<path d="M216.63 343.65C212.637 343.65 209.383 340.396 209.383 336.403C209.383 332.41 212.637 329.156 216.63 329.156C220.623 329.156 223.877 332.41 223.877 336.403C223.877 340.396 220.623 343.65 216.63 343.65ZM216.63 330.887C213.594 330.887 211.123 333.358 211.123 336.394C211.123 339.43 213.594 341.901 216.63 341.901C219.666 341.901 222.137 339.43 222.137 336.394C222.137 333.358 219.666 330.887 216.63 330.887Z" fill="black"/>
<path d="M91.9329 347.417C87.9396 347.417 84.6858 344.163 84.6858 340.17C84.6858 336.177 87.9396 332.923 91.9329 332.923C95.9262 332.923 99.18 336.177 99.18 340.17C99.18 344.163 95.9262 347.417 91.9329 347.417ZM91.9329 334.663C88.8966 334.663 86.4258 337.134 86.4258 340.17C86.4258 343.206 88.8966 345.677 91.9329 345.677C94.9692 345.677 97.44 343.206 97.44 340.17C97.44 337.134 94.9692 334.663 91.9329 334.663Z" fill="black"/>
<path d="M39.7329 275.207C35.7396 275.207 32.4858 271.953 32.4858 267.96C32.4858 263.967 35.7396 260.713 39.7329 260.713C43.7262 260.713 46.98 263.967 46.98 267.96C46.98 271.953 43.7262 275.207 39.7329 275.207ZM39.7329 262.453C36.6966 262.453 34.2258 264.924 34.2258 267.96C34.2258 270.996 36.6966 273.467 39.7329 273.467C42.7692 273.467 45.24 270.996 45.24 267.96C45.24 264.924 42.7692 262.453 39.7329 262.453Z" fill="black"/>
<path d="M297.061 423.151L294.599 420.689L312.191 403.097H318.281L321.909 399.478H352.498L367.07 384.905H418.905L435.766 368.054V359.562H439.246V369.489L420.349 388.385H368.515L353.942 402.958H323.344L319.725 406.577H313.626L297.061 423.151Z" fill="black"/>
<path d="M298.741 424.56C297.209 426.091 294.721 426.091 293.19 424.56C291.659 423.029 291.659 420.541 293.19 419.009C294.721 417.478 297.209 417.478 298.741 419.009C300.272 420.541 300.272 423.029 298.741 424.56Z" fill="black"/>
<path d="M437.505 363.677C439.672 363.677 441.429 361.921 441.429 359.754C441.429 357.587 439.672 355.83 437.505 355.83C435.338 355.83 433.582 357.587 433.582 359.754C433.582 361.921 435.338 363.677 437.505 363.677Z" fill="black"/>
<path d="M315.949 397.877H299.532V394.397H314.505L318.568 390.343H349.305L372.073 367.575H384.871V371.055H373.517L350.749 393.823H320.012L315.949 397.877Z" fill="black"/>
<path d="M299.724 400.061C301.891 400.061 303.647 398.304 303.647 396.137C303.647 393.97 301.891 392.214 299.724 392.214C297.557 392.214 295.8 393.97 295.8 396.137C295.8 398.304 297.557 400.061 299.724 400.061Z" fill="black"/>
<path d="M384.671 373.239C386.838 373.239 388.594 371.482 388.594 369.315C388.594 367.148 386.838 365.391 384.671 365.391C382.504 365.391 380.747 367.148 380.747 369.315C380.747 371.482 382.504 373.239 384.671 373.239Z" fill="black"/>
<path d="M345.747 388.02H325.598L322.118 384.54H315.975V382.8H322.84L326.32 386.28H345.033L374.318 356.987H403.167L407.9 361.72L406.673 362.955L402.453 358.727H375.04L345.747 388.02Z" fill="black"/>
<path d="M316.106 386.289C317.552 386.289 318.724 385.116 318.724 383.67C318.724 382.224 317.552 381.051 316.106 381.051C314.66 381.051 313.487 382.224 313.487 383.67C313.487 385.116 314.66 386.289 316.106 386.289Z" fill="black"/>
<path d="M405.342 364.095C406.359 365.113 408.021 365.113 409.039 364.095C410.057 363.077 410.057 361.415 409.039 360.397C408.021 359.38 406.359 359.38 405.342 360.397C404.324 361.415 404.324 363.077 405.342 364.095Z" fill="black"/>
<path d="M344.772 381.347H331.07L323.823 374.1L325.667 372.256L332.157 378.737H343.685L374.5 347.93H388.707V350.54H375.579L344.772 381.347Z" fill="black"/>
<path d="M322.77 375.361C321.622 374.213 321.622 372.351 322.77 371.194C323.918 370.037 325.78 370.046 326.937 371.194C328.086 372.343 328.086 374.204 326.937 375.361C325.789 376.51 323.927 376.51 322.77 375.361Z" fill="black"/>
<path d="M388.56 352.176C390.186 352.176 391.5 350.854 391.5 349.235C391.5 347.617 390.178 346.295 388.56 346.295C386.941 346.295 385.619 347.617 385.619 349.235C385.619 350.854 386.941 352.176 388.56 352.176Z" fill="black"/>
<path d="M347.086 369.602H341.223V366.992H346.008L379.068 333.932H400.156L407.116 340.892L405.272 342.737L399.078 336.542H380.146L347.086 369.602Z" fill="black"/>
<path d="M341.371 371.238C342.995 371.238 344.311 369.921 344.311 368.297C344.311 366.673 342.995 365.357 341.371 365.357C339.746 365.357 338.43 366.673 338.43 368.297C338.43 369.921 339.746 371.238 341.371 371.238Z" fill="black"/>
<path d="M404.01 343.798C405.159 344.946 407.021 344.946 408.178 343.798C409.335 342.649 409.326 340.788 408.178 339.631C407.029 338.482 405.168 338.482 404.01 339.631C402.862 340.779 402.862 342.641 404.01 343.798Z" fill="black"/>
<path d="M24.6124 582.752H-11.8928V580.142H23.5336L27.3007 576.375H77.4736L159.68 494.16H190.052V496.77H160.767L78.5524 578.985H28.3795L24.6124 582.752Z" fill="black"/>
<path d="M189.904 498.406C191.528 498.406 192.844 497.089 192.844 495.465C192.844 493.841 191.528 492.524 189.904 492.524C188.28 492.524 186.963 493.841 186.963 495.465C186.963 497.089 188.28 498.406 189.904 498.406Z" fill="black"/>
<path d="M34.8696 606.677H-8.98706V604.937H34.1475L49.5204 589.573H81.7104L164.795 506.488H213.368L265.35 454.505H285.29L323.17 416.617H335.89L341.31 422.037H351.028V423.777H340.588L335.168 418.357H323.892L286.013 456.245H266.072L214.09 508.228H165.518L82.4325 591.313H50.2425L34.8696 606.677Z" fill="black"/>
<path d="M350.897 425.526C352.343 425.526 353.516 424.353 353.516 422.907C353.516 421.461 352.343 420.288 350.897 420.288C349.451 420.288 348.278 421.461 348.278 422.907C348.278 424.353 349.451 425.526 350.897 425.526Z" fill="black"/>
<path d="M53.1745 614.655H-10.0049V612.045H52.0957L58.2118 605.929L60.0562 607.773L53.1745 614.655Z" fill="black"/>
<path d="M61.77 609.766C63.3012 608.234 63.3012 605.746 61.77 604.215C60.2388 602.684 57.7506 602.684 56.2194 604.215C54.6882 605.746 54.6882 608.234 56.2194 609.766C57.7506 611.297 60.2388 611.297 61.77 609.766Z" fill="black"/>
<path d="M64.7368 620.745H-6.5249V619.005H64.0234L76.9951 606.033V600.813L164.726 513.083H217.143L268.795 461.431H289.788L321.482 429.728H326.807V431.468H322.205L290.502 463.171H269.517L217.857 514.823H165.439L78.7351 601.527V606.747L64.7368 620.745Z" fill="black"/>
<path d="M326.676 433.217C328.123 433.217 329.295 432.044 329.295 430.598C329.295 429.152 328.123 427.979 326.676 427.979C325.23 427.979 324.058 429.152 324.058 430.598C324.058 432.044 325.23 433.217 326.676 433.217Z" fill="black"/>
<path d="M69.9567 627.705H-8.69995V625.965H69.2433L84.39 610.818V603.423L167.553 520.26H219.753L271.518 468.495H291.963L316.758 443.7H345.033L355.691 433.043H399.687L410.257 443.613L409.031 444.84L398.973 434.783H356.404L345.747 445.44H317.472L292.677 470.235H272.232L220.467 522H168.267L86.13 604.137V611.532L69.9567 627.705Z" fill="black"/>
<path d="M407.699 445.979C408.717 446.997 410.379 446.997 411.397 445.979C412.415 444.962 412.415 443.3 411.397 442.282C410.379 441.264 408.717 441.264 407.699 442.282C406.682 443.3 406.682 444.962 407.699 445.979Z" fill="black"/>
<path d="M0.356719 649.89H-14.355V648.15H-0.35668L13.5633 634.23H75.3333L94.83 614.733V609.078L172.991 530.918H226.713L271.405 486.226H277.217V487.966H272.127L227.427 532.658H173.704L96.57 609.792V615.447L76.0467 635.97H14.2767L0.356719 649.89Z" fill="black"/>
<path d="M277.086 489.714C278.532 489.714 279.705 488.542 279.705 487.096C279.705 485.649 278.532 484.477 277.086 484.477C275.64 484.477 274.468 485.649 274.468 487.096C274.468 488.542 275.64 489.714 277.086 489.714Z" fill="black"/>
<path d="M7.06451 657.72H-8.26489V655.11H5.98571L20.1232 640.973H78.6307L114.84 604.754H138.226L143.82 599.16V587.581L185.78 545.629H261.766L273.606 533.789L275.451 535.633L262.845 548.239H186.859L146.43 588.659V600.239L139.305 607.364H115.928L79.7095 643.583H21.202L7.06451 657.72Z" fill="black"/>
<path d="M277.165 537.625C278.696 536.094 278.696 533.606 277.165 532.075C275.634 530.543 273.145 530.543 271.614 532.075C270.083 533.606 270.083 536.094 271.614 537.625C273.145 539.156 275.634 539.156 277.165 537.625Z" fill="black"/>
<path d="M141.888 584.231L140.044 582.387L183.466 538.965H240.886L269.839 510.011L271.684 511.856L241.964 541.575H184.544L141.888 584.231Z" fill="black"/>
<path d="M143.881 585.945C142.349 587.476 139.861 587.476 138.33 585.945C136.799 584.414 136.799 581.926 138.33 580.394C139.861 578.863 142.349 578.863 143.881 580.394C145.412 581.926 145.412 584.414 143.881 585.945Z" fill="black"/>
<path d="M273.397 513.848C274.929 512.317 274.929 509.829 273.397 508.298C271.866 506.766 269.378 506.766 267.847 508.298C266.316 509.829 266.316 512.317 267.847 513.848C269.378 515.379 271.866 515.379 273.397 513.848Z" fill="black"/>
<path d="M65.8677 670.988H35.3481L30.3456 665.985H-5.65503V663.375H31.4244L36.4269 668.378H65.8677V670.988Z" fill="black"/>
<path d="M65.6764 673.606C67.8434 673.606 69.6001 671.85 69.6001 669.683C69.6001 667.516 67.8434 665.759 65.6764 665.759C63.5094 665.759 61.7527 667.516 61.7527 669.683C61.7527 671.85 63.5094 673.606 65.6764 673.606Z" fill="black"/>
<path d="M72.1316 686.43H-6.09009V684.69H71.4182L166.901 589.208H190.217V590.948H167.614L72.1316 686.43Z" fill="black"/>
<path d="M190.086 592.696C191.533 592.696 192.705 591.524 192.705 590.078C192.705 588.631 191.533 587.459 190.086 587.459C188.64 587.459 187.468 588.631 187.468 590.078C187.468 591.524 188.64 592.696 190.086 592.696Z" fill="black"/>
<path d="M76.4818 692.52H-6.5249V690.78H75.7684L158.853 607.695H184.562V609.435H159.567L76.4818 692.52Z" fill="black"/>
<path d="M184.431 611.184C185.878 611.184 187.05 610.011 187.05 608.565C187.05 607.119 185.878 605.946 184.431 605.946C182.985 605.946 181.813 607.119 181.813 608.565C181.813 610.011 182.985 611.184 184.431 611.184Z" fill="black"/>
<path d="M78.6568 699.045H-6.5249V697.305H77.9434L156.896 618.353H195.828L225.226 588.955V559.419L233.247 553.268H283.307V555.008H233.839L226.966 560.271V589.677L196.542 620.093H157.609L78.6568 699.045Z" fill="black"/>
<path d="M283.176 556.757C284.623 556.757 285.795 555.584 285.795 554.138C285.795 552.692 284.623 551.519 283.176 551.519C281.73 551.519 280.558 552.692 280.558 554.138C280.558 555.584 281.73 556.757 283.176 556.757Z" fill="black"/>
<path d="M82.5717 705.57H57.855V703.83H81.8583L158.636 627.053H198.873L230.95 594.976H246.723L259.495 582.195H268.517V583.935H260.217L247.437 596.716H231.672L199.587 628.793H159.349L82.5717 705.57Z" fill="black"/>
<path d="M268.386 585.684C269.833 585.684 271.005 584.512 271.005 583.065C271.005 581.619 269.833 580.447 268.386 580.447C266.94 580.447 265.768 581.619 265.768 583.065C265.768 584.512 266.94 585.684 268.386 585.684Z" fill="black"/>
<path d="M295.722 567.675H249.133V565.935H295.008L300.803 560.141V505.113L348.618 457.289H424.917L431.842 464.215L430.615 465.45L424.203 459.029H349.34L302.543 505.827V560.854L295.722 567.675Z" fill="black"/>
<path d="M249.264 569.424C250.71 569.424 251.882 568.251 251.882 566.805C251.882 565.359 250.71 564.186 249.264 564.186C247.817 564.186 246.645 565.359 246.645 566.805C246.645 568.251 247.817 569.424 249.264 569.424Z" fill="black"/>
<path d="M429.284 466.59C430.302 467.608 431.964 467.608 432.982 466.59C434 465.572 434 463.91 432.982 462.892C431.964 461.874 430.302 461.874 429.284 462.892C428.266 463.91 428.266 465.572 429.284 466.59Z" fill="black"/>
<path d="M242.921 583.065L241.695 581.839L247.593 575.94H258.903L264.123 570.72H301.533L307.11 565.143V528.168L367.436 467.843H409.648V469.583H368.149L308.85 528.882V565.857L302.247 572.46H264.837L259.617 577.68H248.307L242.921 583.065Z" fill="black"/>
<path d="M243.765 583.77C243 584.536 241.756 584.536 240.99 583.77C240.224 583.004 240.224 581.76 240.99 580.995C241.756 580.229 243 580.229 243.765 580.995C244.531 581.76 244.531 583.004 243.765 583.77Z" fill="black"/>
<path d="M409.544 470.679C410.631 470.679 411.51 469.8 411.51 468.713C411.51 467.625 410.631 466.746 409.544 466.746C408.456 466.746 407.578 467.625 407.578 468.713C407.578 469.8 408.456 470.679 409.544 470.679Z" fill="black"/>
<path d="M86.7476 710.973L85.5122 709.737L162.333 632.925H205.398L235.413 602.91H250.638L258.033 595.515H278.043L296.096 577.463H302.838L312.661 567.64V550.788L377.597 485.843H389.447V487.583H378.319L314.401 551.502V568.362L303.552 579.203H296.809L278.757 597.255H258.747L251.352 604.65H236.127L206.112 634.665H163.047L86.7476 710.973Z" fill="black"/>
<path d="M389.316 489.332C390.762 489.332 391.935 488.159 391.935 486.713C391.935 485.267 390.762 484.094 389.316 484.094C387.87 484.094 386.698 485.267 386.698 486.713C386.698 488.159 387.87 489.332 389.316 489.332Z" fill="black"/>
<path d="M90.6626 717.063L89.4272 715.827L166.031 639.232H207.573L237.693 609.104H254.118L261.348 601.875H280.218L283.829 598.264H299.28V589.503L317.767 571.016V554.703L340.135 532.336H356.778L366.218 522.887V509.028L374.361 500.876H390.552L396.189 506.514V515.91H412.893L424.342 504.461V497.562L416.156 489.384L417.391 488.148L426.082 496.848V505.174L413.607 517.65H394.449V507.227L389.838 502.616H375.083L367.958 509.742V523.609L357.492 534.076H340.857L319.507 555.417V571.729L301.02 590.217V600.004H284.551L280.932 603.615H262.07L254.832 610.844H238.415L208.287 640.972H166.744L90.6626 717.063Z" fill="black"/>
<path d="M419.349 486.434C417.991 485.077 415.799 485.077 414.442 486.434C413.085 487.792 413.085 489.984 414.442 491.341C415.799 492.698 417.991 492.698 419.349 491.341C420.706 489.984 420.706 487.792 419.349 486.434Z" fill="black"/>
<path d="M101.538 717.933L100.302 716.697L157.766 659.243H161.463L164.326 656.38V646.923L168.58 642.66H184.362L188.929 647.219V658.668L190.956 660.695H195.828L242.338 614.185H262.427V615.925H243.061L196.542 662.435H190.234L187.189 659.382V647.941L183.648 644.4H169.302L166.066 647.637V657.102L162.177 660.983H158.479L101.538 717.933Z" fill="black"/>
<path d="M262.296 617.674C263.74 617.674 264.915 616.499 264.915 615.055C264.915 613.611 263.74 612.437 262.296 612.437C260.852 612.437 259.677 613.611 259.677 615.055C259.677 616.499 260.852 617.674 262.296 617.674Z" fill="black"/>
<path d="M114.161 718.794L112.909 717.576L157.54 671.64H203.658L242.156 633.143H290.223L304.465 618.901H339.857V620.641H305.187L290.937 634.883H242.869L204.372 673.38H158.27L114.161 718.794Z" fill="black"/>
<path d="M339.726 622.389C341.173 622.389 342.345 621.217 342.345 619.771C342.345 618.324 341.173 617.152 339.726 617.152C338.28 617.152 337.108 618.324 337.108 619.771C337.108 621.217 338.28 622.389 339.726 622.389Z" fill="black"/>
<path d="M123.288 719.238L122.052 718.002L162.116 677.948H208.443L247.045 639.346H283.977L295.365 650.725L294.13 651.952L283.263 641.086H247.767L209.157 679.688H162.829L123.288 719.238Z" fill="black"/>
<path d="M292.807 653.1C293.825 654.118 295.487 654.118 296.505 653.1C297.523 652.082 297.523 650.421 296.505 649.403C295.487 648.385 293.825 648.385 292.807 649.403C291.789 650.421 291.789 652.082 292.807 653.1Z" fill="black"/>
<path d="M134.163 717.933L132.927 716.697L165.596 684.038H210.618L248.35 646.306H280.497L286.717 652.517V658.512L282.106 663.131L280.871 661.896L284.977 657.798V653.24L279.783 648.046H249.072L211.332 685.778H166.309L134.163 717.933Z" fill="black"/>
<path d="M279.731 660.574C278.713 661.592 278.713 663.253 279.731 664.271C280.749 665.289 282.411 665.289 283.428 664.271C284.446 663.253 284.446 661.592 283.428 660.574C282.411 659.556 280.749 659.556 279.731 660.574Z" fill="black"/>
<path d="M145.038 718.368L143.802 717.132L169.946 690.998H215.838L234.865 671.971H262.227L266.872 676.608L265.637 677.834L261.513 673.711H235.587L216.552 692.738H170.659L145.038 718.368Z" fill="black"/>
<path d="M264.315 678.983C265.333 680.001 266.994 680.001 268.012 678.983C269.03 677.965 269.03 676.303 268.012 675.285C266.994 674.267 265.333 674.267 264.315 675.285C263.297 676.303 263.297 677.965 264.315 678.983Z" fill="black"/>
<path d="M218.988 702.708L217.752 701.472L230.193 689.04H277.173L279.705 686.508V671.283L286.961 664.028H304.143L315.505 652.665L316.732 653.892L304.857 665.768H287.674L281.445 671.997V687.222L277.887 690.78H230.907L218.988 702.708Z" fill="black"/>
<path d="M317.881 655.223C318.899 654.205 318.899 652.544 317.881 651.526C316.863 650.508 315.201 650.508 314.183 651.526C313.165 652.544 313.165 654.205 314.183 655.223C315.201 656.241 316.863 656.241 317.881 655.223Z" fill="black"/>
<path d="M280.323 699.228L279.087 697.992L292.32 684.768V680.218H294.06V685.482L280.323 699.228Z" fill="black"/>
<path d="M293.19 682.967C294.636 682.967 295.809 681.795 295.809 680.349C295.809 678.902 294.636 677.73 293.19 677.73C291.744 677.73 290.571 678.902 290.571 680.349C290.571 681.795 291.744 682.967 293.19 682.967Z" fill="black"/>
<path d="M308.218 681.05L286.921 702.348L288.151 703.578L309.449 682.281L308.218 681.05Z" fill="black"/>
<path d="M310.59 683.603C311.608 682.585 311.608 680.923 310.59 679.905C309.572 678.887 307.91 678.887 306.892 679.905C305.874 680.923 305.874 682.585 306.892 683.603C307.91 684.62 309.572 684.62 310.59 683.603Z" fill="black"/>
<path d="M299.898 709.233L298.662 707.997L323.423 683.246V669.978L335.489 657.903V649.098L355.447 629.141V610.227L349.192 603.971H307.98V592.548L325.598 574.931V569.058L330.13 564.526H335.742L342.397 571.172V578.628L347.304 583.526H359.388L364.843 578.072V554.112L360.772 550.04V537.303L371.429 526.646H392.492V528.386H372.143L362.512 538.017V549.327L366.583 553.398V578.785L360.102 585.266H346.582L340.657 579.342V571.895L335.028 566.266H330.852L327.338 569.772V575.644L309.72 593.262V602.231H349.914L357.187 609.513V629.863L337.229 649.812V658.625L325.163 670.692V683.959L299.898 709.233Z" fill="black"/>
<path d="M392.361 530.135C393.806 530.135 394.98 528.96 394.98 527.516C394.98 526.072 393.806 524.897 392.361 524.897C390.917 524.897 389.743 526.072 389.743 527.516C389.743 528.96 390.917 530.135 392.361 530.135Z" fill="black"/>
<path d="M304.248 715.758L303.012 714.522L330.165 687.378V673.893L340.822 663.236V652.143L360.946 632.02V611.688L396.885 575.74V539.913L431.024 505.766H451.217V507.506H431.746L398.625 540.627V576.462L362.686 612.402V632.742L342.562 652.857V663.949L331.905 674.607V688.092L304.248 715.758Z" fill="black"/>
<path d="M451.086 509.255C452.53 509.255 453.705 508.08 453.705 506.636C453.705 505.192 452.53 504.017 451.086 504.017C449.642 504.017 448.468 505.192 448.468 506.636C448.468 508.08 449.642 509.255 451.086 509.255Z" fill="black"/>
<path d="M312.078 718.803L310.842 717.567L337.342 691.076V674.328L345.929 665.733V653.448L366.975 632.403V615.603L403.602 578.976V557.748L429.763 531.587L430.989 532.814L405.342 558.462V579.698L368.715 616.317V633.125L347.669 654.162V666.455L339.082 675.042V691.789L312.078 718.803Z" fill="black"/>
<path d="M432.129 534.145C433.147 533.127 433.147 531.466 432.129 530.448C431.111 529.43 429.449 529.43 428.431 530.448C427.413 531.466 427.413 533.127 428.431 534.145C429.449 535.163 431.111 535.163 432.129 534.145Z" fill="black"/>
<path d="M345.39 699.48H343.65V678.243L353.002 668.891V657.798L374.204 636.588V617.778L413.085 578.898V563.838L449.946 526.976L451.173 528.203L414.825 564.552V579.62L375.944 618.492V637.31L354.742 658.512V669.604L345.39 678.957V699.48Z" fill="black"/>
<path d="M452.322 529.534C453.339 528.516 453.339 526.855 452.322 525.837C451.304 524.819 449.642 524.819 448.624 525.837C447.606 526.855 447.606 528.516 448.624 529.534C449.642 530.552 451.304 530.552 452.322 529.534Z" fill="black"/>
<path d="M354.96 702.96H353.22V686.508L364.312 675.416V665.193L403.576 625.93V603.858L418.418 589.016V571.668L447.667 542.419H458.568L469.243 531.744L470.479 532.971L459.29 544.159H448.381L420.158 572.39V589.729L405.316 604.58V626.652L366.052 665.915V676.138L354.96 687.23V702.96Z" fill="black"/>
<path d="M471.314 533.963C472.158 533.119 472.158 531.753 471.314 530.909C470.47 530.065 469.104 530.065 468.26 530.909C467.416 531.753 467.416 533.119 468.26 533.963C469.104 534.806 470.47 534.806 471.314 533.963Z" fill="black"/>
<path d="M363.225 702.96H361.485V687.378L371.273 677.591V666.063L410.31 627.018V605.163L424.83 590.643V576.018L452.174 548.674H467.703L483.79 532.579V518.007L476.63 510.855L477.865 509.62L485.53 517.293V533.301L468.417 550.414H452.896L426.57 576.732V591.365L412.05 605.877V627.74L373.013 666.777V678.304L363.225 688.092V702.96Z" fill="black"/>
<path d="M479.187 508.48C478.17 507.462 476.508 507.462 475.49 508.48C474.472 509.498 474.472 511.16 475.49 512.178C476.508 513.196 478.17 513.196 479.187 512.178C480.205 511.16 480.205 509.498 479.187 508.48Z" fill="black"/>
<path d="M372.36 703.83H370.62V695.643L380.703 685.56H392.013L398.025 679.548V663.253H399.765V680.262L392.727 687.3H381.417L372.36 696.357V703.83Z" fill="black"/>
<path d="M398.895 666.002C400.341 666.002 401.514 664.83 401.514 663.384C401.514 661.937 400.341 660.765 398.895 660.765C397.449 660.765 396.276 661.937 396.276 663.384C396.276 664.83 397.449 666.002 398.895 666.002Z" fill="black"/>
<path d="M382.548 707.928L381.312 706.692L404.767 683.246V668.673L410.101 663.34V652.578L413.868 648.803L415.094 650.038L411.841 653.292V664.062L406.507 669.387V683.959L382.548 707.928Z" fill="black"/>
<path d="M416.243 651.36C417.261 650.342 417.261 648.681 416.243 647.663C415.225 646.645 413.563 646.645 412.545 647.663C411.527 648.681 411.527 650.342 412.545 651.36C413.563 652.378 415.225 652.378 416.243 651.36Z" fill="black"/>
<path d="M390.378 709.668L389.142 708.432L414.12 683.463V673.458L419.575 667.995L420.81 669.23L415.86 674.172V684.177L390.378 709.668Z" fill="black"/>
<path d="M421.95 670.553C422.968 669.535 422.968 667.873 421.95 666.855C420.932 665.837 419.27 665.837 418.252 666.855C417.235 667.873 417.235 669.535 418.252 670.553C419.27 671.57 420.932 671.57 421.95 670.553Z" fill="black"/>
<path d="M402.558 705.753L401.322 704.517L435 670.848V644.592L428.257 637.849V602.118L493.394 536.973V530.578H495.134V537.695L429.997 602.832V637.136L436.74 643.878V671.562L402.558 705.753Z" fill="black"/>
<path d="M494.264 533.327C495.711 533.327 496.883 532.155 496.883 530.709C496.883 529.262 495.711 528.09 494.264 528.09C492.818 528.09 491.646 529.262 491.646 530.709C491.646 532.155 492.818 533.327 494.264 533.327Z" fill="black"/>
<path d="M399.948 716.628L398.712 715.392L441.525 672.588V609.078L473.28 577.323V563.838L503.513 533.606V521.922L494.056 512.465V510.568H495.796V511.743L505.253 521.208V534.319L475.02 564.552V578.037L443.265 609.792V673.302L399.948 716.628Z" fill="black"/>
<path d="M494.926 513.317C496.372 513.317 497.544 512.145 497.544 510.699C497.544 509.252 496.372 508.08 494.926 508.08C493.479 508.08 492.307 509.252 492.307 510.699C492.307 512.145 493.479 513.317 494.926 513.317Z" fill="black"/>
<path d="M407.778 718.368L406.542 717.132L456.097 667.586V640.398L464.476 632.02V614.298L468.025 610.74L469.252 611.975L466.216 615.012V632.742L457.837 641.112V668.299L407.778 718.368Z" fill="black"/>
<path d="M470.4 613.298C471.418 612.28 471.418 610.618 470.4 609.6C469.382 608.582 467.721 608.582 466.703 609.6C465.685 610.618 465.685 612.28 466.703 613.298C467.721 614.316 469.382 614.316 470.4 613.298Z" fill="black"/>
<path d="M418.653 718.803L417.417 717.567L472.627 662.366V623.868L480.136 616.36V572.538L513.465 539.2V531.448H515.205V539.922L481.876 573.252V617.082L474.367 624.582V663.079L418.653 718.803Z" fill="black"/>
<path d="M514.335 534.197C515.782 534.197 516.954 533.025 516.954 531.579C516.954 530.132 515.782 528.96 514.335 528.96C512.889 528.96 511.717 530.132 511.717 531.579C511.717 533.025 512.889 534.197 514.335 534.197Z" fill="black"/>
<path d="M496.77 716.445H495.03V569.058L523.523 540.566V523.227L517.615 517.319H508.158L503.678 512.848V495.543L510.029 489.184L511.264 490.419L505.418 496.257V512.126L508.872 515.579H518.337L525.263 522.513V541.279L496.77 569.772V716.445Z" fill="black"/>
<path d="M512.404 491.741C513.422 490.723 513.422 489.062 512.404 488.044C511.386 487.026 509.724 487.026 508.706 488.044C507.688 489.062 507.688 490.723 508.706 491.741C509.724 492.759 511.386 492.759 512.404 491.741Z" fill="black"/>
<path d="M515.91 714.705H514.17V654.753L520.26 648.663V559.923L531.787 548.396V521.052L518.05 507.314H517.093V505.574H518.772L533.527 520.338V549.109L522 560.637V649.377L515.91 655.467V714.705Z" fill="black"/>
<path d="M517.224 509.063C518.67 509.063 519.842 507.891 519.842 506.444C519.842 504.998 518.67 503.826 517.224 503.826C515.777 503.826 514.605 504.998 514.605 506.444C514.605 507.891 515.777 509.063 517.224 509.063Z" fill="black"/>
<path d="M521.026 716.01H519.286V657.685L523.958 653.013V567.101L536.355 554.703V500.998H538.095V555.417L525.698 567.814V653.727L521.026 658.407V716.01Z" fill="black"/>
<path d="M537.225 503.747C538.671 503.747 539.844 502.575 539.844 501.129C539.844 499.682 538.671 498.51 537.225 498.51C535.779 498.51 534.606 499.682 534.606 501.129C534.606 502.575 535.779 503.747 537.225 503.747Z" fill="black"/>
<path d="M526.185 717.315H524.445V661.113L530.37 655.188V572.643L543.968 559.053V513.596L550.51 507.045L551.745 508.28L545.708 514.309V559.767L532.11 573.365V655.902L526.185 661.835V717.315Z" fill="black"/>
<path d="M549.188 505.905C550.206 504.887 551.867 504.887 552.885 505.905C553.903 506.923 553.903 508.585 552.885 509.603C551.867 510.62 550.206 510.62 549.188 509.603C548.17 508.585 548.17 506.923 549.188 505.905Z" fill="black"/>
<path d="M536.738 715.14H531.518V665.724L537.121 660.121V581.273L555.713 562.681V522.879L568.545 510.046V497.414L558.035 486.913L561.733 483.215L573.765 495.256V512.204L560.933 525.036V564.839L542.341 583.439V662.279L536.738 667.882V715.14Z" fill="black"/>
<path d="M555.93 489.436C553.633 487.139 553.633 483.407 555.93 481.11C558.227 478.813 561.959 478.813 564.256 481.11C566.553 483.407 566.553 487.139 564.256 489.436C561.959 491.733 558.227 491.733 555.93 489.436Z" fill="black"/>
<path d="M552.885 718.185H551.145V593.418L571.373 573.191V534.058H573.113V573.904L552.885 594.132V718.185Z" fill="black"/>
<path d="M572.242 536.807C573.689 536.807 574.861 535.635 574.861 534.189C574.861 532.742 573.689 531.57 572.242 531.57C570.796 531.57 569.624 532.742 569.624 534.189C569.624 535.635 570.796 536.807 572.242 536.807Z" fill="black"/>
<path d="M580.725 606.512H578.985V596.898L584.423 591.461V515.118L589.556 509.985L590.782 511.212L586.163 515.832V592.174L580.725 597.612V606.512Z" fill="black"/>
<path d="M579.855 609C581.301 609 582.474 607.828 582.474 606.381C582.474 604.935 581.301 603.763 579.855 603.763C578.409 603.763 577.236 604.935 577.236 606.381C577.236 607.828 578.409 609 579.855 609Z" fill="black"/>
<path d="M591.931 512.543C592.949 511.525 592.949 509.864 591.931 508.846C590.913 507.828 589.251 507.828 588.233 508.846C587.215 509.864 587.215 511.525 588.233 512.543C589.251 513.561 590.913 513.561 591.931 512.543Z" fill="black"/>
<path d="M573.765 718.62H572.025V645.618L596.385 621.258V574.713L599.212 571.886V527.968H600.952V572.599L598.125 575.427V621.972L573.765 646.332V718.62Z" fill="black"/>
<path d="M600.082 530.717C601.529 530.717 602.701 529.545 602.701 528.099C602.701 526.652 601.529 525.48 600.082 525.48C598.636 525.48 597.464 526.652 597.464 528.099C597.464 529.545 598.636 530.717 600.082 530.717Z" fill="black"/>
<path d="M582.03 715.14H580.29V660.408L604.433 636.266V499.302L595.245 490.114L596.472 488.888L606.173 498.588V636.979L582.03 661.122V715.14Z" fill="black"/>
<path d="M597.803 487.739C596.785 486.722 595.124 486.722 594.106 487.739C593.088 488.757 593.088 490.419 594.106 491.437C595.124 492.455 596.785 492.455 597.803 491.437C598.821 490.419 598.821 488.757 597.803 487.739Z" fill="black"/>
<path d="M588.555 716.445H586.815V665.628L611.61 640.833V592.983L623.372 581.212L624.608 582.448L613.35 593.697V641.547L588.555 666.342V716.445Z" fill="black"/>
<path d="M625.748 583.77C626.765 582.752 626.765 581.09 625.748 580.073C624.73 579.055 623.068 579.055 622.05 580.073C621.032 581.09 621.032 582.752 622.05 583.77C623.068 584.788 624.73 584.788 625.748 583.77Z" fill="black"/>
<path d="M694.182 575.505H646.923L627.27 555.852V489.253H629.01V555.138L647.637 573.765H693.468L707.823 559.41H774.813L795.693 538.53H837.453L852.026 523.958H857.072V525.698H852.739L838.167 540.27H796.407L775.527 561.15H708.537L694.182 575.505Z" fill="black"/>
<path d="M628.14 492.002C629.586 492.002 630.759 490.83 630.759 489.384C630.759 487.937 629.586 486.765 628.14 486.765C626.694 486.765 625.521 487.937 625.521 489.384C625.521 490.83 626.694 492.002 628.14 492.002Z" fill="black"/>
<path d="M856.941 527.446C858.387 527.446 859.56 526.274 859.56 524.828C859.56 523.381 858.387 522.209 856.941 522.209C855.495 522.209 854.323 523.381 854.323 524.828C854.323 526.274 855.495 527.446 856.941 527.446Z" fill="black"/>
<path d="M690.267 569.85H653.883L645.81 561.785L647.045 560.55L654.597 568.11H689.553L703.691 553.973H769.593L795.798 527.759H826.143L829.832 524.071L831.068 525.297L826.857 529.499H796.52L770.307 555.713H704.404L690.267 569.85Z" fill="black"/>
<path d="M644.67 563.108C643.652 562.09 643.652 560.428 644.67 559.41C645.688 558.392 647.35 558.392 648.368 559.41C649.386 560.428 649.386 562.09 648.368 563.108C647.35 564.125 645.688 564.125 644.67 563.108Z" fill="black"/>
<path d="M832.207 526.628C833.225 525.611 833.225 523.949 832.207 522.931C831.189 521.913 829.528 521.913 828.51 522.931C827.492 523.949 827.492 525.611 828.51 526.628C829.528 527.646 831.189 527.646 832.207 526.628Z" fill="black"/>
<path d="M665.907 662.07H655.623L649.02 655.467V629.367L636.675 617.03L637.91 615.795L650.76 628.653V654.753L656.337 660.33H665.193L713.261 612.263H719.568L735.115 596.716H790.038L816.077 570.668H883.998L904.991 549.666V473.158H906.731V550.388L884.712 572.408H816.799L790.752 598.456H735.837L720.282 614.003H713.974L665.907 662.07Z" fill="black"/>
<path d="M635.535 618.353C634.517 617.335 634.517 615.673 635.535 614.655C636.553 613.637 638.215 613.637 639.232 614.655C640.25 615.673 640.25 617.335 639.232 618.353C638.215 619.37 636.553 619.37 635.535 618.353Z" fill="black"/>
<path d="M908.48 473.289C908.48 471.845 907.306 470.67 905.861 470.67C904.417 470.67 903.243 471.845 903.243 473.289C903.243 474.733 904.417 475.907 905.861 475.907C907.306 475.907 908.48 474.733 908.48 473.289Z" fill="black"/>
<path d="M701.02 671.805L693.607 664.384V642.573L704.23 631.951H732.618L741.91 622.65H763.938L777.719 608.861H796.998L817.591 588.268H904.443L956.861 535.85V415.068L994.558 377.362V359.823L1025.44 328.93H1048.78V330.67H1026.16L996.298 360.537V378.085L958.601 415.782V536.572L905.157 590.008H818.313L797.712 610.601H778.441L764.652 624.39H742.632L733.332 633.691H704.952L695.347 643.287V663.671L702.255 670.57L701.02 671.805Z" fill="black"/>
<path d="M703.395 669.247C704.413 670.265 704.413 671.927 703.395 672.945C702.377 673.963 700.715 673.963 699.698 672.945C698.68 671.927 698.68 670.265 699.698 669.247C700.715 668.23 702.377 668.23 703.395 669.247Z" fill="black"/>
<path d="M738.987 645.54H717.916V643.8H738.274L748.418 633.647H768.428L781.339 620.745H804.968L823.603 602.11H907.053L967.188 541.975V418.113L1004.73 380.573V360.693L1028.93 336.481H1057.63V338.221H1029.65L1006.47 361.407V381.295L968.928 418.827V542.697L907.767 603.85H824.325L805.69 622.485H782.052L769.15 635.387H749.14L738.987 645.54Z" fill="black"/>
<path d="M718.046 647.289C719.492 647.289 720.665 646.116 720.665 644.67C720.665 643.224 719.492 642.051 718.046 642.051C716.6 642.051 715.427 643.224 715.427 644.67C715.427 646.116 716.6 647.289 718.046 647.289Z" fill="black"/>
<path d="M821.402 479.083H757.988L720.003 441.09H602.693L592.087 451.695L590.861 450.46L601.97 439.35H720.717L758.71 477.343H821.402V479.083Z" fill="black"/>
<path d="M821.271 480.832C822.718 480.832 823.89 479.659 823.89 478.213C823.89 476.767 822.718 475.594 821.271 475.594C819.825 475.594 818.653 476.767 818.653 478.213C818.653 479.659 819.825 480.832 821.271 480.832Z" fill="black"/>
<path d="M589.712 449.138C588.694 450.155 588.694 451.817 589.712 452.835C590.73 453.853 592.392 453.853 593.41 452.835C594.428 451.817 594.428 450.155 593.41 449.138C592.392 448.12 590.73 448.12 589.712 449.138Z" fill="black"/>
<path d="M689.162 538.817H644.313L637.423 531.927V503.373L654.457 486.33H714.627L730.095 501.79L728.86 503.025L713.913 488.07H655.18L639.163 504.087V531.213L645.027 537.077H689.162V538.817Z" fill="black"/>
<path d="M689.031 540.566C690.478 540.566 691.65 539.393 691.65 537.947C691.65 536.501 690.478 535.328 689.031 535.328C687.585 535.328 686.413 536.501 686.413 537.947C686.413 539.393 687.585 540.566 689.031 540.566Z" fill="black"/>
<path d="M727.537 504.165C728.555 505.183 730.217 505.183 731.235 504.165C732.253 503.147 732.253 501.485 731.235 500.468C730.217 499.45 728.555 499.45 727.537 500.468C726.519 501.485 726.519 503.147 727.537 504.165Z" fill="black"/>
<path d="M1081.41 507.645H1038.42L1026.89 496.109V436.662L1018.48 428.249V418.722H1023.7V426.091L1032.11 434.495V493.951L1040.59 502.425H1081.41V507.645Z" fill="black"/>
<path d="M1021.09 422.837C1023.26 422.837 1025.02 421.081 1025.02 418.914C1025.02 416.747 1023.26 414.99 1021.09 414.99C1018.93 414.99 1017.17 416.747 1017.17 418.914C1017.17 421.081 1018.93 422.837 1021.09 422.837Z" fill="black"/>
<path d="M718.185 707.745H716.445V695.643L728.408 683.681V673.893L753.603 648.689H780.468L791.831 637.327H809.178L821.167 625.339H894.003L902.39 616.952H981.717L990.599 625.826L989.364 627.061L981.003 618.692H903.104L894.717 627.079H821.889L809.892 639.067H792.553L781.182 650.429H754.325L730.148 674.607V684.394L718.185 696.357V707.745Z" fill="black"/>
<path d="M988.042 628.201C989.06 629.219 990.721 629.219 991.739 628.201C992.757 627.183 992.757 625.521 991.739 624.503C990.721 623.486 989.06 623.486 988.042 624.503C987.024 625.521 987.024 627.183 988.042 628.201Z" fill="black"/>
<path d="M724.893 700.533L723.657 699.297L734.932 688.031V677.373L758.388 653.909H783.078L793.788 643.2H811.788L823.011 631.977H890.802L905.2 646.367H949.248L958.14 637.475H966.692V639.215H958.862L949.962 648.107H904.478L890.088 633.717H823.733L812.502 644.94H794.51L783.792 655.649H759.11L736.672 678.087V688.744L724.893 700.533Z" fill="black"/>
<path d="M966.561 640.964C968.008 640.964 969.18 639.791 969.18 638.345C969.18 636.899 968.008 635.726 966.561 635.726C965.115 635.726 963.943 636.899 963.943 638.345C963.943 639.791 965.115 640.964 966.561 640.964Z" fill="black"/>
<path d="M733.184 698.332L731.896 697.148L747.382 680.34H776.988L782.348 674.981V661.278L795.798 647.819H814.398L824.456 637.762H887.322L902.956 653.396H983.022L994.558 664.932L993.331 666.159L982.308 655.136H902.234L886.608 639.502H825.178L815.112 649.559H796.52L784.088 661.992V675.694L777.702 682.08H748.148L733.184 698.332Z" fill="black"/>
<path d="M992 667.307C993.018 668.325 994.68 668.325 995.698 667.307C996.716 666.29 996.716 664.628 995.698 663.61C994.68 662.592 993.018 662.592 992 663.61C990.982 664.628 990.982 666.29 992 667.307Z" fill="black"/>
<path d="M741.423 700.533L740.187 699.297L752.193 687.3H779.163L788.437 678.026V662.583L796.885 654.136H818.313L827.822 644.618H884.712L900.189 660.086H968.667L975.34 666.751L974.104 667.986L967.953 661.826H899.467L883.998 646.358H828.544L819.027 655.876H797.607L790.177 663.297V678.739L779.877 689.04H752.907L741.423 700.533Z" fill="black"/>
<path d="M972.782 669.126C973.8 670.144 975.461 670.144 976.479 669.126C977.497 668.108 977.497 666.446 976.479 665.428C975.461 664.41 973.8 664.41 972.782 665.428C971.764 666.446 971.764 668.108 972.782 669.126Z" fill="black"/>
<path d="M794.058 699.663L792.822 698.427L818.313 672.945H830.928L852.461 651.413H883.842L900.267 667.829H958.227L971.224 680.827H987.372L993.027 686.474L991.791 687.709L986.658 682.567H970.502L957.513 669.569H899.545L883.128 653.153H853.174L831.642 674.685H819.027L794.058 699.663Z" fill="black"/>
<path d="M990.46 688.849C991.478 689.867 993.14 689.867 994.158 688.849C995.176 687.831 995.176 686.169 994.158 685.151C993.14 684.133 991.478 684.133 990.46 685.151C989.442 686.169 989.442 687.831 990.46 688.849Z" fill="black"/>
<path d="M807.108 700.533L805.872 699.297L822.011 683.168H835.278L858.438 659.999H880.362L897.927 677.565H957.792L967.884 687.657H979.307V689.397H967.162L957.078 679.305H897.205L879.648 661.739H859.16L835.992 684.908H822.724L807.108 700.533Z" fill="black"/>
<path d="M979.176 691.137C980.621 691.137 981.795 689.962 981.795 688.518C981.795 687.074 980.621 685.899 979.176 685.899C977.732 685.899 976.558 687.074 976.558 688.518C976.558 689.962 977.732 691.137 979.176 691.137Z" fill="black"/>
<path d="M822.768 700.968L821.532 699.732L830.493 690.78H840.063L858.551 672.293H879.492L895.047 687.839H949.727V689.579H894.325L878.778 674.033H859.264L840.777 692.52H831.207L822.768 700.968Z" fill="black"/>
<path d="M949.596 691.328C951.043 691.328 952.215 690.156 952.215 688.709C952.215 687.263 951.043 686.091 949.596 686.091C948.15 686.091 946.978 687.263 946.978 688.709C946.978 690.156 948.15 691.328 949.596 691.328Z" fill="black"/>
<path d="M846.258 701.838L845.022 700.602L861.813 683.82H870.557V685.56H862.527L846.258 701.838Z" fill="black"/>
<path d="M870.426 687.309C871.873 687.309 873.045 686.136 873.045 684.69C873.045 683.244 871.873 682.071 870.426 682.071C868.98 682.071 867.808 683.244 867.808 684.69C867.808 686.136 868.98 687.309 870.426 687.309Z" fill="black"/>
<path d="M1038.56 711.66H1033.34V630.741L1020.51 617.909V576.871H1025.73V615.751L1038.56 628.584V711.66Z" fill="black"/>
<path d="M1026.12 584.51C1030.13 582.851 1032.03 578.261 1030.37 574.257C1028.71 570.253 1024.12 568.351 1020.12 570.01C1016.11 571.668 1014.21 576.259 1015.87 580.263C1017.53 584.267 1022.12 586.168 1026.12 584.51Z" fill="black"/>
<path d="M70.3918 160.298H45.5359L26.1001 140.862V50.3817L-9.31763 14.9727L-8.08223 13.7373L27.8401 49.6683V140.148L46.2493 158.558H69.6784L83.0503 145.186H188.433L234.7 98.9103H239.372V100.65H235.422L189.147 146.926H83.7724L70.3918 160.298Z" fill="black"/>
<path d="M239.241 102.399C240.688 102.399 241.86 101.227 241.86 99.7803C241.86 98.3341 240.688 97.1616 239.241 97.1616C237.795 97.1616 236.623 98.3341 236.623 99.7803C236.623 101.227 237.795 102.399 239.241 102.399Z" fill="black"/>
<path d="M65.1717 153.016H49.7727L34.1475 137.382V44.5092L-4.53271 5.83769L-3.29731 4.60229L35.8875 43.7958V136.668L50.4948 151.276H64.4583L76.7949 138.93H184.953L242.669 81.2058H245.027V82.9458H243.391L185.667 140.67H77.517L65.1717 153.016Z" fill="black"/>
<path d="M244.896 84.6944C246.34 84.6944 247.515 83.5199 247.515 82.0757C247.515 80.6315 246.34 79.457 244.896 79.457C243.452 79.457 242.278 80.6315 242.278 82.0757C242.278 83.5199 243.452 84.6944 244.896 84.6944Z" fill="black"/>
<path d="M154.982 112.334H120.895L110.568 102.008H55.9757L41.7599 87.7918V42.1168L6.5249 6.88175V-9.56995H8.2649V6.16835L43.4999 41.4034V87.0784L56.6891 100.268H111.282L121.617 110.594H154.982V112.334Z" fill="black"/>
<path d="M154.851 114.083C156.297 114.083 157.47 112.911 157.47 111.464C157.47 110.018 156.297 108.846 154.851 108.846C153.405 108.846 152.232 110.018 152.232 111.464C152.232 112.911 153.405 114.083 154.851 114.083Z" fill="black"/>
<path d="M179.577 123.975H62.9534V122.235H178.863L243.896 57.2025H263.532L272.127 65.7894H293.312V67.5294H271.405L262.818 58.9425H244.609L179.577 123.975Z" fill="black"/>
<path d="M63.0838 125.724C64.5301 125.724 65.7025 124.551 65.7025 123.105C65.7025 121.659 64.5301 120.486 63.0838 120.486C61.6375 120.486 60.4651 121.659 60.4651 123.105C60.4651 124.551 61.6375 125.724 63.0838 125.724Z" fill="black"/>
<path d="M293.181 69.2782C294.628 69.2782 295.8 68.1057 295.8 66.6595C295.8 65.2132 294.628 64.0408 293.181 64.0408C291.735 64.0408 290.563 65.2132 290.563 66.6595C290.563 68.1057 291.735 69.2782 293.181 69.2782Z" fill="black"/>
<path d="M57.1851 140.235L55.9497 139L64.4583 130.5H181.473L245.418 66.5551H254.397L259.043 71.2009V94.4734L267.56 102.991H298.097V104.731H266.838L257.303 95.1868V71.9143L253.683 68.2951H246.132L182.187 132.24H65.1717L57.1851 140.235Z" fill="black"/>
<path d="M58.5076 141.375C57.4897 142.393 55.828 142.393 54.8101 141.375C53.7922 140.357 53.7922 138.696 54.8101 137.678C55.828 136.66 57.4897 136.66 58.5076 137.678C59.5255 138.696 59.5255 140.357 58.5076 141.375Z" fill="black"/>
<path d="M297.966 106.479C299.413 106.479 300.585 105.307 300.585 103.861C300.585 102.414 299.413 101.242 297.966 101.242C296.52 101.242 295.348 102.414 295.348 103.861C295.348 105.307 296.52 106.479 297.966 106.479Z" fill="black"/>
<path d="M120.417 85.26H61.4134L51.3301 75.1767V43.4217L16.9651 9.05665V-6.09005H18.7051V8.34325L53.0701 42.7083V74.4633L62.1268 83.52H119.703L130.361 72.8625H195.828L237.04 31.6506H282.393L298.21 15.8253H330.243L365.522 -19.4532L366.749 -18.2265L330.957 17.5653H298.932L283.107 33.3906H237.762L196.542 74.6025H131.074L120.417 85.26Z" fill="black"/>
<path d="M111.282 68.7301H85.1382V66.9901H110.568L118.181 59.3776H189.303L261.148 -12.467L262.375 -11.2403L190.017 61.1176H118.894L111.282 68.7301Z" fill="black"/>
<path d="M85.2686 70.4787C86.7149 70.4787 87.8873 69.3063 87.8873 67.86C87.8873 66.4138 86.7149 65.2413 85.2686 65.2413C83.8223 65.2413 82.6499 66.4138 82.6499 67.86C82.6499 69.3063 83.8223 70.4787 85.2686 70.4787Z" fill="black"/>
<path d="M190.034 53.07H85.1382V51.33H189.286L255.589 -17.5653L256.841 -16.3647L190.034 53.07Z" fill="black"/>
<path d="M85.2686 54.8187C86.7149 54.8187 87.8873 53.6463 87.8873 52.2C87.8873 50.7537 86.7149 49.5813 85.2686 49.5813C83.8223 49.5813 82.6499 50.7537 82.6499 52.2C82.6499 53.6463 83.8223 54.8187 85.2686 54.8187Z" fill="black"/>
<path d="M190.887 42.8475H145.151L126.663 24.36H47.0582L23.0549 0.35672V-9.13498H24.7949V-0.35668L47.7716 22.62H127.377L145.864 41.1075H190.173L247.663 -16.3821L248.89 -15.1554L190.887 42.8475Z" fill="black"/>
<path d="M161.307 26.8656H138.513L129.273 17.6175H48.1458L29.145 -1.38332V-12.18H30.885V-2.09672L48.8592 15.8775H129.987L139.235 25.1256H160.593L170.755 14.9553H204.093L231.977 -12.9282L233.204 -11.7015L204.807 16.6953H171.477L161.307 26.8656Z" fill="black"/>
<path d="M202.197 11.0925H52.4958L36.105 -5.29829V-17.835H37.845V-6.01169L53.2092 9.35251H201.483L235.483 -24.6471L236.71 -23.4204L202.197 11.0925Z" fill="black"/>
<path d="M200.457 5.65501H55.3234L42.1951 -7.47329V-23.055H43.9351V-8.18669L56.0368 3.91501H199.743L228.845 -25.1952L230.08 -23.9598L200.457 5.65501Z" fill="black"/>
</g>
</g>
<defs>
<clipPath id="clip0_139_546">
<rect width="1044" height="696" fill="white"/>
</clipPath>
</defs>
</svg>
