<svg width="478" height="579" viewBox="0 0 478 579" fill="none" xmlns="http://www.w3.org/2000/svg">
<path d="M66.2604 50.8459L25.5864 27.495C24.2693 26.7407 22.8425 26.5208 21.4783 26.7408C21.4783 26.7408 21.4626 26.7408 21.4469 26.7408C21.3058 26.7565 21.1804 26.7879 21.0549 26.8193C13.5128 28.2021 8.74609 34.2677 8.74609 34.2677L12.7602 37.4734L14.8456 37.1119L10.8786 52.5901C6.34705 70.6454 14.3282 89.5178 30.4316 98.7891C33.7087 100.675 37.174 101.728 40.6393 102.042L39.9023 106.693C39.9023 106.787 39.9807 106.866 40.0591 106.835C41.8937 106.253 56.5231 101.366 63.2499 91.7335C63.2655 91.7021 63.2812 91.6864 63.2969 91.6549C65.0688 89.1878 66.4172 86.3279 67.2169 83.1537L72.0307 64.4384C73.3635 59.1114 71.0115 53.5644 66.2604 50.8302V50.8459Z" fill="#F93306"/>
<path d="M68.9267 56.6755L28.2527 33.3246C26.9356 32.5703 25.5087 32.3503 24.1446 32.5703C24.1446 32.5703 24.1289 32.5703 24.1132 32.5703C23.9721 32.5861 23.8466 32.6175 23.7212 32.6489C19.3465 33.4503 15.9125 35.8388 13.7801 37.6931L14.8463 37.5045L13.7016 41.9358L15.4108 43.3029L17.4962 42.9415L13.5292 58.4197C11.334 67.1567 12.1023 76.0821 15.2697 84.0177C18.829 90.1618 23.9564 95.4574 30.4322 99.1816C33.7094 101.067 37.1746 102.12 40.6399 102.434L39.903 107.086C39.903 107.18 39.9814 107.259 40.0598 107.227C41.8943 106.646 56.5238 101.759 63.2505 92.1261C63.2662 92.0946 63.2819 92.0789 63.2976 92.0475C65.0694 89.5804 66.4179 86.7205 67.2176 83.5463L72.0313 64.831C72.4861 62.9925 72.5018 61.1225 72.1411 59.3468C71.2474 58.294 70.1654 57.3826 68.9267 56.6598V56.6755Z" fill="#F93306"/>
<path d="M14.8456 36.986L13.356 35.7917C13.356 35.7917 18.1384 29.7261 25.6649 28.3433C25.7903 28.3119 25.9314 28.2804 26.0569 28.2647C26.0569 28.2647 26.0725 28.2647 26.0882 28.2647C26.4018 28.2176 26.7154 28.2019 27.029 28.2019L25.5864 27.3691C24.2693 26.6148 22.8425 26.3948 21.4783 26.6148C21.4783 26.6148 21.4626 26.6148 21.4469 26.6148C21.3058 26.6305 21.1804 26.6619 21.0549 26.6933C13.5128 28.0762 8.74609 34.1417 8.74609 34.1417L12.7602 37.3474L14.8456 36.986Z" fill="#C4C1C0"/>
<path d="M36.8287 101.224C36.2329 100.941 35.6214 100.659 35.0412 100.313C18.9378 91.026 10.9567 72.1693 15.4882 54.114L19.4553 38.6358L17.3698 38.9972L14.861 36.9858L10.894 52.464C6.36245 70.5193 14.3436 89.3917 30.4469 98.6629C32.5167 99.8572 34.6649 100.674 36.8444 101.224H36.8287Z" fill="#C4C1C0"/>
<path d="M56.6174 63.9985C56.5233 64.0299 56.4449 63.9513 56.4606 63.857L57.1976 59.2057C53.7323 58.8914 50.267 57.8386 46.9899 55.9529C39.4791 51.6159 25.7434 47.3103 13.6855 42.0933L11.0356 52.4487C6.50405 70.504 14.4852 89.3764 30.5886 98.6476C33.8657 100.533 37.331 101.586 40.7963 101.9L40.0593 106.552C40.0593 106.646 40.1377 106.725 40.2161 106.693C42.0507 106.112 56.6801 101.225 63.4069 91.5921C63.4225 91.5607 63.4382 91.5449 63.4539 91.5135C65.2257 89.0464 66.5742 86.1865 67.3739 83.0123L72.1877 64.297C72.8462 61.6885 72.611 59.0171 71.6389 56.6443C65.0533 61.1699 57.8718 63.5742 56.6174 63.967V63.9985Z" fill="#C4C1C0"/>
<path d="M39.9028 107.636L39.4794 107.353C39.2599 107.164 39.1501 106.882 39.1972 106.599L39.8244 102.686C36.3905 102.277 33.1133 101.177 30.0871 99.4331C13.7955 90.0362 5.61058 70.7081 10.2048 52.4486L13.9053 38.0232L12.5882 38.2432L7.77441 34.3933L8.21345 33.8433C8.41729 33.5919 13.2467 27.5577 20.9613 26.1277C21.0711 26.0963 21.2279 26.0649 21.369 26.0492C22.9997 25.7978 24.5677 26.0963 25.9632 26.8977L66.6372 50.2486C71.6391 53.1243 74.1479 59.0484 72.7367 64.6425L67.923 83.3578C67.1233 86.5163 65.7748 89.4548 63.8932 92.0947C56.9626 102.01 41.9725 106.992 40.2948 107.526L39.9185 107.652L39.9028 107.636ZM15.8183 36.2318L11.569 52.7786C7.13153 70.4253 15.0343 89.1091 30.7927 98.1918C33.866 99.9674 37.2058 101.02 40.7181 101.35L41.4708 101.413L40.7652 105.86C44.4343 104.587 56.7588 99.826 62.6859 91.3248C64.5047 88.7634 65.7905 85.9821 66.5431 82.9807L71.3569 64.2654C72.6113 59.2841 70.3691 54.0042 65.9159 51.4429L25.242 28.092C24.1287 27.4477 22.8743 27.212 21.6042 27.4163C21.4631 27.432 21.3533 27.4634 21.2279 27.4949C15.3165 28.5791 11.1143 32.6805 9.76578 34.1576L12.9488 36.7032L15.8026 36.2161L15.8183 36.2318Z" fill="#C4C1C0"/>
<path d="M21.4948 104.257C35.8891 112.554 54.219 104.776 58.2801 88.6221L63.0939 69.9068C64.4267 64.5798 62.0747 59.0327 57.3237 56.2985L16.6497 32.9476C13.0119 30.8577 8.38633 32.8219 7.36713 36.9076L1.94183 58.0585C-2.5897 76.1138 5.39143 94.9862 21.4948 104.257Z" fill="#F93306"/>
<path d="M50.722 93.4309L56.1473 72.28V72.2171C56.9784 69.0115 55.5672 65.6644 52.7134 64.0144L28.2369 49.9662C24.5991 47.8763 19.9735 49.8405 18.9543 53.9261L13.529 75.077C13.1841 76.4441 12.9175 77.7955 12.7136 79.1627C11.3808 88.3553 15.8497 97.5794 23.8621 102.246C23.9092 102.278 23.9406 102.294 23.9876 102.325C32.3607 107.149 42.051 106.536 49.499 101.995C49.5931 99.1508 49.9851 96.2751 50.7064 93.4309H50.722Z" fill="#F93306"/>
<path d="M33.9602 108.327C29.5384 108.327 25.1323 107.165 21.1496 104.87C4.85804 95.4735 -3.32692 76.1611 1.26733 57.8858L6.6926 36.7349C7.24141 34.5821 8.71534 32.8379 10.7694 31.9736C12.8078 31.1093 15.0971 31.2351 17.0257 32.3507L57.6997 55.7016C62.7016 58.5773 65.2104 64.4857 63.7992 70.0955L58.9855 88.8108C56.9941 96.7149 51.5532 103.079 44.0581 106.269C40.7967 107.652 37.3784 108.343 33.9758 108.343L33.9602 108.327ZM13.5134 32.8221C12.7765 32.8221 12.0238 32.9793 11.3025 33.2779C9.67181 33.9693 8.48012 35.3678 8.05676 37.0806L2.63148 58.2316C-1.80596 75.894 6.09676 94.5621 21.8552 103.645C28.5349 107.495 36.4219 107.966 43.4936 104.965C50.581 101.948 55.724 95.9449 57.6056 88.4651L62.4194 69.7498C63.6738 64.7685 61.4316 59.4887 56.9784 56.943L16.3045 33.5921C15.4421 33.0893 14.4856 32.8379 13.5134 32.8379V32.8221Z" fill="#C4C1C0"/>
<path d="M35.7328 70.2367L29.9783 66.7011C29.4451 66.3711 28.7552 66.6696 28.6141 67.2668L26.2934 76.8994C26.2934 76.8994 26.1994 76.8994 26.168 76.8994C22.6243 76.8994 19.7549 80.1679 19.7549 84.1906C19.7549 88.2134 22.6243 91.4819 26.168 91.4819C29.7117 91.4819 32.5811 88.2134 32.5811 84.1906C32.5811 81.7236 31.4992 79.5393 29.8371 78.2194L31.2483 72.3738C31.2954 72.1695 31.5463 72.0595 31.7187 72.1852L33.7728 73.4423C34.8704 74.118 36.313 73.5052 36.5952 72.2324C36.7677 71.4467 36.4227 70.6453 35.7485 70.2367H35.7328Z" fill="#C4C1C0"/>
<path d="M26.1675 92.189C22.2475 92.189 19.0488 88.6062 19.0488 84.1906C19.0488 79.775 22.0123 76.4436 25.7442 76.2079L27.9394 67.1096C28.0648 66.6067 28.4255 66.1824 28.8959 65.9939C29.382 65.7896 29.9151 65.8367 30.3541 66.1039L36.1087 69.6395C37.0338 70.2052 37.5199 71.3209 37.2847 72.3894C37.1122 73.2066 36.5477 73.898 35.7794 74.228C35.0111 74.5579 34.133 74.4951 33.4117 74.0551L31.828 73.0808L30.652 77.9679C32.3141 79.4921 33.302 81.7706 33.302 84.1906C33.302 88.6062 30.1033 92.189 26.1832 92.189H26.1675ZM26.1205 77.6064C23.0159 77.6064 20.46 80.5607 20.46 84.1906C20.46 87.8205 23.0159 90.7747 26.1675 90.7747C29.3192 90.7747 31.8751 87.8205 31.8751 84.1906C31.8751 82.0378 30.95 80.0107 29.3976 78.785L29.0527 78.5021L30.558 72.2323C30.6364 71.918 30.8559 71.6509 31.1695 71.5252C31.4674 71.3995 31.8124 71.4309 32.0946 71.6037L34.133 72.8609C34.4623 73.0651 34.8543 73.0966 35.1993 72.9394C35.5442 72.7823 35.7951 72.4837 35.8735 72.1066C35.9832 71.6194 35.7637 71.1166 35.3404 70.8652L29.5858 67.3296C29.5074 67.2824 29.429 67.2981 29.3976 67.3296C29.3663 67.3296 29.3035 67.3767 29.2722 67.471L26.8104 77.6693L26.0735 77.6379L26.1205 77.6064Z" fill="#C4C1C0"/>
<path d="M28.6141 67.2669L26.2934 76.8995C26.2934 76.8995 26.1994 76.8995 26.168 76.8995C22.6243 76.8995 19.7549 80.1523 19.7549 84.175C19.7549 86.155 20.4605 87.9621 21.5894 89.2663C21.6678 89.3606 21.7619 89.4392 21.8403 89.5177C21.9501 89.6435 22.0755 89.7535 22.201 89.8634C23.079 90.5706 24.161 91.0106 25.384 91.1049C23.8944 89.7692 23.2515 88.0563 23.2515 85.715C23.2515 81.6922 26.121 78.4237 29.6646 78.4237C29.7117 78.4237 29.7587 78.4237 29.7901 78.4237L29.8371 78.2352C29.8371 78.2352 29.8371 78.2351 29.8215 78.2194C29.8215 78.2194 29.8215 78.2037 29.8215 78.188L31.2326 72.3424C31.2797 72.1382 31.5306 72.0282 31.7031 72.1539L33.7571 73.411C34.8547 74.0867 36.2973 73.4739 36.5795 72.201C36.752 71.4153 36.4071 70.6139 35.7328 70.2054L30.0096 66.6854H29.9783C29.4451 66.3711 28.7552 66.654 28.6141 67.2511V67.2669Z" fill="#F93306"/>
<path d="M27.4376 91.9691L25.3522 91.812C24.0351 91.7177 22.7963 91.2305 21.7771 90.4291C21.6047 90.272 21.4792 90.162 21.3381 90.0206C21.2597 89.942 21.1656 89.8477 21.0715 89.7534C19.7544 88.2292 19.0488 86.265 19.0488 84.175C19.0488 79.9322 22.0123 76.4438 25.7442 76.1923L27.9394 67.094C28.0648 66.5911 28.4255 66.1669 28.8959 65.9783C29.2722 65.8212 29.7112 65.8212 30.0876 65.9626H30.1346L30.4012 66.0883L36.1244 69.6082C37.0495 70.1896 37.5356 71.2896 37.3004 72.3581C37.1279 73.1753 36.5634 73.8667 35.7951 74.1967C35.0268 74.5267 34.1487 74.4638 33.4274 74.0238L31.8437 73.0496L30.6991 77.8109H30.7304L30.4168 79.1623L29.6799 79.1308C26.5752 79.1308 24.0194 82.085 24.0194 85.715C24.0194 87.8992 24.5995 89.4077 25.9167 90.5706L27.469 91.9691H27.4376ZM26.1205 77.6066C23.0315 77.6066 20.4757 80.5608 20.46 84.175C20.46 85.9192 21.0559 87.5535 22.1221 88.8106C22.1848 88.8735 22.2475 88.9363 22.3259 89.0149C22.4514 89.1406 22.5611 89.2349 22.6709 89.3292C22.9218 89.5334 23.204 89.7063 23.4863 89.8477C22.8591 88.7006 22.5455 87.3492 22.5455 85.6993C22.5455 81.4565 25.4933 77.9837 29.2095 77.7166L30.5423 72.1853C30.6207 71.871 30.8402 71.6039 31.1538 71.4782C31.4517 71.3524 31.7967 71.3839 32.0789 71.5567L34.133 72.8139C34.4623 73.0181 34.8543 73.0338 35.1993 72.8924C35.5442 72.7353 35.7951 72.4367 35.8735 72.0596C35.9832 71.5724 35.7637 71.0696 35.3404 70.8182L29.5858 67.314C29.5858 67.314 29.4447 67.2826 29.3976 67.314C29.3663 67.314 29.3035 67.3611 29.2722 67.4554L26.8104 77.6537L26.0735 77.6223L26.1205 77.6066Z" fill="#C4C1C0"/>
<path d="M58.9378 52.8414C56.5388 52.2442 55.0649 49.7929 55.6764 47.3886L58.9849 34.1261C61.133 25.5463 57.5737 16.4951 50.2825 11.6552C47.9148 10.0838 43.8223 9.31383 41.188 10.3824C38.4284 11.4823 36.4213 13.7923 35.7 16.6679L32.125 30.9833C31.5291 33.3875 29.0831 34.8646 26.684 34.2518C24.285 33.6547 22.811 31.2033 23.4226 28.7991L26.8408 15.1123C28.2363 9.50239 31.9682 4.61537 37.2524 2.28971C42.5836 -0.0673788 48.5577 0.246901 53.5909 3.13826C65.1158 9.75382 70.9174 23.4092 67.6873 36.326L64.3788 49.5886C63.783 51.9928 61.3369 53.4699 58.9378 52.8571V52.8414Z" fill="#F93306"/>
<path d="M55.363 5.84139C50.3297 2.95003 44.3556 2.63575 39.0244 4.99283C33.7402 7.33421 30.0084 12.2055 28.6129 17.8154L25.1946 31.5022C25.0692 31.9893 25.0535 32.4765 25.1006 32.9636C25.665 33.5764 26.4177 34.0479 27.2801 34.2679C29.6791 34.865 32.1252 33.4036 32.7211 30.9994L36.2961 16.684C37.0174 13.8083 39.0244 11.4984 41.7841 10.3984C44.4184 9.34558 48.5108 10.0999 50.8785 11.6712C54.7045 14.2169 57.4798 17.9097 58.9694 22.0896C61.29 26.5209 62.027 31.7693 60.7569 36.8449L57.4484 50.1075C57.323 50.5946 57.3073 51.0817 57.3544 51.5689C57.9188 52.1817 58.6715 52.6531 59.5339 52.8731C61.9329 53.4703 64.379 52.0089 64.9749 49.6046L68.2833 36.3421C69.8043 30.2608 69.3026 24.0224 67.1701 18.4282C64.5985 13.2898 60.5845 8.85845 55.363 5.85709V5.84139Z" fill="#F93306"/>
<path d="M47.3033 9.07837C44.9356 7.50697 40.8431 6.737 38.2089 7.80554C35.4492 8.90552 33.4422 11.2155 32.7209 14.0911L29.1458 28.4065C28.55 30.8107 26.1039 32.2878 23.7049 31.675C23.6265 31.6593 23.5638 31.6121 23.4854 31.5964C24.0028 32.8692 25.1004 33.8906 26.5273 34.252C28.9263 34.8492 31.3724 33.3878 31.9682 30.9835L35.5433 16.6682C36.2646 13.7925 38.2716 11.4826 41.0313 10.3826C43.6655 9.32979 47.758 10.0841 50.1257 11.6554C50.4863 11.8912 50.8156 12.1426 51.1449 12.394C50.016 11.1526 48.7302 10.0212 47.3033 9.07837Z" fill="#C4C1C0"/>
<path d="M57.1348 5.66855C64.1751 12.9598 67.2484 23.5667 64.7082 33.7336L61.3997 46.9961C60.8039 49.4004 58.3578 50.8775 55.9588 50.2646C55.8804 50.2489 55.8177 50.2018 55.7393 50.1861C56.2567 51.4589 57.3543 52.4803 58.7812 52.8417C61.1802 53.4388 63.6263 51.9774 64.2222 49.5732L67.5306 36.3107C70.3844 24.8709 66.1508 12.8498 57.1348 5.65283V5.66855Z" fill="#C4C1C0"/>
<path d="M60.0357 53.6901C59.6124 53.6901 59.2047 53.643 58.7813 53.533C56.006 52.8416 54.3125 49.9974 55.0024 47.216L58.3109 33.9534C60.3807 25.6879 57.0095 16.951 49.9064 12.2368C47.821 10.854 43.9323 10.0369 41.4549 11.0269C38.8991 12.0483 37.0645 14.1696 36.3903 16.841L32.8152 31.1564C32.4703 32.5078 31.6392 33.6392 30.4475 34.362C29.2558 35.0691 27.8603 35.2891 26.5118 34.9434C25.1634 34.5977 24.0344 33.7649 23.3131 32.5706C22.5918 31.3764 22.388 29.9778 22.7329 28.6264L26.1512 14.9396C27.6565 8.93691 31.7019 3.97131 36.9704 1.62994C42.5055 -0.821433 48.6991 -0.491445 53.9519 2.50991C65.7589 9.28261 71.686 23.2523 68.3932 36.4834L65.0847 49.7459C64.4889 52.103 62.3721 53.6901 60.0357 53.6901ZM59.1106 52.1659C61.149 52.6844 63.1874 51.4431 63.6892 49.416L66.9977 36.1534C70.1494 23.5351 64.4889 10.2097 53.2306 3.75131C48.3698 0.969951 42.6466 0.67138 37.5349 2.93418C32.6584 5.08699 28.9109 9.70688 27.5154 15.2853L24.0971 28.9879C23.8462 29.9621 24.003 30.9835 24.5205 31.8635C25.0379 32.7278 25.869 33.3406 26.8411 33.592C27.829 33.8435 28.8325 33.6863 29.7106 33.1678C30.573 32.6492 31.1845 31.8164 31.4354 30.8421L35.0104 16.5267C35.7944 13.4154 37.9426 10.9483 40.9218 9.75403C43.901 8.55977 48.3071 9.53403 50.6748 11.1054C58.2639 16.1653 61.886 25.4994 59.6594 34.3463L56.3509 47.6088C55.8492 49.6359 57.0722 51.6945 59.0949 52.1973L59.1106 52.1659Z" fill="#C4C1C0"/>
<path d="M58.0293 91.2304L58.4683 89.9262C58.4683 89.9262 62.357 88.3705 65.6184 86.2334L65.0696 87.7105C61.7141 89.9105 58.2175 91.1519 58.0293 91.2304Z" fill="#F93306"/>
<path d="M413.203 520.846L452.765 497.495C454.046 496.741 455.434 496.521 456.761 496.741C456.761 496.741 456.776 496.741 456.791 496.741C456.928 496.756 457.05 496.788 457.172 496.819C464.508 498.202 469.145 504.268 469.145 504.268L465.24 507.473L463.212 507.112L467.07 522.59C471.478 540.645 463.715 559.518 448.052 568.789C444.865 570.675 441.494 571.728 438.124 572.042L438.84 576.693C438.84 576.787 438.764 576.866 438.688 576.835C436.904 576.253 422.674 571.366 416.131 561.733C416.116 561.702 416.101 561.686 416.086 561.655C414.362 559.188 413.051 556.328 412.273 553.154L407.591 534.438C406.294 529.111 408.582 523.564 413.203 520.83V520.846Z" fill="#F93306"/>
<path d="M410.61 526.675L450.171 503.325C451.453 502.57 452.84 502.35 454.167 502.57C454.167 502.57 454.183 502.57 454.198 502.57C454.335 502.586 454.457 502.617 454.579 502.649C458.834 503.45 462.174 505.839 464.248 507.693L463.211 507.505L464.325 511.936L462.662 513.303L460.634 512.942L464.492 528.42C466.627 537.157 465.88 546.082 462.799 554.018C459.337 560.162 454.35 565.457 448.052 569.182C444.864 571.067 441.494 572.12 438.123 572.434L438.84 577.086C438.84 577.18 438.764 577.259 438.687 577.227C436.903 576.646 422.674 571.759 416.131 562.126C416.116 562.095 416.1 562.079 416.085 562.047C414.362 559.58 413.05 556.72 412.272 553.546L407.59 534.831C407.148 532.992 407.133 531.123 407.483 529.347C408.353 528.294 409.405 527.383 410.61 526.66V526.675Z" fill="#F93306"/>
<path d="M463.212 506.986L464.661 505.792C464.661 505.792 460.009 499.726 452.688 498.343C452.566 498.312 452.429 498.28 452.307 498.265C452.307 498.265 452.292 498.265 452.277 498.265C451.972 498.218 451.667 498.202 451.362 498.202L452.765 497.369C454.046 496.615 455.434 496.395 456.761 496.615C456.761 496.615 456.776 496.615 456.791 496.615C456.928 496.63 457.05 496.662 457.172 496.693C464.508 498.076 469.145 504.142 469.145 504.142L465.24 507.347L463.212 506.986Z" fill="#C4C1C0"/>
<path d="M441.83 571.224C442.41 570.941 443.004 570.659 443.569 570.313C459.232 561.026 466.994 542.169 462.587 524.114L458.728 508.636L460.757 508.997L463.197 506.986L467.055 522.464C471.463 540.519 463.7 559.392 448.037 568.663C446.024 569.857 443.935 570.674 441.815 571.224H441.83Z" fill="#C4C1C0"/>
<path d="M422.583 533.998C422.674 534.03 422.75 533.951 422.735 533.857L422.018 529.206C425.389 528.891 428.759 527.839 431.947 525.953C439.252 521.616 452.612 517.31 464.34 512.093L466.918 522.449C471.325 540.504 463.563 559.376 447.9 568.648C444.712 570.533 441.342 571.586 437.971 571.9L438.688 576.552C438.688 576.646 438.612 576.725 438.535 576.693C436.751 576.112 422.522 571.225 415.979 561.592C415.964 561.561 415.948 561.545 415.933 561.514C414.21 559.046 412.898 556.186 412.12 553.012L407.438 534.297C406.798 531.689 407.026 529.017 407.972 526.644C414.377 531.17 421.363 533.574 422.583 533.967V533.998Z" fill="#C4C1C0"/>
<path d="M438.84 577.636L439.252 577.353C439.465 577.164 439.572 576.882 439.526 576.599L438.916 572.686C442.256 572.277 445.444 571.177 448.387 569.433C464.233 560.036 472.195 540.708 467.726 522.449L464.127 508.023L465.408 508.243L470.09 504.393L469.663 503.843C469.465 503.592 464.767 497.558 457.264 496.128C457.157 496.096 457.004 496.065 456.867 496.049C455.281 495.798 453.756 496.096 452.398 496.898L412.837 520.249C407.972 523.124 405.532 529.048 406.904 534.643L411.586 553.358C412.364 556.516 413.676 559.455 415.506 562.095C422.247 572.01 436.827 576.992 438.459 577.526L438.825 577.652L438.84 577.636ZM462.266 506.232L466.399 522.779C470.715 540.425 463.029 559.109 447.701 568.192C444.712 569.967 441.463 571.02 438.047 571.35L437.315 571.413L438.001 575.86C434.433 574.587 422.445 569.826 416.68 561.325C414.911 558.763 413.66 555.982 412.928 552.981L408.246 534.265C407.026 529.284 409.207 524.004 413.538 521.443L453.1 498.092C454.183 497.448 455.403 497.212 456.638 497.416C456.776 497.432 456.882 497.463 457.004 497.495C462.754 498.579 466.841 502.68 468.153 504.158L465.057 506.703L462.281 506.216L462.266 506.232Z" fill="#C4C1C0"/>
<path d="M456.745 574.257C442.745 582.554 424.916 574.776 420.966 558.622L416.284 539.907C414.988 534.58 417.275 529.033 421.896 526.299L461.458 502.948C464.996 500.858 469.495 502.822 470.487 506.908L475.763 528.058C480.171 546.114 472.408 564.986 456.745 574.257Z" fill="#F93306"/>
<path d="M428.317 563.431L423.04 542.28V542.217C422.232 539.011 423.604 535.664 426.38 534.014L450.187 519.966C453.725 517.876 458.225 519.84 459.216 523.926L464.493 545.077C464.828 546.444 465.088 547.796 465.286 549.163C466.582 558.355 462.236 567.579 454.442 572.246C454.397 572.278 454.366 572.294 454.32 572.325C446.176 577.149 436.751 576.536 429.507 571.995C429.415 569.151 429.034 566.275 428.332 563.431H428.317Z" fill="#F93306"/>
<path d="M444.621 578.327C448.922 578.327 453.207 577.165 457.081 574.87C472.927 565.474 480.888 546.161 476.42 527.886L471.143 506.735C470.609 504.582 469.175 502.838 467.177 501.974C465.195 501.109 462.968 501.235 461.092 502.351L421.531 525.702C416.666 528.577 414.225 534.486 415.598 540.096L420.28 558.811C422.217 566.715 427.509 573.079 434.799 576.269C437.971 577.652 441.296 578.343 444.606 578.343L444.621 578.327ZM464.509 502.822C465.225 502.822 465.957 502.979 466.659 503.278C468.245 503.969 469.404 505.368 469.816 507.081L475.093 528.232C479.409 545.894 471.722 564.562 456.395 573.645C449.898 577.495 442.227 577.966 435.348 574.965C428.455 571.948 423.452 565.945 421.622 558.465L416.94 539.75C415.72 534.769 417.901 529.489 422.232 526.943L461.794 503.592C462.633 503.089 463.563 502.838 464.509 502.838V502.822Z" fill="#C4C1C0"/>
<path d="M442.898 540.237L448.495 536.701C449.013 536.371 449.684 536.67 449.822 537.267L452.079 546.899C452.079 546.899 452.17 546.899 452.201 546.899C455.648 546.899 458.438 550.168 458.438 554.191C458.438 558.213 455.648 561.482 452.201 561.482C448.754 561.482 445.963 558.213 445.963 554.191C445.963 551.724 447.015 549.539 448.632 548.219L447.259 542.374C447.214 542.17 446.97 542.06 446.802 542.185L444.804 543.442C443.736 544.118 442.333 543.505 442.059 542.232C441.891 541.447 442.226 540.645 442.882 540.237H442.898Z" fill="#C4C1C0"/>
<path d="M452.201 562.189C456.014 562.189 459.125 558.606 459.125 554.191C459.125 549.775 456.243 546.444 452.613 546.208L450.478 537.11C450.356 536.607 450.005 536.182 449.547 535.994C449.074 535.79 448.556 535.837 448.129 536.104L442.532 539.639C441.632 540.205 441.159 541.321 441.388 542.389C441.556 543.207 442.105 543.898 442.852 544.228C443.599 544.558 444.453 544.495 445.155 544.055L446.695 543.081L447.839 547.968C446.223 549.492 445.262 551.771 445.262 554.191C445.262 558.606 448.373 562.189 452.186 562.189H452.201ZM452.247 547.606C455.266 547.606 457.752 550.561 457.752 554.191C457.752 557.82 455.266 560.775 452.201 560.775C449.135 560.775 446.65 557.82 446.65 554.191C446.65 552.038 447.549 550.011 449.059 548.785L449.395 548.502L447.931 542.232C447.854 541.918 447.641 541.651 447.336 541.525C447.046 541.399 446.711 541.431 446.436 541.604L444.453 542.861C444.133 543.065 443.752 543.097 443.416 542.939C443.081 542.782 442.837 542.484 442.76 542.107C442.654 541.619 442.867 541.117 443.279 540.865L448.876 537.33C448.952 537.282 449.029 537.298 449.059 537.33C449.09 537.33 449.151 537.377 449.181 537.471L451.576 547.669L452.292 547.638L452.247 547.606Z" fill="#C4C1C0"/>
<path d="M449.822 537.267L452.079 546.899C452.079 546.899 452.17 546.899 452.201 546.899C455.648 546.899 458.438 550.152 458.438 554.175C458.438 556.155 457.752 557.962 456.654 559.266C456.578 559.361 456.486 559.439 456.41 559.518C456.303 559.643 456.181 559.753 456.059 559.863C455.205 560.571 454.153 561.011 452.963 561.105C454.412 559.769 455.037 558.056 455.037 555.715C455.037 551.692 452.247 548.424 448.8 548.424C448.754 548.424 448.708 548.424 448.678 548.424L448.632 548.235C448.632 548.235 448.632 548.235 448.647 548.219C448.647 548.219 448.647 548.204 448.647 548.188L447.275 542.342C447.229 542.138 446.985 542.028 446.817 542.154L444.819 543.411C443.752 544.087 442.348 543.474 442.074 542.201C441.906 541.415 442.242 540.614 442.898 540.205L448.464 536.685H448.495C449.013 536.371 449.684 536.654 449.822 537.251V537.267Z" fill="#F93306"/>
<path d="M450.966 561.969L452.994 561.812C454.275 561.718 455.48 561.231 456.471 560.429C456.639 560.272 456.761 560.162 456.898 560.021C456.975 559.942 457.066 559.848 457.158 559.753C458.439 558.229 459.125 556.265 459.125 554.175C459.125 549.932 456.243 546.444 452.613 546.192L450.478 537.094C450.356 536.591 450.005 536.167 449.547 535.978C449.181 535.821 448.754 535.821 448.388 535.963H448.342L448.083 536.088L442.516 539.608C441.617 540.19 441.144 541.29 441.373 542.358C441.54 543.175 442.089 543.867 442.837 544.197C443.584 544.527 444.438 544.464 445.14 544.024L446.68 543.05L447.793 547.811H447.763L448.068 549.162L448.785 549.131C451.804 549.131 454.29 552.085 454.29 555.715C454.29 557.899 453.726 559.408 452.445 560.571L450.935 561.969H450.966ZM452.247 547.607C455.251 547.607 457.737 550.561 457.752 554.175C457.752 555.919 457.173 557.553 456.136 558.811C456.075 558.873 456.014 558.936 455.938 559.015C455.815 559.141 455.709 559.235 455.602 559.329C455.358 559.533 455.083 559.706 454.809 559.848C455.419 558.701 455.724 557.349 455.724 555.699C455.724 551.456 452.857 547.984 449.242 547.717L447.946 542.185C447.87 541.871 447.656 541.604 447.351 541.478C447.061 541.352 446.726 541.384 446.451 541.557L444.453 542.814C444.133 543.018 443.752 543.034 443.416 542.892C443.081 542.735 442.837 542.437 442.76 542.06C442.654 541.572 442.867 541.07 443.279 540.818L448.876 537.314C448.876 537.314 449.013 537.283 449.059 537.314C449.09 537.314 449.151 537.361 449.181 537.455L451.576 547.654L452.292 547.622L452.247 547.607Z" fill="#C4C1C0"/>
<path d="M420.326 522.841C422.66 522.244 424.093 519.793 423.499 517.389L420.281 504.126C418.191 495.546 421.653 486.495 428.745 481.655C431.048 480.084 435.028 479.314 437.591 480.382C440.275 481.482 442.227 483.792 442.929 486.668L446.406 500.983C446.985 503.388 449.365 504.865 451.698 504.252C454.031 503.655 455.465 501.203 454.87 498.799L451.546 485.112C450.188 479.502 446.558 474.615 441.419 472.29C436.233 469.933 430.423 470.247 425.527 473.138C414.317 479.754 408.674 493.409 411.816 506.326L415.034 519.589C415.614 521.993 417.993 523.47 420.326 522.857V522.841Z" fill="#F93306"/>
<path d="M423.803 475.841C428.699 472.95 434.51 472.636 439.695 474.993C444.835 477.334 448.464 482.206 449.822 487.815L453.146 501.502C453.268 501.989 453.284 502.476 453.238 502.964C452.689 503.576 451.957 504.048 451.118 504.268C448.785 504.865 446.405 503.404 445.826 500.999L442.349 486.684C441.647 483.808 439.695 481.498 437.011 480.398C434.449 479.346 430.468 480.1 428.165 481.671C424.444 484.217 421.744 487.91 420.295 492.09C418.038 496.521 417.321 501.769 418.557 506.845L421.775 520.107C421.897 520.595 421.912 521.082 421.866 521.569C421.317 522.182 420.585 522.653 419.746 522.873C417.413 523.47 415.034 522.009 414.454 519.605L411.236 506.342C409.757 500.261 410.245 494.022 412.319 488.428C414.82 483.29 418.725 478.858 423.803 475.857V475.841Z" fill="#F93306"/>
<path d="M431.642 479.078C433.945 477.507 437.926 476.737 440.488 477.806C443.172 478.906 445.124 481.215 445.826 484.091L449.303 498.406C449.882 500.811 452.262 502.288 454.595 501.675C454.671 501.659 454.732 501.612 454.809 501.596C454.305 502.869 453.238 503.891 451.85 504.252C449.516 504.849 447.137 503.388 446.558 500.984L443.08 486.668C442.379 483.793 440.427 481.483 437.743 480.383C435.18 479.33 431.2 480.084 428.897 481.655C428.546 481.891 428.226 482.143 427.906 482.394C429.004 481.153 430.254 480.021 431.642 479.078Z" fill="#C4C1C0"/>
<path d="M422.079 475.669C415.231 482.96 412.242 493.567 414.713 503.734L417.931 516.996C418.51 519.4 420.89 520.877 423.223 520.265C423.299 520.249 423.36 520.202 423.437 520.186C422.933 521.459 421.866 522.48 420.478 522.842C418.144 523.439 415.765 521.977 415.186 519.573L411.968 506.311C409.192 494.871 413.31 482.85 422.079 475.653V475.669Z" fill="#C4C1C0"/>
<path d="M419.258 523.69C419.67 523.69 420.067 523.643 420.479 523.533C423.178 522.842 424.825 519.997 424.154 517.216L420.936 503.953C418.923 495.688 422.202 486.951 429.111 482.237C431.139 480.854 434.921 480.037 437.331 481.027C439.817 482.048 441.601 484.17 442.257 486.841L445.735 501.156C446.07 502.508 446.878 503.639 448.037 504.362C449.197 505.069 450.554 505.289 451.866 504.943C453.177 504.598 454.275 503.765 454.977 502.571C455.678 501.376 455.877 499.978 455.541 498.626L452.216 484.94C450.752 478.937 446.817 473.971 441.693 471.63C436.309 469.179 430.285 469.509 425.176 472.51C413.692 479.283 407.927 493.252 411.13 506.483L414.348 519.746C414.927 522.103 416.986 523.69 419.258 523.69ZM420.158 522.166C418.176 522.684 416.193 521.443 415.705 519.416L412.487 506.153C409.421 493.535 414.927 480.21 425.877 473.751C430.605 470.97 436.172 470.671 441.144 472.934C445.887 475.087 449.532 479.707 450.889 485.285L454.214 498.988C454.458 499.962 454.306 500.984 453.802 501.863C453.299 502.728 452.491 503.341 451.545 503.592C450.584 503.843 449.608 503.686 448.754 503.168C447.915 502.649 447.321 501.816 447.077 500.842L443.599 486.527C442.837 483.415 440.747 480.948 437.85 479.754C434.952 478.56 430.666 479.534 428.363 481.105C420.982 486.165 417.459 495.499 419.625 504.346L422.843 517.609C423.331 519.636 422.141 521.694 420.174 522.197L420.158 522.166Z" fill="#C4C1C0"/>
<path d="M421.21 561.23L420.783 559.926C420.783 559.926 417.001 558.37 413.828 556.233L414.362 557.711C417.626 559.91 421.027 561.152 421.21 561.23Z" fill="#F93306"/>
</svg>
