<svg width="52" height="52" viewBox="0 0 52 52" fill="none" xmlns="http://www.w3.org/2000/svg">
<path d="M44.0186 25.9999C44.0185 16.4758 36.4185 8.72697 26.9521 8.4872L26.5 8.48134C16.8248 8.48139 8.9815 16.3247 8.98145 25.9999L8.9873 26.452C9.22327 35.7681 16.7318 43.2765 26.0479 43.5126L26.5 43.5184C36.0241 43.5184 43.7729 35.9184 44.0127 26.452L44.0186 25.9999ZM46.0186 25.9999C46.0186 36.7797 37.2799 45.5184 26.5 45.5184C15.7202 45.5184 6.98145 36.7797 6.98145 25.9999C6.9815 15.2201 15.7202 6.48139 26.5 6.48134C37.2798 6.48134 46.0185 15.2201 46.0186 25.9999Z" fill="white"/>
<path d="M22.9561 0.243163C28.8878 -0.573082 34.9263 0.682682 40.047 3.80859L40.5391 4.11621C45.5787 7.34914 49.3537 12.2267 51.2159 17.9297L51.837 19.8311L41.8604 23.0879L41.2403 21.1875C40.1297 17.7863 37.8778 14.8772 34.8722 12.9492L34.5792 12.7656C31.4268 10.8413 27.6908 10.1055 24.044 10.6904C20.3974 11.2754 17.0789 13.1423 14.6866 15.9561C12.2943 18.7698 10.985 22.3458 10.9942 26.0391C11.0035 29.7323 12.3311 33.3008 14.7374 36.1025C17.1438 38.9043 20.4716 40.7555 24.1212 41.3223C27.7706 41.8889 31.503 41.1344 34.6456 39.1943L34.9376 39.0088C37.9334 37.0658 40.1702 34.1458 41.2638 30.7393L41.8751 28.835L51.8673 32.042L51.2559 33.9463C49.4222 39.6587 45.6712 44.5554 40.6475 47.8135L40.1573 48.124C35.0522 51.2754 29.0198 52.5612 23.0841 51.7744L22.5108 51.6924C16.5825 50.7718 11.1607 47.8301 7.15926 43.376L6.77645 42.9404C2.86743 38.3891 0.656233 32.6305 0.507894 26.6445L0.500081 26.0654C0.484608 19.8724 2.67998 13.8764 6.69149 9.1582L7.07235 8.7207C11.0515 4.24666 16.4583 1.27837 22.3819 0.328124L22.9561 0.243163ZM39.005 5.51562C34.1258 2.53712 28.3436 1.39744 22.6993 2.30273L22.171 2.39355C16.7347 3.3904 11.8031 6.2351 8.2159 10.4541L7.87313 10.8662C4.38799 15.1556 2.48634 20.5219 2.50008 26.0596C2.51436 31.776 4.56862 37.3001 8.29305 41.6367C12.0177 45.9734 17.1685 48.8386 22.8175 49.7158C28.2898 50.5656 33.8819 49.496 38.6485 46.6982L39.1075 46.4219C43.9717 43.4189 47.6044 38.7779 49.3516 33.335L43.168 31.3506C41.8936 35.3207 39.2435 38.7052 35.6954 40.8955L35.3614 41.0977C31.9967 43.0726 28.0679 43.8661 24.2003 43.3535L23.8136 43.2979C19.8221 42.6779 16.1717 40.6981 13.4776 37.6992L13.2198 37.4053C10.5882 34.3411 9.10009 30.4645 9.00008 26.4346L8.99422 26.0439C8.98413 22.0044 10.3717 18.0898 12.9141 14.9609L13.1632 14.6611C15.7798 11.5836 19.3774 9.50829 23.3429 8.78125L23.7276 8.71484C27.8446 8.05449 32.0622 8.88605 35.6212 11.0586C39.0689 13.1633 41.6792 16.3929 43.0157 20.1963L43.1407 20.5664L49.3145 18.5508C47.5956 13.2863 44.1112 8.78308 39.4591 5.79883L39.005 5.51562Z" fill="white"/>
<path d="M49.3146 18.5506C47.5402 13.1163 43.8843 8.49384 39.0049 5.51525C34.1256 2.53666 28.3433 1.39757 22.6988 2.30299C17.0543 3.20842 11.9184 6.0989 8.21544 10.4542C4.51252 14.8094 2.48579 20.3434 2.50007 26.06C2.51436 31.7766 4.56871 37.3004 8.29336 41.6371C12.018 45.9738 17.1683 48.8386 22.8172 49.7158C28.4662 50.593 34.2427 49.425 39.1071 46.4221C43.9715 43.4192 47.6043 38.7785 49.3515 33.3355L43.1679 31.3505C41.8935 35.3207 39.2438 38.7056 35.6957 40.896C32.1476 43.0863 27.9341 43.9382 23.8138 43.2984C19.6934 42.6585 15.9368 40.569 13.22 37.4058C10.5033 34.2426 9.00482 30.2135 8.9944 26.0438C8.98398 21.8741 10.4623 17.8376 13.1632 14.6608C15.8641 11.4841 19.6103 9.37578 23.7274 8.71536C27.8445 8.05494 32.0621 8.8858 35.6211 11.0584C39.1801 13.231 41.8467 16.6026 43.141 20.5664L49.3146 18.5506Z" fill="#FF150A"/>
<path d="M44.0188 26C44.0188 35.6753 36.1754 43.5187 26.5001 43.5187C16.8248 43.5187 8.98145 35.6753 8.98145 26C8.98145 16.3247 16.8248 8.48134 26.5001 8.48134C36.1754 8.48134 44.0188 16.3247 44.0188 26Z" fill="#FF150A"/>
<path d="M43.1535 20.5623C41.8582 16.5956 39.1896 13.2215 35.628 11.0473C32.0663 8.87307 27.8456 8.0416 23.7254 8.70251C19.6053 9.36342 15.8563 11.4733 13.1534 14.6524C10.4505 17.8315 8.97107 21.871 8.9815 26.0438C8.99193 30.2166 10.4915 34.2487 13.2103 37.4142C15.9291 40.5798 19.6885 42.6709 23.8119 43.3112C27.9353 43.9515 32.1519 43.099 35.7026 40.907C39.2533 38.715 41.905 35.3276 43.1804 31.3545L32.1428 27.8113C31.7113 29.1554 30.8143 30.3013 29.6132 31.0428C28.412 31.7843 26.9856 32.0727 25.5907 31.8561C24.1958 31.6395 22.9241 30.9321 22.0044 29.8613C21.0847 28.7904 20.5774 27.4264 20.5738 26.0148C20.5703 24.6032 21.0708 23.2368 21.9851 22.1613C22.8995 21.0859 24.1677 20.3721 25.5615 20.1486C26.9553 19.925 28.3831 20.2063 29.5879 20.9418C30.7928 21.6773 31.6955 22.8187 32.1337 24.1605L43.1535 20.5623Z" fill="white"/>
</svg>
