<svg width="428" height="400" viewBox="0 0 428 400" fill="none" xmlns="http://www.w3.org/2000/svg">
<g opacity="0.8">
<path d="M167.986 124.304L173.374 132.723L173.384 132.718L176.249 137.197C168.19 142.36 161.171 149.073 155.715 156.907C150.249 164.729 146.349 173.647 144.287 182.98C142.217 192.312 142.007 202.045 143.667 211.442C145.32 220.842 148.847 229.895 153.997 237.963C159.141 246.033 165.839 253.067 173.658 258.542C181.469 264.025 190.378 267.946 199.704 270.027C209.029 272.121 218.764 272.359 228.166 270.717C237.569 269.082 246.637 265.586 254.708 260.439L254.971 260.281L256.4 262.511L263.336 273.314L262.708 273.716L257.273 265.1L255.466 266.192L260.438 274.601L259.802 274.984L254.899 266.536C250.741 268.938 246.37 270.966 241.849 272.576L245.108 281.722L244.405 281.971L241.226 272.799C236.69 274.368 232.011 275.519 227.265 276.23L228.692 285.768L227.955 285.876L226.609 276.324C221.858 276.993 217.042 277.224 212.248 277.014L211.826 286.592L211.084 286.556L211.586 276.982L210.299 276.919L209.625 286.719C209.375 286.709 209.127 286.692 208.88 286.664L209.638 276.87C203.877 276.409 198.17 275.324 192.642 273.639L189.765 283.031L189.049 282.818L192.005 273.45C187.428 272.002 182.983 270.135 178.747 267.878L174.159 276.502L173.497 276.156L178.158 267.572C173.941 265.278 169.938 262.594 166.215 259.566L160.096 267.099L159.514 266.633L165.697 259.152C162.003 256.091 158.591 252.687 155.518 249L148.112 255.178L147.634 254.605L155.091 248.49L154.265 247.501L146.526 253.638L146.076 253.042L153.868 246.97C150.325 242.406 147.271 237.456 144.795 232.238L135.865 236.477L135.546 235.803L144.512 231.639C142.493 227.285 140.872 222.747 139.683 218.098L130.165 220.527L129.986 219.803L139.524 217.455C138.377 212.797 137.661 208.03 137.387 203.238L127.638 203.789L127.603 203.045L137.354 202.574C137.122 197.78 137.332 192.964 137.978 188.207L128.36 186.899L128.468 186.162L138.073 187.551L138.258 186.276L128.449 184.694L128.559 183.955L138.354 185.62C139.339 179.926 140.943 174.339 143.128 168.991L133.924 165.224L134.204 164.532L143.376 168.376C145.233 163.95 147.498 159.694 150.134 155.684L141.871 150.26L142.28 149.634L150.497 155.128C153.167 151.14 156.206 147.402 159.565 143.972L152.544 137.102L153.065 136.569L160.028 143.5C163.441 140.073 167.173 136.968 171.157 134.222L165.622 126.182L166.24 125.765L171.707 133.85L172.83 133.09L167.372 124.716L167.986 124.304Z" fill="#CA4242"/>
<path d="M263.251 273.163L257.863 264.743L257.853 264.749L254.988 260.27C263.047 255.107 270.066 248.394 275.522 240.56C280.988 232.738 284.889 223.819 286.951 214.487C289.02 205.155 289.23 195.422 287.57 186.025C285.917 176.625 282.39 167.572 277.24 159.504C272.096 151.434 265.398 144.398 257.579 138.925C249.768 133.442 240.859 129.521 231.533 127.44C222.208 125.346 212.473 125.108 203.071 126.75C193.668 128.385 184.601 131.881 176.529 137.027L176.266 137.186L174.839 134.956L167.903 124.153L168.529 123.751L173.966 132.367L175.773 131.274L170.801 122.866L171.437 122.482L176.34 130.93C180.498 128.528 184.869 126.5 189.39 124.89L186.133 115.745L186.836 115.495L190.015 124.667C194.551 123.099 199.229 121.948 203.976 121.237L202.549 111.699L203.286 111.591L204.632 121.143C209.383 120.474 214.198 120.243 218.993 120.453L219.415 110.875L220.157 110.911L219.655 120.485L220.942 120.547L221.616 110.748C221.866 110.757 222.113 110.776 222.361 110.803L221.603 120.596C227.364 121.057 233.071 122.142 238.599 123.828L241.476 114.435L242.19 114.647L239.234 124.015C243.811 125.463 248.257 127.33 252.492 129.587L257.081 120.963L257.742 121.307L253.081 129.891C257.298 132.185 261.301 134.869 265.024 137.897L271.143 130.363L271.725 130.83L265.542 138.31C269.238 141.372 272.648 144.776 275.721 148.463L283.127 142.285L283.603 142.858L276.146 148.973L276.972 149.962L284.711 143.825L285.161 144.421L277.369 150.493C280.912 155.057 283.966 160.007 286.442 165.225L295.372 160.986L295.691 161.66L286.726 165.824C288.744 170.178 290.364 174.716 291.554 179.365L301.072 176.936L301.251 177.66L291.713 180.008C292.86 184.666 293.577 189.432 293.851 194.223L303.599 193.672L303.635 194.416L293.883 194.887C294.115 199.681 293.905 204.497 293.259 209.254L302.875 210.562L302.767 211.299L293.163 209.91L292.977 211.185L302.786 212.767L302.676 213.506L292.881 211.841C291.896 217.535 290.292 223.122 288.107 228.47L297.311 232.237L297.031 232.929L287.86 229.085C286.002 233.511 283.738 237.765 281.101 241.777L289.366 247.201L288.958 247.827L280.74 242.331C278.07 246.319 275.031 250.057 271.674 253.487L278.695 260.357L278.172 260.89L271.209 253.96C267.796 257.386 264.064 260.491 260.08 263.237L265.615 271.277L264.999 271.695L259.532 263.609L258.409 264.369L263.867 272.743L263.251 273.163Z" fill="#CA4242"/>
<path fill-rule="evenodd" clip-rule="evenodd" d="M252.942 262.735L254.726 261.656C251.583 255.992 248.368 250.369 245.086 244.792L243.761 245.59C246.892 251.263 249.954 256.978 252.942 262.735ZM174.87 136.746L173.142 137.92C176.582 143.414 180.08 148.847 183.662 154.252L184.943 153.381C181.515 147.881 178.156 142.336 174.87 136.746ZM171.132 139.381L169.463 140.639C173.235 145.918 177.075 151.145 180.98 156.32C181.367 155.98 181.776 155.666 182.193 155.362C178.44 150.087 174.753 144.757 171.132 139.381ZM167.558 142.227C167.021 142.673 166.484 143.117 165.98 143.599C170.07 148.634 174.222 153.612 178.436 158.533C178.818 158.187 179.183 157.824 179.576 157.492C175.505 152.459 171.498 147.371 167.558 142.227ZM164.156 145.296C163.642 145.769 163.169 146.284 162.676 146.778C167.066 151.546 171.517 156.256 176.026 160.901L177.106 159.797C172.723 155.018 168.401 150.18 164.156 145.296ZM160.954 148.571L159.565 150.138C164.241 154.623 168.975 159.045 173.762 163.399L174.787 162.247C170.119 157.752 165.507 153.194 160.954 148.571ZM157.967 152.043L156.659 153.68C161.605 157.866 166.617 161.995 171.672 166.051C171.961 165.626 172.286 165.227 172.61 164.826C167.677 160.631 162.795 156.371 157.967 152.043ZM155.198 155.691C154.788 156.256 154.376 156.821 154.005 157.41C159.206 161.285 164.455 165.087 169.75 168.82C170.034 168.391 170.298 167.948 170.595 167.529C165.415 163.655 160.282 159.707 155.198 155.691ZM152.646 159.499C152.272 160.088 151.938 160.701 151.582 161.302C157.01 164.843 162.483 168.313 167.996 171.709L168.771 170.375C163.351 166.82 157.963 163.188 152.646 159.499ZM150.095 163.299L149.126 165.163C154.759 168.364 160.422 171.486 166.14 174.542L166.855 173.163C161.229 169.95 155.642 166.661 150.095 163.299ZM148.322 167.553C148.033 168.189 147.733 168.818 147.459 169.459C153.287 172.309 159.15 175.079 165.044 177.774C165.229 177.294 165.424 176.816 165.649 176.353C159.838 173.497 154.062 170.564 148.322 167.553ZM146.531 171.764C146.26 172.407 146.028 173.064 145.801 173.722C151.79 176.207 157.81 178.611 163.854 180.938L164.358 179.477C158.38 176.984 152.442 174.416 146.531 171.764ZM144.99 176.079L144.395 178.082C150.522 180.193 156.674 182.223 162.846 184.171L163.287 182.69C157.163 180.567 151.065 178.364 144.99 176.079ZM143.745 180.475L143.25 182.506C149.485 184.236 155.767 185.887 162.054 187.456C162.138 186.948 162.281 186.451 162.398 185.95C156.16 184.205 149.942 182.382 143.745 180.475ZM142.774 184.922C142.645 185.606 142.498 186.288 142.409 186.98C148.751 188.327 155.109 189.592 161.478 190.773C161.561 190.265 161.607 189.75 161.714 189.246C155.387 187.885 149.073 186.445 142.774 184.922ZM142.042 189.446C141.94 190.136 141.897 190.831 141.821 191.525C148.234 192.479 154.654 193.351 161.081 194.137L161.227 192.599C154.816 191.631 148.413 190.578 142.042 189.446ZM141.609 194.005L141.507 196.093C147.963 196.651 154.414 197.125 160.883 197.514L160.953 195.972C154.5 195.399 148.052 194.744 141.609 194.005ZM141.464 198.571L141.473 200.663C147.959 200.822 154.444 200.897 160.926 200.888C160.892 200.374 160.873 199.86 160.885 199.346C154.41 199.172 147.937 198.913 141.464 198.571ZM141.598 203.384C141.619 204.082 141.7 204.775 141.762 205.469C148.241 205.208 154.71 204.86 161.172 204.431L161.023 202.895C154.538 203.144 148.08 203.307 141.598 203.384ZM142.023 207.941L142.324 210.012C148.768 209.351 155.202 208.604 161.622 207.775L161.4 206.247C154.952 206.898 148.492 207.461 142.023 207.941ZM142.738 212.471L143.142 214.525C149.524 213.467 155.922 212.316 162.283 211.088C162.145 210.592 162.064 210.084 161.964 209.579C155.572 210.626 149.163 211.59 142.738 212.471ZM143.734 216.941C143.908 217.617 144.057 218.299 144.27 218.965C150.59 217.506 156.887 215.965 163.16 214.344C163.02 213.849 162.842 213.365 162.731 212.864C156.419 214.304 150.086 215.663 143.734 216.941ZM144.989 221.331C145.178 222.004 145.44 222.65 145.665 223.311C151.879 221.465 158.067 219.539 164.222 217.534L163.702 216.083C157.481 217.916 151.244 219.666 144.989 221.331ZM146.516 225.642L147.317 227.575C153.401 225.351 159.45 223.047 165.468 220.666L164.88 219.239C158.789 221.452 152.667 223.587 146.516 225.642ZM148.324 229.852L149.222 231.742C155.149 229.149 161.055 226.471 166.925 223.718C166.666 223.272 166.473 222.792 166.246 222.331C160.308 224.914 154.334 227.422 148.324 229.852ZM150.379 233.937C150.717 234.545 151.027 235.171 151.39 235.764C157.161 232.804 162.892 229.771 168.578 226.666C168.312 226.224 168.032 225.789 167.802 225.33C162.036 228.272 156.228 231.141 150.379 233.937ZM152.671 237.89C153.023 238.491 153.408 239.07 153.803 239.642C159.382 236.339 164.916 232.963 170.402 229.522L169.531 228.242C163.954 231.531 158.335 234.745 152.671 237.89ZM155.188 241.691C155.593 242.258 156.022 242.808 156.438 243.365C161.803 239.731 167.117 236.029 172.381 232.26L171.451 231.026C166.08 234.649 160.646 238.211 155.188 241.691ZM157.951 245.331L159.291 246.937C164.422 242.982 169.497 238.96 174.516 234.878L173.53 233.691C168.391 237.635 163.198 241.515 157.951 245.331ZM160.941 248.791L162.362 250.326C167.235 246.062 172.069 241.719 176.832 237.327C176.454 236.977 176.112 236.594 175.762 236.218C170.88 240.472 165.94 244.664 160.941 248.791ZM164.131 252.072C164.632 252.558 165.124 253.053 165.655 253.507C170.262 248.941 174.806 244.318 179.287 239.638C178.907 239.293 178.504 238.971 178.141 238.606C173.534 243.155 168.862 247.644 164.131 252.072ZM167.486 255.137C168.002 255.608 168.565 256.022 169.104 256.466C173.418 251.628 177.665 246.737 181.847 241.791L180.642 240.831C176.314 245.663 171.929 250.434 167.486 255.137ZM171.094 258.02L172.789 259.246C176.79 254.151 180.719 249.005 184.58 243.813L183.335 242.906C179.323 247.996 175.242 253.034 171.094 258.02ZM174.843 260.631L176.599 261.771C180.277 256.434 183.89 251.044 187.426 245.614C186.977 245.365 186.546 245.085 186.119 244.8C182.429 250.124 178.672 255.402 174.843 260.631ZM178.731 263.032C179.332 263.387 179.935 263.735 180.559 264.047C183.902 258.49 187.171 252.892 190.365 247.258C189.91 247.018 189.447 246.795 188.997 246.544C185.65 252.083 182.227 257.579 178.731 263.032ZM182.764 265.192C183.388 265.5 184.026 265.781 184.658 266.076C187.651 260.327 190.567 254.542 193.406 248.723L192.002 248.081C188.999 253.82 185.913 259.537 182.764 265.192ZM186.933 267.076L188.87 267.858C191.503 261.937 194.052 255.997 196.534 250.001C196.048 249.829 195.578 249.619 195.099 249.432C192.455 255.345 189.734 261.227 186.933 267.076ZM191.199 268.705C191.858 268.928 192.51 269.176 193.177 269.376C195.443 263.298 197.63 257.194 199.735 251.067C199.242 250.921 198.745 250.785 198.263 250.604C195.988 256.663 193.633 262.697 191.199 268.705ZM195.561 270.077C196.226 270.285 196.904 270.44 197.581 270.608C199.469 264.406 201.276 258.184 203.001 251.942L201.501 251.577C199.597 257.78 197.622 263.931 195.561 270.077ZM199.994 271.179L202.045 271.58C203.549 265.279 204.969 258.961 206.307 252.63L204.791 252.333C203.275 258.632 201.674 264.916 199.994 271.179ZM204.489 272.001L206.556 272.3C207.669 265.921 208.703 259.507 209.652 253.098C209.138 253.062 208.629 252.981 208.119 252.907C206.993 259.284 205.781 265.649 204.489 272.001ZM209.022 272.549C209.716 272.617 210.41 272.685 211.105 272.706C211.827 266.262 212.462 259.811 213.016 253.357C212.502 253.327 211.988 253.321 211.476 253.276C210.742 259.707 209.924 266.133 209.022 272.549ZM213.59 272.825C214.286 272.848 214.983 272.835 215.681 272.84C216.004 266.367 216.242 259.893 216.395 253.421L214.853 253.42C214.514 259.889 214.095 266.375 213.59 272.825ZM218.151 273.114L220.248 273.014C220.175 266.532 220.016 260.072 219.772 253.586C219.258 253.627 218.74 253.639 218.224 253.669C218.285 260.148 218.26 266.63 218.151 273.114ZM222.717 272.504C223.41 272.432 224.106 272.379 224.796 272.29C224.317 265.819 223.756 259.358 223.108 252.909C222.6 252.989 222.093 253.066 221.579 253.104C222.044 259.562 222.424 266.029 222.717 272.504ZM227.256 271.927C227.948 271.837 228.632 271.704 229.316 271.568C228.439 265.145 227.477 258.736 226.432 252.346L224.92 252.645C225.786 259.065 226.563 265.485 227.256 271.927ZM231.76 271.077L233.792 270.576C232.518 264.222 231.159 257.889 229.719 251.579L228.224 251.947C229.486 258.305 230.666 264.682 231.76 271.077ZM236.188 269.934L238.189 269.325C236.524 263.069 234.776 256.835 232.943 250.609C232.463 250.793 231.962 250.915 231.475 251.072C233.126 257.335 234.699 263.623 236.188 269.934ZM240.516 268.516C241.17 268.276 241.835 268.061 242.479 267.796C240.425 261.641 238.293 255.517 236.082 249.426C235.608 249.623 235.137 249.831 234.65 249.989C236.683 256.135 238.639 262.312 240.516 268.516ZM244.787 266.847C245.435 266.588 246.065 266.292 246.692 265.989C244.264 259.979 241.756 254.004 239.174 248.064L237.781 248.727C240.198 254.739 242.53 260.773 244.787 266.847ZM248.941 264.925L250.782 263.941C247.989 258.091 245.12 252.284 242.179 246.516L240.82 247.249C243.602 253.102 246.31 258.997 248.941 264.925Z" fill="#CA4242"/>
<path fill-rule="evenodd" clip-rule="evenodd" d="M179.086 134.266L177.296 135.336C180.371 141.041 183.519 146.705 186.736 152.324L188.059 151.523C184.995 145.813 181.998 140.049 179.086 134.266ZM255.606 261.236L257.335 260.066C253.964 254.53 250.524 249.042 247.015 243.603L245.731 244.47C249.092 250.013 252.384 255.602 255.606 261.236ZM259.369 258.641L261.04 257.384C257.337 252.066 253.571 246.802 249.734 241.586L248.498 242.514C252.189 247.84 255.814 253.215 259.369 258.641ZM262.973 255.832L264.578 254.491C260.554 249.409 256.458 244.372 252.304 239.398C251.936 239.757 251.539 240.086 251.14 240.411C255.149 245.496 259.093 250.637 262.973 255.832ZM266.407 252.799C266.919 252.325 267.437 251.856 267.917 251.35C263.583 246.525 259.191 241.758 254.737 237.052C254.372 237.415 254.03 237.799 253.65 238.147C257.963 242.972 262.215 247.857 266.407 252.799ZM269.656 249.571C270.147 249.076 270.591 248.535 271.062 248.02C266.439 243.474 261.76 238.991 257.025 234.573L256.003 235.728C260.616 240.286 265.171 244.905 269.656 249.571ZM272.693 246.145L274.002 244.51C269.11 240.261 264.162 236.081 259.165 231.969L258.201 233.172C263.086 237.43 267.917 241.754 272.693 246.145ZM275.499 242.524L276.724 240.825C271.576 236.888 266.367 233.016 261.117 229.217C260.849 229.655 260.546 230.071 260.242 230.487C265.377 234.429 270.463 238.441 275.499 242.524ZM278.089 238.742C278.47 238.158 278.848 237.57 279.188 236.962C273.802 233.35 268.371 229.81 262.897 226.346C262.635 226.788 262.391 227.242 262.117 227.677C267.486 231.294 272.81 234.981 278.089 238.742ZM280.702 234.983C281.046 234.372 281.358 233.745 281.685 233.125C276.091 229.852 270.457 226.656 264.784 223.534L264.067 224.912C269.652 228.194 275.214 231.558 280.702 234.983ZM282.53 230.75L283.405 228.85C277.616 225.93 271.812 223.095 265.942 220.325C265.744 220.799 265.515 221.262 265.305 221.733C271.081 224.662 276.824 227.667 282.53 230.75ZM284.363 226.558C284.618 225.909 284.894 225.269 285.13 224.613C279.168 222.054 273.177 219.573 267.157 217.172C266.991 217.66 266.827 218.149 266.622 218.622C272.568 221.188 278.482 223.832 284.363 226.558ZM285.951 222.26C286.191 221.606 286.381 220.935 286.58 220.268C280.475 218.081 274.346 215.974 268.195 213.95L267.758 215.432C273.861 217.63 279.912 219.903 285.951 222.26ZM287.272 217.887L287.77 215.857C281.547 214.05 275.305 212.323 269.045 210.679L268.679 212.181C274.896 214.001 281.095 215.902 287.272 217.887ZM288.286 213.449L288.683 211.397C282.373 209.974 276.015 208.628 269.661 207.368C269.601 207.88 269.488 208.382 269.389 208.889C275.705 210.329 282.004 211.849 288.286 213.449ZM289.063 208.932C289.161 208.243 289.269 207.555 289.326 206.859C282.923 205.825 276.51 204.875 270.09 204.007C270.036 204.519 270.009 205.034 269.935 205.544C276.321 206.591 282.698 207.719 289.063 208.932ZM289.568 204.382C289.628 203.688 289.647 202.991 289.687 202.295C283.237 201.656 276.783 201.103 270.325 200.634L270.253 202.176C276.698 202.828 283.152 203.565 289.568 204.382ZM289.772 199.817V197.725C283.295 197.485 276.834 197.328 270.346 197.258C270.361 197.773 270.347 198.288 270.353 198.803C276.826 199.058 283.301 199.396 289.772 199.817ZM289.683 195.004C289.641 194.308 289.634 193.609 289.56 192.915C283.076 193.097 276.599 193.361 270.128 193.713C270.174 194.225 270.244 194.735 270.253 195.251C276.726 195.083 283.203 195.002 289.683 195.004ZM289.316 190.442C289.262 189.746 289.143 189.058 289.048 188.366C282.59 188.949 276.146 189.614 269.714 190.364L269.937 191.889C276.403 191.32 282.851 190.84 289.316 190.442ZM288.674 185.902L288.273 183.848C281.868 184.829 275.48 185.894 269.11 187.042L269.404 188.555C275.813 187.586 282.237 186.701 288.674 185.902ZM287.725 181.423L287.221 179.391C280.899 180.765 274.568 182.232 268.276 183.774C268.439 184.262 268.544 184.766 268.671 185.263C275 183.901 281.354 182.619 287.725 181.423ZM286.516 177.019C286.31 176.352 286.126 175.678 285.881 175.026C279.64 176.795 273.426 178.645 267.242 180.574C267.407 181.062 267.609 181.536 267.745 182.031C273.976 180.28 280.234 178.609 286.516 177.019ZM285.049 172.688C284.826 172.026 284.533 171.391 284.274 170.745C278.16 172.896 272.079 175.124 266.029 177.431L266.62 178.856C272.746 176.715 278.884 174.661 285.049 172.688ZM283.307 168.447L282.413 166.557C276.446 169.08 270.516 171.68 264.623 174.355L265.282 175.751C271.256 173.24 277.264 170.805 283.307 168.447ZM281.294 164.342L280.3 162.505C274.503 165.387 268.745 168.345 263.013 171.384C263.289 171.82 263.506 172.289 263.757 172.739C269.563 169.866 275.409 167.067 281.294 164.342ZM279.043 160.364C278.678 159.772 278.329 159.169 277.949 158.587C272.326 161.825 266.749 165.132 261.217 168.509C261.512 168.934 261.801 169.36 262.058 169.808C267.677 166.589 273.339 163.44 279.043 160.364ZM276.565 156.537C276.18 155.956 275.781 155.389 275.352 154.838C269.939 158.408 264.578 162.046 259.265 165.75L260.193 166.986C265.602 163.437 271.06 159.952 276.565 156.537ZM273.863 152.855C273.439 152.301 272.978 151.778 272.536 151.239C267.354 155.134 262.227 159.094 257.154 163.117L258.144 164.302C263.332 160.417 268.582 156.593 273.863 152.855ZM270.92 149.353L269.501 147.817C264.572 152.022 259.7 156.289 254.888 160.617L255.935 161.749C260.873 157.553 265.868 153.422 270.92 149.353ZM267.764 146.04L266.263 144.581C261.61 149.079 256.997 153.656 252.459 158.279C252.853 158.61 253.212 158.978 253.578 159.337C258.248 154.845 262.977 150.411 267.764 146.04ZM264.441 142.941C263.916 142.481 263.404 142.007 262.852 141.58C258.475 146.367 254.164 151.207 249.919 156.102C250.316 156.429 250.736 156.726 251.116 157.073C255.493 152.307 259.936 147.595 264.441 142.941ZM260.877 140.004C260.337 139.563 259.754 139.174 259.195 138.758C255.13 143.806 251.133 148.905 247.206 154.051L248.453 154.955C252.531 149.914 256.676 144.927 260.877 140.004ZM257.165 137.339L255.413 136.197C251.671 141.483 247.999 146.817 244.401 152.195L245.692 153.038C249.443 147.758 253.27 142.525 257.165 137.339ZM253.3 134.899L251.492 133.846C248.079 139.363 244.739 144.923 241.473 150.521C241.936 150.748 242.382 151.001 242.823 151.266C246.244 145.768 249.736 140.312 253.3 134.899ZM249.292 132.699C248.676 132.372 248.054 132.059 247.417 131.777C244.352 137.492 241.362 143.243 238.45 149.03L239.852 149.674C242.921 143.978 246.068 138.32 249.292 132.699ZM245.155 130.741L243.22 129.951C240.513 135.84 237.886 141.761 235.337 147.711L236.768 148.289C239.487 142.41 242.284 136.551 245.155 130.741ZM240.906 129.067L238.933 128.379C236.596 134.419 234.337 140.484 232.154 146.594C232.649 146.736 233.128 146.928 233.615 147.091C235.968 141.054 238.399 135.046 240.906 129.067ZM236.558 127.651C235.889 127.462 235.227 127.239 234.549 127.08C232.583 133.262 230.699 139.465 228.896 145.689C229.395 145.813 229.9 145.919 230.389 146.078C232.366 139.913 234.422 133.771 236.558 127.651ZM232.139 126.493C231.464 126.315 230.778 126.202 230.096 126.062C228.514 132.348 227.016 138.649 225.598 144.967L227.114 145.261C228.711 138.974 230.383 132.728 232.139 126.493ZM227.66 125.601L225.593 125.298C224.4 131.667 223.289 138.048 222.262 144.437L223.791 144.659C224.997 138.293 226.286 131.939 227.66 125.601ZM223.13 125.007L221.049 124.811C220.248 131.244 219.532 137.694 218.898 144.143C219.413 144.156 219.925 144.205 220.437 144.26C221.251 137.834 222.149 131.416 223.13 125.007ZM218.568 124.686C217.872 124.646 217.177 124.62 216.479 124.629C216.077 131.102 215.757 137.575 215.523 144.048L217.065 144.054C217.481 137.596 217.982 131.14 218.568 124.686ZM214.009 124.319C213.31 124.334 212.611 124.378 211.911 124.408C211.906 130.891 211.983 137.369 212.146 143.842L213.696 143.765C213.716 137.288 213.82 130.792 214.009 124.319ZM209.438 124.877L207.355 125.077C207.752 131.546 208.232 137.993 208.799 144.46C209.307 144.386 209.821 144.356 210.332 144.299C209.948 137.832 209.651 131.357 209.438 124.877ZM204.892 125.406C204.203 125.512 203.511 125.595 202.825 125.724C203.622 132.161 204.505 138.584 205.469 144.991C205.973 144.891 206.476 144.783 206.986 144.723C206.204 138.299 205.507 131.858 204.892 125.406ZM200.379 126.207C199.693 126.33 199.017 126.502 198.34 126.67C199.536 133.043 200.814 139.395 202.177 145.726L203.671 145.354C202.488 138.979 201.394 132.608 200.379 126.207ZM195.932 127.269L193.929 127.874C195.517 134.156 197.187 140.414 198.937 146.645L200.411 146.197C198.837 139.911 197.344 133.603 195.932 127.269ZM191.589 128.643L189.62 129.346C191.593 135.515 193.644 141.654 195.783 147.781C196.255 147.58 196.749 147.431 197.229 147.251C195.269 141.079 193.388 134.874 191.589 128.643ZM187.299 130.267C186.659 130.541 186.008 130.792 185.375 131.085C187.732 137.129 190.164 143.139 192.674 149.111C193.137 148.888 193.6 148.661 194.078 148.478C191.742 142.442 189.482 136.371 187.299 130.267ZM183.126 132.147C182.491 132.436 181.875 132.758 181.265 133.092C183.988 138.977 186.785 144.825 189.658 150.631L191.015 149.894C188.308 144.016 185.68 138.101 183.126 132.147Z" fill="#CA4242"/>
<path d="M262.34 271.765C271.918 265.628 280.258 257.647 286.738 248.336C293.228 239.035 297.859 228.431 300.297 217.337C302.733 206.242 302.975 194.673 300.981 183.51C299 172.34 294.774 161.598 288.649 152.013C282.513 142.435 274.532 134.094 265.22 127.614C255.92 121.124 245.315 116.494 234.222 114.056C223.126 111.62 211.558 111.378 200.394 113.372C189.225 115.352 178.483 119.578 168.897 125.703C159.319 131.84 150.979 139.821 144.498 149.132C138.008 158.433 133.378 169.037 130.94 180.131C128.504 191.226 128.262 202.794 130.258 213.958C132.238 225.129 136.464 235.87 142.589 245.457C148.726 255.035 156.707 263.375 166.019 269.856C175.319 276.346 185.923 280.976 197.017 283.414C208.113 285.85 219.681 286.092 230.844 284.096C242.012 282.116 252.754 277.89 262.34 271.765L263.504 273.585C253.684 279.859 242.67 284.193 231.221 286.223C219.775 288.267 207.92 288.018 196.552 285.523C185.184 283.025 174.315 278.279 164.783 271.627C155.237 264.984 147.053 256.432 140.769 246.619C134.495 236.8 130.161 225.787 128.132 214.336C126.087 202.891 126.334 191.035 128.831 179.668C131.329 168.3 136.073 157.431 142.727 147.898C149.369 138.352 157.92 130.169 167.733 123.885C177.553 117.611 188.567 113.277 200.016 111.247C211.462 109.202 223.317 109.452 234.685 111.947C246.053 114.445 256.921 119.189 266.454 125.843C276 132.486 284.183 141.036 290.467 150.848C296.742 160.668 301.075 171.683 303.105 183.132C305.15 194.577 304.9 206.432 302.404 217.8C299.905 229.168 295.162 240.037 288.507 249.572C281.866 259.117 273.314 267.301 263.502 273.585L262.34 271.765Z" fill="#CA4242"/>
<path d="M270.878 288.895L272.623 287.836L262.34 271.765L260.903 272.63L270.878 288.895Z" fill="#CA4242"/>
<path d="M245.792 300.112L247.748 299.521L241.942 281.346L240.34 281.828L245.792 300.112Z" fill="#CA4242"/>
<path d="M218.641 304.473L220.683 304.378L219.785 285.32L218.112 285.4L218.641 304.473Z" fill="#CA4242"/>
<path d="M191.31 301.654C191.973 301.809 192.629 301.993 193.298 302.121L197.325 283.471C196.775 283.369 196.238 283.213 195.694 283.086L191.31 301.654Z" fill="#CA4242"/>
<path d="M165.606 291.937L167.419 292.88L176.099 275.89L174.614 275.117L165.606 291.937Z" fill="#CA4242"/>
<path d="M137.918 126.935L136.561 128.464L150.814 141.145L151.924 139.892L137.918 126.935Z" fill="#CA4242"/>
<path d="M159.048 109.364C158.459 109.704 157.913 110.113 157.344 110.483L167.854 126.407C168.322 126.103 168.766 125.759 169.254 125.485L159.048 109.364Z" fill="#CA4242"/>
<path d="M183.979 97.7979C183.327 97.9982 182.671 98.1796 182.032 98.4196L188.103 116.508C188.624 116.306 189.163 116.164 189.696 116L183.979 97.7979Z" fill="#CA4242"/>
<path d="M211.065 93.0654L209.023 93.1618L210.197 112.206L211.87 112.127L211.065 93.0654Z" fill="#CA4242"/>
<path d="M238.44 95.4505L236.437 95.0518L232.68 113.756L234.324 114.079L238.44 95.4505Z" fill="#CA4242"/>
<path d="M304.579 141.518L303.44 139.826L287.591 150.451L288.532 151.838L304.579 141.518Z" fill="#CA4242"/>
<path d="M316.332 166.36C316.149 165.704 315.898 165.069 315.675 164.425L297.632 170.627C297.813 171.155 298.025 171.673 298.17 172.211L316.332 166.36Z" fill="#CA4242"/>
<path d="M321.251 193.416L321.152 191.375L302.117 192.687L302.195 194.359L321.251 193.416Z" fill="#CA4242"/>
<path d="M319.055 220.806L319.448 218.801L300.715 215.178L300.396 216.822L319.055 220.806Z" fill="#CA4242"/>
<path d="M309.882 246.706C310.188 246.097 310.528 245.506 310.801 244.882L293.625 236.572C293.406 237.086 293.12 237.568 292.869 238.065L309.882 246.706Z" fill="#CA4242"/>
<path d="M294.336 269.387L295.691 267.856L281.252 255.383L280.143 256.636L294.336 269.387Z" fill="#CA4242"/>
<path d="M181.003 290.523C167.09 285.206 154.321 276.872 144.195 265.956L152.105 258.53C161.097 268.235 172.442 275.625 184.821 280.368L181.003 290.523Z" fill="#CA4242"/>
<path d="M297.475 120.607C303.386 126.837 308.589 133.737 312.978 141.126L296.057 151.15C292.417 145.021 288.108 139.31 283.232 134.169L297.475 120.607Z" fill="#CA4242"/>
<path d="M172.294 94.2196C183.726 89.3927 195.993 86.6373 208.365 85.8095C220.749 85.0025 233.245 86.3443 245.235 89.5231C257.192 92.8267 268.653 97.9824 278.93 104.935C289.19 111.898 298.36 120.493 305.797 130.432L301.993 133.309C294.87 123.785 286.089 115.559 276.265 108.889C266.423 102.231 255.444 97.2926 243.99 94.1251C232.501 91.0823 220.53 89.7934 208.667 90.5664C196.819 91.362 185.075 93.9947 174.127 98.6212L172.294 94.2196Z" fill="#CA4242"/>
<path d="M248.455 291.154C241.449 293.634 234.177 295.395 226.776 296.196C219.381 297.015 211.889 297.005 204.482 296.178L205.722 285.399C212.314 286.133 218.978 286.14 225.551 285.416C232.13 284.708 238.588 283.135 244.813 280.934L248.455 291.154Z" fill="#CA4242"/>
<path d="M260.798 285.78C249.122 291.871 236.255 295.551 223.137 296.548C210.021 297.578 196.682 295.847 184.209 291.635L185.076 289.063C197.208 293.158 210.18 294.844 222.933 293.84C235.688 292.869 248.192 289.293 259.545 283.37L260.798 285.78Z" fill="#CA4242"/>
<path d="M196.055 320.747C172.668 317.026 150.399 306.431 132.832 290.501L142.015 280.333C157.612 294.481 177.415 303.91 198.23 307.221L196.055 320.747Z" fill="#CA4242"/>
<path d="M217.337 317.168C207.309 317.272 197.259 316.2 187.524 313.771C182.639 312.634 177.867 311.056 173.168 309.309C170.847 308.363 168.498 307.478 166.24 306.382C165.106 305.845 163.949 305.359 162.836 304.781L159.499 303.044C158.374 302.487 157.302 301.835 156.218 301.205C155.14 300.565 154.04 299.96 152.98 299.291C150.894 297.902 148.736 296.613 146.736 295.097L143.693 292.884L140.756 290.533L139.29 289.356L137.882 288.108L135.066 285.614C127.739 278.759 121.281 270.99 115.838 262.57L118.726 260.724C124.016 268.905 130.286 276.448 137.4 283.104L140.135 285.525L141.501 286.736L142.926 287.878L145.776 290.161L148.73 292.308C150.671 293.782 152.767 295.029 154.793 296.381C155.823 297.031 156.89 297.617 157.936 298.238C158.988 298.849 160.028 299.486 161.12 300.024L164.359 301.71C165.44 302.271 166.565 302.742 167.665 303.264C169.855 304.329 172.138 305.186 174.393 306.108C178.957 307.803 183.589 309.338 188.337 310.441C197.792 312.8 207.555 313.84 217.292 313.739L217.337 317.168Z" fill="#CA4242"/>
<path d="M300.529 247.832C298.486 251.515 296.042 254.951 293.557 258.338L291.582 260.796C291.251 261.205 290.934 261.624 290.594 262.025L289.545 263.202L287.456 265.565L285.247 267.816C279.366 273.831 272.572 278.945 265.316 283.269L263.938 280.93C270.995 276.721 277.604 271.748 283.321 265.901L285.47 263.714L287.5 261.418L288.52 260.275C288.849 259.885 289.159 259.477 289.481 259.08L291.401 256.692C293.814 253.397 296.194 250.06 298.178 246.477L300.529 247.832Z" fill="#CA4242"/>
<path d="M303.598 242.142L301.464 246.239L299.087 244.927L301.162 240.943L303.598 242.142Z" fill="#CA4242"/>
<path d="M313.798 145.624C314.437 146.858 315.157 148.051 315.732 149.317L317.518 153.082C318.1 154.342 318.593 155.642 319.136 156.92L319.927 158.846L320.625 160.808C322.562 166.014 324.015 171.395 325.102 176.84C325.694 179.555 326.051 182.311 326.453 185.061C326.718 187.826 327.054 190.585 327.128 193.365C327.317 196.137 327.243 198.919 327.238 201.698L327.033 205.861C326.99 207.25 326.788 208.628 326.674 210.013C324.452 232.135 315.477 253.543 301.151 270.545L295.336 265.66C308.677 249.828 317.047 229.867 319.119 209.24C319.223 207.949 319.417 206.664 319.455 205.37L319.646 201.49C319.648 198.901 319.721 196.309 319.542 193.724C319.478 191.135 319.158 188.563 318.914 185.987C318.535 183.428 318.208 180.859 317.652 178.331C316.639 173.26 315.29 168.248 313.481 163.399L312.833 161.569L312.092 159.776C311.584 158.585 311.13 157.372 310.586 156.198L308.921 152.688C308.39 151.507 307.711 150.398 307.118 149.247L313.798 145.624Z" fill="#CA4242"/>
<path d="M345.118 218.432C342.667 234.532 337.199 250.166 329.048 264.285L319.591 258.829C327.06 245.891 332.076 231.552 334.325 216.786L345.118 218.432Z" fill="#CA4242"/>
<path d="M108.222 267.444C99.7098 254.094 93.6432 239.128 90.5664 223.559L101.277 221.435C104.087 235.662 109.626 249.328 117.418 261.559L108.222 267.444Z" fill="#CA4242"/>
<path d="M298.493 200.944C298.378 202.929 298.334 204.917 298.089 206.894L314.555 208.538C314.841 206.17 314.911 203.787 315.036 201.407L298.493 200.944ZM297.96 200.736L315.589 201.188C315.457 203.737 315.376 206.291 315.071 208.829L297.529 207.035C297.786 204.941 297.839 202.836 297.96 200.736Z" fill="#CA4242"/>
<path d="M298.324 192.747C298.385 194.732 298.562 196.711 298.5 198.699L315.048 198.714C315.11 196.331 314.919 193.953 314.831 191.574L298.324 192.747ZM297.765 192.592L315.352 191.3C315.471 193.847 315.651 196.395 315.592 198.948L297.957 198.892C298.014 196.786 297.85 194.69 297.765 192.592Z" fill="#CA4242"/>
<path d="M297.337 184.621C297.592 186.585 297.974 188.533 298.103 190.514L314.571 188.89C314.403 186.513 313.968 184.171 313.645 181.814L297.337 184.621ZM296.761 184.525L314.133 181.493C314.507 184.014 314.945 186.53 315.132 189.075L297.579 190.763C297.434 188.665 297.057 186.598 296.761 184.525Z" fill="#CA4242"/>
<path d="M295.547 176.645L296.265 179.525C296.38 180.007 296.522 180.481 296.62 180.967L296.898 182.426L313.123 179.175L312.783 177.423C312.664 176.841 312.499 176.269 312.361 175.69C312.067 174.537 311.804 173.377 311.494 172.23L295.547 176.645ZM294.965 176.605L311.948 171.859C312.303 173.084 312.567 174.331 312.887 175.564C313.223 176.794 313.458 178.047 313.698 179.3L296.399 182.723C296.205 181.693 296.018 180.661 295.734 179.651C295.466 178.638 295.258 177.61 294.965 176.605Z" fill="#CA4242"/>
<path d="M225.237 306.764C224.591 306.823 223.944 306.898 223.298 306.944L221.351 307.035C220.053 307.078 218.758 307.199 217.458 307.182L217.723 323.726C219.219 323.739 220.714 323.611 222.209 323.558L224.453 323.45C225.199 323.399 225.944 323.314 226.688 323.248L225.237 306.764ZM225.443 306.199L227.032 323.76L224.64 323.985L222.24 324.1C220.639 324.153 219.04 324.305 217.437 324.269L217.197 306.638C218.575 306.675 219.949 306.532 221.325 306.492L223.389 306.396L225.443 306.199Z" fill="#CA4242"/>
<path d="M235.858 305.293L233.947 305.669L232.02 305.949C230.733 306.123 229.453 306.351 228.162 306.486L230.062 322.922C231.551 322.765 233.029 322.51 234.512 322.306L236.735 321.979L238.94 321.55L235.858 305.293ZM236.005 304.711L239.332 322.026L236.971 322.486L234.594 322.843C233.006 323.056 231.426 323.345 229.829 323.489L227.847 305.97C229.219 305.851 230.574 305.592 231.938 305.412L233.981 305.11L236.005 304.711Z" fill="#CA4242"/>
<path d="M246.276 302.771L244.412 303.334L242.524 303.809C241.262 304.111 240.009 304.453 238.741 304.729L242.265 320.895C243.728 320.578 245.176 320.19 246.633 319.837L248.812 319.287L250.965 318.641L246.276 302.771ZM246.366 302.178L251.399 319.077L249.095 319.769C248.326 319.992 247.542 320.164 246.765 320.364C245.206 320.737 243.66 321.168 242.09 321.485L238.374 304.249C239.723 303.981 241.048 303.601 242.388 303.285C243.055 303.113 243.728 302.97 244.39 302.777L246.366 302.178Z" fill="#CA4242"/>
<path d="M256.394 299.228L254.595 299.974L252.762 300.632C251.537 301.059 250.322 301.52 249.088 301.927L254.204 317.662C255.627 317.195 257.029 316.67 258.443 316.173L260.556 315.409L262.633 314.553L256.394 299.228ZM256.424 298.627L263.113 314.943L260.89 315.859C260.146 316.156 259.384 316.407 258.632 316.683C257.118 317.209 255.621 317.789 254.09 318.265L248.678 301.484C249.993 301.078 251.274 300.572 252.577 300.124C253.223 299.888 253.879 299.676 254.518 299.421L256.424 298.627Z" fill="#CA4242"/>
<path d="M276.498 127.41L279.016 129.64L284.613 123.547L281.873 121.118L276.498 127.41ZM276.239 127.542L281.958 120.833L284.887 123.428L278.913 129.912L276.239 127.542Z" fill="#CA4242"/>
<path d="M272.906 124.49L275.529 126.591L280.817 120.228L277.959 117.939L272.906 124.49ZM272.654 124.635L278.031 117.648L281.085 120.094L275.442 126.867L272.654 124.635Z" fill="#CA4242"/>
<path d="M269.172 121.754L271.897 123.725L276.862 117.107L273.894 114.96L269.172 121.754ZM268.928 121.911L273.951 114.665L277.122 116.959L271.825 124.007L268.928 121.911Z" fill="#CA4242"/>
<path d="M265.305 119.204L268.122 121.039L272.751 114.18L269.682 112.181L265.305 119.204ZM265.07 119.374L269.727 111.888L273.006 114.023L268.066 121.326L265.07 119.374Z" fill="#CA4242"/>
<path d="M260.515 116.412C261.513 116.928 262.456 117.537 263.433 118.088L267.646 110.967C266.583 110.364 265.553 109.707 264.469 109.143L260.515 116.412ZM260.288 116.599L264.491 108.849C265.654 109.442 266.752 110.153 267.887 110.793L263.389 118.376C262.35 117.794 261.352 117.14 260.288 116.599Z" fill="#CA4242"/>
<path d="M256.387 114.298C257.415 114.754 258.383 115.326 259.386 115.827L263.242 108.506C262.149 107.958 261.093 107.342 259.976 106.843L256.387 114.298ZM256.168 114.497L259.982 106.548C261.178 107.073 262.304 107.737 263.472 108.321L259.356 116.116C258.29 115.587 257.264 114.975 256.168 114.497Z" fill="#CA4242"/>
<path d="M252.157 112.394C253.212 112.787 254.202 113.322 255.232 113.772L258.719 106.269C257.6 105.778 256.519 105.203 255.374 104.77L252.157 112.394ZM251.949 112.602L255.366 104.476C256.593 104.931 257.746 105.549 258.942 106.073L255.217 114.063C254.123 113.587 253.072 113.014 251.949 112.602Z" fill="#CA4242"/>
<path d="M247.837 110.697C248.913 111.033 249.929 111.517 250.978 111.92L254.091 104.254C252.949 103.816 251.84 103.294 250.674 102.924L247.837 110.697ZM247.641 110.916L250.653 102.631C251.899 103.028 253.087 103.576 254.304 104.048L250.978 112.213C249.863 111.784 248.78 111.275 247.641 110.916Z" fill="#CA4242"/>
<path d="M242.56 108.957C243.641 109.267 244.72 109.581 245.773 109.978L248.428 102.142C247.283 101.713 246.11 101.37 244.934 101.031L242.56 108.957ZM242.377 109.186L244.896 100.738C246.151 101.099 247.406 101.47 248.631 101.927L245.79 110.273C244.671 109.851 243.526 109.515 242.377 109.186Z" fill="#CA4242"/>
<path d="M238.081 107.735C239.173 108.002 240.272 108.247 241.341 108.595L243.607 100.637C242.443 100.261 241.249 99.9904 240.062 99.7013L238.081 107.735ZM237.907 107.973L240.009 99.4121C241.279 99.7202 242.553 100.013 243.798 100.414L241.373 108.89C240.236 108.518 239.07 108.255 237.907 107.973Z" fill="#CA4242"/>
<path d="M233.545 106.735C234.647 106.956 235.76 107.132 236.845 107.433L238.718 99.3741C237.537 99.0528 236.329 98.8563 235.129 98.6162L233.545 106.735ZM233.385 106.981L235.063 98.3252C236.344 98.5803 237.635 98.7939 238.896 99.1379L236.891 107.724C235.738 107.404 234.557 107.213 233.385 106.981Z" fill="#CA4242"/>
<path d="M228.966 105.959C230.075 106.134 231.198 106.24 232.296 106.49L233.77 98.3481C232.576 98.0816 231.357 97.9587 230.147 97.7698L228.966 105.959ZM228.82 106.212L230.07 97.4844C231.36 97.6847 232.662 97.8208 233.938 98.1061L232.356 106.779C231.19 106.514 230 106.395 228.82 106.212Z" fill="#CA4242"/>
<path d="M223.447 105.318L226.803 105.64L227.795 97.426L224.144 97.0745L223.447 105.318ZM223.314 105.577L224.048 96.791L227.947 97.1709L226.879 105.923L223.314 105.577Z" fill="#CA4242"/>
<path d="M218.815 105.038L222.181 105.201L222.769 96.9477L219.106 96.77L218.815 105.038ZM218.696 105.303L218.997 96.4922L222.911 96.6812L222.274 105.475L218.696 105.303Z" fill="#CA4242"/>
<path d="M214.177 104.988L217.547 104.99L217.727 96.7174L214.06 96.7155L214.177 104.988ZM214.072 105.258L213.936 96.4434L217.853 96.4452L217.651 105.26L214.072 105.258Z" fill="#CA4242"/>
<path d="M209.543 105.165L212.905 105.004L212.675 96.7339L209.014 96.9077L209.543 105.165ZM209.451 105.441L208.878 96.6432L212.79 96.4561L213.024 105.269L209.451 105.441Z" fill="#CA4242"/>
<path d="M152.823 315.658C151.4 314.949 150.043 314.115 148.668 313.322L144.498 320.467C145.961 321.312 147.405 322.193 148.915 322.949L152.823 315.658ZM153.09 315.491L148.934 323.266C147.322 322.459 145.778 321.522 144.217 320.619L148.668 313.01C150.13 313.856 151.576 314.737 153.09 315.491Z" fill="#CA4242"/>
<path d="M158.686 318.613C157.23 317.972 155.83 317.22 154.418 316.489L150.608 323.833C152.107 324.61 153.598 325.407 155.142 326.089L158.686 318.613ZM158.943 318.435L155.178 326.405C153.53 325.675 151.937 324.829 150.336 323.997L154.403 316.177C155.904 316.957 157.395 317.753 158.943 318.435Z" fill="#CA4242"/>
<path d="M164.685 321.276C163.201 320.706 161.759 320.035 160.317 319.368L156.876 326.891C158.409 327.602 159.941 328.311 161.516 328.919L164.685 321.276ZM164.933 321.085L161.565 329.233C159.885 328.583 158.246 327.829 156.611 327.069L160.287 319.058C161.822 319.768 163.356 320.477 164.933 321.085Z" fill="#CA4242"/>
<path d="M170.806 323.639C170.058 323.371 169.304 323.125 168.563 322.838L166.352 321.95L163.286 329.634L165.636 330.575C166.422 330.879 167.223 331.142 168.019 331.427L170.806 323.639ZM171.046 323.435L168.085 331.737C167.236 331.435 166.38 331.152 165.541 330.828L163.033 329.823L166.31 321.64L168.661 322.585C169.448 322.889 170.251 323.152 171.046 323.435Z" fill="#CA4242"/>
<path d="M178.275 326.063C176.757 325.592 175.215 325.207 173.724 324.655L171.116 332.507C172.7 333.091 174.338 333.505 175.95 334.004L178.275 326.063ZM178.5 325.847L176.032 334.31C174.31 333.781 172.564 333.331 170.872 332.71L173.66 324.347C175.245 324.933 176.886 325.348 178.5 325.847Z" fill="#CA4242"/>
<path d="M184.613 327.753C183.075 327.358 181.518 327.037 179.998 326.572L177.779 334.542C179.393 335.033 181.047 335.379 182.682 335.796L184.613 327.753ZM184.827 327.526L182.778 336.099C181.034 335.651 179.269 335.286 177.547 334.755L179.921 326.266C181.535 326.768 183.192 327.105 184.827 327.526Z" fill="#CA4242"/>
<path d="M191.026 329.127C189.471 328.81 187.902 328.551 186.358 328.176L184.535 336.246C186.173 336.643 187.838 336.921 189.492 337.257L191.026 329.127ZM191.231 328.891L189.605 337.554C187.842 337.195 186.062 336.904 184.313 336.471L186.266 327.876C187.906 328.284 189.577 328.553 191.231 328.891Z" fill="#CA4242"/>
<path d="M197.501 330.187C195.93 329.949 194.354 329.754 192.791 329.469L191.366 337.618C193.025 337.918 194.7 338.13 196.367 338.381L197.501 330.187ZM197.692 329.941L196.495 338.674C194.715 338.404 192.927 338.187 191.156 337.854L192.685 329.172C194.345 329.484 196.023 329.684 197.692 329.941Z" fill="#CA4242"/>
<path d="M205.306 331.048L200.562 330.587L199.619 338.806L204.658 339.296L205.306 331.048ZM205.482 330.793L204.802 339.581L199.423 339.06L200.438 330.304L205.482 330.793Z" fill="#CA4242"/>
<path d="M211.859 331.404L207.098 331.171L206.561 339.428L211.617 339.674L211.859 331.404ZM212.023 331.141L211.777 339.952L206.378 339.689L206.96 330.894L212.023 331.141Z" fill="#CA4242"/>
<path d="M218.422 331.436L213.656 331.434L213.527 339.706L218.592 339.708L218.422 331.436ZM218.573 331.166L218.762 339.979L213.354 339.977L213.501 331.162L218.573 331.166Z" fill="#CA4242"/>
<path d="M224.984 331.142L220.219 331.371L220.499 339.639L225.56 339.395L224.984 331.142ZM225.12 330.864L225.745 339.658L220.342 339.919L220.055 331.108L225.12 330.864Z" fill="#CA4242"/>
<path d="M232.802 330.345C231.232 330.604 229.64 330.687 228.06 330.861L228.83 339.099C230.51 338.916 232.199 338.821 233.868 338.549L232.802 330.345ZM232.923 330.056L234.07 338.796C232.288 339.088 230.485 339.195 228.692 339.386L227.883 330.608C229.561 330.426 231.253 330.33 232.923 330.056Z" fill="#CA4242"/>
<path d="M239.294 329.336C237.739 329.672 236.155 329.842 234.584 330.088L235.762 338.277C237.431 338.016 239.113 337.829 240.768 337.476L239.294 329.336ZM239.4 329.039L240.98 337.712C239.213 338.088 237.419 338.294 235.635 338.57L234.39 329.842C236.062 329.583 237.744 329.396 239.4 329.039Z" fill="#CA4242"/>
<path d="M245.729 328.004C244.191 328.416 242.619 328.671 241.061 328.992L242.645 337.113C244.301 336.773 245.971 336.497 247.606 336.062L245.729 328.004ZM245.818 327.703L247.827 336.285C246.081 336.748 244.301 337.049 242.532 337.41L240.854 328.756C242.513 328.418 244.184 328.14 245.818 327.703Z" fill="#CA4242"/>
<path d="M252.088 326.354C250.573 326.842 249.015 327.178 247.475 327.573L249.461 335.605C251.1 335.186 252.752 334.823 254.364 334.309L252.088 326.354ZM252.164 326.048L254.598 334.52C252.878 335.068 251.115 335.463 249.365 335.907L247.258 327.348C248.898 326.93 250.552 326.566 252.164 326.048Z" fill="#CA4242"/>
<path d="M90.2051 133.441C92.8585 128.206 95.9788 123.218 99.254 118.35L101.832 114.778L103.13 113L104.502 111.276L107.262 107.842C108.214 106.725 109.197 105.633 110.168 104.531C112.077 102.297 114.18 100.245 116.229 98.1411C117.24 97.0752 118.359 96.1227 119.423 95.1116C120.508 94.1251 121.564 93.1026 122.681 92.1539L126.057 89.3323L127.752 87.9318L129.504 86.6051L133.017 83.9668C134.202 83.1088 135.427 82.3112 136.634 81.4854L137.574 82.8801C136.381 83.6965 135.17 84.4846 133.998 85.3332L130.526 87.9394L128.795 89.2491L127.119 90.6325L123.785 93.4201C122.679 94.3575 121.638 95.3686 120.566 96.3438C119.516 97.3417 118.41 98.2829 117.41 99.3355C115.386 101.414 113.307 103.44 111.421 105.648C110.463 106.736 109.49 107.814 108.549 108.917L105.823 112.312L104.468 114.014L103.187 115.772L100.641 119.301C97.4056 124.112 94.3213 129.039 91.7 134.212L90.2051 133.441Z" fill="#CA4242"/>
<path d="M125.095 83.3013L126.115 82.5283L133.597 92.2576L132.66 92.9663L125.095 83.3013Z" fill="#CA4242"/>
<path d="M121.892 85.9071L122.878 85.0869L130.629 94.6026L129.727 95.3548L121.892 85.9071Z" fill="#CA4242"/>
<path d="M118.728 88.5612L119.706 87.7354L127.723 97.0299L126.824 97.7859L118.728 88.5612Z" fill="#CA4242"/>
<path d="M115.681 91.3585L116.624 90.4873L124.9 99.5532L124.034 100.351L115.681 91.3585Z" fill="#CA4242"/>
<path d="M112.678 94.2013C112.98 93.897 113.275 93.5852 113.592 93.2998L122.12 102.128C121.827 102.388 121.558 102.676 121.282 102.953L112.678 94.2013Z" fill="#CA4242"/>
<path d="M109.781 97.1529L110.677 96.2363L119.452 104.818L118.63 105.658L109.781 97.1529Z" fill="#CA4242"/>
<path d="M87.4424 127.347L88.0849 126.235L98.7591 132.294L98.1695 133.311L87.4424 127.347Z" fill="#CA4242"/>
<path d="M85.5049 131L86.0983 129.862L96.9407 135.617L96.3964 136.658L85.5049 131Z" fill="#CA4242"/>
<path d="M199.997 61.9429C222.708 59.3896 246.005 62.5042 267.163 71.1033L266.533 72.6624C245.635 64.1673 222.619 61.0924 200.186 63.6136L199.997 61.9429Z" fill="#CA4242"/>
<path d="M259.435 62.6455L260.616 63.0481L256.757 74.6993L255.68 74.3289L259.435 62.6455Z" fill="#CA4242"/>
<path d="M255.58 61.4971L256.778 61.8505L253.247 73.6057L252.151 73.2825L255.58 61.4971Z" fill="#CA4242"/>
<path d="M251.705 60.416L252.918 60.7184L249.719 72.5681L248.609 72.2941L251.705 60.416Z" fill="#CA4242"/>
<path d="M247.799 59.46L249.013 59.7548L246.146 71.6896L245.036 71.4174L247.799 59.46Z" fill="#CA4242"/>
<path d="M243.868 58.6172L245.095 58.8572L242.562 70.8676L241.441 70.6483L243.868 58.6172Z" fill="#CA4242"/>
<path d="M239.92 57.8535L241.145 58.0879L238.953 70.1644L237.83 69.947L239.92 57.8535Z" fill="#CA4242"/>
<path d="M203.411 56.292L204.657 56.1768L205.588 68.4139L204.451 68.5216L203.411 56.292Z" fill="#CA4242"/>
<path d="M199.398 56.6805L200.644 56.5576L201.921 68.7664L200.784 68.876L199.398 56.6805Z" fill="#CA4242"/>
<path d="M290.97 307.627C288.906 309.021 286.861 310.448 284.705 311.699L275.643 296.89C277.525 295.807 279.298 294.556 281.099 293.345L290.97 307.627Z" fill="#CA4242"/>
<path d="M286.82 289.151L285.875 289.862L296.46 303.624L297.545 302.806L286.82 289.151ZM283.515 291.639C283.04 291.99 282.577 292.362 282.08 292.682L292.097 306.864C292.665 306.493 293.2 306.07 293.746 305.665L283.515 291.639Z" fill="#CA4242"/>
<path d="M299.877 277.174L299.05 278.019L311.625 289.989L312.576 289.014L299.877 277.174ZM296.982 280.13C296.564 280.547 296.164 280.984 295.733 281.388L307.804 293.869C308.301 293.404 308.764 292.904 309.246 292.422L296.982 280.13ZM294.864 282.19L292.257 284.597C291.401 285.414 290.456 286.128 289.559 286.899L300.7 300.216C301.733 299.331 302.812 298.5 303.803 297.564L306.804 294.793L294.864 282.19Z" fill="#CA4242"/>
<path d="M320.072 280.188C318.505 282.134 316.982 284.119 315.291 285.958L302.229 274.518C303.704 272.925 305.015 271.196 306.382 269.51L320.072 280.188Z" fill="#CA4242"/>
<path d="M347.764 207.712C347.658 209.377 347.461 211.034 347.31 212.695L335.765 211.465C335.901 209.949 336.084 208.436 336.18 206.916L347.764 207.712Z" fill="#CA4242"/>
<path d="M336.425 201.943L336.385 202.773L347.989 203.172L348.033 202.263L336.425 201.943ZM336.283 204.844L336.223 206.088L347.812 206.804L347.88 205.442L336.283 204.844Z" fill="#CA4242"/>
<path d="M336.122 189.5C336.149 189.774 336.177 190.05 336.184 190.326L347.768 189.528C347.758 189.226 347.728 188.925 347.7 188.623L336.122 189.5ZM336.283 192.399L336.341 193.643L347.942 193.164L347.877 191.802L336.283 192.399ZM336.381 194.472C336.496 196.13 336.423 197.793 336.441 199.452L348.051 199.532C348.032 197.712 348.104 195.892 347.983 194.074L336.381 194.472Z" fill="#CA4242"/>
<path d="M346.87 180.928C347.138 182.578 347.28 184.243 347.441 185.904L335.884 187.021C335.738 185.505 335.614 183.986 335.364 182.483L346.87 180.928Z" fill="#CA4242"/>
<path d="M345.694 173.763L346.172 176.223L346.546 178.701L335.067 180.451L334.73 178.191L334.292 175.949L345.694 173.763Z" fill="#CA4242"/>
<path d="M333.258 171.076L333.456 171.883L344.777 169.303L344.559 168.417L333.258 171.076ZM333.891 173.913L334.131 175.136L345.518 172.872L345.253 171.532L333.891 173.913Z" fill="#CA4242"/>
<path d="M329.779 159.126L330.057 159.909L341.049 156.171L340.745 155.312L329.779 159.126ZM330.715 161.874L331.074 163.067L342.166 159.633L341.769 158.325L330.715 161.874ZM331.316 163.862C331.796 165.452 332.293 167.039 332.661 168.659L343.906 165.767C343.498 163.991 342.958 162.25 342.43 160.506L331.316 163.862Z" fill="#CA4242"/>
<path d="M337.985 148.079C338.613 149.627 339.295 151.152 339.828 152.736L328.944 156.776C328.464 155.329 327.834 153.942 327.264 152.53L337.985 148.079Z" fill="#CA4242"/>
<path d="M106.84 274.26L104.045 270.117L113.825 263.859L116.382 267.643L106.84 274.26Z" fill="#CA4242"/>
<path d="M119.308 271.671L118.809 271.008L109.499 277.946L110.046 278.674L119.308 271.671ZM117.562 269.349C117.305 269.022 117.082 268.672 116.847 268.33L107.351 275.011C107.608 275.385 107.853 275.767 108.133 276.126L117.562 269.349Z" fill="#CA4242"/>
<path d="M127.308 281.2L126.744 280.591L118.196 288.448L118.814 289.117L127.308 281.2ZM125.336 279.066C125.049 278.766 124.775 278.454 124.514 278.131L115.753 285.749C116.04 286.102 116.34 286.444 116.654 286.775L125.336 279.066ZM123.983 277.496C122.925 276.216 121.842 274.956 120.804 273.661L111.688 280.848C112.823 282.27 114.006 283.653 115.169 285.053L123.983 277.496Z" fill="#CA4242"/>
<path d="M124.247 294.628L120.67 291.118L128.999 283.029L132.263 286.229L124.247 294.628Z" fill="#CA4242"/>
<path d="M164.224 94.1136L168.208 92.2256L172.942 102.824L169.355 104.527L164.224 94.1136Z" fill="#CA4242"/>
<path d="M165.518 106.531L166.155 106.189L160.671 95.9567L159.964 96.3366L165.518 106.531ZM167.743 105.333C168.062 105.164 168.372 104.979 168.703 104.836L163.5 94.458C163.133 94.6205 162.787 94.8228 162.434 95.0099L167.743 105.333Z" fill="#CA4242"/>
<path d="M156.287 112.187L156.885 111.782L150.391 102.161L149.728 102.609L156.287 112.187ZM158.38 110.769C158.682 110.573 158.969 110.35 159.285 110.172L153.054 100.378C152.706 100.577 152.385 100.821 152.05 101.038L158.38 110.769ZM159.903 109.8L163.611 107.554L157.85 97.4756L153.738 99.9627L159.903 109.8Z" fill="#CA4242"/>
<path d="M144.221 106.608L147.742 103.958L154.492 113.402L151.321 115.791L144.221 106.608Z" fill="#CA4242"/>
<path d="M141.719 108.6C142.828 107.637 144.007 106.76 145.185 105.881L152.191 115.138C151.129 115.929 150.063 116.716 149.067 117.589L141.719 108.6Z" fill="#CA4242"/>
<path d="M145.766 120.381C145.944 120.22 146.114 120.05 146.297 119.895L138.645 111.168C138.441 111.341 138.25 111.527 138.054 111.706L145.766 120.381ZM147.685 118.742L148.514 118.049L141.104 109.113L140.182 109.882L147.685 118.742Z" fill="#CA4242"/>
<path d="M138.081 127.971L138.557 127.431L130.043 119.541L129.512 120.14L138.081 127.971ZM139.808 126.136L140.564 125.363L132.271 117.24L131.43 118.098L139.808 126.136ZM141.069 124.851C141.577 124.341 142.064 123.808 142.59 123.315L144.181 121.85L136.291 113.336L134.526 114.967C133.942 115.515 133.399 116.105 132.832 116.672L141.069 124.851Z" fill="#CA4242"/>
<path d="M125.076 125.307L126.456 123.589L127.917 121.939L136.646 129.592L135.331 131.073L134.091 132.619L125.076 125.307Z" fill="#CA4242"/>
<path d="M123.077 127.805L125.833 124.365L134.77 131.772L132.29 134.866L123.077 127.805Z" fill="#CA4242"/>
<path d="M129.745 138.361L130.168 137.777L120.715 131.039L120.244 131.689L129.745 138.361ZM131.225 136.316L131.856 135.439L122.593 128.442L121.888 129.416L131.225 136.316Z" fill="#CA4242"/>
<path d="M123.989 147.505L124.354 146.883L114.254 141.158L113.85 141.85L123.989 147.505ZM125.263 145.328L125.807 144.394L115.87 138.394L115.265 139.431L125.263 145.328ZM126.17 143.768L128.519 140.138L118.884 133.663C118.015 135.009 117.125 136.341 116.274 137.698L126.17 143.768Z" fill="#CA4242"/>
<path d="M110.713 147.891C111.337 146.563 112.055 145.279 112.72 143.97L122.973 149.415C122.376 150.594 121.725 151.747 121.164 152.945L110.713 147.891Z" fill="#CA4242"/>
<path d="M109.373 150.797C109.999 149.469 110.577 148.115 111.242 146.806L121.64 151.967C121.039 153.146 120.524 154.367 119.958 155.563L109.373 150.797Z" fill="#CA4242"/>
<path d="M118.269 159.542L118.539 158.873L107.797 154.474L107.496 155.216L118.269 159.542ZM119.212 157.201C119.346 156.866 119.51 156.545 119.658 156.216L109.04 151.523C108.876 151.888 108.696 152.247 108.547 152.618L119.212 157.201Z" fill="#CA4242"/>
<path d="M114.755 169.769L114.959 169.08L103.822 165.804L103.595 166.572L114.755 169.769ZM115.471 167.348C115.577 167.003 115.666 166.653 115.785 166.313L104.742 162.733C104.61 163.111 104.509 163.501 104.392 163.882L115.471 167.348ZM116.023 165.632L117.455 161.546L106.596 157.443L105.005 161.977L116.023 165.632Z" fill="#CA4242"/>
<path d="M101.895 173.162L102.943 168.882L114.166 171.853L113.221 175.71L101.895 173.162Z" fill="#CA4242"/>
<path d="M303.841 89.7324L305.908 91.3956L307.902 93.1494L300.259 101.886L298.434 100.278L296.536 98.7548L303.841 89.7324Z" fill="#CA4242"/>
<path d="M292.35 95.4969L293.068 96.0166L300.057 86.7466L299.274 86.1777L292.35 95.4969ZM294.81 97.3735L295.846 98.2032L303.088 89.1298L301.958 88.2264L294.81 97.3735Z" fill="#CA4242"/>
<path d="M281.314 88.1602L282.076 88.6062L288.067 78.6634L287.236 78.1758L281.314 88.1602ZM283.962 89.7571L285.075 90.4791L291.338 80.7045L290.125 79.9183L283.962 89.7571ZM285.814 90.961C287.3 91.9211 288.785 92.8812 290.201 93.9414L296.929 84.4824C295.381 83.3277 293.765 82.2769 292.144 81.2299L285.814 90.961Z" fill="#CA4242"/>
<path d="M280.069 74.2051C281.63 75.0366 283.225 75.8002 284.739 76.7187L279.024 86.824C277.638 85.9792 276.172 85.2837 274.741 84.5202L280.069 74.2051Z" fill="#CA4242"/>
<path d="M306.724 234.467C306.167 235.781 305.702 237.134 305.086 238.419L292.814 232.991C293.353 231.884 293.742 230.71 294.228 229.578L306.724 234.467Z" fill="#CA4242"/>
<path d="M295.608 225.795L295.385 226.428L308.064 230.816L308.321 230.083L295.608 225.795ZM294.835 228.016C294.731 228.335 294.619 228.652 294.483 228.959L307.017 233.746C307.172 233.389 307.303 233.022 307.425 232.653L294.835 228.016Z" fill="#CA4242"/>
<path d="M298.263 216.074L298.138 216.736L311.247 219.595L311.392 218.83L298.263 216.074ZM297.738 218.369L297.498 219.348L310.51 222.621L310.788 221.487L297.738 218.369ZM297.341 220.001C297.048 221.315 296.585 222.581 296.233 223.88L309.045 227.865C309.459 226.365 309.979 224.894 310.326 223.377L297.341 220.001Z" fill="#CA4242"/>
<path d="M312.524 212.315C312.309 213.725 312.15 215.146 311.84 216.541L298.648 214.096C298.924 212.892 299.051 211.663 299.24 210.446L312.524 212.315Z" fill="#CA4242"/>
<path d="M267.11 332.849L263.126 334.28L260.879 327.884L264.676 326.523L267.11 332.849Z" fill="#CA4242"/>
<path d="M274.902 329.56C273.639 330.184 272.32 330.689 271.022 331.24L268.4 324.99C269.636 324.465 270.895 323.987 272.097 323.392L274.902 329.56Z" fill="#CA4242"/>
<path d="M273.643 337.489L269.544 339.173L267.109 332.848L271.021 331.237L273.643 337.489Z" fill="#CA4242"/>
<path d="M282.482 325.83C281.244 326.499 280.005 327.164 278.721 327.75L275.737 321.664C276.96 321.107 278.141 320.472 279.322 319.833L282.482 325.83Z" fill="#CA4242"/>
<path d="M281.706 333.835L277.707 335.73L274.902 329.56L278.722 327.749L281.706 333.835Z" fill="#CA4242"/>
<path d="M289.823 321.677C288.615 322.395 287.43 323.147 286.198 323.826L282.864 317.926C284.038 317.279 285.168 316.559 286.319 315.875L289.823 321.677Z" fill="#CA4242"/>
<path d="M289.532 329.726L285.644 331.823L282.482 325.828L286.198 323.825L289.532 329.726Z" fill="#CA4242"/>
<path d="M296.908 317.115L293.411 319.472L289.741 313.773L293.073 311.526L296.908 317.115Z" fill="#CA4242"/>
<path d="M297.084 325.169C295.852 325.97 294.582 326.711 293.329 327.478L289.825 321.676C291.023 320.943 292.237 320.236 293.414 319.471L297.084 325.169Z" fill="#CA4242"/>
<path d="M303.729 312.153L300.356 314.689L296.36 309.214L299.575 306.795L303.729 312.153Z" fill="#CA4242"/>
<path d="M304.351 320.164C303.185 321.067 301.958 321.876 300.743 322.704L296.908 317.115C298.07 316.325 299.242 315.552 300.355 314.688L304.351 320.164Z" fill="#CA4242"/>
<path d="M310.262 306.794L307.023 309.508L302.714 304.275L305.802 301.691L310.262 306.794Z" fill="#CA4242"/>
<path d="M311.33 314.74C310.196 315.683 309.069 316.637 307.881 317.509L303.727 312.153C304.862 311.323 305.938 310.41 307.021 309.509L311.33 314.74Z" fill="#CA4242"/>
<path d="M326.126 129.474L328.069 132.686L322.348 136.051L320.504 132.998L326.126 129.474Z" fill="#CA4242"/>
<path d="M321.974 123.225L324.078 126.332L318.557 130.015L316.56 127.061L321.974 123.225Z" fill="#CA4242"/>
<path d="M329.6 122.649C330.327 123.742 331.089 124.813 331.748 125.947L326.126 129.472C325.498 128.389 324.771 127.372 324.079 126.331L329.6 122.649Z" fill="#CA4242"/>
<path d="M317.455 117.225C318.244 118.198 318.975 119.215 319.735 120.211L314.433 124.202C313.712 123.257 313.02 122.29 312.27 121.367L317.455 117.225Z" fill="#CA4242"/>
<path d="M325.038 116.217C325.822 117.273 326.633 118.311 327.389 119.386L321.974 123.225C321.256 122.2 320.481 121.214 319.736 120.208L325.038 116.217Z" fill="#CA4242"/>
<path d="M312.587 111.498C313.454 112.405 314.246 113.377 315.049 114.337L309.984 118.625C309.221 117.712 308.472 116.79 307.646 115.93L312.587 111.498Z" fill="#CA4242"/>
<path d="M320.114 110.049L322.641 113.082L317.455 117.225L315.049 114.337L320.114 110.049Z" fill="#CA4242"/>
<path d="M314.841 104.16L317.525 107.065L312.586 111.499L310.033 108.736L314.841 104.16Z" fill="#CA4242"/>
<path d="M106.334 180.718C106.491 179.643 106.737 178.582 106.933 177.513L113.586 178.813C113.402 179.816 113.168 180.812 113.022 181.822L106.334 180.718Z" fill="#CA4242"/>
<path d="M105.478 187.181L105.633 185.557L105.865 183.943L112.582 184.852L112.362 186.368L112.217 187.893L105.478 187.181Z" fill="#CA4242"/>
<path d="M99.1484 183.036L99.6474 179.613L106.334 180.717L105.865 183.943L99.1484 183.036Z" fill="#CA4242"/>
<path d="M104.985 193.682C105.046 192.597 105.076 191.511 105.159 190.428L111.918 190.942C111.838 191.959 111.814 192.979 111.755 193.998L104.985 193.682Z" fill="#CA4242"/>
<path d="M98.4014 189.915L98.7359 186.472L105.477 187.182L105.16 190.429L98.4014 189.915Z" fill="#CA4242"/>
<path d="M104.865 200.199L104.867 196.938L111.644 197.056L111.642 200.115L104.865 200.199Z" fill="#CA4242"/>
<path d="M98.0914 196.822C98.0669 195.669 98.1765 194.518 98.2162 193.367L104.986 193.683C104.948 194.769 104.84 195.852 104.867 196.939L98.0914 196.822Z" fill="#CA4242"/>
<path d="M105.115 206.714L104.962 203.457L111.733 203.176L111.875 206.232L105.115 206.714Z" fill="#CA4242"/>
<path d="M98.19 203.74C98.1352 202.587 98.0634 201.436 98.088 200.283L104.865 200.2C104.841 201.287 104.911 202.372 104.962 203.458L98.19 203.74Z" fill="#CA4242"/>
<path d="M105.792 213.196C105.61 212.124 105.534 211.04 105.427 209.959L112.17 209.276C112.272 210.291 112.338 211.31 112.512 212.315L105.792 213.196Z" fill="#CA4242"/>
<path d="M98.6833 210.639L98.3545 207.196L105.115 206.714L105.425 209.959L98.6833 210.639Z" fill="#CA4242"/>
<path d="M106.838 219.627C106.638 218.559 106.39 217.501 106.26 216.422L112.952 215.343C113.071 216.356 113.309 217.35 113.496 218.352L106.838 219.627Z" fill="#CA4242"/>
<path d="M99.5692 217.499L99.0703 214.074L105.791 213.195L106.26 216.42L99.5692 217.499Z" fill="#CA4242"/>
<g opacity="0.2">
<path d="M342.955 243.964L343.818 241.491L344.251 240.255L344.621 238.998L346.107 233.971L347.352 228.877C347.577 228.032 347.751 227.176 347.908 226.316L348.409 223.742C349.671 216.873 350.527 209.914 350.709 202.925C350.902 195.94 350.584 188.945 349.766 182.009C348.9 175.077 347.451 168.228 345.559 161.51C337.867 134.671 321.58 110.257 299.702 92.9192C288.805 84.1746 276.451 77.3085 263.408 72.3003C250.306 67.4489 236.485 64.4439 222.516 63.7824C219.028 63.5405 215.533 63.601 212.039 63.6105L206.806 63.8599C205.059 63.9299 203.328 64.1718 201.588 64.3154C194.65 65.0733 187.74 66.2299 181.001 68.0706C174.263 69.8982 167.651 72.1888 161.246 74.982C154.873 77.8471 148.708 81.1658 142.779 84.8833L131.744 67.6341C138.548 63.3572 145.643 59.5377 152.985 56.2455C160.361 53.0232 167.983 50.3792 175.753 48.2776C183.524 46.1628 191.486 44.8134 199.48 43.946C201.484 43.7759 203.483 43.5113 205.492 43.4244L211.519 43.1409C215.541 43.1182 219.566 43.0653 223.58 43.3355C239.656 44.1066 255.556 47.5481 270.632 53.1423C285.649 58.8933 299.874 66.8157 312.442 76.889C337.691 96.922 356.354 124.895 365.242 155.863C367.429 163.607 369.09 171.503 370.088 179.492C371.039 187.484 371.403 195.539 371.177 203.581C370.961 211.626 369.99 219.634 368.533 227.537L367.954 230.497C367.769 231.485 367.569 232.47 367.314 233.443L365.877 239.302L364.171 245.087L363.742 246.533L363.247 247.958L362.254 250.806L342.955 243.964Z" fill="#CA4242"/>
</g>
<g opacity="0.2">
<path d="M308.031 297.345C316.555 289.49 323.882 280.4 330.09 270.627C333.12 265.695 335.968 260.633 338.33 255.342C339.6 252.736 340.636 250.027 341.726 247.342C342.299 246.009 342.704 244.615 343.202 243.254C343.66 241.88 344.206 240.532 344.582 239.132L345.816 234.963C346.253 233.579 346.527 232.153 346.893 230.752C347.646 227.951 348.137 225.092 348.702 222.249C349.649 216.534 350.405 210.774 350.609 204.979C351.227 193.398 350.167 181.768 347.804 170.434L367.828 166.149C370.561 179.212 371.765 192.616 371.063 205.943C370.82 212.613 369.965 219.243 368.867 225.818C368.227 229.091 367.645 232.376 366.79 235.602C366.373 237.216 366.044 238.852 365.549 240.445L364.129 245.242C363.689 246.852 363.075 248.406 362.544 249.986C361.973 251.552 361.493 253.153 360.843 254.69C359.596 257.783 358.39 260.894 356.936 263.901C354.206 269.99 350.938 275.826 347.441 281.508C340.298 292.775 331.831 303.247 322.018 312.305L308.031 297.345Z" fill="#CA4242"/>
</g>
<g opacity="0.2">
<path d="M336.614 258.989C349.367 233.392 353.708 203.681 348.802 175.525C346.281 161.471 341.677 147.766 334.866 135.187C333.246 131.996 331.316 128.978 329.481 125.909C327.463 122.955 325.531 119.939 323.315 117.13C319.002 111.432 314.298 106.021 309.099 101.121L323.275 86.3438C329.26 92.0002 334.688 98.2275 339.649 104.782C342.191 108.019 344.425 111.472 346.73 114.874C348.853 118.393 351.049 121.87 352.924 125.535C360.75 140.01 366.081 155.817 368.975 172.017C374.631 204.478 369.634 238.623 354.952 268.098L336.614 258.989Z" fill="#CA4242"/>
</g>
<g opacity="0.2">
<path d="M339.815 145.43C336.948 138.889 333.654 132.523 329.823 126.476C325.955 120.454 321.676 114.709 316.991 109.31C307.488 98.645 296.417 89.3542 284.044 82.1876C271.75 74.8907 258.213 69.7653 244.265 66.6526C237.274 65.1426 230.165 64.2222 223.032 63.8045L220.354 63.6722C219.462 63.6193 218.57 63.5796 217.676 63.5985L212.316 63.5928L206.964 63.848C205.178 63.9047 203.405 64.1636 201.627 64.3072L199.523 43.9378C201.574 43.7658 203.617 43.4861 205.673 43.4124L211.838 43.1214L218.011 43.1232C219.039 43.1081 220.067 43.1497 221.093 43.2083L224.175 43.3595C232.387 43.8376 240.567 44.9035 248.608 46.6422C264.657 50.2104 280.23 56.1239 294.399 64.5208C308.645 72.7835 321.432 83.4879 332.367 95.7836C337.768 101.998 342.692 108.605 347.127 115.524C351.527 122.469 355.327 129.791 358.623 137.328L339.815 145.43Z" fill="#CA4242"/>
</g>
<g opacity="0.2">
<path d="M276.571 319.379C291.101 311.957 304.323 301.975 315.343 289.985L330.441 303.819C317.728 317.654 302.535 329.118 285.83 337.643L276.571 319.379Z" fill="#CA4242"/>
</g>
<g opacity="0.2">
<path d="M226.036 63.9824C209.779 62.7256 193.316 64.4303 177.686 69.0077L171.93 49.3564C189.95 44.0779 208.925 42.118 227.631 43.5676L226.036 63.9824Z" fill="#CA4242"/>
</g>
<g opacity="0.2">
<path d="M84.3734 166.612C80.981 180.181 79.8868 194.282 80.7713 208.218C81.2948 215.184 82.3285 222.107 83.8537 228.92C85.377 235.739 87.5617 242.391 90.1187 248.887C92.6493 255.4 95.8641 261.633 99.402 267.66C102.913 273.713 107.026 279.403 111.444 284.807C112.582 286.131 113.644 287.524 114.839 288.798L118.394 292.646C119.601 293.907 120.881 295.097 122.117 296.328C123.338 297.579 124.661 298.718 125.968 299.873C128.533 302.245 131.311 304.365 134.044 306.539L138.289 309.608C139.697 310.64 141.203 311.532 142.653 312.503C148.549 316.238 154.682 319.628 161.096 322.406C167.505 325.19 174.114 327.509 180.861 329.339C187.617 331.142 194.519 332.359 201.463 333.122C203.203 333.271 204.938 333.502 206.683 333.593L211.918 333.85C215.41 333.872 218.907 333.944 222.393 333.71C236.356 333.084 250.173 330.119 263.251 325.236C269.768 322.722 276.114 319.772 282.213 316.345C288.264 312.84 294.093 308.945 299.604 304.643L312.308 320.705C305.969 325.661 299.279 330.136 292.318 334.158C285.308 338.1 277.998 341.504 270.488 344.394C255.416 350.031 239.478 353.437 223.399 354.164C219.383 354.425 215.357 354.359 211.336 354.321L205.311 354.026C203.302 353.919 201.306 353.665 199.303 353.488C191.31 352.613 183.371 351.205 175.597 349.132C167.834 347.032 160.227 344.363 152.85 341.154C145.468 337.951 138.396 334.06 131.604 329.751C129.93 328.636 128.204 327.596 126.577 326.411L121.686 322.873C118.53 320.379 115.338 317.92 112.372 315.194C110.864 313.862 109.345 312.541 107.933 311.107C106.504 309.691 105.036 308.311 103.643 306.86L99.5475 302.428C98.1754 300.956 96.9432 299.363 95.6373 297.834C90.544 291.612 85.8324 285.067 81.7899 278.12C77.7209 271.197 74.0337 264.014 71.1081 256.513C68.1561 249.031 65.6501 241.356 63.8887 233.498C62.1254 225.643 60.9367 217.666 60.3376 209.639C59.3057 193.586 60.5832 177.364 64.4764 161.751L84.3734 166.612Z" fill="#CA4242"/>
</g>
<g opacity="0.2">
<path d="M113.71 109.95L112.268 111.574L110.907 113.267L108.19 116.656L105.638 120.171L104.364 121.929C103.945 122.518 103.569 123.138 103.168 123.741L100.796 127.381C100.037 128.613 99.3317 129.879 98.5946 131.125C97.0713 133.591 95.8429 136.222 94.4727 138.773C91.9969 144.008 89.6251 149.31 87.8259 154.824C86.8035 157.538 86.1004 160.356 85.2405 163.125C84.8663 164.525 84.5469 165.939 84.1935 167.345L83.6738 169.456C83.5074 170.161 83.3903 170.877 83.2466 171.588L82.4132 175.855L81.7763 180.155L81.4607 182.306C81.37 183.024 81.317 183.748 81.2414 184.468L80.8181 188.794L80.5989 193.135L80.4893 195.306C80.4704 196.03 80.4855 196.756 80.4798 197.48L80.4742 201.826L80.6726 206.168L80.7727 208.337C80.8238 209.059 80.9088 209.779 80.9731 210.499L81.387 214.823L82.005 219.123L82.3149 221.274C82.4283 221.988 82.589 222.695 82.7213 223.407L83.5547 227.671C83.8703 229.083 84.2445 230.483 84.5847 231.889C85.2102 234.718 86.159 237.461 86.9622 240.243L67.4773 246.544C66.5399 243.34 65.4683 240.175 64.7331 236.916C64.34 235.295 63.9129 233.681 63.55 232.052L62.5843 227.14C62.4312 226.32 62.2517 225.505 62.1194 224.681L61.7565 222.205L61.0497 217.25L60.5677 212.268C60.4922 211.437 60.3996 210.609 60.341 209.775L60.22 207.275L59.9951 202.276L59.997 197.272C60.0027 196.438 59.9913 195.603 60.0121 194.769L60.1312 192.271L60.3901 187.274L60.872 182.294C60.959 181.465 61.0232 180.633 61.129 179.807L61.4881 177.331C61.7338 175.681 61.9568 174.03 62.2252 172.384L63.1796 167.474C63.3459 166.657 63.4858 165.833 63.6748 165.022L64.2663 162.592C64.6688 160.974 65.0449 159.349 65.4758 157.739C66.451 154.55 67.2807 151.315 68.4449 148.187C70.5276 141.846 73.2377 135.733 76.1009 129.711C77.6657 126.765 79.1021 123.749 80.8446 120.901C81.6931 119.464 82.5115 118.009 83.3865 116.59L86.1155 112.394C86.5767 111.699 87.0132 110.988 87.497 110.308L88.9617 108.278C89.9426 106.928 90.9083 105.566 91.9081 104.23L95.0359 100.321L96.6083 98.3728L98.2658 96.498L113.71 109.95Z" fill="#CA4242"/>
</g>
<g opacity="0.2">
<path d="M89.1546 151.018C79.1097 177.792 77.6583 207.77 85.473 235.273C93.2065 262.768 109.94 287.752 132.468 305.302L119.869 321.446C93.8699 301.171 74.6911 272.541 65.7594 240.817C56.754 209.094 58.4209 174.607 69.989 143.806L89.1546 151.018Z" fill="#CA4242"/>
</g>
<g opacity="0.2">
<path d="M97.463 264.311C100.988 270.53 104.879 276.563 109.305 282.18C113.743 287.783 118.581 293.06 123.789 297.949C134.32 307.586 146.279 315.72 159.322 321.588C165.827 324.534 172.536 327.076 179.44 328.945C186.336 330.83 193.372 332.196 200.472 333.028C207.573 333.891 214.745 334.031 221.878 333.734C229.012 333.411 236.135 332.582 243.118 331.075L247.282 351.125C239.231 352.855 231.025 353.82 222.807 354.191C214.59 354.537 206.335 354.361 198.165 353.374C189.995 352.422 181.898 350.851 173.966 348.678C166.025 346.522 158.301 343.609 150.811 340.213C135.802 333.447 122 324.09 109.87 312.966C103.86 307.338 98.2851 301.256 93.1824 294.802C88.0909 288.335 83.6137 281.42 79.5693 274.265L97.463 264.311Z" fill="#CA4242"/>
</g>
<g opacity="0.2">
<path d="M142.78 84.8791C129.057 93.7201 116.928 104.954 107.195 118.019L90.7656 105.795C101.98 90.7321 115.981 77.7711 131.744 67.6299L142.78 84.8791Z" fill="#CA4242"/>
</g>
<g opacity="0.2">
<path d="M218.874 333.877C235.173 333.482 251.367 330.099 266.452 323.951L274.178 342.916C256.795 350.002 238.111 353.899 219.347 354.348L218.874 333.877Z" fill="#CA4242"/>
</g>
<path d="M100.349 86.933C86.275 101.402 75.0017 118.574 67.2852 137.267C59.5517 155.951 55.375 176.125 55.0537 196.342C54.7286 216.556 58.2061 236.806 65.4312 255.668C72.628 274.512 83.5006 292.115 97.0796 307.047C110.664 321.992 127.103 334.292 145.291 343.125C163.465 351.981 183.363 357.354 203.536 358.87C223.709 360.41 244.133 358.097 263.392 352.057C282.64 346.045 300.8 336.27 316.587 323.597C332.375 310.955 345.603 295.252 355.5 277.638C365.409 260.032 371.957 240.505 374.696 220.459C377.451 200.414 376.385 179.879 371.54 160.286C366.715 140.689 358.112 122.04 346.368 105.484C334.598 89.0043 319.786 74.8187 302.807 63.8761C285.847 52.9184 266.761 45.2076 246.915 41.269C227.071 37.3115 206.496 37.1301 186.637 40.7663C166.776 44.393 147.625 51.7807 130.474 62.6117L128.182 58.9491C145.784 47.8326 165.458 40.2409 185.858 36.5159C206.256 32.7814 227.383 32.9685 247.756 37.0318C268.131 41.0781 287.73 48.9931 305.149 60.2475C322.587 71.4867 337.803 86.0617 349.885 102.98C361.937 119.969 370.776 139.123 375.731 159.252C380.709 179.376 381.802 200.467 378.973 221.047C376.162 241.628 369.44 261.676 359.263 279.757C349.099 297.847 335.509 313.977 319.297 326.961C303.091 339.973 284.453 350.006 264.679 356.182C244.897 362.387 223.919 364.763 203.207 363.179C182.494 361.622 162.068 356.105 143.403 347.013C124.725 337.943 107.837 325.307 93.8857 309.957C79.9381 294.619 68.7858 276.564 61.3925 257.204C53.9727 237.831 50.3989 217.03 50.7334 196.274C51.0622 175.515 55.3504 154.803 63.2918 135.617C71.2162 116.423 82.7938 98.7827 97.2497 83.9223L100.349 86.933Z" fill="#CA4242"/>
<path d="M345.263 349.361L346.811 348.066L321.66 319.368L320.403 320.41L345.263 349.361Z" fill="#CA4242"/>
<path d="M323.48 365.651L325.153 364.523L304.126 332.68L302.772 333.6L323.48 365.651Z" fill="#CA4242"/>
<path d="M140.919 382.875L142.792 383.629L156.749 348.114L155.235 347.504L140.919 382.875Z" fill="#CA4242"/>
<path d="M116.454 370.969L118.198 371.986L136.875 338.711L135.468 337.885L116.454 370.969Z" fill="#CA4242"/>
<path d="M93.8359 355.831C94.3651 356.247 94.8792 356.683 95.4216 357.082L118.49 326.685C118.051 326.365 117.639 326.008 117.214 325.672L93.8359 355.831Z" fill="#CA4242"/>
<path d="M73.5059 337.726L74.9479 339.139L101.981 312.206L100.813 311.07L73.5059 337.726Z" fill="#CA4242"/>
<path d="M17.667 216.445L17.8597 218.456L55.8337 214.697L55.6768 213.073L17.667 216.445Z" fill="#CA4242"/>
<path d="M20.2938 162.227L19.9102 164.207L57.4872 170.846L57.8028 169.244L20.2938 162.227Z" fill="#CA4242"/>
<path d="M27.0903 135.887L26.4326 137.796L62.7604 149.475L63.299 147.935L27.0903 135.887Z" fill="#CA4242"/>
<path d="M37.3997 110.708C37.0803 111.301 36.8252 111.925 36.5342 112.532L70.9324 129.051C71.1667 128.56 71.3671 128.054 71.6279 127.575L37.3997 110.708Z" fill="#CA4242"/>
<path d="M45.3252 101.952L48.3566 96.7588L65.6398 107.148L62.8106 111.999L45.3252 101.952ZM49.1201 99.7354L48.2867 101.162L62.0263 109.056L62.701 107.898L49.1201 99.7354Z" fill="#CA4242"/>
<path d="M49.4473 94.9819L52.7282 89.9434L69.5653 101.043L66.5018 105.747L49.4473 94.9819ZM53.3518 92.9427L52.4503 94.3261L65.8498 102.783L66.5793 101.663L53.3518 92.9427Z" fill="#CA4242"/>
<path d="M53.8447 88.1874L57.3675 83.3096L73.7303 95.0988L70.4343 99.6497L53.8447 88.1874ZM57.8551 86.324L56.8875 87.6639L69.926 96.6712L70.7103 95.5864L57.8551 86.324Z" fill="#CA4242"/>
<path d="M58.6025 81.6333L59.1998 80.7791C59.6968 80.0685 60.2392 79.3995 60.7646 78.7531C61.0424 78.4092 61.3221 78.0671 61.5924 77.7175L62.2576 76.8613L78.114 89.3196L77.4563 90.1682C77.1955 90.5027 76.9271 90.8315 76.6587 91.1604C76.19 91.7368 75.7459 92.2792 75.3453 92.8556L74.7046 93.7798L58.6025 81.6333ZM62.6224 79.8927C62.5619 79.9664 62.5014 80.0402 62.441 80.1158C62.1461 80.4767 61.8626 80.8282 61.5886 81.1798L74.2396 90.7219C74.4872 90.4063 74.7386 90.0964 74.9862 89.794C75.0164 89.7562 75.0466 89.7184 75.0788 89.6806L62.6224 79.8927Z" fill="#CA4242"/>
<path d="M63.5742 75.2456L64.5324 74.0474C65.2316 73.1724 65.9555 72.2652 66.7417 71.4129L67.4466 70.6475L82.7738 83.7596L82.0103 84.5836C81.3526 85.2924 80.7573 86.0426 80.126 86.8364L79.1584 88.0497L63.5742 75.2456ZM67.6413 73.6562C67.286 74.0739 66.9363 74.5029 66.5943 74.93L78.8352 84.9881C79.1111 84.6441 79.3927 84.2983 79.6819 83.9543L67.6413 73.6562Z" fill="#CA4242"/>
<path d="M68.8096 69.0731L72.8011 64.5713L87.565 78.3052L83.8457 82.5122L68.8096 69.0731ZM72.9523 67.6613L71.8542 68.8992L83.6662 79.4581L84.5525 78.4545L72.9523 67.6613Z" fill="#CA4242"/>
<path d="M74.293 63.118L78.5037 58.8203L92.6837 73.1572L88.7564 77.1713L74.293 63.118ZM78.5094 61.899L77.3527 63.0783L88.7168 74.121L89.6522 73.1647L78.5094 61.899Z" fill="#CA4242"/>
<path d="M80.0068 57.384L84.4236 53.3018L97.9969 68.2169L93.8712 72.027L80.0068 57.384ZM84.2913 56.3653L83.0779 57.486L93.9733 68.9918L94.956 68.0827L84.2913 56.3653Z" fill="#CA4242"/>
<path d="M85.9453 51.8807L90.5624 48.0234L103.508 63.4867L99.1917 67.085L85.9453 51.8807ZM90.2902 51.0643L89.0202 52.1245L99.4298 64.0725L100.46 63.2145L90.2902 51.0643Z" fill="#CA4242"/>
<path d="M92.1748 46.7121L92.9515 46.0318C93.6092 45.4553 94.3066 44.9394 94.9794 44.4405C95.3328 44.1796 95.6844 43.9188 96.0302 43.6486L96.8863 42.9814L109.184 58.9644L108.337 59.624C108.007 59.881 107.668 60.1324 107.33 60.3799C106.729 60.8241 106.16 61.2417 105.635 61.7066L104.784 62.4569L92.1748 46.7121ZM96.4913 46.0091C96.4158 46.0639 96.3401 46.1206 96.2664 46.1754C95.8904 46.4551 95.5256 46.7254 95.1741 46.9994L105.081 59.3688C105.404 59.1175 105.731 58.8775 106.051 58.6412C106.085 58.6148 106.12 58.5902 106.154 58.5637L96.4913 46.0091Z" fill="#CA4242"/>
<path d="M98.5498 41.7317L99.4286 41.0929C99.782 40.8359 100.128 40.5713 100.474 40.3067C101.141 39.7964 101.833 39.2691 102.57 38.7948L103.439 38.2354L115.075 54.7135L114.119 55.322C113.524 55.7 112.96 56.1328 112.367 56.5882C112.036 56.8415 111.705 57.0966 111.369 57.3404L110.5 57.9717L98.5498 41.7317ZM102.887 41.1968C102.522 41.4595 102.16 41.7374 101.785 42.0246C101.714 42.0794 101.642 42.1342 101.57 42.189L110.957 54.9516C110.989 54.927 111.021 54.9025 111.053 54.8779C111.371 54.6341 111.694 54.3865 112.029 54.1427L102.887 41.1968Z" fill="#CA4242"/>
<path d="M105.147 37.0515L110.131 33.6855L121.081 50.6172L116.425 53.7696L105.147 37.0515ZM109.513 36.7094L108.145 37.6336L117.007 50.7684L118.12 50.0144L109.513 36.7094Z" fill="#CA4242"/>
<path d="M296.861 362.599C297.899 362.136 298.885 361.573 299.887 361.04L302.886 359.428L305.886 357.815C306.87 357.252 307.832 356.646 308.807 356.063L316.891 369.692C315.832 370.323 314.789 370.979 313.719 371.589L310.463 373.343L307.205 375.093C306.116 375.671 305.043 376.28 303.918 376.786L296.861 362.599Z" fill="#CA4242"/>
<path d="M280.366 369.82C282.492 369.028 284.567 368.103 286.671 367.253C287.718 366.815 288.773 366.397 289.812 365.941L292.889 364.482L299.602 378.836L296.258 380.418C295.13 380.915 293.983 381.371 292.845 381.849C290.558 382.775 288.302 383.775 285.991 384.636L280.366 369.82Z" fill="#CA4242"/>
<path d="M263.237 375.37C265.43 374.785 267.588 374.08 269.765 373.441C270.848 373.104 271.946 372.81 273.018 372.437L276.225 371.294L281.488 386.239L278.001 387.479C276.835 387.882 275.643 388.207 274.465 388.573C272.099 389.271 269.75 390.032 267.365 390.667L263.237 375.37Z" fill="#CA4242"/>
<path d="M245.645 379.192C247.886 378.836 250.101 378.339 252.331 377.922C253.442 377.693 254.563 377.508 255.667 377.247L258.97 376.427L262.727 391.82L259.135 392.708C257.935 392.992 256.718 393.198 255.508 393.445C253.083 393.903 250.672 394.436 248.236 394.823L245.645 379.192Z" fill="#CA4242"/>
<path d="M53.9112 302.074L52.0988 299.078C51.6849 298.385 51.2672 297.699 50.8496 297.015C50.0804 295.752 49.2847 294.446 48.5401 293.131C48.0374 292.188 47.5422 291.271 47.0471 290.355C45.3745 287.261 43.6452 284.063 42.173 280.779C40.5231 277.486 39.0905 273.999 37.7033 270.628C37.3575 269.785 37.0098 268.942 36.6601 268.099C36.1007 266.663 35.5923 265.217 35.0991 263.82C34.8326 263.066 34.568 262.314 34.2939 261.564L33.8952 260.443C33.6382 259.725 33.3792 259.007 33.1392 258.283L32.1338 254.949C29.5314 246.753 27.5054 237.908 25.9443 227.925L28.0781 227.591C29.6221 237.464 31.6254 246.203 34.1976 254.31L35.1973 257.629C35.4241 258.307 35.6755 259.011 35.9287 259.714L36.3294 260.836C36.5997 261.583 36.868 262.342 37.1364 263.102C37.624 264.484 38.1286 265.912 38.6634 267.294C39.0055 268.114 39.3532 268.959 39.701 269.806C41.0731 273.141 42.4924 276.589 44.1253 279.852C45.5843 283.105 47.2928 286.267 48.9483 289.327C49.4454 290.247 49.9424 291.167 50.4357 292.09C51.15 293.35 51.9362 294.641 52.696 295.888C53.1155 296.578 53.5351 297.27 53.9509 297.963L55.7331 300.91L57.6305 303.728C58.0841 304.391 58.5358 305.064 58.9875 305.737C59.8172 306.967 60.6468 308.199 61.4992 309.414L65.6268 314.899C66.6757 316.356 67.8436 317.749 68.9757 319.098L73.2355 324.199L74.3714 325.428L72.7838 326.892L71.614 325.624L67.3182 320.485C66.1616 319.106 64.9672 317.681 63.8861 316.178L59.7529 310.683C58.8703 309.428 58.035 308.184 57.1978 306.942C56.748 306.273 56.2982 305.604 55.8427 304.939L53.9112 302.074Z" fill="#CA4242"/>
<path d="M64.274 306.494C66.009 308.858 67.7949 311.187 69.5507 313.536L61.6187 319.754C59.7647 317.28 57.8861 314.825 56.0586 312.332L64.274 306.494Z" fill="#CA4242"/>
<path d="M33.8059 237.047C33.9515 237.765 34.0762 238.489 34.2406 239.203L34.7698 241.339L35.8281 245.608L26.0762 248.152L24.9612 243.648L24.4055 241.396C24.2335 240.641 24.1013 239.88 23.9463 239.122L33.8059 237.047Z" fill="#CA4242"/>
<path d="M38.4123 311.954C38.1439 311.535 37.8812 311.108 37.628 310.673L33.5836 303.985C33.0412 303.121 32.5479 302.206 32.0736 301.324L27.9327 293.611L26.2148 290.031C25.8425 289.232 25.4683 288.45 25.0941 287.667C24.3495 286.11 23.5803 284.502 22.8848 282.88L19.8761 275.615C15.7844 264.996 12.736 255.14 10.5532 245.462C8.23613 235.011 6.66185 224.522 5.87187 214.284L5.83594 213.827L6.14023 213.485C8.79177 210.504 11.6625 207.45 14.9132 204.148C16.2361 202.78 17.6819 201.434 19.0804 200.132L19.4773 199.764C20.8796 198.464 22.3122 197.167 23.7391 195.903C23.9205 185.71 24.8957 175.452 26.6382 165.405L28.7662 165.774C27.0143 175.866 26.0466 186.175 25.8898 196.413L25.8822 196.891L25.525 197.207C23.9923 198.56 22.4539 199.953 20.9476 201.348L20.5527 201.716C19.1749 202.999 17.7499 204.326 16.461 205.66C13.354 208.816 10.6042 211.736 8.06227 214.581C8.85603 224.573 10.4039 234.803 12.6642 244.997C14.8244 254.567 17.8406 264.323 21.885 274.82L24.8787 282.047C25.5515 283.615 26.3112 285.205 27.0464 286.741C27.4244 287.531 27.8024 288.321 28.1709 289.117L29.8624 292.641L33.9824 300.309C34.4624 301.201 34.9141 302.042 35.4263 302.858L39.4895 309.579C40.1435 310.703 40.8749 311.777 41.5836 312.82L45.9738 319.31C46.4406 319.992 46.9452 320.656 47.4498 321.321C47.7277 321.687 48.0074 322.056 48.2795 322.426C48.7747 323.08 49.2755 323.747 49.7744 324.415C50.8384 325.834 51.9025 327.251 52.9967 328.646C59.3563 336.557 66.5001 344.257 74.2223 351.522C81.6818 358.384 89.9047 364.921 98.6607 370.94C106.774 376.461 115.882 381.683 125.73 386.456L132.838 389.726L140.061 392.654C141.775 393.381 143.561 393.999 145.292 394.596C145.992 394.838 146.689 395.08 147.384 395.328L151.079 396.611C151.863 396.883 152.686 397.123 153.481 397.356C153.772 397.441 154.065 397.528 154.356 397.615C161.285 393.854 168.281 389.433 175.155 384.472L175.544 384.191L176.013 384.291C199.812 389.38 225.005 389.828 248.865 385.583L249.243 387.711C225.268 391.977 199.964 391.559 176.03 386.504C169.073 391.501 161.995 395.948 154.986 399.729L154.589 399.943L154.156 399.811C153.731 399.68 153.302 399.555 152.875 399.429C152.052 399.189 151.204 398.939 150.369 398.65L146.666 397.363C145.969 397.114 145.277 396.874 144.585 396.636C142.822 396.027 140.998 395.396 139.233 394.644L131.982 391.705L124.808 388.407C114.846 383.578 105.648 378.303 97.4417 372.721C88.5988 366.641 80.2927 360.039 72.7519 353.101C64.9466 345.761 57.7347 337.988 51.3052 329.99C50.1921 328.574 49.1205 327.142 48.047 325.711C47.5481 325.046 47.0492 324.382 46.5484 323.721C46.2724 323.347 46.0003 322.986 45.7281 322.627C45.2046 321.935 44.6811 321.243 44.1897 320.529L39.7957 314.033C39.3327 313.351 38.8659 312.663 38.4123 311.954Z" fill="#CA4242"/>
<path d="M0 193.892C2.29813 190.178 4.61706 186.574 6.987 183.091C8.90148 186.899 10.8821 190.603 12.8835 194.192L0 193.892Z" fill="#CA4242"/>
<path d="M1.10352 176.972C3.5415 173.432 6.25542 170.039 8.90507 166.753C10.5001 170.699 12.065 174.528 13.9228 178.279L1.10352 176.972Z" fill="#CA4242"/>
<path d="M3.46777 160.191C6.32531 156.884 9.02977 153.658 12.0574 150.617C13.2102 154.646 14.7373 158.642 16.1453 162.497L3.46777 160.191Z" fill="#CA4242"/>
<path d="M110.23 30.2637L108.507 31.3088L129.071 63.4523L130.473 62.6113L110.23 30.2637Z" fill="#CA4242"/>
<path d="M134.207 17.4141L132.383 18.2778L148.405 52.9103L149.878 52.2073L134.207 17.4141Z" fill="#CA4242"/>
<path d="M317.308 27.9719L315.566 26.9551L296.4 59.951L297.808 60.7731L317.308 27.9719Z" fill="#CA4242"/>
<path d="M339.684 43.4627L338.108 42.2021L314.592 72.2536L315.862 73.2722L339.684 43.4627Z" fill="#CA4242"/>
<path d="M359.733 61.8733L358.361 60.3916L330.933 86.9221L332.036 88.1222L359.733 61.8733Z" fill="#CA4242"/>
<path d="M377.08 82.8357L375.868 81.2236L345.076 103.761L346.061 105.063L377.08 82.8357Z" fill="#CA4242"/>
<path d="M413.965 211.143L414.064 209.129L375.959 207.103L375.882 208.732L413.965 211.143Z" fill="#CA4242"/>
<path d="M403.187 264.338L403.851 262.433L367.697 250.223L367.158 251.763L403.187 264.338Z" fill="#CA4242"/>
<path d="M160.068 24.4473C158.973 24.7535 157.904 25.1314 156.838 25.5208L153.631 26.6642L150.424 27.8057C149.363 28.2082 148.324 28.6656 147.273 29.0927L141.335 14.4024C142.478 13.9394 143.609 13.4443 144.761 13.0077L148.246 11.7622L151.733 10.5206C152.894 10.0991 154.056 9.6909 155.245 9.35449L160.068 24.4473Z" fill="#CA4242"/>
<path d="M177.466 19.8263C176.348 20.0229 175.246 20.2913 174.146 20.5729L170.842 21.3912L167.537 22.2095C166.444 22.5138 165.362 22.8578 164.275 23.1809L159.82 7.97473C161.003 7.6251 162.181 7.25279 163.37 6.92394L166.962 6.03191L170.555 5.14176C171.751 4.8356 172.949 4.54644 174.165 4.3291L177.466 19.8263Z" fill="#CA4242"/>
<path d="M195.239 16.9537L193.544 17.1163L191.86 17.362L188.492 17.8533L185.122 18.3428C184.004 18.5261 182.894 18.7699 181.779 18.9816L178.854 3.40878C180.065 3.1801 181.273 2.9174 182.49 2.71896L186.152 2.18223L189.815 1.65116L191.646 1.38657L193.487 1.20703L195.239 16.9537Z" fill="#CA4242"/>
<path d="M213.212 15.8517C210.941 15.795 208.676 15.9954 206.409 16.0785L203.009 16.2392C201.875 16.2864 200.748 16.4414 199.618 16.5359L198.246 0.749466C199.475 0.645521 200.699 0.484882 201.931 0.430074L205.626 0.252423C208.091 0.159818 210.553 -0.0442918 213.02 0.00862558L213.212 15.8517Z" fill="#CA4242"/>
<path d="M405.341 198.522C405.415 195.075 405.234 191.556 405.058 188.152C405.001 187.037 404.943 185.92 404.894 184.803C404.793 183.822 404.697 182.781 404.599 181.74C404.274 178.278 403.939 174.696 403.359 171.224C402.936 167.806 402.257 164.4 401.601 161.106C401.373 159.961 401.146 158.815 400.927 157.668C400.639 156.547 400.35 155.36 400.061 154.174C399.279 150.963 398.47 147.64 397.436 144.459L395.93 139.487L393.05 131.41C392.535 130.049 391.951 128.656 391.39 127.309C391.078 126.562 390.767 125.816 390.462 125.065L389.141 121.888L387.684 118.817C384.35 111.439 380.123 103.832 374.356 94.8418L376.175 93.6758C376.237 93.7722 376.297 93.8686 376.36 93.9649C382.086 102.916 386.31 110.53 389.646 117.91L391.116 121.011L392.462 124.245C392.766 124.995 393.076 125.736 393.384 126.477C393.955 127.842 394.544 129.251 395.079 130.667L397.982 138.812L399.498 143.817C400.551 147.052 401.369 150.415 402.163 153.665C402.45 154.846 402.737 156.026 403.038 157.203C403.268 158.409 403.495 159.549 403.722 160.688C404.385 164.02 405.071 167.467 405.498 170.918C406.086 174.422 406.424 178.043 406.751 181.543C406.848 182.581 406.946 183.617 407.05 184.654C407.103 185.824 407.161 186.935 407.218 188.046C407.396 191.488 407.581 195.049 407.504 198.575L405.341 198.522Z" fill="#CA4242"/>
<path d="M381.531 115.085L377.364 107.335L386.135 102.368L390.526 110.538L381.531 115.085Z" fill="#CA4242"/>
<path d="M401.107 188.338C401.031 185.403 400.681 182.489 400.413 179.569L410.439 178.537C410.724 181.616 411.085 184.691 411.17 187.783L401.107 188.338Z" fill="#CA4242"/>
<path d="M210.997 9.00934L210.944 6.85107C235.307 6.26709 260.265 10.4986 283.148 19.092C286.682 17.3098 290.341 15.5692 294.03 13.9174C297.43 12.4414 301.097 10.9843 305.933 9.18889L306.366 9.02824L306.782 9.23046C316.551 13.9855 325.743 19.2753 334.1 24.9526C342.771 30.9323 351.064 37.547 358.758 44.6152C366.403 51.8271 373.601 59.6135 380.165 67.7647C386.912 76.4356 392.859 85.1934 397.849 93.8114C403.481 103.786 407.946 113.071 411.509 122.211C415.453 132.498 418.57 142.639 420.771 152.359C423.032 162.629 424.589 173.12 425.402 183.546C426.086 194.014 426.04 204.615 425.269 215.062L425.235 215.523L424.878 215.816C421.457 218.638 418.08 221.297 414.839 223.72C411.551 226.082 408.205 228.373 404.873 230.542C403.144 240.597 400.625 250.591 397.38 260.25L395.333 259.562C398.591 249.859 401.113 239.816 402.825 229.715L402.904 229.248L403.303 228.989C406.737 226.761 410.19 224.402 413.565 221.977C416.651 219.67 419.879 217.134 423.151 214.444C423.882 204.244 423.916 193.903 423.249 183.701C422.446 173.386 420.904 162.995 418.666 152.829C416.489 143.217 413.403 133.176 409.496 122.99C405.975 113.954 401.551 104.758 395.976 94.883C391.041 86.3576 385.149 77.6848 378.473 69.1065C371.983 61.0461 364.851 53.3334 357.289 46.1971C349.681 39.2063 341.465 32.6559 332.883 26.7367C324.736 21.203 315.776 16.0341 306.254 11.3774C301.669 13.0859 298.154 14.4863 294.904 15.8962C291.11 17.5952 287.338 19.3944 283.702 21.2352L283.277 21.4506L282.831 21.2824C260.084 12.6701 235.245 8.42914 210.997 9.00934Z" fill="#CA4242"/>
<path d="M428 236.085L423.765 240.992C422.359 242.6 420.968 244.182 419.458 245.709C418.874 243.7 418.161 241.689 417.451 239.708L415.308 233.85L428 236.085Z" fill="#CA4242"/>
<path d="M424.392 252.651C423.64 253.43 422.916 254.208 422.145 254.966L419.805 257.213L415.149 261.583L413.61 255.443L412.818 252.432C412.542 251.432 412.215 250.427 411.913 249.433L424.392 252.651Z" fill="#CA4242"/>
<path d="M419.508 268.879L414.623 273.087C412.971 274.452 411.251 275.76 409.581 277.058C409.259 274.958 408.966 272.898 408.585 270.837L407.32 264.694L419.508 268.879Z" fill="#CA4242"/>
</g>
</svg>
