<svg width="1472" height="942" viewBox="0 0 1472 942" fill="none" xmlns="http://www.w3.org/2000/svg">
<g clip-path="url(#clip0_110_8950)">
<g style="mix-blend-mode:plus-darker">
<path d="M-3.04841e-07 492L0 498.974L1472 498.974L1472 492L-3.04841e-07 492Z" fill="#FAFAFA"/>
<path d="M-2.9859e-07 504.751L0 511.582L1472 511.582L1472 504.751L-2.9859e-07 504.751Z" fill="#FAFAFA"/>
<path d="M-2.92303e-07 517.503L0 524.19L1472 524.19L1472 517.503L-2.92303e-07 517.503Z" fill="#FAFAFA"/>
<path d="M-2.86027e-07 530.254L0 536.798L1472 536.798L1472 530.254L-2.86027e-07 530.254Z" fill="#FAFAFA"/>
<path d="M-2.79739e-07 543.006L0 549.405L1472 549.405L1472 543.006L-2.79739e-07 543.006Z" fill="#FAFAFA"/>
<path d="M-2.73463e-07 555.757L0 562.013L1472 562.013L1472 555.757L-2.73463e-07 555.757Z" fill="#FAFAFA"/>
<path d="M-2.67176e-07 568.509L0 574.621L1472 574.621L1472 568.509L-2.67176e-07 568.509Z" fill="#FAFAFA"/>
<path d="M-2.60902e-07 581.26L0 587.229L1472 587.229L1472 581.26L-2.60902e-07 581.26Z" fill="#FAFAFA"/>
<path d="M-2.54625e-07 594.012L0 599.837L1472 599.837L1472 594.012L-2.54625e-07 594.012Z" fill="#FAFAFA"/>
<path d="M-2.48339e-07 606.763L0 612.445L1472 612.445L1472 606.763L-2.48339e-07 606.763Z" fill="#FAFAFA"/>
<path d="M-2.42063e-07 619.515L0 625.052L1472 625.052L1472 619.515L-2.42063e-07 619.515Z" fill="#FAFAFA"/>
<path d="M-2.35776e-07 632.266L0 637.66L1472 637.66L1472 632.266L-2.35776e-07 632.266Z" fill="#FAFAFA"/>
<path d="M-2.29502e-07 645.018L0 650.268L1472 650.268L1472 645.017L-2.29502e-07 645.018Z" fill="#FAFAFA"/>
<path d="M-2.23225e-07 657.769L0 662.876L1472 662.876L1472 657.769L-2.23225e-07 657.769Z" fill="#FAFAFA"/>
<path d="M-2.16962e-07 670.52L0 675.484L1472 675.484L1472 670.52L-2.16962e-07 670.52Z" fill="#FAFAFA"/>
<path d="M-2.10688e-07 683.272L0 688.092L1472 688.092L1472 683.272L-2.10688e-07 683.272Z" fill="#FAFAFA"/>
<path d="M-2.044e-07 696.023L0 700.699L1472 700.699L1472 696.023L-2.044e-07 696.023Z" fill="#FAFAFA"/>
<path d="M-1.98124e-07 708.775L0 713.307L1472 713.307L1472 708.775L-1.98124e-07 708.775Z" fill="#FAFAFA"/>
<path d="M-1.91837e-07 721.526L0 725.915L1472 725.915L1472 721.526L-1.91837e-07 721.526Z" fill="#FAFAFA"/>
<path d="M-1.85561e-07 734.278L0 738.523L1472 738.523L1472 734.278L-1.85561e-07 734.278Z" fill="#FAFAFA"/>
<path d="M-1.79274e-07 747.029L0 751.131L1472 751.131L1472 747.029L-1.79274e-07 747.029Z" fill="#FAFAFA"/>
<path d="M-1.72998e-07 759.781L0 763.739L1472 763.739L1472 759.781L-1.72998e-07 759.781Z" fill="#FAFAFA"/>
<path d="M-1.66711e-07 772.532L0 776.346L1472 776.346L1472 772.532L-1.66711e-07 772.532Z" fill="#FAFAFA"/>
<path d="M-1.60459e-07 785.284L0 788.955L1472 788.955L1472 785.284L-1.60459e-07 785.284Z" fill="#FAFAFA"/>
<path d="M-1.54184e-07 798.035L0 801.562L1472 801.562L1472 798.035L-1.54184e-07 798.035Z" fill="#FAFAFA"/>
<path d="M-1.47897e-07 810.787L0 814.17L1472 814.17L1472 810.787L-1.47897e-07 810.787Z" fill="#FAFAFA"/>
<path d="M-1.41621e-07 823.538L0 826.778L1472 826.778L1472 823.538L-1.41621e-07 823.538Z" fill="#FAFAFA"/>
<path d="M-1.35334e-07 836.29L0 839.386L1472 839.386L1472 836.29L-1.35334e-07 836.29Z" fill="#FAFAFA"/>
<path d="M-1.29059e-07 849.041L0 851.994L1472 851.994L1472 849.041L-1.29059e-07 849.041Z" fill="#FAFAFA"/>
<path d="M-1.22783e-07 861.792L0 864.601L1472 864.601L1472 861.792L-1.22783e-07 861.792Z" fill="#FAFAFA"/>
<path d="M-1.16496e-07 874.544L0 877.209L1472 877.209L1472 874.544L-1.16496e-07 874.544Z" fill="#FAFAFA"/>
<path d="M-1.10221e-07 887.296L0 889.817L1472 889.817L1472 887.296L-1.10221e-07 887.296Z" fill="#FAFAFA"/>
<path d="M-1.03934e-07 900.047L0 902.425L1472 902.425L1472 900.047L-1.03934e-07 900.047Z" fill="#FAFAFA"/>
<path d="M-9.76581e-08 912.799L0 915.033L1472 915.033L1472 912.799L-9.76581e-08 912.799Z" fill="#FAFAFA"/>
<path d="M-9.13947e-08 925.55L0 927.641L1472 927.641L1472 925.55L-9.13947e-08 925.55Z" fill="#FAFAFA"/>
<path d="M-8.51194e-08 938.301L0 940.249L1472 940.249L1472 938.301L-8.51194e-08 938.301Z" fill="#FAFAFA"/>
</g>
<g style="mix-blend-mode:plus-darker">
<path d="M1472 485.929L1472 479.098L0 479.098L-2.9859e-07 485.929L1472 485.929Z" fill="#FAFAFA"/>
<path d="M1472 473.177L1472 466.49L0 466.49L-2.92303e-07 473.177L1472 473.177Z" fill="#FAFAFA"/>
<path d="M1472 460.426L1472 453.883L0 453.883L-2.86027e-07 460.426L1472 460.426Z" fill="#FAFAFA"/>
<path d="M1472 447.674L1472 441.275L0 441.275L-2.79739e-07 447.674L1472 447.674Z" fill="#FAFAFA"/>
<path d="M1472 434.923L1472 428.667L0 428.667L-2.73463e-07 434.923L1472 434.923Z" fill="#FAFAFA"/>
<path d="M1472 422.171L1472 416.059L0 416.059L-2.67176e-07 422.171L1472 422.171Z" fill="#FAFAFA"/>
<path d="M1472 409.42L1472 403.451L0 403.451L-2.60902e-07 409.42L1472 409.42Z" fill="#FAFAFA"/>
<path d="M1472 396.669L1472 390.843L0 390.843L-2.54625e-07 396.668L1472 396.669Z" fill="#FAFAFA"/>
<path d="M1472 383.917L1472 378.236L0 378.236L-2.48339e-07 383.917L1472 383.917Z" fill="#FAFAFA"/>
<path d="M1472 371.166L1472 365.628L0 365.628L-2.42063e-07 371.165L1472 371.166Z" fill="#FAFAFA"/>
<path d="M1472 358.414L1472 353.02L0 353.02L-2.35776e-07 358.414L1472 358.414Z" fill="#FAFAFA"/>
<path d="M1472 345.663L1472 340.412L0 340.412L-2.29501e-07 345.663L1472 345.663Z" fill="#FAFAFA"/>
<path d="M1472 332.911L1472 327.804L0 327.804L-2.23225e-07 332.911L1472 332.911Z" fill="#FAFAFA"/>
<path d="M1472 320.16L1472 315.196L0 315.196L-2.16962e-07 320.16L1472 320.16Z" fill="#FAFAFA"/>
<path d="M1472 307.408L1472 302.588L0 302.588L-2.10688e-07 307.408L1472 307.408Z" fill="#FAFAFA"/>
<path d="M1472 294.657L1472 289.981L0 289.981L-2.044e-07 294.657L1472 294.657Z" fill="#FAFAFA"/>
<path d="M1472 281.905L1472 277.373L0 277.373L-1.98124e-07 281.905L1472 281.905Z" fill="#FAFAFA"/>
<path d="M1472 269.154L1472 264.765L0 264.765L-1.91837e-07 269.154L1472 269.154Z" fill="#FAFAFA"/>
<path d="M1472 256.402L1472 252.157L0 252.157L-1.85561e-07 256.402L1472 256.402Z" fill="#FAFAFA"/>
<path d="M1472 243.651L1472 239.549L0 239.549L-1.79274e-07 243.651L1472 243.651Z" fill="#FAFAFA"/>
<path d="M1472 230.899L1472 226.941L0 226.941L-1.72998e-07 230.899L1472 230.899Z" fill="#FAFAFA"/>
<path d="M1472 218.148L1472 214.334L0 214.334L-1.66711e-07 218.148L1472 218.148Z" fill="#FAFAFA"/>
<path d="M1472 205.396L1472 201.725L0 201.725L-1.60459e-07 205.396L1472 205.396Z" fill="#FAFAFA"/>
<path d="M1472 192.645L1472 189.118L0 189.118L-1.54184e-07 192.645L1472 192.645Z" fill="#FAFAFA"/>
<path d="M1472 179.893L1472 176.51L0 176.51L-1.47897e-07 179.893L1472 179.893Z" fill="#FAFAFA"/>
<path d="M1472 167.142L1472 163.902L0 163.902L-1.41621e-07 167.142L1472 167.142Z" fill="#FAFAFA"/>
<path d="M1472 154.391L1472 151.294L0 151.294L-1.35334e-07 154.39L1472 154.391Z" fill="#FAFAFA"/>
<path d="M1472 141.639L1472 138.686L0 138.686L-1.29059e-07 141.639L1472 141.639Z" fill="#FAFAFA"/>
<path d="M1472 128.888L1472 126.079L0 126.079L-1.22784e-07 128.888L1472 128.888Z" fill="#FAFAFA"/>
<path d="M1472 116.136L1472 113.471L0 113.471L-1.16496e-07 116.136L1472 116.136Z" fill="#FAFAFA"/>
<path d="M1472 103.384L1472 100.863L0 100.863L-1.10221e-07 103.384L1472 103.384Z" fill="#FAFAFA"/>
<path d="M1472 90.6329L1472 88.2551L0 88.2551L-1.03934e-07 90.6328L1472 90.6329Z" fill="#FAFAFA"/>
<path d="M1472 77.8815L1472 75.6473L0 75.6473L-9.76581e-08 77.8814L1472 77.8815Z" fill="#FAFAFA"/>
<path d="M1472 65.1299L1472 63.0391L0 63.039L-9.13947e-08 65.1299L1472 65.1299Z" fill="#FAFAFA"/>
<path d="M1472 52.3788L1472 50.4315L0 50.4315L-8.51194e-08 52.3788L1472 52.3788Z" fill="#FAFAFA"/>
<path d="M1472 39.627L1472 37.8235L0 37.8234L-7.8832e-08 39.6269L1472 39.627Z" fill="#FAFAFA"/>
<path d="M1472 26.8756L1472 25.2157L0 25.2156L-7.25565e-08 26.8755L1472 26.8756Z" fill="#FAFAFA"/>
<path d="M1472 14.124L1472 12.6079L0 12.6078L-6.62692e-08 14.1239L1472 14.124Z" fill="#FAFAFA"/>
<path d="M1472 1.37262L1472 0.00012207L0 5.77271e-05L-5.99939e-08 1.37256L1472 1.37262Z" fill="#FAFAFA"/>
</g>
</g>
<defs>
<clipPath id="clip0_110_8950">
<rect width="942" height="1472" fill="white" transform="translate(1472 0.00012207) rotate(90)"/>
</clipPath>
</defs>
</svg>
